<svg xmlns="http://www.w3.org/2000/svg" width="50" height="50" viewBox="0 0 50 50" fill="none">
  <path d="M38.4444 12.1808C39.6663 14.3121 41.2582 16.2139 43.1326 17.7996C42.6438 17.8714 42.6338 18.1696 42.5182 18.5846L35.6176 20.9489C35.3469 20.9902 35.3532 20.7183 35.2332 20.5652C34.0319 19.0377 31.8269 18.4183 30.6244 20.3033C30.1176 21.0977 30.0432 21.8264 30.5313 22.6596C30.0982 22.7427 27.1863 23.8927 27.0307 23.7902C26.9482 23.7358 26.9351 23.6627 26.9657 23.5714L35.4488 11.7102C35.6926 11.5696 38.2213 11.9652 38.4451 12.1814L38.4444 12.1808Z" fill="#222222"/>
  <path d="M21.4213 20.9558L23.2182 23.4783L23.0313 23.5102L10.9069 19.4545C10.5232 19.3602 10.4163 18.4752 10.385 18.1095C10.2732 16.8045 10.44 14.9645 10.7957 13.7002C10.9982 12.9808 11.5388 12.2908 11.9019 11.617C12.0232 11.3914 12.5657 10.1377 12.6382 10.0933C12.6775 10.0689 13.3225 10.3545 13.5382 10.1695C15.2369 12.2758 16.73 14.5783 18.3563 16.7539C18.4632 17.0545 18.0838 17.5052 17.9838 17.8539C17.3144 20.1914 19.1488 22.0308 21.4213 20.9558Z" fill="#222222"/>
  <path d="M29.5006 27.3442C29.6431 27.323 29.7744 27.3105 29.9131 27.3611C32.2987 28.3892 35.19 28.9005 37.5331 29.9317C37.9075 30.0967 38.8081 31.7536 38.9987 32.1999C39.4756 33.3173 39.6225 34.4005 39.7106 35.6055L37.6437 39.068C37.4906 39.3142 37.5794 39.6561 37.3381 39.8492C37.1575 39.5761 36.8775 39.6723 36.6544 39.6011C36.2581 39.4748 32.9937 34.3636 32.3487 33.7167C32.0769 32.6236 31.6094 32.0305 30.6894 31.4092L28.3156 28.1017C28.1262 27.7886 29.2625 27.3798 29.5019 27.3436L29.5006 27.3442Z" fill="#222222"/>
  <path d="M24.23 16.7488C22.8937 15.6569 21.1937 15.2575 19.5587 15.9338L14.8075 9.3225C14.7462 9.03063 14.8644 8.78187 14.6619 8.50375C17.8975 8.285 20.96 7.06687 23.7619 5.54688C23.6831 5.83312 24.23 6.16625 24.23 6.20813V16.7481V16.7488Z" fill="#222222"/>
  <path d="M43.6775 20.172C43.31 21.7651 43.1537 23.3208 43.2075 24.9589C43.2375 25.8776 43.3306 26.9889 43.4543 27.9014C43.5412 28.5451 43.6975 29.1833 43.8331 29.8164C43.3418 29.7226 43.1575 29.952 42.7987 30.1914L38.5006 28.732C37.3825 27.7226 36.275 26.8751 34.8625 26.3026C34.5993 26.1958 34.3293 26.1995 34.1112 26.0439C35.095 25.0701 35.8087 23.8733 35.7537 22.4376L42.8812 20.0308L43.6775 20.1714V20.172Z" fill="#222222"/>
  <path d="M15.0275 27.7699C14.7437 27.9992 13.1462 28.4874 12.6806 28.6517C10.8719 29.2905 9.02061 29.873 7.19561 30.4392C7.19811 29.9742 6.76436 29.7549 6.33873 29.8167C6.98248 26.6205 6.97498 23.2761 6.26123 20.0942C6.66998 20.163 6.89811 19.8899 7.21811 19.7192L9.52436 20.5255C10.6931 23.4561 13.0494 25.5649 15.9831 26.6667C15.6081 26.8899 15.305 27.5455 15.0269 27.7699H15.0275Z" fill="#222222"/>
  <path d="M25.8638 35.9623C27.3125 37.0273 29.515 37.5092 31.0388 36.353L31.8138 35.4961L35.2831 40.2736C35.4575 40.6311 35.0638 40.8998 35.2763 41.3292C32.115 41.5367 28.9575 42.608 26.2919 44.2855C26.3875 43.9955 25.8644 43.7405 25.8644 43.7023V35.9623H25.8638Z" fill="#222222"/>
  <path d="M14.3513 29.6618V30.7899C14.3513 31.3105 14.8469 32.2543 15.2475 32.6161C16.0369 33.3299 16.8963 33.5243 17.9294 33.5893L13.5231 39.688C13.3056 39.5099 12.7519 39.7624 12.7163 39.7405C12.6344 39.6899 12.0844 38.4055 11.9538 38.1655C11.0563 36.5249 9.89438 35.003 8.63563 33.6274C8.46438 33.4405 7.36438 32.4361 7.36438 32.3455C7.36438 32.3155 7.6425 31.898 7.71563 31.8536L14.3519 29.6611L14.3513 29.6618Z" fill="#222222"/>
  <path d="M14.7444 41.0136C14.7282 40.9973 14.6744 40.6204 14.7001 40.5548L22.8744 29.2004C22.9525 29.1129 22.9888 28.9923 23.1426 29.0729C23.4107 29.2142 24.1382 30.9304 24.1951 31.2904C24.9288 35.9223 21.545 40.2023 17.0132 40.9186C16.7219 40.9648 14.8307 41.0998 14.7444 41.0129V41.0136Z" fill="#222222"/>
  <path d="M25.8638 14.7261V6.20861C25.8638 6.16924 26.3938 5.87111 26.3688 5.62549C28.7557 7.08986 31.4769 7.90424 34.2363 8.33736C34.4357 8.36861 35.4307 8.39986 35.43 8.54236C35.43 8.55611 35.3019 8.65111 35.2775 8.77861C35.2325 9.01174 35.3657 9.28236 35.3144 9.43299C35.2982 9.48049 34.7738 10.2274 34.7307 10.253C34.5419 10.3661 33.2069 10.2661 32.8344 10.3017C31.6013 10.4199 30.1013 11.0836 29.0588 11.738C27.7813 12.5399 26.8419 13.5955 25.8632 14.7261H25.8638Z" fill="#222222"/>
  <path d="M26.0201 22.194C25.9926 21.9121 25.8838 21.6684 25.8613 21.3802C25.6138 18.2184 26.4113 15.8352 28.8188 13.7534C30.2288 12.534 31.8138 11.9365 33.6419 11.6152L26.0201 22.194Z" fill="#222222"/>
  <path d="M21.8188 24.6062C21.85 24.7931 21.6644 24.8381 21.5369 24.9069C19.8719 25.8119 18.01 25.7287 16.2556 25.1512C14.2313 24.485 12.4425 23.0969 11.4731 21.1831L21.8188 24.6056V24.6062Z" fill="#222222"/>
  <path d="M27.185 28.9619L28.9781 31.5713C28.99 31.6563 28.5225 31.9813 28.3969 32.1557C27.1425 33.8913 29.4844 35.5144 30.6481 33.8638C31.2931 34.7263 29.8381 35.6863 29.0281 35.6994C26.31 35.7425 25.5219 33.3632 25.8831 31.0419C25.9894 30.3607 26.5231 29.2419 27.1856 28.9625L27.185 28.9619Z" fill="#222222"/>
  <path d="M24.23 43.7415C24.2206 43.7552 24.0188 43.7796 23.9194 43.8583C23.7781 43.9696 23.7988 44.1652 23.6588 44.1221C22.1038 43.2283 20.3744 42.5165 18.6294 42.1071C18.6375 41.9921 18.7494 41.9883 18.8225 41.9508C20.6063 41.0302 22.2031 40.5421 23.5319 38.804L24.23 37.8296V43.7415Z" fill="#222222"/>
  <path d="M20.0282 30.7502C19.8713 30.8808 19.8113 30.4277 19.735 30.3065C19.3507 29.6971 18.9138 29.4102 18.1732 29.3977C16.4575 29.3696 16.31 32.1665 18.1625 31.9558C17.3932 32.5871 16.0075 31.7427 15.7875 30.909C15.6757 30.484 15.6469 29.2502 16.0975 29.0352C17.4969 28.3683 19.4357 28.0896 20.885 27.4365C21.0694 27.3133 21.9675 27.8946 21.9675 27.989L20.0288 30.7502H20.0282Z" fill="#222222"/>
  <path d="M20.6131 17.0602H21.78C22.6888 17.0602 24.1281 18.5239 24.2306 19.4327C24.2663 19.7464 24.3069 22.0471 23.9581 22.0371C23.41 21.1764 22.6106 20.3296 22.0988 19.4639C21.9656 19.2383 21.9481 18.9546 21.775 18.6983C21.4725 18.2514 20.7838 17.8664 20.5338 17.2933C20.4725 17.1527 20.5138 17.1508 20.6131 17.0596V17.0602Z" fill="#222222"/>
  <path d="M33.615 24.6559C32.52 25.7484 31.0356 25.7877 29.615 25.4052C29.475 25.3677 28.5494 25.0365 28.5094 24.9934C28.4669 24.9477 28.4938 24.7977 28.6181 24.8315L34.305 22.8965C34.3788 22.9559 34.3969 22.9584 34.3906 23.0565C34.3638 23.4921 33.9281 24.3434 33.615 24.6559Z" fill="#222222"/>
  <path d="M36.3657 41.6426C36.7838 41.4595 37.0919 41.0245 37.4938 40.7876C37.6082 40.7963 38.2588 42.1838 38.4269 42.3407C38.6182 42.5195 39.0794 42.417 39.3388 42.8288C40.0294 43.9245 38.2375 44.8445 37.76 43.6301C37.655 43.362 37.7613 43.1407 37.7232 43.0364C37.6438 42.8157 36.22 41.8464 36.3657 41.642V41.6426Z" fill="#222222"/>
  <path d="M44.2225 19.5495L43.755 18.1495C43.8169 18.0795 45.3456 17.832 45.57 17.6882C45.6488 17.6376 45.7119 17.3845 45.8519 17.2501C46.7881 16.3507 47.9081 17.8295 47.0619 18.5382C46.4788 19.027 46.155 18.5626 45.8531 18.6476C45.645 18.7063 44.3356 19.6545 44.2225 19.5488V19.5495Z" fill="#222222"/>
  <path d="M5.79379 30.5168L6.26129 31.9168C6.19754 31.9787 4.77879 32.1987 4.52816 32.3237C4.33566 32.4193 4.28504 32.7237 4.12379 32.8531C3.09504 33.6774 2.05504 32.053 3.07504 31.4155C3.53504 31.128 3.81316 31.4349 4.18066 31.3605C4.43191 31.3093 5.65316 30.3962 5.79316 30.5174L5.79379 30.5168Z" fill="#222222"/>
  <path d="M4.33624 17.4281C4.45437 17.5581 5.89874 17.8219 6.18374 17.9162L5.71562 19.3162C5.59937 19.4031 4.32812 18.475 4.08374 18.415C3.91437 18.3731 3.68124 18.5806 3.35062 18.535C2.08312 18.36 2.58687 16.2062 3.90437 16.89C4.25749 17.0731 4.20562 17.285 4.33687 17.4287L4.33624 17.4281Z" fill="#222222"/>
  <path d="M37.5931 7.08744C37.6518 6.98556 37.5824 6.66181 37.6706 6.42494C38.0468 5.40869 39.5131 5.83931 39.3968 6.82369C39.3068 7.58994 38.5912 7.47306 38.3062 7.76119C38.0912 7.97806 37.6006 9.21556 37.3512 9.19306C37.2512 9.18431 36.2887 8.37868 36.2887 8.30931C36.6562 7.94993 37.0081 7.57494 37.3756 7.21619C37.4356 7.15744 37.5756 7.11744 37.5931 7.08744Z" fill="#222222"/>
  <path d="M25.7862 44.9858L25.5712 46.8827C25.6569 47.0452 25.8494 47.1308 25.9069 47.3152C26.3887 48.8515 23.8794 48.9546 24.2469 47.3746C24.3 47.1471 24.5644 47.0196 24.5837 46.8183C24.6331 46.3108 24.2644 45.534 24.3081 44.9865H25.7862V44.9858Z" fill="#222222"/>
  <path d="M43.8351 31.9142C43.7544 31.8198 44.2444 30.5448 44.4151 30.5323C44.5532 30.5223 45.6951 31.3598 45.9251 31.4129C46.0469 31.4411 46.3082 31.2873 46.5176 31.2873C48.3651 31.2886 46.8688 34.5242 45.5694 32.3192L43.8357 31.9136L43.8351 31.9142Z" fill="#222222"/>
  <path d="M12.5632 40.8633C12.6757 40.7802 13.7494 41.6752 13.7232 41.8252C13.7032 41.9383 12.6432 42.9115 12.4457 43.0421C12.3525 43.3558 12.4875 43.5283 12.2944 43.824C11.6913 44.7477 10.405 44.084 10.73 43.0371C10.9019 42.4846 11.5144 42.5821 11.7113 42.3852C11.9794 42.1171 12.35 41.2308 12.5632 40.8633Z" fill="#222222"/>
  <path d="M11.6856 7.43508C11.6025 7.38196 11.3619 7.38196 11.2163 7.32071C10.1938 6.88883 10.7388 5.30821 11.8663 5.66071C12.5019 5.85946 12.3013 6.46446 12.4463 6.79133C12.5531 7.03258 13.4081 7.70508 13.6563 7.91571C13.7231 7.97821 13.745 8.05071 13.7213 8.14008C13.6794 8.29696 12.8113 8.83133 12.6781 9.04696C12.5219 9.04383 11.8494 7.54071 11.685 7.43571L11.6856 7.43508Z" fill="#222222"/>
  <path d="M25.7081 5.00331H24.3469C24.29 5.00331 24.2625 4.90831 24.2619 4.84394C24.2588 4.40956 24.5944 3.55831 24.5438 3.17894C24.5094 2.92331 24.1063 2.78144 24.1563 2.25144C24.27 1.04206 26.2925 1.33831 25.8681 2.63519C25.7863 2.88581 25.5581 3.02394 25.545 3.25206L25.7081 5.00331Z" fill="#222222"/>
  <path d="M42.8987 31.9967L40.9556 34.0174C40.8387 32.8674 40.3593 31.7805 39.8662 30.7505C40.5937 31.0505 41.6837 31.2192 42.3556 31.5661C42.6293 31.708 42.6337 31.9186 42.8987 31.9961V31.9967Z" fill="#222222"/>
  <path d="M9.06065 18.8495C8.6569 18.5945 7.92127 18.5314 7.5544 18.2958C7.51627 18.2714 7.04815 17.832 7.0394 17.7977C7.01627 17.7058 7.10565 17.6589 7.15315 17.6027L8.94565 15.8945C8.93815 16.4227 8.8744 16.9589 8.90315 17.492C8.91502 17.7152 9.12315 18.7652 9.06127 18.8502L9.06065 18.8495Z" fill="#222222"/>
  <path d="M33.3325 21.7273C33.1994 21.0973 32.6931 20.8411 32.1262 20.7136C31.7306 20.6248 32.2731 20.4967 32.4369 20.4836C33.2037 20.4223 33.7769 20.7373 34.1869 21.3761L33.3325 21.728V21.7273Z" fill="#222222"/>
  <path d="M37.5319 10.5257C37.3157 10.5238 37.0975 10.5401 36.8807 10.517C36.78 10.5063 36.4057 10.4888 36.445 10.3345C36.5494 9.9201 37.0169 10.1226 37.3325 9.99072C37.4638 10.0245 37.4988 10.3926 37.5319 10.5257Z" fill="#222222"/>
  <path d="M19.3306 19.1602C19.24 18.8589 19.1787 18.5083 19.3681 18.2271C19.7812 18.4758 19.6175 18.8677 19.3306 19.1602Z" fill="#222222"/>
</svg>