<svg xmlns="http://www.w3.org/2000/svg" width="50" height="50" viewBox="0 0 50 50" fill="none">
  <path d="M15.4781 12.6001C15.1931 12.2651 14.7244 12.1151 14.4081 11.8282C13.1481 10.6857 13.0831 9.37823 14.03 7.9901C14.7406 6.94885 16.9856 6.52198 17.8012 7.67073C18.3894 8.49886 18.235 10.382 16.9194 10.152C16.0681 10.0032 16.7812 9.42511 16.6444 8.82761C16.4887 8.14698 14.8225 7.93073 14.71 9.0876C14.605 10.1689 14.8181 10.4639 15.8075 10.8464C17.0831 11.3401 19.5119 11.0782 20.5537 10.1357C21.7769 9.02885 21.3394 7.2651 22.6694 6.13573C23.2362 5.65448 24.0144 5.60448 24.74 5.73635C25.4656 5.86823 27.2175 7.34573 27.6687 7.9501C27.9394 8.3126 27.9175 8.39698 27.8475 8.8476C27.5512 8.76698 27.3237 8.52636 27.0531 8.42636C25.6675 7.91573 24.315 8.96698 23.6512 10.1057C23.4806 10.3989 22.9531 11.5951 22.9287 11.887C22.8987 12.2376 23.3044 12.6301 23.6319 12.5232C23.7112 12.4976 24.0537 11.9851 24.1631 11.8682C25.8437 10.0782 27.8062 9.84886 30.1556 10.2576C30.5344 10.3239 31.6762 10.7801 31.8631 10.2557C32.0312 9.7851 31.9044 8.67136 31.5675 8.28948C30.7594 7.37261 29.7144 8.07323 28.7519 8.15135C28.7419 8.05448 28.7519 7.96385 28.7831 7.87073C29.2606 6.42635 30.9294 5.48198 32.0825 4.6376C32.8281 4.09135 33.5044 3.41323 34.3581 3.02135C35.5594 2.46948 39.7981 1.6626 41.0856 1.75885C41.4587 1.78698 41.8587 1.92635 42.2331 1.96698C41.9987 2.2351 41.4737 2.22885 41.1062 2.33323C39.1412 2.8926 37.8281 4.39386 37.3875 6.39823C37.05 7.93511 37.1875 9.61261 38.7787 10.3195C40.1444 10.9264 41.8987 11.382 43.3312 11.8857C43.4437 11.9251 43.5169 11.8495 43.4831 12.0426C41.7356 11.9864 39.7469 12.2301 38.3181 13.3057C36.8894 14.3814 36.9294 15.2426 37.475 16.8351C37.7925 17.7607 38.2769 18.4507 39.0356 19.0614C37.7644 18.967 36.2306 17.8589 34.9825 18.5182C33.9856 19.0451 34.0325 19.8164 34.3612 20.7826C34.5387 21.3051 34.7519 21.4139 34.97 21.8414C35.2856 22.4607 35.5906 23.5689 35.695 24.2432C35.8031 24.9401 35.7631 25.6645 35.9075 26.3576C35.6994 26.382 35.6956 26.0445 35.5906 25.8757C34.9394 24.8301 32.9469 23.3526 31.665 23.7482C31.3869 23.8339 31.025 24.342 31.0456 24.647C31.0612 24.8826 31.3212 25.287 31.3212 25.5589V27.0532C31.16 27.0914 31.2069 27.0232 31.1619 26.9657C30.7044 26.3751 29.7444 25.1407 28.9869 25.0401C28.5944 24.9882 28.2631 25.4614 28.1569 25.8001C28.08 26.047 28.2312 26.5014 27.7944 26.312C27.5344 26.1989 27.4062 25.4039 27.4281 25.1432C27.4625 24.7357 27.9919 23.737 28.2344 23.377C29.1831 21.9701 30.8325 20.9864 31.5887 19.5039C32.7612 17.2057 32.9294 14.0332 30.1394 12.9114C27.5012 11.8507 24.695 13.782 24.7125 16.5945C24.7237 18.3776 25.8456 19.2495 27.5337 19.4089C29.3537 19.5807 30.5187 17.3782 30.1931 15.777C30.08 15.222 29.3756 14.9507 28.8569 15.0357C28.4237 15.107 27.8706 15.9007 28.0869 16.3557C28.135 16.4395 28.7281 16.207 28.9869 16.6351C29.5406 17.5514 28.495 18.5189 27.4512 18.032C27.1375 17.8857 26.4912 17.067 26.3706 16.7495C26.2837 16.5214 26.2956 16.0801 26.3175 15.832C26.5344 13.3745 30.3931 12.5257 31.1781 14.9307C32.1381 17.8714 29.7137 20.422 27.7769 22.2951C27.41 22.6501 26.9237 22.9182 26.5962 23.3382C25.825 24.3264 25.705 26.2189 26.8 27.0232C28.0212 27.9201 29.1406 27.3426 30.3262 28.0839C32.4262 29.397 30.8869 33.0026 30.0494 34.7139C28.755 37.3589 24.5606 40.562 21.7444 41.3507C20.6744 41.6501 19.6 41.2001 18.4994 41.3026C17.7419 41.3732 16.605 41.8814 16.0081 42.3557C15.5381 42.7295 15.4487 42.9951 15.5606 43.6132C15.6519 44.117 16.145 44.182 16.4475 44.4976C15.1462 44.4582 14.2037 43.1926 14.5906 41.9114C14.7506 41.382 15.7037 40.4751 16.1756 40.1607C17.3212 39.3964 18.7106 39.1076 20.0612 38.9739C19.5494 38.627 18.945 38.2539 18.3712 38.0232C15.2775 36.7814 12.1519 41.4351 13.3087 44.1282C13.6106 44.8307 14.1662 45.557 14.8287 45.9439C15.8844 46.5607 18.1069 46.9576 17.8994 45.0964C17.8375 44.5395 17.5994 44.2107 17.0037 44.2195C17.0544 43.6082 17.5675 43.5895 18.0769 43.6682C18.7837 43.7776 19.2031 45.017 19.1569 45.6432C19.08 46.692 17.9681 47.9414 16.9525 48.1639C14.6994 48.6589 11.4306 46.8657 10.2756 44.9364C10.0362 44.537 9.92562 43.9764 9.66749 43.5989C9.38187 43.1814 9.11937 43.0139 8.88312 42.437C8.42187 41.3107 8.51187 39.5451 9.33062 38.5957C9.57437 38.3126 9.94124 38.1601 10.0544 37.8251H6.64937C6.62562 37.8251 6.49062 37.4514 6.50562 37.3782L6.54624 12.8782C6.59437 12.8295 6.80312 12.5989 6.82312 12.5989H15.475L15.4781 12.6001ZM11.4475 14.0595H9.04999C8.87749 14.0595 8.25062 14.3707 8.25062 14.5807V19.1326L11.4475 14.0595ZM18.3969 14.0595H11.795L15.0969 19.3432L18.3969 14.0595ZM21.9412 19.202V14.6501C21.9412 14.4007 21.3044 14.0595 21.0725 14.0595H18.7444L21.9412 19.202ZM23.47 24.067L23.8969 22.9995C24.1769 22.1526 25.0494 21.3995 24.9337 20.4832C24.9 20.2157 24.7681 20.2664 24.615 20.1076C24.2937 19.7757 23.9775 19.452 23.6662 19.1107C23.6044 19.0426 23.605 18.962 23.4706 18.9939V24.067H23.47ZM14.995 19.6907L11.7256 25.0789L15.0956 30.5976L18.5212 25.0845L15.2331 19.7595C15.1937 19.6864 15.0412 19.6589 14.9944 19.6907H14.995ZM21.9412 30.4601V19.8276L18.62 25.0851L21.9412 30.4607V30.4601ZM8.25062 19.897V30.3214L8.44812 30.2064L11.48 25.3145L11.5225 25.1451L8.25062 19.897ZM23.47 25.387V27.8539C23.47 28.3864 25.5019 30.0451 26.0419 30.2164C26.2862 30.2939 26.5894 30.2789 26.8081 30.3532C27.9044 30.7257 28.6756 32.3076 27.99 33.347L27.4319 34.3514C27.3731 34.1795 27.3769 33.9839 27.3075 33.8151C27.2206 33.6039 26.925 33.3126 26.89 33.1901C26.7431 32.6801 27.0719 32.4207 26.53 31.882C26.0531 31.4076 25.8094 31.6382 25.2475 31.5657C24.5569 31.477 24.0956 30.9007 23.4694 30.6682V35.9501C24.895 36.3032 26.29 34.152 24.7844 33.2801C24.5269 33.1307 24.2237 33.2726 24.3844 32.7995C24.4975 32.467 25.3444 32.6095 25.6187 32.7926C26.7825 33.5714 26.8169 35.0982 25.9687 36.1214C25.6362 36.5226 24.0412 37.8264 23.5731 37.8264H21.4537C21.4119 37.9895 21.4925 37.9426 21.5419 37.9857C23.7725 39.9064 26.4375 38.0139 27.7369 36.0139C28.7275 34.4888 30.1681 31.6176 29.4512 29.7945C29.065 28.8126 28.1187 29.4382 27.4119 29.3314C26.08 29.1307 24.3412 27.7401 24.0375 26.382L23.4687 25.387H23.47ZM18.3275 36.1589L18.2731 35.8307L15.1644 30.877L11.795 36.1589H18.3275ZM21.9412 35.2207V31.0164L18.7444 36.1589H21.1419C21.4725 36.1589 21.8931 35.5101 21.9412 35.2207ZM8.25062 31.0857V35.2901C8.25062 35.5401 8.90562 36.1589 9.11937 36.1589H11.4475L8.25062 31.0857ZM12.7681 38.3139C12.5369 38.3339 12.2662 38.2795 12.0419 38.317C11.6369 38.3845 10.79 39.2751 10.5869 39.642C10.0975 40.5245 10.1094 41.6213 10.6144 42.4826L11.1062 41.0095C11.1275 40.9539 11.2106 40.947 11.2319 40.8982C11.6394 39.9689 12.0281 39.0382 12.7675 38.3139H12.7681Z" fill="black"/>
  <path d="M37.6469 30.252C37.5444 30.8895 37.5956 31.5826 37.4906 32.2145C37.34 33.1245 36.93 34.1295 36.7412 35.0451C35.6531 34.8307 34.5419 35.0907 33.4456 35.1188C32.9012 35.1326 32.3537 35.1032 31.81 35.1157C32.0462 34.2932 32.2731 33.4438 32.5775 32.652C34.2094 31.7395 35.9506 31.0338 37.6475 30.252H37.6469Z" fill="black"/>
  <path d="M35.9787 36.5762C36.0206 36.613 35.5656 37.4212 35.5044 37.5262C34.8081 38.7193 33.8388 39.5243 32.8063 40.3862L29.3075 38.7293C29.2788 38.6243 29.3356 38.6143 29.3756 38.5555C29.5419 38.3149 30.025 37.7849 30.2444 37.548C30.3662 37.4162 30.9981 36.7574 31.0937 36.7293C32.725 36.683 34.3587 36.7905 35.9787 36.5762Z" fill="black"/>
  <path d="M31.1143 41.3719C31.1643 41.4375 29.9681 42.3625 29.8575 42.4425C29.0669 43.0163 28.0525 43.5138 27.1518 43.9069C26.9 44.0169 26.4512 44.2269 26.2119 44.0863L24.4437 42.2388L28.0181 39.915L31.1143 41.3719Z" fill="black"/>
</svg>