<svg xmlns="http://www.w3.org/2000/svg" width="50" height="50" viewBox="0 0 50 50" fill="none">
  <path d="M26.305 2.16377C33.6875 2.59315 41.0394 6.23252 45.2194 12.4319C46.2669 13.985 47.2588 15.8956 47.6306 17.7469C47.6463 17.8238 47.7 18.1381 47.5525 18.1188C46.8088 16.2875 45.6169 14.4469 44.1931 13.0806C44.4563 13.7475 44.8844 14.3513 45.1569 15.0138C48.9944 24.355 47.41 36.2938 38.8469 42.4594C38.4638 42.735 38.0113 42.6738 38.8569 42.98C41.315 43.8713 43.4463 42.8375 45.9588 43.52C47.2444 43.8688 47.4325 44.8569 47.0519 46.0463C46.18 48.7738 42.3788 47.8206 40.37 47.1769C38.5519 46.5938 36.86 45.7544 35.1569 44.9069C33.41 45.6394 31.5175 45.8463 29.6638 46.1675C29.6725 46.0688 29.6188 45.9863 29.7163 45.91C29.9431 45.7313 30.5775 45.5575 30.8669 45.3975C31.5219 45.0338 32.1163 44.5544 32.7825 44.2063C32.8588 44.0919 33.3294 43.9169 33.2744 43.7763C33.2044 43.5963 31.5194 42.4825 31.2156 42.2238C30.1863 41.3475 28.7575 39.6656 28.3444 38.3769C28.155 37.7869 28.0925 37.1819 27.8794 36.5744C27.595 35.7644 27.1269 34.9175 26.725 34.1606C28.4206 33.895 30.1356 33.5038 31.595 32.5644C31.7725 33.5075 31.6463 34.4106 31.3675 35.3175C31.2125 35.8213 30.8869 35.9788 31.0738 36.5725C31.2044 36.9875 32.045 38.1006 32.3544 38.4825C33.3638 39.7294 34.6131 40.795 36.0513 41.5131C40.055 39.4475 42.3513 35.2519 43.5631 31.0525C45.175 25.4663 44.1781 17.6769 40.6625 12.9588C37.8119 9.13252 34.9081 7.61377 30.355 6.3869C21.9638 4.12502 14.0988 8.9344 10.3744 16.3388C8.48564 20.0931 8.21002 27.7131 12.4238 30.0281C13.4481 30.5906 14.0944 30.3069 15.1775 30.3813C19.5581 30.6831 25.4025 33.1181 26.2825 37.9194C26.6713 40.0425 26.7325 41.9688 25.4506 43.7588C22.1563 48.3594 15.8225 46.4456 11.7519 44.0519C9.33751 42.6319 6.17127 39.1475 4.84752 36.68C1.26127 29.9931 1.39376 18.8269 6.15314 12.705C10.1069 7.62002 16.9388 2.67252 23.5338 2.16377C24.3313 2.10252 25.4994 2.1169 26.305 2.16377ZM18.1438 35.4381C14.6338 35.6669 15.5394 41.235 18.9838 40.2325C21.7431 39.4294 20.9981 35.2519 18.1438 35.4381Z" fill="black"/>
  <path d="M29.9162 9.72111C28.9369 9.42987 27.0362 10.2467 26.5819 11.1324C25.7894 12.6774 26.6862 14.4099 27.69 15.6017C28.9531 17.1024 30.9562 17.8524 32.2656 19.3399C34.6006 21.9936 34.615 26.0011 32.2656 28.6567C29.1519 32.1761 23.82 33.1674 20.0512 30.0424C13.4837 24.598 16.1012 13.4574 22.9194 9.40049C24.1481 8.66924 26.3375 7.99737 27.7362 8.33299C28.52 8.52112 29.5619 8.95549 29.9169 9.72049L29.9162 9.72111ZM23.8694 10.8136C23.8106 10.7467 23.4862 11.0099 23.41 11.0674C21.5294 12.4767 19.0725 15.3074 18.6862 17.6805C17.9925 21.9417 19.5456 27.0017 24.205 28.0717C27.3369 28.7911 30.1912 28.1111 31.5537 25.0055C32.3519 23.1874 31.7681 21.8342 30.6231 20.3936C29.7625 19.3111 27.32 17.6055 25.9275 17.608C23.7637 17.6117 24.3937 20.273 25.3381 21.3955C26.3506 22.5986 29.8175 24.3605 30.0675 21.6642C30.0837 21.4917 29.92 21.1917 30.0831 21.1436C30.6375 22.0774 30.7431 22.7999 29.8344 23.5386C27.7787 25.2105 24.045 23.2986 22.725 21.4055C21.6369 19.8455 20.9444 17.6192 22.8669 16.403C23.9712 15.7042 24.7394 15.8411 25.885 16.3549C24.4862 14.8224 23.7744 12.9049 23.8694 10.8136Z" fill="black"/>
  <path d="M38.0438 18.311C41.9969 17.8273 42.6069 23.801 38.8507 24.2404C34.8144 24.7129 34.2232 18.7785 38.0438 18.311Z" fill="black"/>
</svg>