<svg xmlns="http://www.w3.org/2000/svg" width="50" height="50" viewBox="0 0 50 50" fill="none">
  <path d="M25.0725 8.04891C25.2319 8.63329 25.4732 9.25516 25.76 9.78954C26.0713 10.3695 26.5325 10.8477 26.8182 11.4164C26.8225 11.692 26.5819 11.8083 26.4857 12.0339C25.9544 13.2777 25.715 16.0464 26.2182 17.3014C26.3444 17.617 26.8869 18.0327 26.8694 18.2177C26.8375 18.552 25.7132 19.1789 25.6557 19.9764C25.5775 21.0533 27.1657 20.3652 27.6575 20.0883C30.1457 18.6883 30.4719 14.6595 29.0582 12.397C29.1819 12.2808 30.2075 13.3502 30.3269 13.482C33.55 17.0458 31.7113 22.9439 27.3707 24.5839C27.16 24.6633 26.8363 24.6545 26.6694 24.752C26.2894 24.9745 26.4082 26.4902 26.4694 26.9033C26.6182 27.9102 26.9632 29.5008 27.8019 30.1352C27.9882 30.2764 28.2438 30.2145 28.2369 30.5302C27.2832 35.7383 26.1044 40.8958 25.3019 46.1345C25.2532 46.4527 25.2032 46.7777 25.2182 47.1014H24.8244C24.0707 41.5277 22.7625 36.0595 21.7644 30.5302C21.7575 30.2145 22.0132 30.2758 22.1994 30.1352C23.2375 29.3495 23.8738 26.207 23.4913 25.0264C23.3432 24.5689 23.0088 24.7264 22.63 24.5833C18.2644 22.9333 16.445 17.007 19.7094 13.4445C19.8294 13.3133 20.82 12.282 20.9432 12.3964C19.5294 14.6589 19.8557 18.6883 22.3438 20.0877C22.8357 20.3645 24.4232 21.0527 24.3457 19.9758C24.2882 19.1783 23.1638 18.552 23.1319 18.217C23.1144 18.032 23.6569 17.6158 23.7832 17.3008C24.2794 16.062 24.0519 13.2558 23.5157 12.0333C23.4213 11.8189 23.1638 11.6727 23.1888 11.422C23.2057 11.2533 23.9525 10.2077 24.0963 9.93391C24.3688 9.41579 24.5338 8.65204 24.7938 8.24016C24.8575 8.13954 24.9344 8.02579 25.0725 8.04829V8.04891Z" fill="black"/>
  <path d="M48.9819 2.90576L48.3019 3.45576C47.3382 4.07826 46.3319 4.64264 45.3757 5.27764C44.1044 6.12139 42.3101 7.41889 41.6726 8.90576C41.0638 10.3251 42.4376 10.9051 43.5226 11.372C43.9494 11.5558 44.4013 11.6364 44.7801 11.8539C43.7357 12.172 42.4069 12.1795 41.3894 12.5201C41.2032 12.5826 40.7863 12.8195 40.7032 12.9939C40.2282 13.9901 42.4226 14.8833 42.8963 15.512C42.1763 15.5983 41.4669 15.4045 40.7582 15.3683C40.1101 15.3351 38.3351 15.2258 37.8088 15.3883C37.0619 15.6189 36.8119 16.6345 36.4751 17.2426C35.2969 19.367 34.2882 20.8833 32.1338 22.1026C31.7919 22.2964 31.5257 22.6008 31.0863 22.612C31.5607 21.9183 32.1182 21.2945 32.5657 20.5783C33.8588 18.5089 34.6819 15.3851 33.9326 12.992C33.8226 12.6408 33.6069 12.1745 33.3363 11.922C33.2051 11.7995 32.8994 11.742 32.9094 11.5783C33.0313 11.2258 33.1707 10.8776 33.3201 10.5364C34.4457 7.96576 35.3788 6.12639 37.5713 4.28139C37.6526 4.21264 37.6894 4.10576 37.8251 4.13764C37.4176 4.69951 36.9457 5.79076 37.0344 6.48514C37.2769 8.38639 39.3894 6.80201 40.3476 6.40576C40.6307 6.28889 40.9938 6.22639 41.2332 6.13201C43.1213 5.38764 44.9888 4.63889 46.8669 3.78139C47.5607 3.46451 48.2301 3.07576 48.9819 2.90576Z" fill="black"/>
  <path d="M3.16373 3.80364C5.19248 4.72864 7.26623 5.50489 9.25998 6.30489C9.94936 6.58177 10.5994 6.93302 11.2569 7.19239C13.6819 8.14864 13.0575 5.28802 12.1756 4.13677C12.3112 4.10489 12.3481 4.21239 12.4294 4.28052C14.6212 6.12552 15.5544 7.96427 16.6806 10.5355C16.83 10.8768 16.9694 11.2249 17.0912 11.5774C17.1012 11.7411 16.795 11.7986 16.6644 11.9211C16.3937 12.1736 16.1781 12.6399 16.0681 12.9911C15.3181 15.3836 16.1419 18.508 17.435 20.5774C17.8825 21.2936 18.44 21.9174 18.9144 22.6111C18.475 22.5993 18.2087 22.2949 17.8669 22.1018C15.7119 20.8824 14.7037 19.3655 13.5256 17.2418C13.1887 16.6343 12.9387 15.618 12.1919 15.3874C11.6656 15.2249 9.8906 15.3343 9.24248 15.3674C8.53373 15.4036 7.82436 15.5968 7.10436 15.5111C7.57811 14.8824 9.77248 13.9893 9.29748 12.993C9.21435 12.8186 8.79748 12.5818 8.61123 12.5193C7.59373 12.1786 6.26561 12.1711 5.22061 11.853C5.59873 11.6355 6.05123 11.5549 6.47811 11.3711C7.39623 10.9761 8.66561 10.4649 8.46311 9.26177C8.44498 9.15427 8.13373 8.54614 8.06186 8.43177C7.19998 7.06239 5.91811 6.13052 4.62561 5.27677L1.01873 2.97614C1.00436 2.83864 1.16436 2.91739 1.23686 2.93927C1.88811 3.13239 2.54123 3.51989 3.16373 3.80364Z" fill="black"/>
  <path d="M22.2475 25.3661C21.8019 27.0174 21.1494 28.628 21.0875 30.3642C20.9181 30.4005 20.9712 30.343 20.925 30.2711C19.8694 28.6192 19.835 25.6742 17.135 25.9411C16.645 25.9899 15.4131 26.9324 15 27.2842C13.885 28.2336 13.0875 29.5642 11.9587 30.5092C11.935 30.3855 11.9975 30.298 12.04 30.193C12.6438 28.7055 13.7431 27.3292 14.1506 25.7105C14.305 25.0967 14.2881 24.9399 13.88 24.4217C13.6319 24.1067 12.0162 22.6236 11.6969 22.4749C11.4469 22.3586 10.5181 22.0611 10.2556 22.0324C9.46 21.9436 8.6275 22.2349 7.82812 22.1767C7.97437 21.9361 8.35688 21.8911 8.57063 21.7436C8.6675 21.6774 9.11625 21.2924 9.2075 21.2017C9.3225 21.0867 9.85062 20.4467 9.85437 20.3299C9.85938 20.1692 9.52125 19.7892 9.43125 19.5961C8.97937 18.6211 8.675 17.5074 8.48063 16.4536C9.63625 16.9536 10.5656 17.8505 11.6919 18.4224C12.0963 18.628 13.3556 19.0367 13.5931 19.2749C13.7219 19.4036 13.7256 19.8392 13.8556 20.0992C14.4181 21.2236 15.925 22.208 16.9638 22.8599C18.595 23.883 20.3838 24.8711 22.2469 25.3661H22.2475Z" fill="black"/>
  <path d="M41.5193 16.4546C41.3249 17.5083 41.0206 18.6221 40.5687 19.5971C40.4787 19.7908 40.1412 20.1702 40.1456 20.3308C40.1493 20.4477 40.6768 21.0877 40.7924 21.2027C40.8831 21.2933 41.3324 21.6783 41.4293 21.7446C41.6431 21.8915 42.0256 21.9365 42.1718 22.1777C41.3724 22.2358 40.5399 21.9446 39.7443 22.0333C39.4818 22.0627 38.5531 22.3602 38.3031 22.4758C37.9837 22.624 36.3681 24.1077 36.1199 24.4227C35.7118 24.9408 35.6949 25.0977 35.8493 25.7115C36.2568 27.3302 37.3562 28.7065 37.9599 30.194C38.0024 30.299 38.0649 30.3871 38.0412 30.5102C36.9118 29.5652 36.1143 28.2346 34.9999 27.2852C34.5868 26.9333 33.3549 25.9908 32.8649 25.9421C30.1649 25.6746 30.1306 28.6202 29.0749 30.2721C29.0293 30.344 29.0818 30.4015 28.9124 30.3652C28.8506 28.629 28.1981 27.0183 27.7524 25.3671C29.6156 24.8721 31.4049 23.884 33.0356 22.8608C34.0743 22.209 35.5812 21.2246 36.1437 20.1002C36.2737 19.8402 36.2774 19.4052 36.4062 19.2758C36.6431 19.0377 37.9024 18.629 38.3074 18.4233C39.4331 17.8515 40.3624 16.9546 41.5187 16.4546H41.5193Z" fill="black"/>
  <path d="M12.2481 25.7992C12.0037 25.7879 11.7737 25.8498 11.5469 25.931C10.7731 26.2085 9.96124 27.251 9.46562 27.9073C9.22124 28.231 9.05187 28.6192 8.77187 28.9154L8.99187 25.3323C9.00187 24.831 9.00062 24.3742 8.77124 23.916C9.30874 23.8685 10.1331 23.831 10.6325 24.0467C11.1219 24.2585 12.3894 25.176 12.2487 25.7985L12.2481 25.7992Z" fill="black"/>
  <path d="M41.2294 23.9171L41.0219 24.6146C41.0031 26.0496 41.2175 27.4802 41.2294 28.9164C40.9494 28.6208 40.78 28.2321 40.5356 27.9083C40.1769 27.4333 39.4075 26.4671 38.935 26.1758C38.5869 25.9614 38.1706 25.7902 37.7531 25.8002C37.6125 25.1771 38.88 24.2602 39.3694 24.0483C39.8681 23.8321 40.6931 23.8702 41.2306 23.9177L41.2294 23.9171Z" fill="black"/>
  <path d="M17.8269 33.6251C16.8244 33.1057 16.3057 31.9239 15.4007 31.3064C15.1738 31.152 14.9282 30.9714 14.6394 31.0157C15.5569 29.9201 16.4007 28.7432 17.5744 27.9014C17.5788 28.4876 17.3625 29.0826 17.3213 29.677C17.2288 31.0182 17.3169 32.3764 17.8269 33.6251Z" fill="black"/>
  <path d="M35.3612 31.0162C35.0725 30.9719 34.8268 31.1519 34.6 31.3069C33.695 31.9244 33.1762 33.1062 32.1737 33.6256C32.9218 31.8094 32.7606 29.7887 32.3912 27.9019C33.6037 28.7069 34.4306 29.925 35.3612 31.0169V31.0162Z" fill="black"/>
  <path d="M22.8262 14.4252C22.1919 13.7589 21.9006 12.5789 21.28 11.9145C21.11 11.7327 20.265 11.1614 20.2294 11.0408L20.8719 7.83203L21.3187 8.57953C22.0875 10.417 22.6731 12.4352 22.8262 14.4252Z" fill="black"/>
  <path d="M28.7206 11.9145C28.0999 12.5783 27.8074 13.7608 27.1743 14.4252C27.3274 12.4352 27.9131 10.417 28.6818 8.57953L29.1287 7.83203L29.7837 10.9802C29.7574 11.1745 28.9212 11.6995 28.7206 11.9145Z" fill="black"/>
</svg>