<svg xmlns="http://www.w3.org/2000/svg" width="50" height="50" viewBox="0 0 50 50" fill="none">
  <path d="M18.1769 10.54C18.2981 11.5031 18.0119 12.5318 17.6781 13.4425C16.4619 16.7575 13.8706 17.9906 12.1606 20.8906C10.6037 23.5318 9.60623 30.17 12.5794 32.1037C14.2487 33.19 13.6675 31.3112 13.6956 30.4287C13.7575 28.5156 15.1431 26.775 16.8125 25.9425C18.2525 25.225 20.4519 25.6143 21.4556 26.9081C22.4594 28.2018 22.5819 31.61 20.7925 32.4037C19.8525 32.8206 18.4725 32.4512 17.7725 31.7112C16.8619 30.7493 16.8031 28.34 18.4531 28.2231C19.9675 28.1162 20.0456 29.6875 19.0769 29.815C18.6031 29.8775 18.5756 29.2162 18.4181 29.1412C18.0381 28.9606 17.6206 30.2831 18.7731 30.3906C19.265 30.4368 20.5487 30.3593 20.7212 29.77C20.9256 29.07 20.445 27.805 19.805 27.4381C18.155 26.4918 16.0231 27.6706 15.8525 29.5431C15.3944 34.5762 20.69 36.1518 23.58 39.1093L24.0981 39.83C23.855 38.4062 23.2819 36.7768 22.6594 35.4675C22.2731 34.655 21.7281 33.8787 21.2281 33.1331C21.1975 32.9387 21.8056 32.57 21.9375 32.4268C23.1581 31.1043 22.8331 28.7656 22.155 27.2487C21.6937 26.2168 20.9081 25.5125 20.2575 24.6243H29.7812C28.8031 25.7612 27.845 26.7643 27.4662 28.2718C26.985 30.1868 27.0569 31.4456 28.4994 32.8325C28.5969 32.9262 28.7725 32.9187 28.7437 33.0625C28.3412 33.8687 27.7275 34.6181 27.34 35.4287C26.9481 36.2493 26.5187 37.4531 26.2381 38.3287C26.08 38.8225 25.9156 39.3112 25.8606 39.8312C27.1075 38.0231 29.1362 37.0475 30.815 35.7025C32.0162 34.74 33.6581 33.2293 33.9869 31.6718C34.2656 30.3512 34.2425 28.7137 33.2219 27.7068C32.4487 26.945 30.5712 26.9437 29.82 27.7443C29.4075 28.1837 28.9975 29.5012 29.4162 29.9918C29.81 30.4531 31.4662 30.5812 31.8387 30.1243C32.1225 29.7756 31.8544 28.8843 31.5381 29.14C31.4306 29.2268 31.4281 29.8187 30.9562 29.8062C30.0437 29.7825 30.0625 28.5431 30.915 28.2787C33.0231 27.625 33.4906 30.7437 31.9006 31.9856C30.0931 33.3968 28.0262 32.3031 27.7894 30.0981C27.5525 27.8968 28.6256 25.975 30.8981 25.6206C33.4525 25.2218 36.1475 27.7506 36.2675 30.2631C36.2844 30.6106 36.0562 32.3062 36.3969 32.3912C37.6581 32.7043 38.9281 30.2856 39.135 29.2962C39.7169 26.5118 39.1087 22.8743 37.5775 20.4693C36.2094 18.32 34.015 16.9331 32.8887 14.7537C32.2631 13.5431 31.6412 11.8981 31.8619 10.5387H33.2225C33.4694 11.5881 34.0687 12.5543 34.7112 13.4118C37.51 17.1468 41.4106 20.125 43.3437 24.5475C45.4487 29.3637 44.7812 33.935 40.0494 36.6943C37.8519 37.9756 34.6675 38.7287 32.1831 39.4718C30.6506 39.9306 28.2106 40.1656 27.2837 41.6156C26.97 42.1062 26.7875 42.7312 26.5794 43.2712C26.915 43.1818 27.135 42.7881 27.4725 42.6843C28.5806 42.3443 29.3462 43.5518 29.0637 44.5162C28.7144 45.7081 26.2269 47.335 25.2956 48.19C25.0706 48.2875 24.8437 48.2493 24.6294 48.1425C24.0637 47.8606 22.0462 46.0406 21.5762 45.5137C20.9244 44.7831 20.5581 44.0175 21.1825 43.1168C21.7956 42.2318 22.7444 42.665 23.3775 43.2718C23.5125 43.0962 22.6869 41.5475 22.4962 41.3131C21.585 40.1943 18.9069 39.8025 17.5362 39.39C12.2381 37.7956 5.80311 36.5125 5.52811 29.7093C5.25436 22.9493 11.4619 18.3656 15.1687 13.5731C15.8444 12.6993 16.5375 11.6318 16.7356 10.5381H18.1762L18.1769 10.54Z" fill="black"/>
  <path d="M22.9787 8.69953V5.21828C22.9787 5.0439 23.7794 5.0439 23.7794 5.21828V8.69953H26.1406C26.1494 8.69953 26.2606 8.58828 26.2606 8.57953V5.29828C26.2606 5.28015 26.17 5.24203 26.2144 5.17703C26.3206 5.02203 26.9812 5.0764 26.9812 5.21828V8.57953C26.9812 8.58828 27.0925 8.69953 27.1012 8.69953H28.7419V5.21828C28.7419 5.0439 29.5425 5.0439 29.5425 5.21828V8.69953H33.3437C33.4362 8.69953 33.6775 8.09953 34.2606 8.58328C34.6675 8.92078 34.6319 9.84453 34.0456 9.9664C33.66 10.0464 33.5819 9.7764 33.2675 9.7364C32.1381 9.59203 30.7056 9.8514 29.5425 9.74015V23.9858H28.7419V9.74015H27.1012C27.0925 9.74015 26.9812 9.8514 26.9812 9.86015V23.8658C26.9812 23.8839 27.1331 23.9727 27.0212 23.9864L26.1812 23.9852C26.1419 23.9564 26.2612 23.8833 26.2612 23.8658V9.86015C26.2612 9.8514 26.15 9.74015 26.1412 9.74015H23.78V23.9858H22.9794V9.74015H21.3387C21.1606 9.74015 21.2987 9.92703 21.2987 9.94015V23.8658C21.2987 24.042 20.4181 24.042 20.4181 23.8658V9.74015C19.28 9.8489 17.8781 9.59515 16.7731 9.7364C16.3487 9.79078 16.2931 10.2139 15.7369 9.81953C15.1806 9.42515 15.4912 8.45265 16.1569 8.39453C16.4662 8.36765 16.6637 8.69953 16.6969 8.69953H20.4181V5.21828C20.4181 5.06703 21.1069 5.0514 21.2237 5.13328C21.3462 5.21828 21.3112 7.0664 21.3019 7.38265C21.2962 7.57078 21.07 8.70015 21.3387 8.70015H22.9794L22.9787 8.69953Z" fill="black"/>
  <path d="M18.4969 8.29921H16.8963C16.8663 8.21297 16.9763 8.12359 16.9763 8.09922V6.49859C16.9763 6.38234 16.7744 5.71922 16.7169 5.55797C16.4994 4.94609 15.9625 3.98047 15.2581 3.89609C13.2725 3.65734 13.4931 7.54672 15.535 5.57859C15.7169 6.88672 14.7638 7.19047 13.6719 6.92234C13.0288 6.76484 12.2525 5.51609 12.1838 4.88984C12.0538 3.70609 13.1125 2.06672 14.3031 1.82547C15.0856 1.66672 16.1531 1.81797 16.8419 2.23172C18.5388 3.25109 18.7163 6.53609 18.4969 8.29984V8.29921Z" fill="black"/>
  <path d="M31.5419 8.29945C31.255 6.14945 31.4619 2.31695 34.1631 1.83695C35.2463 1.64445 36.1506 1.73383 36.9013 2.57945C37.5519 3.31195 37.9625 4.17383 37.7488 5.18258C37.6531 5.63508 36.8988 6.68258 36.47 6.86508C36.1388 7.0057 35.3206 7.03258 34.9819 6.90008C34.475 6.70195 34.3794 6.05883 34.4238 5.5782C34.8631 5.96445 35.8513 6.55945 36.0688 5.6632C36.3269 4.5982 35.3888 3.40633 34.3163 4.0707C33.1044 4.82195 32.8413 7.01633 33.0625 8.29883H31.5419V8.29945Z" fill="black"/>
  <path d="M24.7175 1.83542C26.3362 1.53792 26.895 3.63105 25.5931 4.23105C23.7819 5.06605 23.0075 2.14917 24.7175 1.83542Z" fill="black"/>
  <path d="M21.4344 2.23359C21.9706 2.10922 22.525 2.31672 22.6844 2.87047C23.0637 4.19234 21.0969 4.66735 20.7906 3.40047C20.6794 2.93984 20.9594 2.34359 21.4344 2.23359Z" fill="black"/>
  <path d="M28.9538 3.86986C28.125 4.69861 26.7457 3.59549 27.46 2.57611C28.2357 1.47049 29.9557 2.86799 28.9538 3.86986Z" fill="black"/>
</svg>