<svg xmlns="http://www.w3.org/2000/svg" width="50" height="50" viewBox="0 0 50 50" fill="none">
  <path d="M48.5675 25.3665C48.5556 25.4765 48.3831 25.719 48.4744 25.9284C48.3413 26.0752 45.1194 25.724 44.5188 26.0415C44.4331 26.0865 44.3613 26.1177 44.3125 26.2096C44.1288 26.5565 43.9694 28.3446 43.8444 28.9221C43.1819 31.9665 42.0356 33.9377 40.3944 36.5109C40.1006 36.9715 39.5475 37.2727 39.9094 37.814C39.9894 37.9334 41.2231 39.0577 41.4138 39.209C41.5331 39.3034 41.7763 39.5352 41.9263 39.4534C42.0519 39.3846 43.2025 37.6927 43.3675 37.4265C44.5969 35.4415 46.0213 32.6296 46.4831 30.3452C46.5338 30.0952 46.78 28.6271 46.6969 28.5465C46.5275 28.614 46.0144 28.4565 45.9425 28.4971C45.7831 28.5877 45.0494 31.499 44.8963 31.939C44.1544 34.0721 42.9244 35.9959 41.7256 37.8884C41.5644 37.9984 40.8244 37.3509 40.8194 37.2952C40.8106 37.189 41.6219 36.2202 41.7556 36.0021C43.0363 33.9196 44.0638 31.6646 44.6856 29.2965C44.7725 28.9646 45.03 27.3009 45.1938 27.1852C46.2213 27.0721 47.2688 26.9796 48.2756 27.1546C47.8856 36.0746 41.6213 44.059 33.3675 47.1652C31.9663 47.6927 30.0706 48.3127 28.5944 48.4727C28.3644 48.4977 27.3513 48.589 27.2375 48.5215C27.1081 48.4446 27.0663 48.199 27.05 48.054C26.9388 47.0852 27.1313 45.9146 27.0569 44.9234C30.9075 44.5177 34.4363 43.0784 37.4838 40.7259C37.625 40.899 38.2669 41.3309 38.1444 41.5527C38.115 41.6052 37.5269 42.0502 37.4113 42.134C35.4281 43.5709 32.7088 44.7252 30.3469 45.3596C30.0681 45.4346 28.52 45.6921 28.4681 45.7727C28.385 45.9021 28.5019 46.5715 28.4563 46.789C32.5813 46.2509 36.6088 44.3277 39.765 41.6777C39.7994 41.469 38.3044 39.7752 38.0206 39.7015C37.8513 39.6571 37.6894 39.659 37.5256 39.7227C35.3306 41.1984 33.2144 42.7702 30.6275 43.489C29.2719 43.8659 27.9488 43.8977 26.6506 44.189C26.4838 44.2265 26.345 44.3896 26.1775 44.4421L26.0319 48.5984C25.8425 48.8502 23.8713 48.8346 23.8713 48.5202V44.5915C23.8713 44.5409 23.43 44.2171 23.3344 44.1927C22.63 44.0134 21.5525 44.0009 20.7794 43.8477C17.4363 43.1865 15.0638 41.544 12.2944 39.6977C12.0944 39.639 11.9438 39.694 11.7681 39.7859C11.475 39.9402 10.4175 41.179 10.2113 41.5027C10.16 41.5834 10.0481 41.629 10.1625 41.7402C12.0831 43.2571 14.3625 44.6421 16.6444 45.5496C17.9488 46.0684 20.0056 46.7009 21.3925 46.7902C21.5888 46.8027 21.5119 46.789 21.5319 46.6521C21.5619 46.4515 21.5669 45.9452 21.4475 45.7977C20.7819 45.5727 20.0369 45.4802 19.3406 45.2852C17.0444 44.6409 14.4975 43.544 12.5594 42.1502C11.785 41.5934 11.5056 41.4502 12.4094 40.7315C15.4981 43.0402 18.9719 44.5084 22.8369 44.9221C22.7806 45.2584 22.9131 45.5815 22.9263 45.8902C22.9344 46.0815 22.9213 46.5196 22.9169 46.7427C22.9119 46.9865 22.8425 48.2834 22.795 48.3796C22.7681 48.4346 22.7088 48.4946 22.6544 48.5215C22.4644 48.6152 20.9213 48.4071 20.5794 48.3496C11.3825 46.8009 3.40251 38.784 1.91251 29.5971C1.81501 28.9959 1.63564 28.0277 1.61001 27.4565C1.58439 26.8759 2.31689 27.1202 2.60439 27.109C2.97626 27.094 4.53501 27.0234 4.74251 27.2352C4.88939 27.3852 5.48689 30.1827 5.65564 30.719C6.37626 33.0102 7.72376 35.399 9.18189 37.294C8.99314 37.3815 8.42939 37.9534 8.24876 37.8615C7.87939 37.674 6.00501 34.224 5.73564 33.6321C4.98626 31.984 4.56376 30.2209 4.04251 28.4915L3.19626 28.5477C3.54501 32.5996 5.72126 36.2221 7.97814 39.4846C8.07001 39.5484 8.29876 39.3696 8.38814 39.304C8.64439 39.1159 9.90814 37.9771 10.0306 37.7671C10.165 37.5365 10.1469 37.4177 10.0481 37.1777C8.10314 34.5827 6.72751 31.9277 6.04939 28.7352C5.95189 28.2765 5.72001 26.2365 5.53064 26.0734C5.50001 26.0471 5.22876 25.9284 5.20814 25.9284H1.41876V24.0571H5.30126C5.32376 24.0571 5.49626 23.9477 5.53064 23.9121C5.71564 23.7209 6.02439 21.4002 6.14189 20.8752C6.63814 18.6552 7.38626 16.984 8.54814 15.0496C9.02126 14.2627 9.54439 13.4959 10.0994 12.764C10.1475 12.5959 10.1438 12.4321 10.07 12.2715C10.0094 12.1402 8.29314 10.5865 8.15251 10.5352C8.05689 10.5002 8.07626 10.5396 8.01376 10.579C7.76751 10.7365 6.52689 12.6121 6.30126 12.9902C5.70001 13.9965 4.95564 15.4352 4.48876 16.5096C3.81064 18.0709 3.35376 19.7365 3.19564 21.4377L4.04376 21.4927C4.68939 18.9884 5.45189 16.7021 6.73501 14.4527C6.90814 14.149 8.11189 12.1977 8.24564 12.1234C8.38626 12.0452 9.07001 12.6321 9.08251 12.7027C9.10439 12.8271 8.27251 13.8502 8.13626 14.0765C6.90314 16.1209 5.91501 18.2702 5.28189 20.5771C5.15876 21.0252 4.96751 22.724 4.59939 22.8934C4.42376 22.829 4.17939 22.9352 4.08501 22.9352H1.84001C1.80126 22.9352 1.59501 22.714 1.61439 22.6146C2.16064 14.9771 6.84251 7.94836 13.485 4.27024C15.6156 3.09024 19.1581 1.70961 21.5794 1.51336C21.9138 1.48649 22.7275 1.34899 22.8225 1.67274C22.805 2.14211 23.0238 4.93461 22.7544 5.12086C18.9188 5.48461 15.4875 7.00086 12.4238 9.27086C11.4694 8.51211 11.7688 8.43649 12.5769 7.85274C14.5225 6.44649 17.0488 5.35586 19.36 4.72024C19.6994 4.62711 21.3556 4.33836 21.4438 4.27836C21.6256 4.15461 21.4931 3.43836 21.5313 3.19711C18.7644 3.52774 16.3169 4.48961 13.8913 5.80024C12.5456 6.52711 11.2294 7.32211 10.1231 8.38899C10.7275 8.96336 11.4269 10.5115 12.3906 10.2871C14.8144 8.60899 17.1088 7.01399 20.0331 6.32961C21.0444 6.09274 22.4388 6.06524 23.3325 5.79336C23.4669 5.75211 23.87 5.48524 23.87 5.39524V1.46461C23.87 1.23586 25.8456 1.05336 26.0738 1.51149C26.0206 2.29836 25.9813 3.11024 26.0175 3.90086C26.0288 4.14774 26.1231 5.46086 26.1625 5.53274C26.2038 5.60899 26.3625 5.66211 26.4356 5.72774C28.41 6.07086 30.4238 6.29586 32.2875 7.07899C34.13 7.85274 35.8188 9.23399 37.525 10.2615C38.0925 10.7765 39.7394 8.58836 39.76 8.37149C39.7675 8.29649 39.7444 8.24461 39.6875 8.19711C36.4275 5.66086 32.5913 3.75149 28.4538 3.19649C28.4931 3.44336 28.3556 4.14461 28.5425 4.27586C28.6531 4.35336 30.0206 4.56399 30.3244 4.64524C33.1425 5.40211 35.8194 6.66524 38.1381 8.43274C38.2631 8.62336 37.6588 9.06711 37.5644 9.27024C35.9094 8.23024 34.2144 7.03274 32.38 6.33211C30.7044 5.69211 28.9138 5.35586 27.1369 5.12024C27.0419 5.05524 27.0575 4.93774 27.045 4.83774C26.9656 4.18961 26.9894 2.69586 27.0456 2.02274C27.0681 1.75461 27.055 1.48461 27.3719 1.46524C28.8588 1.37461 31.0994 2.04899 32.5256 2.53774C40.9075 5.41211 47.7225 13.2815 48.2831 22.329C48.2963 22.544 48.3556 22.9346 48.0513 22.9346H45.8063C45.7613 22.9346 45.34 22.8802 45.3175 22.8696C44.94 22.6996 44.8081 21.1371 44.6869 20.6859C44.0688 18.3827 43.0638 16.139 41.8119 14.1127C41.5206 13.6421 41.15 13.209 40.8056 12.7765C40.7788 12.6621 41.545 12.1002 41.5975 12.1002C41.7944 12.1015 43.0931 14.2646 43.2825 14.6065C44.4969 16.799 45.2913 19.0865 45.8556 21.529L46.6938 21.4365C46.4025 17.4209 44.2081 13.6652 41.8738 10.4921L39.9575 12.1277C39.8475 12.2546 39.7544 12.4184 39.7713 12.5915C39.7863 12.7465 41.2425 14.8134 41.4719 15.2002C42.72 17.309 43.44 19.1121 43.9381 21.5277C44.0244 21.9465 44.1888 23.6909 44.3081 23.8709C44.5594 24.2484 47.8513 23.969 48.4725 24.0565C48.3763 24.2934 48.5544 24.584 48.5656 24.7121C48.5819 24.899 48.585 25.1827 48.5656 25.3671L48.5675 25.3665ZM23.7581 7.15211C10.8019 8.06586 3.12064 22.1584 9.32189 33.6009C15.6213 45.224 32.2 46.0352 39.6631 35.1252C48.05 22.8646 38.5494 6.10961 23.7581 7.15211Z" fill="#222222"/>
  <path d="M24.8181 26.5949C25.0475 26.4587 25.3544 26.9499 25.5831 27.0687C26.3938 27.4905 28.1444 26.9818 28.5881 26.2012C29.0519 25.3855 28.6206 23.8824 28.6838 23.7768C29.0513 23.1655 30.0788 23.6137 30.5406 23.4755C30.7063 23.4262 30.9888 23.0362 31.1756 22.8955C31.9863 22.2874 32.8481 22.2668 33.5538 23.0268C33.8131 23.3062 34.1206 23.6062 33.8269 23.9574C33.3363 24.5449 32.4244 25.1387 31.9156 25.7874C30.8175 27.1874 29.6356 29.3643 27.8494 29.953C25.5519 30.7105 22.135 30.6643 20.3613 28.8287C19.44 27.8749 18.5556 26.6643 17.8388 25.5512L15.9613 23.773C15.8288 23.463 16.72 22.6274 17.0575 22.5293C17.8469 22.2993 18.4631 22.6368 19.0525 23.1212C19.17 23.218 19.2031 23.4299 19.3481 23.4799C19.8763 23.663 20.5613 23.1574 21.1163 23.6774C21.3581 23.9043 21.1569 24.0974 21.1531 24.3799C21.1325 25.8768 21.0725 26.5787 22.675 27.0762C23.3844 27.2962 24.0606 27.3568 24.6688 26.8624C24.7613 26.7874 24.795 26.608 24.8175 26.5949H24.8181Z" fill="#222222"/>
  <path d="M27.7394 19.5057C27.1069 20.1457 26.9688 21.2819 27.0475 22.1419C27.1675 23.4569 29.0531 24.7732 27.8906 26.1582C27.4725 26.6563 26.6513 26.8676 26.0438 26.6132C25.9875 26.5894 25.5894 26.1019 25.5725 26.0482C25.3838 25.4394 25.9056 24.6438 26.5831 24.7101C26.065 23.7907 25.2106 25.0888 24.9463 25.0882C24.6175 25.0882 24.3538 24.1376 23.5188 24.5001C23.1131 24.6763 23.6194 24.7176 23.7469 24.7863C24.1181 24.9863 24.295 25.1438 24.3413 25.5982C24.4975 27.1257 22.2688 27.0226 21.7675 25.7394C21.2244 24.3501 22.9144 23.2001 22.9388 21.8532C22.945 21.5076 22.7931 20.5794 22.6744 20.2488C22.4394 19.5926 21.6775 19.0907 21.0975 18.7388C20.5331 18.3963 20.0663 18.6076 20.7863 17.7451C21.5488 16.8313 22.2825 17.3038 23.0213 16.8932C23.6613 16.5376 24.0119 15.3694 24.7675 15.2676C25.9131 15.1126 26.0544 16.3176 26.7775 16.8007C27.3306 17.1707 28.0113 16.9857 28.6144 17.3026C28.8475 17.4251 29.49 18.0538 29.4844 18.3076C29.4788 18.5688 29.0719 18.5976 28.8731 18.7219C28.5675 18.9132 27.9713 19.2719 27.74 19.5063L27.7394 19.5057Z" fill="#222222"/>
  <path d="M29.4019 12.3508C31.7681 12.1996 33.5025 14.7371 32.0494 16.7583C30.8 15.9114 29.5562 14.9789 28.0812 14.5596C26.3269 14.0614 24.145 14.0021 22.3737 14.4677C20.7187 14.9027 19.2431 15.6733 17.92 16.7508C17.7387 16.8002 17.8137 16.7158 17.7694 16.6396C16.5081 14.4739 18.205 12.3564 20.5062 12.3196C20.7087 11.2852 21.6869 9.89518 22.8631 10.0408C23.0206 10.0602 23.1756 10.1971 23.355 10.1989C23.6381 10.2014 24.1881 9.85955 24.3881 9.6533C24.6337 9.39955 24.7819 8.71705 25.0912 8.94393C25.1375 8.97768 25.5594 9.7183 25.7412 9.88393C26.4037 10.4877 26.83 10.0264 27.5437 10.1402C28.5631 10.3027 29.2512 11.4033 29.4025 12.3508H29.4019Z" fill="#222222"/>
  <path d="M16.57 17.887C16.6937 18.0651 15.8937 18.937 15.7494 19.1632C14.2381 21.5345 13.8437 23.5276 14.0431 26.3526C14.1869 28.3882 15.375 30.5382 16.5694 32.1382C14.5419 33.6488 12.0712 31.8395 12.1675 29.4907C11.0744 29.397 9.83373 28.3651 9.93435 27.2013C9.94935 27.0288 10.0781 26.8651 10.0894 26.7101C10.1206 26.2638 9.68623 25.7832 9.37248 25.5038C9.17873 25.3313 8.72373 25.2457 8.81435 24.9532C8.87623 24.7545 10.0462 24.3932 10.0325 23.4482C10.0219 22.7032 9.77185 22.5726 10.2287 21.7807C10.6937 20.9732 12.0606 20.7113 12.1337 20.5988C12.23 20.4501 12.1475 20.1232 12.1981 19.9151C12.7025 17.8432 14.6425 16.7782 16.5694 17.8863L16.57 17.887Z" fill="#222222"/>
  <path d="M37.635 29.4951C37.585 31.9501 35.5019 33.4164 33.2262 32.2876C33.1162 32.132 34.2506 30.6495 34.4237 30.3533C36.325 27.0983 36.2269 22.9483 34.3644 19.6908C34.1787 19.3658 33.2487 18.1714 33.2225 18.0226C33.1906 17.8408 33.2712 17.9033 33.345 17.8595C34.805 16.982 36.6944 17.5789 37.3194 19.1683C37.46 19.5258 37.56 20.4414 37.6706 20.5945C37.7644 20.7239 38.3375 20.8064 38.5644 20.917C39.2506 21.2514 39.9481 22.1664 39.8512 22.9558C39.8319 23.112 39.7012 23.2601 39.6962 23.4458C39.6775 24.1064 40.4875 24.7239 40.9906 25.0401C41.0206 25.1689 40.9181 25.1989 40.8369 25.2583C40.4487 25.542 40.0512 25.7301 39.8325 26.2176C39.5425 26.8639 39.9 26.9676 39.8656 27.4601C39.7944 28.492 38.6106 29.3758 37.6362 29.4951H37.635Z" fill="#222222"/>
  <path d="M32.195 33.2245C33.4663 35.3345 31.9063 37.7483 29.4963 37.6339C29.3156 38.5402 28.6563 39.7108 27.6531 39.8595C27.1288 39.937 26.7119 39.6802 26.2338 39.8445C25.7738 40.0033 25.3556 40.5833 25.1306 40.987C24.8469 41.0733 24.7163 40.5827 24.5275 40.3777C23.5381 39.3033 23.0019 40.1783 21.8838 39.6533C20.9075 39.1952 20.6825 37.7695 20.5044 37.6652C20.3363 37.5664 20.0356 37.6495 19.8225 37.5983C17.7513 37.102 16.7094 35.0789 17.9319 33.2227C21.5369 36.1739 26.495 36.812 30.5406 34.327C30.7694 34.1864 32.0969 33.1514 32.195 33.2233V33.2245Z" fill="#222222"/>
  <path d="M33.1312 27.1437C33.065 27.4068 32.8875 27.6005 32.78 27.8674C32.3093 29.0318 32.5831 29.8468 32.3106 30.7655C32.2243 31.0555 31.4862 32.2055 31.26 32.4274C30.9475 32.7337 29.5706 33.5862 29.1556 33.6043C28.045 33.6537 26.3643 32.9062 25.7581 31.9449C25.1306 30.9505 26.4662 31.3355 27.2406 31.1205C28.0937 30.8843 29.4887 29.7818 30.14 29.1555C31.0643 28.2668 31.5756 27.0612 33.1318 27.1437H33.1312Z" fill="#222222"/>
  <path d="M24.3388 31.2602C24.3531 31.5152 24.2919 31.7477 24.1519 31.9621C23.4163 33.0908 21.2769 33.9752 20.0444 33.3552C19.0669 32.8633 18.3231 32.1483 17.835 31.1683C17.2538 30.0014 17.6969 28.9608 17.0613 27.6389C16.9694 27.4483 16.7469 27.3671 16.7619 27.1446C18.3806 27.0621 19.0713 28.4821 20.1281 29.4371C21.3288 30.5227 22.6131 31.4883 24.3394 31.2602H24.3388Z" fill="#222222"/>
  <path d="M18.42 18.653C19.1231 18.5349 19.6306 18.7836 20.1731 19.1936C20.3381 19.318 20.6656 19.753 20.7787 19.7949C20.8756 19.8311 21.0656 19.7399 21.2531 19.7892C21.505 19.8549 21.8694 20.0261 22.0506 20.2167C22.5175 20.7067 22.6062 21.9905 21.9594 22.3792C21.6744 22.5505 21.1369 22.4392 20.7612 22.4905C19.8662 22.6117 19.745 23.213 18.9106 22.328C18.3269 21.7086 18.3037 20.8349 17.5062 20.2711C17.365 20.1717 16.9794 20.1092 16.9512 19.9811C17.1044 19.313 17.7569 18.7642 18.4206 18.653H18.42Z" fill="#222222"/>
  <path d="M32.94 20.1227C32.6362 20.1439 32.3631 20.2902 32.1462 20.4983C31.4937 21.1246 31.4987 22.0377 30.7037 22.6102C30.1325 23.0215 29.7131 22.5646 29.0506 22.4783C28.7493 22.4389 28.2818 22.5315 28.0487 22.4515C27.9687 22.424 27.5906 21.9146 27.5606 21.8177C27.3406 21.1121 27.65 20.1733 28.3618 19.8965C28.6356 19.7896 29.0075 19.8365 29.1131 19.7933C29.45 19.6546 29.9393 18.8752 30.6231 18.6958C31.5825 18.444 32.9331 19.0352 32.94 20.124V20.1227Z" fill="#222222"/>
</svg>