<svg xmlns="http://www.w3.org/2000/svg" width="50" height="50" viewBox="0 0 50 50" fill="none">
  <path d="M18.1406 36.6127C18.0631 36.2396 17.0056 34.4246 16.6944 34.1902C16.1344 33.7684 14.6088 33.1946 13.9256 33.1659C13.635 33.154 13.2675 33.3177 12.9175 33.1509C12.7556 31.6371 11.8594 30.269 10.9644 29.074C10.515 28.4734 10.0231 27.9521 9.49314 27.4352C8.81189 26.7709 7.69627 26.0371 7.14002 25.389C7.08064 25.3196 6.77064 24.9584 6.83877 24.8946C7.97439 25.2877 9.39252 25.5027 10.5181 25.0471C10.6 22.5784 10.8331 20.1809 11.6563 17.8421C12.745 14.7484 15.6875 11.5771 18.5263 9.99774C18.6225 9.94398 18.6938 9.85086 18.8219 9.87648C18.4813 11.0334 17.3981 11.7177 16.7431 12.689C15.6513 14.3071 14.1331 19.0159 14.4281 20.9077C14.4431 21.0021 14.9838 22.1146 15.0425 22.1509C15.5519 22.4696 16.4863 21.484 16.7319 21.0971L17.6844 19.4334C17.8206 20.2777 17.6219 21.119 17.6819 21.9771C17.7538 23.0002 18.215 23.949 18.6663 24.8484C18.6319 24.999 17.4006 25.3877 17.1525 25.689C16.2319 26.809 16.1763 28.234 16.9838 29.4252C17.2069 29.7552 17.8969 30.5352 18.3194 30.4877C19.1406 30.3952 20.1231 27.9159 20.4538 27.2452C20.6456 27.7934 21.2875 29.0577 21.9631 28.989C22.1144 28.974 22.45 28.7377 22.5025 28.6084C22.6806 28.1734 21.5013 26.9171 21.4794 26.289C21.4719 26.0659 22.055 24.909 22.1619 24.5546C22.3944 23.7796 22.3431 23.3515 22.3875 22.5809C22.6038 18.8559 22.3263 14.9759 20.6444 11.5896C21.2875 9.33711 22.445 7.27836 23.3856 5.14836C23.8356 4.12961 24.195 3.01273 24.6488 2.01211C24.7419 1.80586 24.8506 1.51211 25.0406 1.38086C25.5481 2.69148 26.0544 4.01336 26.6206 5.30023C27.3813 7.02711 28.3363 8.74836 28.9675 10.5384C29.0569 10.7921 29.2788 11.3577 29.2844 11.5915C29.2881 11.7515 28.6619 13.0334 28.5494 13.3459C27.5919 16.004 27.015 21.7321 27.7519 24.4202C27.86 24.8146 28.4594 26.0677 28.4519 26.289C28.4456 26.4796 28.0663 27.2465 27.9531 27.464C27.8019 27.7546 27.2775 28.2359 27.4288 28.6084C27.47 28.7096 27.7819 28.9509 27.9031 28.9765C28.635 29.129 29.2913 27.8034 29.4781 27.2452C29.7925 27.6034 29.8331 28.0946 30.0338 28.5096C30.2525 28.9615 31.1156 30.4334 31.6125 30.4877C31.7756 30.5059 32.1963 30.2865 32.3263 30.1684C33.6869 28.9359 33.9488 27.1584 32.7775 25.6896C32.4344 25.2596 31.6888 25.2109 31.2613 24.8502C31.6481 24.0877 32.1513 23.1284 32.2375 22.2671C32.3325 21.3177 32.1263 20.3677 32.2475 19.4321L33.2775 21.1702C33.5225 21.5334 34.4175 22.4459 34.89 22.1502C34.9463 22.1152 35.4738 21.0571 35.4919 20.9702C35.8644 19.1502 34.2344 14.144 33.1444 12.5815C32.505 11.664 31.4344 11.0021 31.11 9.87586C31.1569 9.82648 31.4438 10.0002 31.5125 10.0415C34.3994 11.764 37.2175 14.7234 38.3175 17.9509C39.1456 20.3802 39.1675 22.1302 39.3781 24.6265C39.4281 25.2177 39.5819 25.2202 40.1744 25.2715C41.2206 25.3621 42.18 25.2084 43.1694 24.8946C42.7619 25.6184 42.0119 25.9871 41.4238 26.5234C39.8825 27.929 37.93 29.9896 37.275 32.0077C37.2088 32.2127 37.055 33.109 37.0113 33.1471C36.8113 33.3215 36.2144 33.1571 36.0069 33.1659C35.7994 33.1746 34.9075 33.4052 34.6569 33.4852C34.3338 33.5877 33.5 33.9909 33.2375 34.1896C32.9944 34.3734 31.7925 36.4177 31.7925 36.6127V37.8265C31.7925 37.8459 31.6756 37.9696 31.6169 37.929C30.9763 37.7034 30.2325 37.3221 29.5913 37.1459C28.36 36.8077 27.1888 37.3427 26.5275 38.4015C25.9294 39.3596 26.025 41.629 26.6775 42.5621C26.9044 42.8865 27.2344 43.0409 27.5219 43.2859C26.9994 44.8627 26.5413 46.6952 25.575 48.0677C25.4194 48.289 25.1356 48.7434 24.8131 48.5871C24.4731 48.4221 23.7181 46.9459 23.5363 46.5377C23.265 45.9315 22.5125 44.0096 22.4663 43.4302C22.4344 43.0321 22.62 43.1759 22.8056 43.0221C23.7075 42.274 23.9131 40.8421 23.8281 39.7234C23.7175 38.269 22.6063 37.1146 21.1338 37.0277C20.3394 36.9809 19.0969 37.6877 18.3163 37.9284C18.2569 37.9684 18.1406 37.8446 18.1406 37.8259C18.1406 37.5015 18.1975 36.8852 18.1406 36.6121V36.6127ZM25.0419 28.8384L22.77 32.744L24.9369 36.0402L27.1619 32.744C26.455 31.4509 25.49 30.2527 25.0419 28.8377V28.8384Z" fill="#222222"/>
  <path d="M41.805 46.51C41.6175 46.65 40.7681 45.8769 40.5556 45.75C39.0081 44.8262 35.64 43.2381 33.8788 43.2431C32.7963 43.2462 30.3331 44.4544 29.525 45.1912C29.2913 45.4044 28.4963 46.5462 28.4163 46.5862C28.295 46.6462 28.2544 46.4512 28.2531 46.385C28.2481 46.1306 28.4556 45.5437 28.5506 45.2787C29.2306 43.3837 30.6563 41.8244 32.0938 40.4787C32.7894 39.8275 32.9344 40.0544 33.7819 39.8919C35.6369 39.5362 37.135 38.1081 36.6894 36.1156C36.5956 35.695 36.2313 35.395 36.1919 34.9831C36.7519 35.235 37.2263 35.6725 37.7825 35.9325C38.6775 36.3506 39.4494 36.4237 40.0906 35.5831C41.0625 34.3087 41.0806 31.9144 41.0456 30.3931C41.0331 29.8506 41.1075 29.3544 40.8944 28.8394C41.4263 29.5556 42.1163 30.5319 42.3119 31.4031C42.9369 34.1831 42.26 37.865 40.4013 40.0662C40.0006 40.5406 39.4438 40.9094 39.0769 41.3894C39.1675 41.6944 39.2644 41.9987 39.3875 42.2919C39.74 43.1362 40.5488 44.6325 41.0288 45.4287C41.0919 45.5337 41.8575 46.4712 41.8038 46.5112L41.805 46.51Z" fill="#222222"/>
  <path d="M13.7406 34.9819C13.82 35.07 13.3275 35.8538 13.2737 36.0688C12.7687 38.0782 14.2794 39.5313 16.1512 39.8907C16.4637 39.9507 17.0669 39.935 17.3031 40.0282C17.8 40.2232 19.9031 42.6313 20.2937 43.1813C20.8319 43.94 21.5375 45.2913 21.675 46.2069C21.7237 46.5325 21.6412 46.7363 21.385 46.4138C20.7556 45.6225 20.54 45.2319 19.6512 44.6588C17.9544 43.5644 16.4519 42.9369 14.4231 43.5138C12.2125 44.1425 10.4231 45.21 8.50998 46.3988C7.69686 46.9044 8.80248 45.5907 8.90185 45.425C9.27935 44.7982 9.72248 43.9169 10.0644 43.25C10.2612 42.8663 10.875 41.7507 10.8537 41.385C10.8456 41.2407 9.84436 40.4057 9.64373 40.1782C7.89311 38.2025 7.44123 35.8675 7.41311 33.2738C7.39436 31.5788 7.96686 30.1225 9.03811 28.8369C9.0256 29.0375 8.91623 29.2132 8.89561 29.4144C8.74061 30.9188 8.86498 33.9532 9.63123 35.2607C10.1387 36.1263 10.6606 36.3875 11.68 36.1425C12.3519 35.9813 13.0937 35.2438 13.7412 34.9813L13.7406 34.9819Z" fill="#222222"/>
</svg>