<svg xmlns="http://www.w3.org/2000/svg" width="50" height="50" viewBox="0 0 50 50" fill="none">
  <path d="M16.3094 16.6823C16.3976 16.7473 16.5782 17.1492 16.6569 17.1561C16.7007 17.1598 17.3857 16.8698 17.4713 16.8192C18.0863 16.4561 18.2601 15.5217 17.6382 15.1355C18.3969 14.4817 19.0988 15.6973 19.1632 16.4023C19.1913 16.708 19.1944 17.3336 19.1538 17.6317C19.0738 18.2261 18.9382 18.368 19.0157 19.0873C19.3082 21.8036 22.5532 26.3511 24.3076 28.5142C24.3838 28.608 24.7994 29.0986 24.8469 29.1355C25.0769 29.3142 25.2388 29.0398 25.3932 28.8748C26.9157 27.2498 29.6451 23.113 30.4838 21.0592C31.0457 19.683 31.0944 18.6848 30.8538 17.2561C30.6882 16.2736 30.9782 14.6886 32.2844 15.028L32.0113 15.698C31.8563 16.6417 32.5969 16.8448 33.2963 17.1367C33.6244 16.9111 33.7951 16.4617 34.3144 16.5142C34.4094 16.2048 33.8907 15.6386 34.2782 15.5717C35.0782 15.4342 35.2644 15.5205 35.9088 14.8823C36.5044 14.293 38.0469 11.9717 38.3876 11.198C38.8101 10.2392 38.5063 10.2492 38.1951 9.47796C38.0332 9.07671 38.6144 9.21608 38.8863 9.15858C40.0319 8.91733 40.7126 7.54546 41.4563 6.79796C41.7238 6.52921 42.3469 6.04921 42.6719 5.83859C43.0319 5.60546 43.1407 5.55171 43.0688 6.08984C42.8351 7.83359 41.4844 8.91734 41.4994 10.7567C41.5013 11.0217 41.5994 11.383 41.6369 11.6548C40.6351 11.4717 40.3619 11.5905 39.7151 12.3073C38.8826 13.2292 37.0863 15.6155 37.0851 16.8398C37.0851 17.1873 37.2838 17.5436 37.2863 17.8911C36.0726 17.7467 36.6601 18.1648 36.5501 18.708C36.5151 18.8811 36.2944 19.0273 36.2894 19.0867C36.2738 19.2848 36.9844 19.9217 37.1951 19.9767C38.3382 20.2742 39.1182 19.2586 39.5257 18.3542L39.7882 17.023C40.2276 18.0855 40.1526 19.3867 39.8438 20.4848C39.7782 20.7173 39.3038 21.8367 39.3213 21.9105C39.3619 22.0792 40.0538 22.0398 40.2226 22.0242C41.2551 21.9255 41.7963 21.433 42.3919 20.6411C43.0907 19.7117 43.7726 18.288 43.8757 17.1223C43.9363 16.4317 43.6451 16.3342 44.1044 15.7555C44.4282 15.3473 45.0819 14.7698 45.4751 14.4455C46.4107 13.6748 47.3544 13.1111 48.5969 13.0348C48.6338 13.1923 48.5094 13.1955 48.4313 13.2673C48.2251 13.4586 47.9369 13.6061 47.7263 13.7948C45.2751 15.9848 45.7619 18.6511 44.8282 21.5548C43.9888 24.1642 42.9907 24.7892 41.1676 26.5948C41.0307 26.7305 40.8751 26.8311 40.7301 26.9548C40.6519 26.4636 40.7913 26.118 40.4763 25.6867C39.8419 24.8186 38.9688 25.2661 38.3363 25.8661C37.5019 26.6567 37.6813 27.3367 38.0113 28.333C37.1963 27.908 36.2719 28.1073 35.5088 28.5486C35.0932 28.7892 34.7907 29.1642 34.4113 29.4086C33.4982 29.998 32.4332 30.3117 31.3419 30.2173C32.0407 29.5292 32.7976 28.8855 33.4007 28.108C34.0013 27.3336 35.4844 24.9605 35.3994 24.0273C35.3438 23.4173 34.9726 22.768 34.4957 22.3886C34.2444 22.6698 33.8963 22.8573 33.6238 23.1105C32.3294 24.3136 30.9857 26.123 30.2932 27.7548C29.8907 28.7036 29.4476 29.7786 30.9794 29.7461L28.4413 32.5761C28.4513 32.7742 28.5338 32.9448 28.6282 33.113C29.0151 33.803 30.1026 35.0961 30.6526 35.7292C33.3632 38.8486 36.7126 41.3198 40.4069 43.1586L42.9426 44.2105C42.6032 44.2573 42.1532 44.363 41.8194 44.363C37.2226 44.3655 33.7526 43.2536 30.1494 40.438C28.3544 39.0355 26.8894 37.2186 24.9988 35.9717C23.8288 36.6698 22.9338 37.7567 21.9182 38.6655C17.5569 42.5692 14.2969 44.3342 8.2513 44.3617C7.87005 44.3636 7.43693 44.2505 7.05443 44.2105L9.49568 43.2086C13.9744 40.9948 18.2801 37.6611 21.1076 33.5042C21.2538 33.2898 21.6594 32.7486 21.6119 32.5092C21.5994 32.4473 20.8751 31.8786 20.7338 31.7311C20.1688 31.1392 19.6919 30.3867 19.0907 29.818L19.8194 29.6055C20.3769 29.2417 20.0051 28.4355 19.8044 27.9442C19.1819 26.4198 17.9194 24.6048 16.7688 23.4392C16.6426 23.3117 15.6176 22.4355 15.5401 22.4161C15.1644 22.3198 14.6501 23.733 14.6263 24.0511C14.5463 25.1198 16.2951 27.7892 17.0219 28.6236C17.5194 29.1948 18.1376 29.6648 18.6544 30.2167C18.1713 30.2011 17.5219 30.2305 17.0569 30.1111C15.3832 29.683 14.5538 27.8698 12.5982 28.113C12.3776 28.1405 12.1888 28.2617 11.9844 28.3323C12.1476 27.763 12.3738 27.3573 12.2382 26.7367C12.0769 25.9961 11.0013 25.1061 10.2244 25.2323C9.40568 25.3655 9.25318 26.2517 9.30005 26.9548C8.92255 26.7536 8.7363 26.3973 8.43193 26.1198C6.09443 23.9936 5.37193 22.9767 4.6963 19.7773C4.27068 17.7642 4.41068 16.1511 2.95818 14.483L1.3988 13.0342C2.00068 13.0655 2.76443 13.2673 3.30568 13.5555C3.77818 13.8067 6.16755 15.7823 6.22193 16.1861C6.2488 16.3842 6.10005 16.7255 6.1088 16.9811C6.1538 18.3186 7.32193 20.4948 8.28318 21.4111C8.64005 21.7511 9.28505 21.9755 9.77318 22.0236C11.2657 22.1698 10.6138 21.8111 10.3532 20.9361C10.0844 20.0348 9.95443 18.6473 10.0238 17.7073C10.0394 17.4961 10.0676 17.1898 10.2088 17.0217C10.3851 16.9873 10.3113 17.163 10.3163 17.2742C10.3251 17.468 10.3144 17.6217 10.3488 17.8223C10.5394 18.9292 11.4851 20.2036 12.7413 19.9898C13.0376 19.9392 13.7588 19.3286 13.7282 19.0205C13.7232 18.973 13.6019 18.9767 13.5788 18.9305C13.2757 18.3311 13.9444 17.6961 12.7094 17.8911C13.0932 16.808 12.8632 16.0698 12.3326 15.1142C11.9563 14.4367 10.2813 12.0598 9.68693 11.7423C9.16693 11.4648 8.90255 11.6386 8.35943 11.6555C8.6138 11.0542 8.5238 10.1523 8.35193 9.52483C8.14318 8.76046 7.54443 8.02984 7.2688 7.27234C7.22943 7.16421 6.75693 5.55796 7.01693 5.63921C7.50755 5.97046 8.13005 6.37984 8.5438 6.79484C9.2588 7.51296 9.9738 8.88171 11.0551 9.14108C11.2482 9.18734 11.7407 9.16421 11.8082 9.25796C11.9632 9.47296 11.6619 9.65734 11.5844 9.84234C11.2213 10.7117 11.6394 11.2255 12.0694 11.9698C12.5657 12.8286 14.0232 15.1086 14.8932 15.4542C15.1782 15.5673 15.7326 15.543 15.8294 15.6055C16.0188 15.728 15.6376 16.1855 15.6926 16.4005C15.7294 16.5448 16.1932 16.5942 16.3126 16.6823H16.3094Z" fill="black"/>
  <path d="M22.7125 7.81455C22.8369 7.94205 22.4575 8.23017 22.3913 8.32642C21.3225 9.86955 20.9544 11.7145 21.1994 13.5695C21.2563 13.9989 21.3156 14.6095 21.73 14.8508C22.4275 15.257 22.6638 13.6702 23.2919 13.4695L23.1444 15.2427C23.0863 16.2414 23.3406 17.1733 24.0538 17.8914C24.2088 16.1064 24.4863 14.3227 24.9606 12.5995C25.0838 12.6664 25.1875 12.9745 25.2181 13.102C25.3775 13.7695 25.5481 14.6589 25.6619 15.3408C25.8025 16.1827 25.8606 17.0395 25.9031 17.892C27.2038 16.8245 26.8663 14.9495 26.7006 13.4695C27.1263 13.5608 27.645 14.8033 27.805 14.8714C28.2275 15.0502 28.5444 14.7008 28.6813 14.327C28.9175 13.6833 28.8731 11.8402 28.7838 11.132C28.7044 10.5008 28.2425 9.3658 27.9181 8.80767C27.7744 8.56017 27.4206 8.20017 27.3381 8.00892C27.3 7.92017 27.2738 7.8383 27.3894 7.81517C27.5481 7.78392 28.4363 8.83517 28.5713 9.02455C28.9263 9.5233 29.3944 10.3514 29.6638 10.9052C30.6156 12.8627 30.6981 15.4964 30.2519 17.6033C29.1131 17.117 28.1044 17.6827 28.075 18.9477C28.0656 19.3589 28.3438 19.5633 28.44 19.9227C27.8381 19.8695 26.7513 19.2289 26.5169 20.1383C26.265 21.1152 26.8675 22.8127 27.2906 23.7189C27.4388 24.0364 27.5831 24.3714 27.8588 24.5996C26.9063 25.0889 26.3575 25.7383 25.875 26.6746C25.7438 26.9289 25.1644 28.4564 25.0675 28.4783C24.9538 28.5046 24.9188 28.3827 24.8725 28.312C24.5531 27.8208 24.3463 27.0671 24.055 26.5196C23.6306 25.7227 23.0894 25.0258 22.2075 24.7052C22.1581 24.4977 22.35 24.4127 22.4369 24.2521C22.8519 23.4839 23.4313 22.1227 23.5088 21.2633C23.6781 19.3858 23.125 19.4921 21.5525 19.9227C21.6575 19.6127 21.8988 19.3677 21.9181 19.0139C21.9344 18.7133 21.7075 17.9764 21.5106 17.7527C21.2138 17.4152 20.6894 17.4452 20.28 17.4539C20.1181 17.4571 19.9475 17.5789 19.8488 17.4595C19.0344 14.8677 19.5556 11.9952 20.9125 9.6758C21.0413 9.45517 22.4225 7.51767 22.7119 7.81455H22.7125ZM24.9613 21.3008L24.2406 24.2414C24.4719 24.622 24.8394 24.8258 24.9969 25.2864C25.1925 24.8771 25.5025 24.5989 25.7588 24.2352C25.5331 23.3483 25.3494 22.4389 25.1 21.5596C25.0769 21.4783 25.0706 21.2902 24.9619 21.3008H24.9613Z" fill="black"/>
</svg>