<svg xmlns="http://www.w3.org/2000/svg" width="50" height="50" viewBox="0 0 50 50" fill="none">
  <path d="M17.8187 35.548C16.7187 35.2336 15.2837 34.3598 14.4662 33.5611C13.9287 33.0355 14.4549 33.1073 14.4881 32.7005C14.5268 32.2211 13.1618 31.1567 12.8481 30.7623L11.7437 31.7173C11.1624 31.1867 10.6999 30.533 10.3256 29.8398C10.3374 29.7023 11.2356 29.2686 11.3112 28.9961C11.3331 28.918 10.9281 28.1455 10.8856 28.1205C10.6949 28.0092 9.88182 28.7005 9.67932 28.7023C9.43807 28.7048 8.9787 27.4342 8.8362 27.1955C9.4662 26.6667 10.4568 26.8211 9.9237 25.733C9.75432 25.3861 8.9412 26.0298 8.6212 25.9692C8.55682 25.923 8.08932 24.5498 8.10745 24.473C8.13432 24.3586 8.4612 24.2517 8.57557 24.2061C9.41995 23.8705 10.4656 23.6167 11.3387 23.3555C11.4743 23.4373 11.7449 24.9867 11.8343 25.2948C12.9762 29.2317 16.3181 32.3511 20.4693 32.7505L20.3218 37.0211H29.6737L29.5262 32.7505C31.1312 32.5755 32.7068 32.0211 34.0412 31.1161C35.8793 29.8692 37.4468 27.6642 38.1206 25.5492C38.2974 24.9948 38.3924 23.838 38.5818 23.4511C38.6131 23.3873 38.6549 23.3723 38.7206 23.363C39.2306 23.2898 40.9431 24.2373 41.6024 24.2442C42.2131 24.2248 41.4756 25.8792 41.3849 25.9436C41.1893 26.0842 40.3737 25.4555 40.1249 25.6373C40.0618 25.6836 39.8899 26.3798 39.9412 26.4886C40.0312 26.6792 41.1162 27.0298 41.1543 27.1967C40.9643 27.7255 40.7249 28.2461 40.3793 28.6936C40.1306 28.6773 39.2731 27.993 39.1037 28.1148C39.0637 28.1436 38.6674 28.9373 38.6831 28.9955C38.7656 29.293 39.7168 29.6567 39.6768 29.9005C39.6618 29.9936 38.9906 30.9536 38.8749 31.0911C38.6874 31.3142 38.4474 31.5017 38.2506 31.7173C37.9193 31.3892 37.5599 31.0455 37.1449 30.8342C36.9974 30.8342 35.7087 32.1742 35.6212 32.4017C35.4099 32.9492 35.9362 33.1661 35.8256 33.3398C34.9456 34.013 34.0849 34.7448 33.0862 35.2423C32.8987 35.3361 32.3462 35.4861 32.2474 35.5823C32.0881 35.7373 32.2156 36.3373 32.1762 36.5786H34.0174C34.0462 36.6998 33.9918 36.7492 33.9456 36.838C33.4824 37.7192 32.8106 38.5311 32.3112 39.4011C31.4781 40.8523 30.8018 42.3986 30.0043 43.8686H28.7893V42.6536C28.7893 42.6305 28.8906 42.5492 28.8624 42.4698C28.5981 42.4855 27.9256 42.4592 27.8118 42.7073C27.6506 43.0598 27.6624 44.0123 27.5893 44.473C27.5106 44.9692 27.3437 45.4498 27.3024 45.9536L27.2056 46.0773H25.6962V42.138C25.6962 42.1305 25.5937 42.0273 25.5856 42.0273H24.4074C24.3999 42.0273 24.2968 42.1298 24.2968 42.138V46.0773H22.7506L22.1699 42.5848L21.2037 42.4692V43.8686H19.9887C19.1862 42.3398 18.4693 40.7505 17.6081 39.2536C17.0881 38.3498 16.4237 37.5142 15.9756 36.5786H17.8168V35.5473L17.8187 35.548Z" fill="black"/>
  <path d="M28.8643 7.56543V16.2179C31.0424 17.4379 32.7568 19.4623 33.4256 21.8923C33.6606 22.0579 34.8524 21.6873 35.1674 21.7086C35.4181 21.7261 35.6049 22.7548 35.6299 23.0017C35.6668 23.3673 35.6656 24.8998 35.3674 25.0986C35.1674 25.2317 33.8824 24.8273 33.7593 25.0161C33.5843 25.2842 33.6231 26.4998 33.3706 26.8854C33.4287 27.1886 34.6724 27.4892 34.6799 27.7748C34.6849 27.9629 34.1168 29.1217 33.9831 29.3642C33.8549 29.5973 33.3124 30.6048 33.0399 30.5323C32.8706 30.4873 32.1087 29.7436 31.9931 29.7442C31.3468 30.4673 30.7187 31.1486 29.9181 31.7048C29.6131 31.9167 28.9124 32.3736 28.5968 32.5192C28.2843 32.6636 27.9387 32.7036 27.6224 32.8329L28.1274 35.6211H21.8681L22.4224 32.8923C20.7668 32.2804 19.0943 31.2267 18.1106 29.7304L18.0049 29.7323C17.7968 29.8629 17.0649 30.5392 16.8956 30.5411C16.7262 30.5429 16.2706 29.7754 16.1593 29.5842C15.9806 29.2761 15.3512 28.0579 15.3456 27.7773C15.3393 27.4598 16.5562 27.2354 16.6224 26.8861C16.6712 26.6279 16.1874 25.3517 16.2706 24.9436C15.9718 24.9173 14.7912 25.2079 14.6274 25.0986C14.1774 24.7979 14.3493 22.2579 14.7212 21.7354C14.8787 21.6273 16.3106 22.0623 16.5687 21.8904C16.6287 21.8504 16.9531 20.8023 17.0449 20.5998C17.8912 18.7398 19.3812 17.2348 21.1306 16.2173V7.56543H28.8624H28.8643ZM30.4587 18.5636C26.7574 14.9123 20.6649 15.9067 18.1743 20.4029C14.7106 26.6573 20.6118 34.1917 27.5231 31.8873C33.0768 30.0354 34.5906 22.6398 30.4587 18.5636Z" fill="black"/>
  <path d="M48.5994 7.12416C48.6094 7.22666 48.5994 7.32353 48.5663 7.42166C48.4075 7.89228 47.8256 8.88229 47.5544 9.35541C47.0156 10.2967 46.3394 11.1729 45.8638 12.1567L45.4475 12.4767C41.2838 13.841 37.0231 14.871 32.8625 16.2435L32.7675 16.2223C32.6206 15.6492 30.4225 14.2285 30.3506 13.9948C30.3194 13.8935 30.31 13.3854 30.3344 13.2848C30.3613 13.1729 32.22 12.5667 32.49 12.4792C34.8469 11.7154 37.2713 11.1348 39.6144 10.3248C42.0713 9.47603 44.4788 8.47478 46.9419 7.63728C47.4869 7.45166 48.0469 7.28354 48.5994 7.12354V7.12416Z" fill="black"/>
  <path d="M19.6444 14.1042C19.6144 14.1554 18.8125 14.6623 18.6675 14.7836C18.2888 15.0998 17.8625 15.4904 17.5225 15.8479C17.4031 15.9736 17.2982 16.2442 17.1338 16.2411C15.7888 15.8361 14.4538 15.3567 13.1057 14.9661C11.8382 14.5986 10.5425 14.3092 9.2769 13.9348C7.8844 13.5223 5.90065 13.0361 4.61815 12.4817C4.01503 12.2211 4.1344 12.0573 3.84003 11.5661C3.33003 10.7167 2.74628 9.87482 2.26815 9.01419C2.14815 8.79794 1.3794 7.33357 1.3969 7.23607C1.41628 7.12982 1.53003 7.13919 1.62065 7.15544C3.02815 7.40982 4.6219 8.41107 6.07378 8.66919C10.4469 10.5017 15.0438 11.6642 19.5363 13.1742C19.7206 13.2317 19.6894 14.0261 19.6438 14.1048L19.6444 14.1042Z" fill="black"/>
  <path d="M15.83 42.3962C15.7056 42.5462 15.4112 41.7674 15.3756 41.7099C14.9456 41.0306 14.0587 39.7768 13.2093 39.6774C12.3437 39.5762 9.69185 40.6118 8.7856 40.9843C8.59122 41.0643 8.2006 41.3312 8.04497 41.3518C7.78185 41.3868 7.14122 41.0737 6.86559 41.0149C6.45809 40.9281 5.96122 40.9199 5.55934 40.8481C5.46184 40.8306 5.34747 40.7787 5.37434 40.6662C7.56872 39.2337 9.97372 38.1849 12.2975 36.9843C12.5343 36.7274 12.0037 36.1006 12.1606 35.8531C12.2112 35.7724 13.8506 35.1612 13.9425 35.1868L15.8931 38.6224C15.7537 39.8749 15.6881 41.1412 15.8312 42.3956L15.83 42.3962Z" fill="black"/>
  <path d="M44.6231 40.5567C44.6444 40.5898 44.6288 40.7298 44.5907 40.7805C44.5475 40.838 43.4257 40.9698 43.2075 41.018C42.9375 41.0773 42.2344 41.3711 42.0275 41.353C41.8463 41.3373 40.6875 40.7648 40.3706 40.648C39.7688 40.4255 39.0644 40.1617 38.4532 39.988C37.7332 39.7836 36.8963 39.4623 36.2038 39.9048C35.7425 40.1998 34.9063 41.2255 34.6206 41.7086C34.4925 41.9255 34.4663 42.2098 34.3894 42.3473C34.3463 42.4248 34.1888 42.4161 34.1675 42.3961C34.1419 42.3723 34.2406 42.0292 34.2444 41.9211C34.2706 41.1386 34.2669 40.2686 34.2444 39.4848C34.2369 39.2342 34.0957 38.8611 34.1344 38.6323C34.1894 38.3086 35.4613 36.2867 35.7269 35.8186C35.8407 35.6186 35.9425 35.4042 36.0157 35.1855C36.0975 35.1261 37.8088 35.7773 37.8913 35.9136C37.9675 36.0398 37.4613 36.7886 37.7013 36.9848L44.6238 40.5567H44.6231Z" fill="black"/>
  <path d="M16.4194 17.0662L15.5494 18.2931L15.27 18.8381C12.4919 18.1874 9.70937 17.4824 6.99062 16.6437L5.375 14.0462C5.44313 13.9881 6.52688 14.2424 6.715 14.2881C9.98438 15.0849 13.2137 16.0568 16.42 17.0656L16.4194 17.0662Z" fill="black"/>
  <path d="M44.6231 14.0461C44.6775 14.0949 44.3419 14.6086 44.2856 14.7024C44.0069 15.1686 43.4013 16.2218 43.0663 16.5761C42.9113 16.7399 42.83 16.7399 42.635 16.8074C41.1438 17.3236 39.2019 17.7574 37.6431 18.1486C36.6981 18.3855 35.7494 18.6099 34.7981 18.8199L33.5775 17.1011C34.4706 16.6818 35.4506 16.5186 36.3913 16.2336C38.73 15.5243 41.0869 14.8093 43.4719 14.2568C43.6394 14.218 44.5619 13.9911 44.6225 14.0461H44.6231Z" fill="black"/>
  <path d="M29.5269 6.97576C29.4907 7.02951 28.4113 7.11889 28.2413 7.12701C26.255 7.22014 23.8182 7.21139 21.8282 7.12701C21.6419 7.11889 20.465 7.02889 20.4675 6.93639C20.635 6.50264 21.0832 6.21576 21.3913 5.87264C21.9607 5.23826 22.4794 4.55639 23.0482 3.92139H26.9488C27.3763 4.32639 27.7007 4.84889 28.0907 5.28389C28.4344 5.66701 29.2138 6.33826 29.4575 6.71514C29.515 6.80451 29.55 6.86326 29.5269 6.97576Z" fill="black"/>
  <path d="M42.1931 18.2437C42.305 18.3524 41.32 20.0049 41.2687 20.3012L41.1106 20.438L35.905 21.1199L35.2719 19.7524C37.5231 19.0505 39.88 18.7005 42.1931 18.2437Z" fill="black"/>
  <path d="M14.1269 21.1048C12.3644 20.9711 10.61 20.6211 8.85126 20.4042C8.71939 20.1711 7.78064 18.4686 7.80376 18.3554C7.81751 18.2873 7.96876 18.2161 8.05064 18.2473C9.64751 18.6429 11.2844 18.8698 12.8875 19.2348C13.2031 19.3067 14.4719 19.5692 14.6531 19.6786C14.775 19.7523 14.69 19.7698 14.665 19.8379C14.5094 20.2673 14.2481 20.6611 14.1263 21.1048H14.1269Z" fill="black"/>
  <path d="M26.0756 19.1169C26.3587 19.1075 27.2381 19.6038 27.4131 19.5588C27.76 19.47 27.9581 18.5838 28.53 18.6838C28.6106 18.6975 29.5012 19.4094 29.5625 19.4957C29.9625 20.0613 28.9762 20.7432 29.02 20.9932C29.0294 21.045 29.6 21.8213 29.6519 21.8369C30.1206 21.9813 30.7819 21.3863 31.0656 21.8219C31.1556 21.96 31.4687 23.1332 31.4294 23.27C31.3062 23.6975 30.3044 23.8 30.1987 23.9207C30.1737 23.9494 30.1675 24.6132 30.185 24.6769C30.2131 24.78 31.2956 24.9544 31.41 25.3075C31.4737 25.5044 31.1362 26.815 31.0006 26.895C30.68 27.085 29.7087 26.685 29.5369 26.7944C29.4931 26.8219 29.1731 27.5782 29.0206 27.6907C29.2294 28.0888 29.9212 28.6913 29.5594 29.1363C29.515 29.1913 28.7462 29.8444 28.6844 29.8807C28.065 30.2457 27.7344 29.015 27.2994 29.0775C26.9906 29.1219 26.4581 29.5082 26.075 29.5182C26.1237 30.7813 25.8706 31.1588 24.5625 30.9744C23.65 30.8457 24.1387 29.6838 23.8862 29.4994C23.8306 29.4588 22.6494 29.0588 22.5831 29.0757C22.3069 29.1457 22.0275 29.98 21.5419 29.9488C21.3737 29.9382 20.4306 29.1475 20.3575 28.99C20.1862 28.6207 20.8394 28.0632 20.9506 27.735C20.9762 27.6594 20.475 26.79 20.4206 26.7775C20.0825 26.7007 19.4356 27.1219 19.0281 26.8613C18.8531 26.7494 18.5075 25.4975 18.59 25.3125C18.8387 24.7575 20.22 25.0469 19.87 24.0307C19.79 23.7982 18.5325 23.6619 18.555 23.1457C18.5581 23.07 18.8287 22.0657 18.8681 21.9782C19.2075 21.225 20.0219 22.1088 20.4575 21.8363C20.5012 21.8088 20.9769 20.9913 20.9725 20.94C20.9469 20.6625 20.2269 20.0775 20.3325 19.6925C20.3575 19.6019 21.2537 18.7669 21.3537 18.72C22.0056 18.4182 22.2781 19.6069 22.7094 19.5675C22.9369 19.5469 23.6062 19.13 23.92 19.1132C24.005 18.7957 23.915 17.9088 24.225 17.7613C24.3562 17.6988 25.3962 17.6957 25.5912 17.7207C26.1956 17.7994 26.0381 18.6725 26.0756 19.1138V19.1169ZM24.3569 21.0625C21.9287 21.3688 20.915 24.55 22.4206 26.4182C24.6025 29.1257 28.9306 27.0725 28.2425 23.615C27.8656 21.7194 26.205 20.8294 24.3569 21.0625Z" fill="black"/>
</svg>