<svg xmlns="http://www.w3.org/2000/svg" width="50" height="50" viewBox="0 0 50 50" fill="none">
  <path d="M34.4144 1.75174L47.5913 14.3749V35.6905L45.7282 37.4261C41.9982 41.0767 38.2638 44.6467 34.4863 48.2474L15.5357 48.2299C14.9969 47.763 14.5344 47.2186 14.02 46.728C10.84 43.6917 7.65128 40.6655 4.48065 37.6092C3.7869 36.9405 3.12128 36.2342 2.41315 35.5799C2.42378 32.2036 2.39878 28.8242 2.41315 25.448C2.41315 25.438 2.4719 25.3624 2.47253 25.2605C2.48815 21.6561 2.42065 18.0405 2.5069 14.443C4.72065 12.3355 6.9344 10.143 9.1319 8.02674C10.2844 6.91736 11.4782 5.83799 12.6363 4.72111C13.6469 3.74674 14.6375 2.73424 15.6457 1.75049H34.4144V1.75174ZM31.6463 5.68299C31.6832 5.30674 32.2157 4.72236 32.2869 4.41174C32.3007 4.35111 32.2475 4.29861 32.2275 4.29861H17.8882C17.8563 4.29861 17.8075 4.38174 17.8063 4.43299C17.8038 4.52861 18.2769 5.48236 18.3563 5.58736C18.3813 5.61986 18.4688 5.68299 18.4975 5.68299H24.1169V6.56861H18.6082C18.545 6.56861 17.7432 7.23174 17.6107 7.34111L13.9307 10.9724C13.7713 11.0449 13.2869 10.4055 13.1575 10.3055C13.6538 9.76049 14.2507 9.29924 14.7888 8.78549C15.6688 7.94486 16.5044 7.05111 17.4188 6.25299C17.4388 6.11736 17.2438 5.82361 17.1644 5.68674C17.0919 5.56236 16.6057 4.83174 16.5082 4.85361L5.45878 15.4836C5.4044 15.5649 5.70128 15.7592 5.77253 15.8049C5.9294 15.9055 6.29565 16.1236 6.44378 16.1974C6.95565 16.4524 6.97628 16.328 7.37003 15.9817C8.62753 14.8767 9.74065 13.4774 10.9994 12.3574C11.0482 12.3267 11.1 12.2686 11.1619 12.2967C11.3219 12.3692 11.6144 12.8367 11.825 12.8811L11.7713 13.0192C10.3557 14.483 8.8669 15.8824 7.5319 17.4167L7.56565 23.0974C7.57753 23.1542 7.52565 23.2886 7.48003 23.2886H6.56628V17.9461C6.1269 17.6067 5.5744 17.4267 5.07128 17.1986V33.2549C5.5869 33.1061 6.04503 32.7324 6.56628 32.5905V27.1092H7.48003C7.48565 27.1092 7.56315 27.1861 7.56315 27.1924V32.8949L11.745 37.0767C11.7825 37.118 11.7688 37.1424 11.7469 37.1849C11.6582 37.3574 11.2344 37.603 11.1569 37.8442L7.02753 33.7599C6.7519 33.6636 5.89378 34.3642 5.5694 34.4442C5.49253 34.5092 5.49565 34.6105 5.54065 34.6949L16.3244 45.0861C16.38 45.1155 16.4694 45.1224 16.5219 45.0917C16.5813 45.0567 17.255 44.003 17.2788 43.938C17.3007 43.8767 17.3269 43.8249 17.3007 43.758L13.1238 39.7892C13.0813 39.7286 13.0975 39.6842 13.1257 39.623C13.1457 39.5805 13.7525 38.9717 13.7994 38.9636C13.8519 38.9549 13.9757 39.0474 14.0213 39.088C14.5025 39.5167 14.925 40.0424 15.3925 40.483C16.0032 41.0586 16.6638 41.6074 17.2807 42.1699C17.625 42.4836 17.9238 42.8574 18.2875 43.1536C20.0669 43.2805 21.9994 43.0236 23.76 43.1624C23.8663 43.1705 23.9607 43.1949 24.0619 43.2205V44.2999C24.0619 44.3605 23.9269 44.3792 23.8707 44.3855C22.7125 44.5211 21.1538 44.3467 19.9344 44.3805C19.8038 44.3842 19.6825 44.4355 19.5513 44.4405C19.1482 44.4561 18.7413 44.4174 18.3382 44.4455C18.115 44.838 17.7957 45.2124 17.6944 45.6561H32.3663C32.2319 45.2186 31.9438 44.7636 31.6744 44.383H26.055V43.248C26.055 43.2024 26.1894 43.1499 26.2463 43.1624L31.7594 43.1986C32.9088 42.1642 34.005 41.0986 35.1163 40.0461C35.3894 39.788 35.7913 39.3149 36.0757 39.0955C36.1525 39.0361 36.2206 38.9699 36.3225 38.9542C36.3657 39.1367 37.0907 39.6774 37.0175 39.7874L32.7782 43.7717C32.8863 43.9411 33.5444 45.078 33.6194 45.1005C33.6663 45.1149 33.7113 45.1042 33.7507 45.0767L44.5769 34.6386C44.6044 34.5986 44.6094 34.5574 44.5975 34.5111C44.56 34.3642 43.3025 33.8261 43.0857 33.7017L38.9832 37.8499C38.7663 37.5999 38.4807 37.4249 38.2957 37.1505C39.6663 35.6511 41.2125 34.2742 42.6094 32.7849V27.1099H43.4675C43.74 27.1099 43.4319 32.1617 43.5482 32.5542C43.8307 32.653 44.6719 33.2192 44.9069 33.2036C44.9675 33.1999 45.0088 33.1774 45.0313 33.1199L45.045 17.1999C44.9594 17.1117 43.7763 17.8392 43.5507 17.8642V23.2067C43.5507 23.2124 43.4738 23.2899 43.4675 23.2899H42.4707C42.465 23.2899 42.3875 23.213 42.3875 23.2067V17.1167C41.83 16.613 41.2857 16.0861 40.8175 15.503L38.3057 13.0899L38.3175 12.8792L38.9825 12.2167L43.0519 16.3417C43.2357 16.4399 43.1957 16.2961 43.2607 16.263C43.6982 16.043 44.1275 15.8105 44.5682 15.5974L44.6007 15.4842L33.5525 4.85486C33.4744 4.83736 33.3294 5.07236 33.2844 5.13486C33.18 5.27986 32.6913 6.01424 32.6644 6.12611C32.655 6.16549 32.6375 6.19799 32.6675 6.23549L36.895 10.233C36.965 10.358 36.3707 10.9117 36.2557 10.9355C36.19 10.9486 36.1475 10.9411 36.1007 10.8917C34.6444 9.44861 33.2225 7.96861 31.7294 6.56986H25.9438V5.68424H31.6463V5.68299Z" fill="black"/>
  <path d="M33.9725 11.1086C34.0625 11.0429 34.3669 11.5254 34.4413 11.6073C35.8525 13.1561 37.2888 15.0255 38.0788 16.9948C38.6063 18.3105 38.2632 19.773 38.2319 21.1548C38.1969 22.7011 38.2132 24.3773 38.2875 25.9211C38.3269 26.7373 38.3644 27.9017 38.515 28.6836C38.5563 28.8967 38.9 29.3273 38.8882 29.4536C38.8825 29.5167 38.49 30.1086 38.4169 30.2536C38.365 30.3567 38.0819 30.9367 38.1244 30.9842C38.8613 31.2654 39.6213 30.7592 40.3388 30.5973C40.5213 30.8029 39.8213 32.543 39.6844 32.8492C39.2025 33.9292 38.1394 35.9486 37.1569 36.5779C36.4707 37.018 35.6775 37.3142 35.0382 37.8411C33.7882 37.798 32.5357 37.7373 31.2888 37.6817C30.5182 37.6473 29.8738 37.7286 29.0975 37.5473C28.4288 37.3917 27.51 36.6967 26.9688 36.243C26.6075 35.9405 26.2525 35.5223 25.9438 35.1636C25.7169 35.1598 25.4763 35.0836 25.2538 35.0792C24.5488 35.0642 23.7513 35.3411 23.2307 34.6655C23.1532 34.5648 23.0944 34.3017 22.9719 34.2598C22.205 34.2573 21.4219 34.3567 20.6538 34.3079C20.4188 34.2929 19.645 34.1923 19.4932 34.0842C19.3638 33.9923 19.2788 33.7736 19.1875 33.7254C18.7838 33.5129 17.6657 33.8198 17.1675 33.8623C16.3838 33.9292 15.5238 33.8961 14.7332 33.9173C14.2782 33.5704 13.5763 33.1055 13.3738 32.5642C13.0113 31.5973 12.9163 30.4067 12.64 29.4223C12.4319 28.6805 12.1088 28.8492 11.5544 28.5704C11.4319 28.5086 11.1744 28.3273 11.0557 28.2386C10.8275 28.0692 10.5319 27.8873 10.4957 27.5805C10.4313 27.0317 10.4763 26.1073 10.4944 25.5286C10.5932 22.4317 11.1525 19.5642 11.9763 16.6017C12.2482 15.6236 12.4925 14.6861 12.49 13.6548L16.7688 15.3061C18.1957 14.2973 19.0163 12.5367 19.6325 10.9417C19.7157 10.8804 20.3288 11.4679 20.4363 11.5492C21.0407 12.0073 22.8132 13.4611 23.405 13.6186C25.4044 14.1511 26.2713 12.1611 26.9138 10.6636C27.2044 10.6767 28.3094 11.8317 28.6007 12.0773C29.0932 12.4923 29.8669 13.1823 30.3775 13.5111C30.5769 13.6398 30.695 13.7236 30.9513 13.7117C31.2375 13.6979 32.445 13.3248 32.6694 13.1561C33.1694 12.7798 33.7057 11.6817 33.9719 11.1079L33.9725 11.1086ZM28.9888 19.0811C29.0944 19.1067 29.0957 19.0423 29.1444 18.9886C29.4169 18.6892 29.87 18.0448 30.1182 17.6923C30.2119 17.5586 30.6557 16.8992 30.6375 16.7929C30.2813 16.2204 29.8638 15.6961 29.405 15.2042C29.2994 15.0911 29.1663 15.0317 29.07 14.9304C28.895 14.7454 27.805 13.5179 27.6882 13.5448C27.2294 14.6886 26.5744 15.7204 25.9488 16.7754L27.085 17.7448C27.2407 17.8542 27.5419 17.8117 27.6544 17.6636L28.13 15.9254C28.5669 16.9273 28.6832 18.0367 28.9888 19.0805V19.0811ZM21.3475 16.4242C21.4363 16.7923 21.6369 17.1154 21.7788 17.4604C21.8582 17.6536 21.8669 17.8767 21.9469 18.0673C21.9769 18.1392 22.285 18.6298 22.3182 18.6379C22.39 18.6554 22.4144 18.5917 22.455 18.5542C22.5863 18.4317 23.2882 17.0392 23.2594 16.9154C23.245 16.8536 22.6294 15.9986 22.5338 15.8742C22.0332 15.2261 21.1688 14.2317 20.5744 13.6811C20.52 13.6304 20.4963 13.5798 20.4069 13.5998C20.0219 14.6436 19.5 15.6711 18.9007 16.6067C18.7975 16.7679 18.4332 17.1067 18.4757 17.2704C18.5182 17.4342 19.9969 18.5992 20.1544 18.6136C21.0394 18.6961 21.0919 17.3892 21.2057 16.8079C21.2244 16.7129 21.26 16.4698 21.3463 16.4236L21.3475 16.4242ZM35.4669 19.0811C35.6219 18.8867 35.8932 18.7854 36.0507 18.6411C36.15 18.5505 36.6157 17.9667 36.6575 17.8592C36.72 17.6961 36.5813 17.5879 36.5313 17.4348C36.1269 16.2023 35.7444 15.2248 34.8557 14.2386C34.81 14.1879 34.6557 13.9929 34.5813 14.0436C34.4719 14.2711 34.2775 14.5204 34.1107 14.7086C33.6957 15.1748 32.8838 16.0342 32.3838 16.3592C32.1744 16.4954 31.805 16.4686 32.0888 16.7848C32.4232 17.1573 32.775 17.5386 33.1088 17.9236C33.2182 18.0498 33.3069 18.2898 33.4438 18.4192C33.8 18.7567 33.895 18.5467 34.0663 18.2073C34.3782 17.5898 34.5807 16.9036 34.83 16.2592C34.9632 16.2623 35.1457 17.1417 35.1763 17.2961C35.2044 17.4392 35.1694 17.5886 35.1957 17.7198C35.2857 18.1729 35.46 18.6129 35.4675 19.0817L35.4669 19.0811ZM16.7382 17.7117C16.7013 17.668 16.3138 17.5155 16.2032 17.4436C15.4725 16.9717 14.8138 16.418 13.9625 16.1492L13.3282 19.1536C13.3457 19.2254 13.4375 19.2829 13.5019 19.3142C13.5732 19.3486 14.2225 19.5548 14.3032 19.5686C15.0344 19.6948 14.8388 18.7123 15.1194 18.3067C15.2875 18.5079 16.2482 20.1686 16.3919 20.1323C16.495 20.1067 16.6157 19.5004 16.635 19.3786C16.6907 19.0261 16.7932 18.2661 16.7869 17.9354C16.7857 17.8723 16.7757 17.7561 16.7382 17.7111V17.7117ZM24.8944 29.2654C24.7919 27.6736 24.85 26.0736 24.8382 24.4767C24.8294 23.2723 24.7975 22.1473 24.8919 20.9361C24.9463 20.2386 25.0907 19.5329 25.1157 18.8298C25.09 18.6161 24.5457 18.0411 24.3663 17.9173C24.3194 17.8854 24.3119 17.8404 24.2282 17.8629L22.4575 22.3786L20.5357 21.1367C20.3925 21.1136 20.0444 21.7742 20.0275 21.8904C20.0182 21.9542 20.0232 21.9992 20.0713 22.0448C20.8407 22.8723 21.7063 23.5817 22.5388 24.3392C22.9775 23.6879 23.3732 22.9592 23.8732 22.3529C23.8925 22.3298 23.9782 22.1911 24.0063 22.2648C23.4394 23.3423 23.3532 24.5811 22.9794 25.7229C22.9394 25.8461 22.8988 26.0498 22.7507 26.0461L19.9094 23.2336C20.155 25.0554 20.2513 26.8979 20.4188 28.7304C20.5269 29.1798 21.0538 28.8817 21.1269 28.9367C20.9419 29.1967 20.7575 29.4723 20.5463 29.7123C20.46 29.8104 20.0163 30.1748 20.0163 30.2367C20.0157 30.4079 21.1588 31.1748 21.3663 31.2717C21.6219 31.3911 22.465 31.6848 22.73 31.7367C23.0825 31.8055 23.5082 31.4055 23.8025 31.1961C24.0969 30.9867 24.7257 30.5511 24.9482 30.2929C25.1844 30.0192 25.3444 29.5905 25.6125 29.3242L24.8957 29.2654H24.8944ZM31.0919 18.4723C31.0675 18.4486 31.0157 18.4673 30.9769 18.5079C30.7069 18.7911 30.5625 19.2748 30.3638 19.5986C30.165 19.9223 29.8963 20.2329 29.6975 20.5936C29.3982 21.1361 29.1457 21.7842 28.8769 22.3479L27.3982 20.2423C27.2982 20.1817 27.2357 20.1767 27.1594 20.2692C27.1332 20.3011 26.7925 20.9655 26.7844 21.0061C26.7613 21.1242 26.7757 21.1736 26.8169 21.2811C26.9875 21.7223 27.7444 22.5692 28.0369 23.0511C28.1694 23.2698 28.7557 24.5136 28.8294 24.5561C28.8863 24.5886 28.9738 24.5586 29.02 24.5117C29.3319 24.1511 29.645 23.7617 29.9825 23.4273C30.0319 23.3786 30.2582 23.1198 30.3175 23.1798C29.7863 24.1279 29.5125 25.2323 28.8188 26.0817L28.6344 26.1648L27.0082 23.3036L26.775 23.0686L27.0513 28.8542C27.1025 29.1373 27.5563 28.9436 27.6007 29.2342L26.1669 30.903C26.6663 31.3467 27.0938 31.6623 27.7682 31.7917C29.115 32.0505 29.9975 31.6148 30.9832 30.7373C31.1457 30.5923 31.5719 30.0904 31.6463 29.9054C31.6875 29.8023 31.6125 29.8361 31.5632 29.8248C31.4163 29.7911 31.1788 29.8236 31.1475 29.6304C31.0963 26.6892 30.96 23.8592 31.5619 20.9629C31.6238 20.6661 31.8919 20.0167 31.8675 19.7792C31.8513 19.6148 31.2888 18.943 31.1569 18.7136C31.1088 18.6298 31.1013 18.4823 31.0925 18.4736L31.0919 18.4723ZM19.2994 29.1029C19.0638 29.1011 18.8857 29.1729 18.8144 28.8961C18.6375 28.2086 18.5232 27.2911 18.4219 26.5761C18.1919 24.9517 17.94 22.8405 18.2725 21.2386C18.3163 21.0273 18.5382 20.5323 18.5238 20.3861C18.5107 20.2479 17.915 19.4704 17.7494 19.3592C17.6807 19.8042 17.4982 20.2642 17.3325 20.6873C17.2538 20.8892 16.6938 22.2667 16.6082 22.2867C16.2625 22.2117 14.1857 20.9386 14.0394 21.0761C14.06 21.2179 14.1238 21.3779 14.1938 21.5023C14.4088 21.8848 15.4332 22.8217 15.81 23.1523C16.0844 23.393 16.4275 23.5592 16.6688 23.8429C16.735 23.8429 17.1194 22.7692 17.305 22.6817C17.0632 23.3573 17.0269 24.0898 16.9019 24.7973C16.8813 24.9142 16.7994 25.4742 16.7238 25.5054C16.4569 25.0148 16.0375 24.6461 15.615 24.2892C15.165 23.9086 14.315 23.2436 13.8007 23.0029C13.7494 22.9786 13.6307 22.9161 13.5963 22.9854C13.7432 23.4336 13.7357 23.9654 13.8294 24.4129C13.9644 25.0567 14.2238 25.8579 14.4888 26.4661C14.8975 27.4029 15.4357 28.3011 15.89 29.2173C16.0932 29.4311 17.4544 29.8454 17.8 29.9098C18.2088 29.9861 18.4513 30.0698 18.8007 29.7973C18.8888 29.7286 19.375 29.1736 19.2975 29.1042L19.2994 29.1029ZM34.8013 22.5692C34.7069 22.5879 34.6875 22.5467 34.6475 22.4748C34.5307 22.2642 34.5007 21.7098 34.3863 21.4073C34.1932 20.8973 33.7713 20.3829 33.5832 19.8567L32.9307 20.9454L33.555 22.2373L34.3588 24.5067C34.4357 24.5217 34.4294 24.518 34.4738 24.4711C34.7819 24.1461 35.0594 23.7629 35.5213 23.6211L34.2213 25.5023C33.4457 24.8517 33.3444 23.7254 32.5875 23.0667C32.6969 23.7455 32.6269 24.4536 32.64 25.1454C32.6425 25.2761 32.6975 25.3973 32.7 25.5286C32.7188 26.6917 32.67 27.8529 32.6994 29.0173C32.7725 29.403 33.4963 29.3829 33.5263 29.5204C33.5144 29.7217 32.9225 30.8217 32.975 30.8729C33.6988 30.8098 34.7488 31.2342 35.4113 30.9017C35.6969 30.7579 37.0425 29.4042 37.115 29.1173C37.1275 29.0667 37.1432 28.8998 37.1257 28.8817C37.105 28.8604 36.6713 28.8748 36.6282 28.6317C36.435 26.4036 36.5238 24.2192 36.4094 21.9848C36.4025 21.8536 36.3563 21.733 36.3494 21.6017C36.3225 21.0842 36.3657 20.5967 36.2407 20.0767L36.1175 20.1492L34.8007 22.5679L34.8013 22.5692ZM31.7569 36.4655C32.5663 36.3886 33.4025 36.3736 34.1938 36.1623C35.1488 35.9067 35.7556 34.968 35.94 34.033C35.9994 33.7305 36.1594 32.3473 36.05 32.1467C35.9994 32.0542 35.9744 32.1242 35.93 32.1386C34.5438 32.5842 33.2675 33.3648 31.785 33.4761C31.1375 33.5248 30.4913 33.4555 29.8694 33.2811C29.44 33.6548 29.235 34.1192 28.6957 34.3729C28.52 34.4561 28.0019 34.4998 28.1582 34.7229C28.2938 34.9167 28.79 35.3761 28.9888 35.5529C29.1394 35.6873 29.9394 36.3486 30.0688 36.3523C30.5082 36.3654 32.2094 34.7155 32.5325 34.3061L31.7582 36.4648L31.7569 36.4655Z" fill="black"/>
</svg>