<svg xmlns="http://www.w3.org/2000/svg" width="50" height="50" viewBox="0 0 50 50" fill="none">
  <path d="M24.9644 47.8771C24.6275 45.5652 24.1162 43.2821 23.7031 40.9834C23.2375 38.3921 22.9237 35.5046 22.3081 32.9771C22.1987 32.5277 22.055 32.1359 21.8644 31.7171C21.8412 31.4684 22.3256 31.0971 22.4856 30.8327C23.0369 29.9234 23.0519 28.5184 22.9731 27.4684C22.9469 27.1177 22.8394 26.4784 22.4725 26.3677C21.9831 27.2271 21.2837 28.089 20.6225 28.8277C20.2956 29.1934 19.9612 29.3546 19.6356 29.8352C18.03 32.204 18.3437 35.6296 19.3025 38.189L19.8 39.2584C17.2962 36.779 15.3894 33.5527 14.5719 30.0996C14.2 28.5277 14.0656 26.8209 14.3519 25.2284C14.6437 25.6077 14.71 26.0609 15.0044 26.4621C15.8906 27.6715 17.7519 28.4396 18.9819 27.2596C19.6844 26.5852 19.1137 26.709 18.575 26.3815C17.505 25.7309 16.0606 23.2884 16.0606 22.059V20.5277C16.2262 20.4877 16.1781 20.5596 16.2237 20.6177C16.4094 20.854 16.5356 21.1621 16.7137 21.4059C17.5606 22.5634 18.5894 23.6227 19.9062 24.2309C19.77 23.7709 19.6381 23.2565 19.6194 22.774C19.6037 22.3834 19.8062 20.8477 19.7294 20.674C19.6344 20.4596 18.6719 19.3471 18.4481 19.1021C17.8081 18.4009 16.9562 17.3746 16.0625 18.4284C15.3056 19.3209 15.2094 21.4359 15.3575 22.5484C15.5194 23.7615 16.0494 24.6484 16.5587 25.7265C16.4162 25.8571 15.5425 25.3509 15.3837 25.2284C14.0137 24.1702 13.0425 20.9115 12.535 19.2452C12.4625 19.0071 12.1975 17.7377 12.1362 17.6859C11.805 17.4052 10.9237 18.5052 10.7775 18.7696C9.73187 20.6615 9.46687 23.7715 9.50499 25.9071C9.51437 26.4302 9.64562 27.044 9.64937 27.5777C8.49874 26.4202 7.60562 24.7734 7.24999 23.1765C7.03562 22.214 7.13124 19.2009 5.52187 21.0634C4.97437 21.6965 4.72562 22.5165 4.48749 23.3046C3.67874 25.9796 3.10624 29.2552 3.16624 32.0327C3.17437 32.399 3.30062 32.7827 3.24124 33.1684L3.13312 33.134C2.92624 31.8959 2.38374 30.5971 2.19062 29.3759C1.82437 27.0634 1.91749 24.3159 2.17374 21.9877C2.99749 14.5002 7.57499 7.16023 13.8019 2.99086C14.0612 2.81711 15.3981 1.95336 15.6337 2.15273C15.67 2.30773 15.5469 2.31023 15.4712 2.38086C15.015 2.80461 14.5094 3.06148 14.0306 3.57586C12.75 4.95336 11.4006 7.13898 11.735 9.07836C12.0881 11.1271 13.3037 12.1771 15.3225 12.4702C17.3037 12.7584 18.6744 11.934 20.475 11.3009C20.5469 11.229 20.6844 11.324 20.6887 11.3752C20.7019 11.5377 20.1481 11.784 20.0144 11.9102C19.55 12.3477 18.8375 13.7577 18.715 14.3852C18.4 16.0002 19.1644 17.9777 20.1569 19.244C20.6531 18.4021 21.235 17.5177 22.115 17.0377C21.8925 17.5652 21.5619 18.0302 21.435 18.6009C21.2244 19.5515 21.1975 20.5802 21.8012 21.3765C22.2037 21.9071 23.83 23.3146 24.1475 22.0971C24.3056 21.4915 24.165 18.9884 23.9719 18.3509C23.9344 18.2265 23.8044 17.9596 23.6831 17.8934C23.6006 18.3346 23.5487 18.7815 23.3937 19.2071C23.3656 19.2834 23.3631 19.3777 23.2556 19.389C23.1231 18.8446 22.9125 18.304 22.675 17.7965C22.3931 17.1934 21.6706 15.794 20.875 15.9002C20.805 15.9096 20.2594 16.1996 20.3362 15.9371C20.4331 15.6059 20.7556 15.1771 20.8706 14.7615C21.1019 13.9246 21.0669 12.9546 21.3687 12.1259C21.6425 11.374 22.2119 10.789 22.7925 10.2734L22.2775 11.6102C22.1806 12.0921 21.9456 14.1265 22.7875 14.0471C23.1325 14.0146 23.2637 13.4896 23.54 13.3352V14.3677C23.54 14.449 23.9575 15.2802 24.0025 15.2577C24.3762 14.7777 24.5369 14.1802 24.8187 13.6521C24.9562 13.3946 25.0437 13.3946 25.1812 13.6521C25.4631 14.1796 25.6237 14.7777 25.9975 15.2577C26.0425 15.2802 26.46 14.4496 26.46 14.3677V13.3352C26.7362 13.4896 26.8675 14.0146 27.2125 14.0471C28.0537 14.1265 27.8194 12.0921 27.7225 11.6102L27.2075 10.2734C27.7881 10.789 28.3581 11.3734 28.6312 12.1259C28.9325 12.9546 28.8981 13.9246 29.1294 14.7615C29.2444 15.1771 29.5669 15.6059 29.6637 15.9371C29.7406 16.1996 29.195 15.9096 29.125 15.9002C28.3294 15.794 27.6075 17.1934 27.325 17.7965C27.0875 18.304 26.8769 18.844 26.7444 19.389C26.6369 19.3784 26.6344 19.284 26.6062 19.2071C26.4512 18.7815 26.3994 18.3352 26.3169 17.8934C26.1956 17.9596 26.0656 18.2265 26.0281 18.3509C25.835 18.9884 25.6944 21.4915 25.8525 22.0971C26.0725 22.939 26.9419 22.4827 27.41 22.1546C28.68 21.2646 28.89 20.0634 28.565 18.6015C28.4381 18.0309 28.1075 17.5659 27.885 17.0384C28.7644 17.519 29.3469 18.4027 29.8431 19.2446C30.8356 17.9784 31.6 16.0009 31.285 14.3859C31.1625 13.7577 30.45 12.3484 29.9856 11.9109C29.8519 11.7852 29.2981 11.5384 29.3112 11.3759C29.315 11.3246 29.4531 11.2296 29.525 11.3015C31.3256 11.9352 32.6962 12.759 34.6775 12.4709C36.6969 12.1771 37.9112 11.1277 38.265 9.07898C38.5931 7.17773 36.8144 4.37523 35.4731 3.07586C35.1944 2.80586 34.7944 2.62773 34.5294 2.38148C34.4537 2.31086 34.3306 2.30836 34.3669 2.15336C34.6025 1.95398 35.94 2.81773 36.1987 2.99148C42.4256 7.16086 47.0031 14.5009 47.8262 21.9896C48.0819 24.3177 48.1756 27.0652 47.8094 29.3777C47.6156 30.5984 47.0737 31.8977 46.8669 33.1359L46.7587 33.1702C46.6994 32.784 46.8256 32.4009 46.8337 32.0346C46.8944 29.2571 46.3212 25.9815 45.5125 23.3065C45.2744 22.5177 45.025 21.6977 44.4781 21.0652C44.1769 20.7165 43.795 20.259 43.3131 20.609C42.9269 20.889 42.8781 22.604 42.7494 23.179C42.3931 24.7759 41.5 26.4227 40.35 27.5802C40.3544 27.0465 40.4856 26.4327 40.4944 25.9096C40.5325 23.774 40.2675 20.6634 39.2219 18.7721C39.0756 18.5077 38.1944 17.4071 37.8631 17.6884C37.8019 17.7402 37.5369 19.009 37.4644 19.2477C36.9569 20.9134 35.9856 24.1727 34.6156 25.2309C34.4569 25.3534 33.5831 25.8596 33.4406 25.729C33.95 24.6509 34.48 23.764 34.6419 22.5509C34.7906 21.4384 34.6944 19.3234 33.9369 18.4309C33.0437 17.3777 32.1912 18.404 31.5512 19.1046C31.3275 19.3496 30.365 20.4621 30.27 20.6765C30.1931 20.8502 30.3956 22.3859 30.38 22.7765C30.3612 23.259 30.2287 23.7734 30.0931 24.2334C31.41 23.6246 32.4387 22.5659 33.2856 21.4084C33.4637 21.1646 33.59 20.8565 33.7756 20.6202C33.8212 20.5621 33.7725 20.4902 33.9387 20.5302V22.0615C33.9387 23.2915 32.4944 25.734 31.4244 26.384C30.8856 26.7115 30.3144 26.5877 31.0175 27.2621C32.2475 28.4421 34.1094 27.674 34.995 26.4646C35.2894 26.0627 35.355 25.6102 35.6475 25.2309C35.9337 26.824 35.7994 28.5302 35.4275 30.1021C34.61 33.5552 32.7031 36.7815 30.1994 39.2609L30.6969 38.1915C31.6556 35.6321 31.9694 32.2065 30.3637 29.8377C30.0381 29.3571 29.7037 29.1959 29.3769 28.8302C28.7162 28.0915 28.0162 27.2296 27.5269 26.3702C27.1606 26.4809 27.0525 27.1202 27.0262 27.4709C26.9475 28.5202 26.9631 29.9259 27.5137 30.8352C27.6737 31.099 28.1581 31.4709 28.135 31.7196C27.9444 32.1384 27.8006 32.5302 27.6912 32.9796C27.0756 35.5071 26.7619 38.3946 26.2962 40.9859C25.8831 43.2846 25.3719 45.5677 25.035 47.8796H24.9637L24.9644 47.8771Z" fill="black"/>
</svg>