<svg width="50" height="50" viewBox="0 0 50 50" fill="none" xmlns="http://www.w3.org/2000/svg">
<path d="M48.6375 11.8623V20.7298C48.4888 20.7392 48.3832 20.8061 48.2682 20.8936C47.515 21.4648 46.8169 22.403 46.0944 22.9898C46.0413 23.033 45.7838 23.2192 45.765 23.193L45.7688 10.0111C45.8457 9.89547 45.4088 9.22734 45.7219 9.31859L48.6382 11.8623H48.6375Z" fill="white"/>
<path d="M27.7906 4.06861C28.895 4.23361 29.8225 4.85111 30.6144 5.59986L34.2687 3.89861C34.1912 4.54736 32.6075 8.05799 32.7487 8.40986C32.7694 8.46174 33.3644 9.28049 33.4075 9.31674C33.795 9.64049 35.7794 9.02174 36.365 8.98924C36.6544 8.97299 36.8531 9.05924 37.0931 9.06299C37.2869 9.06611 37.8031 8.81486 37.4625 9.26674C37.3175 9.45924 37.1694 9.68174 37.0125 9.88486C36.6662 10.3324 35.1544 11.8205 35.0906 12.2386C35.0325 12.6236 35.375 13.7967 35.4144 14.2986C35.4262 14.4542 35.3262 14.6374 35.3362 14.6517C35.3594 14.6836 35.9094 14.8911 36.0487 14.968C36.7519 15.358 37.5019 15.7192 38.1881 16.108C38.9056 16.5142 38.0212 16.5405 37.7 16.6474C36.9462 16.8974 36.2156 17.2292 35.4412 17.4261C34.8731 17.758 34.6206 19.6999 34.2031 20.2986L34.1875 20.5155C34.4475 21.3792 34.9525 22.1136 35.3044 22.9367L35.8287 23.6842C34.9181 23.6267 33.0687 22.7555 32.2375 23.0899C31.9837 23.1924 31.3937 23.8942 31.0675 23.7305C30.8175 23.6049 29.6331 21.1049 29.1931 20.7692C31.3206 19.1611 32.4569 16.9199 32.2144 14.203C32.1187 13.1324 31.9231 13.588 31.2881 13.4049C31.1444 13.3636 29.6456 11.5986 29.4262 11.3255C29.2631 11.1224 28.3937 10.0424 28.3687 9.91111C28.2681 9.38986 29.92 8.04986 30.1631 7.51049C29.2212 7.33049 28.2119 7.40361 27.2894 7.67424C27.5744 8.18361 27.65 8.78049 27.29 9.27549C26.7925 9.95986 26.0556 10.0774 25.2744 10.058C24.9362 10.0499 23.5931 9.98049 23.3994 9.88049C23.3519 9.85611 22.7269 9.40236 22.6862 9.36236C22.4144 9.09736 22.3937 8.47986 22.4406 8.12049C22.4656 7.92924 22.6556 7.77861 22.5719 7.67111C22.3712 7.41361 19.9862 7.22611 19.8181 7.42799C19.805 7.44361 19.8131 7.57236 19.83 7.62049C20.11 8.09674 21.6687 9.41049 21.53 9.91299C21.4844 10.0774 20.5775 11.1767 20.3912 11.408C19.855 12.0711 19.245 12.6749 18.7162 13.3449C18.5594 13.5417 17.9594 13.288 17.8625 13.4361C17.4919 14.8442 17.6775 16.4742 18.27 17.8024C18.81 19.0124 19.7306 19.9305 20.7175 20.7699C20.2969 21.0349 19.045 23.6092 18.8612 23.6717C18.3275 23.8524 17.8887 23.0186 17.47 22.9686C17.2 22.9367 16.1319 23.1599 15.795 23.2317C15.2562 23.3474 14.735 23.5686 14.1937 23.6817C14.145 23.6261 14.0681 23.6205 14.1119 23.5199C14.1531 23.4261 14.5325 23.0617 14.6606 22.8361C14.8787 22.453 15.2287 21.763 15.4012 21.3599C15.5256 21.0686 15.7544 20.4999 15.6969 20.2136C15.3175 19.7117 14.9669 17.613 14.505 17.3799C14.1656 17.2655 11.4462 16.4967 11.4462 16.3349L11.7437 16.0592L14.5637 14.6467C14.3469 14.0042 14.9519 12.6486 14.775 12.1017C14.7119 11.9067 14.0075 11.0611 13.8231 10.8355C13.5187 10.4636 13.1012 10.0936 12.8056 9.71799C12.7462 9.64299 12.3006 9.02611 12.3475 8.98611C13.7194 8.90736 15.0362 9.26861 16.3962 9.40236C16.4744 9.12549 17.1375 8.52111 17.1806 8.35299C17.2037 8.26486 16.7294 6.82049 16.6556 6.60611C16.5331 6.25049 15.5081 3.94549 15.6312 3.81299L19.2887 5.53236C19.7125 5.22424 20.035 4.88736 20.5019 4.61924C20.9856 4.34174 21.4756 4.18361 21.995 3.99736C22.2119 4.01361 22.8181 5.69424 23.1394 5.70111C23.5806 5.71111 24.2825 4.52424 24.4575 4.14111C24.5331 3.97611 24.845 2.82861 24.9494 2.82861C25.2112 3.42986 25.9056 5.46924 26.5475 5.66611C27.1431 5.84861 27.5581 4.48299 27.79 4.06424L27.7906 4.06861ZM18.9831 11.1892C19.0494 11.1505 19.8931 10.0224 19.8869 9.94611C19.8712 9.75424 19.0581 8.95049 18.8756 8.75674C18.6944 8.75611 17.7237 9.90986 17.7112 10.0974C17.7012 10.253 18.7037 11.3505 18.9831 11.1892ZM30.9994 11.2717C31.2962 11.4492 32.2794 10.3005 32.2719 10.1792C31.9712 9.67299 31.5919 9.17799 31.1075 8.83924C31.0287 8.83924 30.1119 9.88986 30.0994 10.0274C30.0725 10.3155 30.8844 10.9567 31 11.2717H30.9994Z" fill="white"/>
<path d="M9.88438 27.7086L9.80188 4.47238C10.4994 4.45926 11.2013 4.49051 11.8994 4.47613C12.1413 4.47113 12.3656 4.31988 12.5919 4.43176L15.54 7.97363C15.5475 8.02113 15.3938 8.29738 15.3681 8.31301C15.1825 8.42113 12.9894 8.04363 12.5725 7.98426C12.3506 7.95238 12.0294 7.69488 11.8119 7.91926C11.7388 7.99488 11.3575 8.98426 11.3181 9.14926C11.29 9.26551 11.1963 9.84988 11.2119 9.91676C11.2681 10.1593 13.0475 11.7374 13.2713 12.1293C13.4525 12.548 13.1144 13.5236 13.1706 14.0205C12.4675 14.4436 11.7881 14.9868 11.0806 15.3968C10.8406 15.5361 10.4494 15.4824 10.38 15.8455C10.3475 16.0155 10.3581 17.2793 10.4156 17.3661L13.3813 18.3418L14.1838 20.3368C14.2556 20.4755 14.2138 20.5761 14.1838 20.7111C13.9869 21.6011 13.2856 22.673 13.0256 23.5768C13.0181 23.7505 13.6181 24.6118 13.7813 24.6368C14.1919 24.6993 16.0206 24.018 16.125 24.0968C15.2275 25.3368 14.2544 26.5174 13.2925 27.7086H9.885H9.88438Z" fill="white"/>
<path d="M40.0987 4.47314V27.7088H36.6094C35.6331 26.5394 34.69 25.3481 33.7762 24.1381C34.3281 24.1644 34.835 24.4431 35.3731 24.5469C35.5306 24.5769 36.0175 24.67 36.1237 24.6644C36.3137 24.6544 36.9081 23.7544 36.885 23.5831L35.6744 20.5231C36.0331 19.8238 36.1275 19.0119 36.5469 18.3481L39.5281 17.3919C39.4531 17.0356 39.6356 15.9719 39.4844 15.7213C39.3975 15.5781 38.9281 15.4831 38.7569 15.3813C38.0969 14.9881 37.4931 14.4875 36.8137 14.1225C36.6206 13.535 36.6969 12.865 36.5819 12.25L38.6837 9.92502C38.6112 9.67252 38.6425 9.40314 38.5844 9.15002C38.535 8.93439 38.2656 8.19377 38.1656 8.00939C38.1137 7.91439 38.0425 7.84814 37.9281 7.84689L34.6462 8.40189C34.585 8.38689 34.3831 8.09877 34.3794 8.04564C34.365 7.81752 37.0219 4.98627 37.225 4.47502H40.0987V4.47314Z" fill="white"/>
<path d="M5.03999 12.1907V9.19381C5.03999 9.18193 4.94124 8.97818 4.91749 8.98881C4.70124 9.26506 4.26249 9.48881 4.21499 9.84631C4.11936 13.9476 4.35561 18.0713 4.22374 22.1701C4.21936 22.3082 4.17624 23.1607 4.13624 23.1926L1.36249 20.5894V11.8382C3.84936 9.48193 6.47186 7.25818 9.02311 4.96631C9.12936 5.16631 8.98811 5.42943 8.97811 5.66068C8.94686 6.39256 9.12936 8.57068 8.85186 9.06506C8.74311 9.25881 8.00124 9.95256 7.78874 10.1369C6.92999 10.8826 5.91186 11.4588 5.04061 12.1919L5.03999 12.1907Z" fill="white"/>
<path d="M23.6369 36.4936C23.5656 36.4761 23.5481 36.3992 23.5475 36.3261C23.5444 36.0142 23.6769 35.5649 23.6738 35.2224C23.6725 35.058 23.5919 34.9042 23.5913 34.7317C23.5856 33.1661 23.7775 30.9624 23.5094 29.4774C23.4819 29.3249 23.3344 29.1299 23.2125 29.0349C22.84 28.7442 22.3669 28.9424 21.95 28.4092C21.74 28.1411 21.9706 28.2349 22.0763 28.123C22.2163 27.9736 22.3088 27.7417 22.4863 27.708L27.3363 27.7036C27.5088 27.6442 28.0806 28.3749 28.0288 28.4461C27.7638 28.4805 27.5975 28.8186 27.3694 28.8961C27.0569 29.0017 26.4869 28.9436 26.3888 29.4755C26.3469 29.7011 26.3156 30.2717 26.3019 30.538C26.2206 32.0605 26.2538 33.8467 26.2694 35.3855C26.2731 35.7455 26.305 36.1417 26.3875 36.4936C25.6369 36.3711 24.3125 36.658 23.6369 36.4936Z" fill="white"/>
<path d="M8.98123 11.6162V20.8118L5.05811 17.3462L5.08311 14.4918L6.03436 13.7187L8.98123 11.6162Z" fill="white"/>
<path d="M24.1481 16.6012C24.3394 16.4387 24.875 15.3119 24.9506 15.3125C25.1838 15.6038 25.5069 16.4162 25.7681 16.6281C25.9169 16.7487 26.4063 16.8875 26.6606 17.0494C29.7256 19.0025 28.0756 24.5531 24.4131 23.8125C21.2531 23.1731 20.665 18.54 23.3756 16.9369C23.585 16.8131 24.0306 16.7012 24.1488 16.6006L24.1481 16.6012ZM24.5594 17.7938C23.9931 17.8888 23.295 18.4713 23.0363 18.9794C21.96 21.09 24.1225 23.7225 26.1681 22.2756C28.1113 20.9013 26.98 17.3869 24.5594 17.7944V17.7938Z" fill="white"/>
<path d="M3.39813 38.6287L10.245 34.1987C10.6488 34.6962 11.1281 35.1312 11.5244 35.6344C11.6875 35.8419 12.4994 36.9575 12.5144 37.1156C12.5231 37.2119 12.5144 37.2956 12.43 37.3575C11.9931 37.445 10.8913 38.6294 10.5819 38.6294H3.39813V38.6287Z" fill="white"/>
<path d="M46.5031 38.6286H39.565C38.8062 38.6286 38.595 38.1136 38.0412 37.6892C37.86 37.5505 37.3956 37.4592 37.3906 37.1936C37.3806 36.6561 39.3244 34.7561 39.6462 34.1992L46.5031 38.6286Z" fill="white"/>
<path d="M35.4181 39.7773C35.3819 39.8186 34.6912 39.3779 34.605 39.3186C34.3106 39.1161 33.0075 38.1017 32.9575 37.8467C32.6631 36.3398 35.2694 33.4654 36.1912 32.2992C36.305 32.1554 36.3781 31.8711 36.525 31.8917C36.7125 31.9179 38.235 33.3523 38.6194 33.4967C37.1425 35.2629 35.5244 37.3786 35.4181 39.7773Z" fill="white"/>
<path d="M14.4825 39.6956C14.4619 37.9574 13.4869 36.4199 12.53 35.0387C12.3694 34.8068 11.3825 33.5787 11.3738 33.4824C11.3538 33.2687 12.1775 32.8793 12.3869 32.7149C12.7119 32.4593 13.0494 32.0868 13.3744 31.8149C14.1931 32.9337 15.2144 33.9712 15.9631 35.1362C16.3806 35.7862 17.0931 37.0756 16.9438 37.8462C16.8988 38.0774 15.6538 39.0512 15.3788 39.2362C15.2513 39.3218 14.5638 39.7774 14.4838 39.6949L14.4825 39.6956Z" fill="white"/>
<path d="M10.4181 29.3506C10.44 29.3537 10.6331 29.45 10.6231 29.4731L8.91187 31.5381L9.87562 33.1018L9.8475 33.2931L6.15063 35.7556L6.10938 28.0375C6.25187 28.0006 6.27375 28.0968 6.35563 28.16C6.96938 28.6306 7.42813 29.3512 8.28438 29.3512C8.90313 29.3512 9.85188 29.2675 10.4194 29.3512L10.4181 29.3506Z" fill="white"/>
<path d="M43.7937 35.837L40.0512 33.292C39.9944 33.2301 40.035 33.1888 40.055 33.1313C40.11 32.9738 40.6194 32.1938 40.7581 31.9563C40.815 31.8595 41.0625 31.8207 40.9906 31.5432C40.9337 31.322 39.9119 30.347 39.69 30.047C39.5625 29.8745 39.4162 29.687 39.3581 29.477C39.3525 29.2313 41.8919 29.4195 42.1762 29.3345L43.7937 28.0376V35.8376V35.837Z" fill="white"/>
<path d="M27.1269 36.9863C27.1 37.6507 27.1981 38.6982 27.4763 39.3057C27.5669 39.5038 27.8594 39.6351 27.8638 39.8176C27.8719 40.1276 27.0819 40.7088 26.8788 40.9676L23.0794 41.0113C22.93 40.6982 21.9713 40.0713 22.0481 39.7576C22.0944 39.5682 22.4131 39.3326 22.5075 39.0595C22.7144 38.4601 22.8725 37.6176 22.8569 36.9863H27.1269Z" fill="white"/>
<path d="M41.4125 20.4012V12.0269L43.9506 13.7987L44.4087 14.1619L44.41 17.775L41.4125 20.4012Z" fill="white"/>
<path d="M41.5769 45.278C41.4481 45.3086 41.3869 45.253 41.2875 45.1986C40.645 44.8455 39.3663 43.8698 38.7463 43.3886C38.0031 42.8105 37.3169 42.1242 36.6106 41.5011C36.4481 40.353 36.6306 39.1767 37.1031 38.1367C38.2969 38.9198 39.3919 39.8448 40.5444 40.6873C41.0275 42.173 40.985 43.8223 41.5763 45.2786L41.5769 45.278Z" fill="white"/>
<path d="M8.40747 45.2789L9.3556 40.6858L12.7993 38.0552C13.2868 39.1221 13.4487 40.3258 13.2912 41.5008C11.7937 42.9289 10.1175 44.1233 8.4081 45.2783L8.40747 45.2789Z" fill="white"/>
<path d="M8.98123 27.6264C7.62435 26.4677 6.30373 25.2395 5.03998 23.9727V19.9083C5.19935 19.8708 5.1981 19.9664 5.27123 20.0464C6.43123 21.3177 7.79998 22.3195 8.98123 23.562V27.6264Z" fill="white"/>
<path d="M16.8625 39.6137C16.8825 40.0837 17.6225 41.6581 17.4807 41.9899L15.3069 44.9955L11.8557 47.1674C12.2338 46.0099 12.76 44.908 13.17 43.7618C13.2919 43.4218 13.4382 42.588 13.5757 42.3824C13.7444 42.1305 15.0038 41.2999 15.3419 41.0074C15.815 40.5974 16.2407 40.1043 16.6925 39.6687C16.755 39.608 16.7363 39.5837 16.8625 39.6143V39.6137Z" fill="white"/>
<path d="M33.2006 39.6145C33.21 39.622 33.2144 39.7438 33.2888 39.8107C33.4763 39.9807 33.5819 40.122 33.7363 40.2701C34.2413 40.7539 36.135 42.1089 36.3569 42.4932C36.5238 42.782 36.5988 43.3926 36.7313 43.7607C37.1438 44.9057 37.6575 46.0126 38.0456 47.1663L34.6769 45.0757L32.4031 41.8888L33.0388 39.6614C33.0206 39.5801 33.1888 39.6045 33.2006 39.6139V39.6145Z" fill="white"/>
<path d="M27.4956 10.6307C27.8594 10.7345 29.5337 13.2351 29.8369 13.717C29.8737 13.987 29.5812 14.2926 29.4206 14.507C29.2712 14.7051 28.0962 16.1045 27.9894 16.1126C27.2225 15.6882 26.4225 15.2751 25.5669 15.0638C25.4969 14.9732 27.0194 13.752 27.015 13.2988C27.0125 13.0438 26.6606 12.9282 26.5506 12.7851C26.125 12.2345 25.8456 11.3226 25.8956 10.6307C26.3187 10.7076 27.1312 10.527 27.4969 10.6307H27.4956Z" fill="white"/>
<path d="M24.0063 10.6309C24.0931 11.2202 23.8138 12.1115 23.4675 12.5965C23.285 12.8521 22.8819 13.0177 22.9363 13.3771C22.9956 13.7715 24.1469 14.7146 24.4169 15.064C23.5544 15.1759 22.7494 15.6502 21.9806 16.039C21.8344 16.054 20.9969 15.0859 20.8438 14.9021C20.5106 14.5021 19.895 13.9934 20.1588 13.4752C20.4681 12.8677 21.7006 11.3477 22.2025 10.8359C22.2706 10.7665 22.2713 10.6321 22.2819 10.6321H24.0063V10.6309Z" fill="white"/>
<path d="M41.4125 27.2162V23.07C42.4469 22.1731 43.4737 21.2775 44.4506 20.3193V24.4656L41.4125 27.2162Z" fill="white"/>
<path d="M21.1744 40.2898C21.3675 40.3042 22.3663 41.6417 22.6538 41.746C23.7482 41.7792 24.8482 41.721 25.9394 41.7454C26.46 41.7567 27.075 42.0404 27.5282 41.6167C27.6807 41.4742 27.7557 41.2479 27.905 41.0904C28.1732 40.8092 28.4994 40.6129 28.7232 40.2892C28.97 40.3892 29.7281 40.7804 29.7256 41.0504C29.7232 41.3204 28.4438 42.5542 28.2188 42.8817C27.1594 42.8679 26.0888 42.9379 25.0319 42.9329C24.3863 42.9298 23.6875 42.9248 23.0594 42.901C22.7175 42.8879 22.0494 42.8704 21.7488 42.8129C21.565 42.7779 20.24 41.2892 20.2238 41.1279C20.1982 40.866 21.045 40.2798 21.1732 40.2892L21.1744 40.2898Z" fill="white"/>
<path d="M44.4506 8.08565V11.8625L42.195 10.2182C42.0544 10.0969 41.4131 9.55502 41.4131 9.44002V5.54003C41.5563 5.5044 41.5775 5.59878 41.66 5.66253C42.4831 6.29628 43.4919 7.26815 44.2469 8.00565C44.2988 8.05628 44.3788 8.07878 44.4506 8.08503V8.08565Z" fill="white"/>
<path d="M22.775 24.5477C22.8613 23.9627 23.1688 24.4158 23.4131 24.4846C24.0206 24.6552 24.9788 24.7258 25.6063 24.6696C26.1519 24.6208 26.6131 24.3958 27.1256 24.2602V26.8058H22.7744C22.8475 26.1071 22.6756 25.2214 22.7744 24.5477H22.775Z" fill="white"/>
<path d="M27.6187 43.3086C27.775 43.4448 26.5481 44.5692 26.4275 44.703C26.2069 44.9461 25.16 46.2667 24.9506 46.2667L22.2812 43.3498L27.6187 43.3086Z" fill="white"/>
<path d="M21.2963 19.7443C21.0325 19.6481 20.8669 19.3799 20.6881 19.1624C19.5488 17.7768 18.8219 16.1574 18.9156 14.3249C19.1231 14.3331 19.3575 14.2712 19.5363 14.4031L21.9169 17.0274C21.5019 17.9287 21.2963 18.7381 21.2956 19.7443H21.2963Z" fill="white"/>
<path d="M30.9806 14.4126C31.0719 14.5051 30.9231 15.6707 30.8788 15.9026C30.6388 17.1632 29.9438 18.3551 29.1313 19.3276C29.0688 19.4026 28.6944 19.8451 28.605 19.7444C28.6638 18.7507 28.365 17.9201 27.9863 17.0338C28.4025 16.6026 28.77 16.1157 29.1756 15.6769C29.3013 15.5407 29.4719 15.4757 29.5894 15.3519C29.7688 15.1638 30.3469 14.3419 30.5275 14.3326C30.565 14.3307 30.9644 14.3963 30.9806 14.4126Z" fill="white"/>
<path d="M33.8588 45.7705C32.5875 46.0911 31.3244 46.6655 29.9994 46.718C29.8863 46.7224 29.8575 46.793 29.755 46.6336L31.4363 42.8174L33.8581 45.7705H33.8588Z" fill="white"/>
<path d="M20.1469 46.6742C18.7413 46.7155 17.4688 46.0624 16.1238 45.7705L18.4638 42.7349L20.1463 46.6736L20.1469 46.6742Z" fill="white"/>
<path d="M24.1163 21.1942C23.0956 20.1686 24.3756 18.0686 25.6906 19.1686C26.9756 20.2436 25.4175 22.5024 24.1163 21.1942Z" fill="white"/>
</svg>
