<svg xmlns="http://www.w3.org/2000/svg" width="50" height="50" viewBox="0 0 50 50" fill="none">
  <path d="M36.6793 10.3246C36.4593 10.8114 36.2218 11.2964 36.0187 11.7908C35.46 13.1546 34.9881 14.5577 34.4306 15.9221C34.2037 16.4771 33.4375 17.8402 33.4037 18.3183C33.3562 18.9839 34.9156 20.8814 35.2131 21.5889C34.5393 21.8852 33.8443 22.1096 33.2318 22.5289C32.8056 22.0196 31.5656 19.7958 31.0331 19.6314C30.4906 19.4639 30.1643 19.6608 29.7731 19.9833C27.4356 21.9071 26.6006 25.9727 28.7618 28.3202C29.2731 28.8752 29.4737 29.0008 30.2931 28.8727C30.795 28.7945 31.6693 27.8102 31.7612 27.8308C31.9431 28.3158 32.1943 28.7033 32.5062 29.1127C32.6075 29.2452 32.7968 29.1964 32.6693 29.4346L27.6831 34.4927C27.57 34.5833 26.8831 35.0146 26.81 35.0133C26.69 35.0114 26.73 34.9233 26.7731 34.8389C27.0156 34.3614 27.6206 33.4096 27.7212 32.9264C27.7575 32.7514 27.7806 31.5821 27.7375 31.437C27.6675 31.1989 26.4962 30.1695 26.2506 29.9252C26.005 29.6808 25.2918 28.7958 25.05 28.7477C24.97 28.732 24.8968 28.7246 24.8243 28.7714C24.1312 29.5633 23.185 30.2752 22.5187 31.0727C22.1256 31.5433 22.345 31.4102 22.3175 31.8421C22.3062 32.0158 22.2456 32.1852 22.2425 32.3302C22.2256 33.0783 22.6631 33.7677 22.995 34.4358C23.0781 34.6027 23.1787 34.7602 23.2875 34.9108C23.2625 34.9933 23.1375 34.9321 23.0775 34.9108C22.2 34.6039 20.4812 32.8546 19.7612 32.1258C18.8912 31.2446 18.1037 30.2689 17.2206 29.3977L17.2193 29.2964C17.73 29.0252 18.0593 28.2439 18.1962 27.6908C18.9187 28.3314 19.3531 29.0483 20.4581 28.8727C20.7756 28.8221 21.4737 28.0021 21.6712 27.7139C22.7925 26.0758 22.6737 23.4608 21.7125 21.7677C21.2825 21.0102 19.9156 19.0689 18.8987 19.6402C18.1568 20.0571 17.1868 22.0283 16.625 22.7389C16.5206 22.7633 16.0475 22.2008 15.8737 22.0964C15.5706 21.9139 15.1168 21.8058 14.7787 21.6914C14.7606 21.6133 14.7881 21.5564 14.8156 21.4864C15.11 20.7452 15.9306 19.7964 16.325 19.0189C16.4412 18.7902 16.5768 18.5633 16.6325 18.3089C15.4293 15.6633 14.5406 12.892 13.3137 10.2539C13.3662 10.2039 14.0631 10.6821 14.1725 10.7546C15.1175 11.3783 16.2468 12.4083 17.17 12.9183C17.7462 13.2364 18.0331 13.2239 18.5125 12.7671C19.3968 11.9246 20.5025 10.1339 21.1543 9.06143C22.3543 7.08705 23.6775 4.7958 24.6256 2.69768C24.6862 2.56268 24.9281 1.74268 24.9968 1.74268C25.435 2.88143 25.9681 4.00143 26.54 5.08268C27.7181 7.3108 29.295 10.1808 30.8925 12.0996C31.5356 12.8721 31.8462 13.5177 32.8925 12.9164C33.8637 12.3583 34.9362 11.3652 35.9325 10.7252C36.035 10.6596 36.6243 10.2702 36.6806 10.3233L36.6793 10.3246ZM24.8925 10.8127C24.2637 11.9539 23.7068 13.1364 23.1043 14.2914C22.9018 14.6802 21.6706 16.7739 21.6831 16.9802C21.6931 17.1408 22.4656 18.1739 22.6181 18.4208C23.3062 19.5364 24.1031 21.2871 24.8606 22.2471C24.9075 22.3064 24.9712 22.4127 25.0643 22.3908C26.1462 20.6758 27.0237 18.827 28.2568 17.2102C28.2981 17.142 28.3087 17.0708 28.3062 16.9921C28.2962 16.7258 27.2268 14.982 27.0168 14.5802C26.5375 13.6621 26.1131 12.7127 25.6006 11.8114C25.4706 11.5827 25.2118 11.0364 25.0612 10.8858C25.0037 10.8283 24.9981 10.7871 24.8918 10.8121L24.8925 10.8127Z" fill="black"/>
  <path d="M37.3756 24.343C37.155 24.3105 37.0262 24.1062 36.8069 24.0418C35.5662 23.6787 34.1681 25.3199 34.3069 26.473C34.3962 27.2162 35.2219 27.2987 35.2756 27.4568C35.3206 27.5899 35.2694 27.8268 35.2931 27.9968C35.4362 29.0218 35.845 30.4455 36.9775 30.7762C37.2475 30.8549 37.9669 30.7549 37.7625 31.1112L27.4794 41.4112L31.6944 45.968C31.8444 46.2949 30.9962 47.1093 30.7512 47.3268C30.4075 47.6312 29.9687 47.8349 29.6731 48.2012L29.335 48.2555L24.9269 43.9599C24.7575 43.9462 22.7862 46.0237 22.4862 46.3162C22.0656 46.7268 21.6131 47.2299 21.195 47.6055C20.9862 47.793 20.635 48.1668 20.3581 48.0224C19.9144 47.5324 19.2581 47.1837 18.8187 46.7018C18.6519 46.5187 18.2094 45.9724 18.2744 45.7374L22.3669 41.3968C19.9087 38.7755 17.1431 36.3574 14.705 33.7268C13.88 32.8368 13.1844 31.7974 12.2662 31.0037C12.2369 30.8412 12.3387 30.9118 12.4406 30.9018C13.7669 30.7724 14.48 29.7174 14.6756 28.4624C14.7087 28.2499 14.6831 27.4712 14.7156 27.4218C14.7544 27.363 15.435 27.2149 15.5812 26.718C15.9669 25.413 13.94 23.183 12.6487 24.4118C12.2244 23.9168 12.3775 23.6168 12.9156 23.3543C15.6275 22.0324 19.2769 26.1587 16.2762 28.738C16.0731 28.913 15.8719 28.8193 15.8875 29.1899C15.9037 29.5843 16.7094 30.4068 17.0056 30.7274C18.5337 32.3793 20.2819 33.8343 21.6806 35.6105L24.8662 38.7712C25.1431 38.7562 25.2162 38.4887 25.3775 38.3268C26.9169 36.7805 28.3969 35.2162 29.9112 33.653C30.635 32.9062 33.7669 30.0424 33.9894 29.3624C34.1887 28.7549 33.7919 28.8737 33.4431 28.5212C33.0325 28.1062 32.5594 27.1824 32.5025 26.6018C32.3312 24.8537 34.2194 22.978 35.9462 23.0324C36.5912 23.053 38.0719 23.4918 37.375 24.343H37.3756ZM30.51 35.403C28.5712 37.2299 26.7994 39.2555 24.8569 41.0824L19.2437 35.258C18.9369 35.0218 18.9812 35.0999 18.7162 35.3637L24.5412 41.3968C24.1987 41.9187 20.9481 44.8305 20.9906 45.0837C21.0106 45.2037 21.325 45.4474 21.4412 45.2718L24.9162 41.7855L28.48 45.4812C28.6312 45.6687 28.9931 45.3674 28.9062 45.1987L25.245 41.4062L31.2081 35.4324C31.2944 35.3105 31.0331 35.0805 30.925 35.0818C30.8025 35.083 30.6037 35.3137 30.51 35.4024V35.403Z" fill="black"/>
  <path d="M40.0281 31.5974C40.2568 31.1249 40.5962 30.2999 40.0625 29.9243C39.46 29.4999 38.9731 30.1536 38.3675 30.1874C37.3656 30.243 36.3968 29.3243 36.2675 28.3486C36.0118 26.4211 37.4131 25.7105 38.1568 24.1818C38.9612 22.5286 39.8781 19.6961 38.6612 18.0724C38.0025 17.1936 37.2381 17.3761 36.3993 17.0561C35.9987 16.903 35.5687 15.9168 35.5118 15.5024C35.1462 12.8368 38.7862 11.9986 40.5487 13.3949C41.5387 14.1786 42.8293 16.6574 43.4118 17.8555C44.445 19.9811 43.6975 22.4361 42.9193 24.5505C42.3937 25.9786 41.5612 27.1455 40.6556 28.3561C40.6224 28.5018 41.1731 28.6143 41.3456 28.7799C42.4593 29.848 41.4075 31.5411 40.0275 31.5974H40.0281ZM38.0562 26.593C37.4 26.7036 36.9287 27.5749 37.0449 28.1993C37.1993 29.028 38.2806 29.4536 38.9443 28.9455C40.0674 28.0855 39.5362 26.3443 38.0562 26.593Z" fill="black"/>
  <path d="M8.66437 28.7619C8.89187 28.53 9.39937 28.5519 9.32687 28.2963C8.74437 27.4313 8.02124 26.5319 7.55749 25.6006C6.78937 24.0575 5.99187 21.1288 6.12624 19.4238C6.20937 18.3725 7.80874 15.6119 8.41874 14.6019C9.32312 13.1038 10.6712 12.6356 12.41 12.9356C14.3737 13.2744 15.0544 15.5738 13.5944 16.9875C12.875 17.6844 11.9856 17.0638 11.205 18.2944C10.15 19.9569 11.0331 22.6169 11.8362 24.2513C12.6075 25.8206 14.3462 26.9625 13.5369 28.9263C13.2019 29.7388 12.1394 30.3581 11.2712 30.1169C10.8544 30.0013 10.4794 29.4969 9.92999 29.9225C9.38062 30.3481 9.82062 30.965 9.97874 31.4125C10.015 31.5156 10.0637 31.4931 9.93187 31.5963C9.65937 31.4369 9.33312 31.4556 9.06249 31.2813C8.24999 30.7581 7.95624 29.4863 8.66499 28.7631L8.66437 28.7619ZM11.4819 26.5919C10.5762 26.7375 10.2056 27.6681 10.6325 28.4544C11.4444 29.9494 13.48 28.8506 12.8375 27.4356C12.5969 26.905 12.0981 26.4931 11.4819 26.5919Z" fill="black"/>
  <path d="M38.8413 31.6675C38.8363 31.7775 38.8744 31.875 38.92 31.9725C39.2563 32.695 39.76 33.6706 40.1794 34.34C40.5375 34.9119 40.705 34.8581 41.3782 34.7969C42.5357 34.6925 43.805 34.2094 44.965 33.9894C45.0369 33.9756 45.5432 33.8275 45.4669 34.0025C44.06 35.6944 42.0363 37.1219 41.6307 39.4088C41.5538 39.4975 41.0288 38.9013 40.9275 38.8219C39.625 37.8044 38.1069 38.485 36.9638 39.38C36.8763 39.4481 36.3038 39.9469 36.2794 39.9856C36.2632 40.0113 36.1338 40.5025 36.1263 40.5656C36.0394 41.3288 36.4757 43.0263 36.6988 43.8181C36.7638 44.0481 37.2107 44.975 37.0963 45.1288C35.9113 44.2244 35.37 42.5763 33.75 42.2331C33.1407 42.1038 31.8263 42.18 31.2207 42.3563C30.8957 42.4506 30.3782 42.8356 30.0138 42.6213C29.91 42.56 29.095 41.6713 29.0819 41.5956C29.3357 41.1969 29.7619 40.8844 30.0888 40.5256C30.6519 39.9075 31.1763 39.2406 31.7688 38.6488C32.3707 38.0475 33.1257 37.5319 33.6794 36.8581C34.0913 37.0575 34.4132 37.4675 34.8982 37.5269C35.9244 37.6525 36.4969 37.4838 36.8713 36.4969C37.2525 35.4906 37.0632 34.5194 36.9907 33.4813C37.5425 33.0169 38.0882 32.1313 38.6657 31.735C38.7244 31.6944 38.7344 31.6381 38.8407 31.6663L38.8413 31.6675Z" fill="black"/>
  <path d="M11.3588 31.5289C11.3675 31.5364 11.3894 31.6652 11.4607 31.7389C11.9907 32.2921 12.5319 32.8114 13.0244 33.3921C12.9538 34.4371 12.6938 36.6989 13.735 37.3489C13.98 37.5021 14.7788 37.4921 15.0919 37.4571C15.5682 37.4033 15.95 37.0802 16.2775 36.7602L20.9157 41.4677C20.4369 41.6589 20.0275 42.6489 19.5063 42.6039C19.2088 42.5783 18.9957 42.3771 18.7532 42.3046C17.6688 41.9802 16.2182 42.0164 15.2425 42.6296C14.3269 43.2046 13.9407 44.2627 13.1388 44.9202C13.06 44.9846 13.0263 45.0896 12.895 45.0589C12.8132 44.9671 13.2657 43.8521 13.3238 43.6402C13.565 42.7608 14.155 40.6921 13.6625 39.9321C13.3988 39.5246 11.9613 38.5564 11.4857 38.4121C10.155 38.0096 9.24941 38.4471 8.36129 39.4096C8.38691 39.1958 8.34004 39.0302 8.27504 38.8321C7.61191 36.8058 5.78941 35.5102 4.52441 33.8996C5.85191 34.0021 7.09879 34.5414 8.41441 34.7171C8.64191 34.7477 9.23441 34.8346 9.41129 34.7758C9.62691 34.7039 9.91566 34.1008 10.0469 33.8764C10.4813 33.1346 10.8463 32.3464 11.2163 31.5708C11.2088 31.5008 11.3475 31.5189 11.3588 31.5283V31.5289Z" fill="black"/>
</svg>