<svg width="50" height="50" viewBox="0 0 50 50" fill="none" xmlns="http://www.w3.org/2000/svg">
<path d="M17.2531 9.0183C19.1219 8.55205 20.2906 6.54642 20.9613 4.87392L21.545 3.93455C21.5375 4.2583 21.7413 4.58455 21.7506 4.89205C21.8094 6.97955 21.0269 9.15705 19.3219 10.3477C19.2244 10.4158 19.1119 10.3271 19.1738 10.5983C20.6388 10.8096 22.3706 10.7458 23.5794 9.8083C23.6994 10.2239 22.935 11.3283 23.0631 11.5077C23.4744 11.7327 24.0706 11.8789 24.43 12.1789C24.6963 12.4008 24.9131 12.8077 25.2163 13.0877C25.9588 13.7727 27.0506 14.4802 28.0994 14.4414C27.5444 15.3958 25.8119 14.5439 25.3456 14.6752C24.7756 14.8358 25.4469 16.1995 25.6369 16.5083C26.3319 17.6427 27.6288 18.2177 28.7775 18.7895C27.7706 19.6527 26.2956 19.2758 25.1631 18.847C24.7313 21.1264 26.6975 22.9845 28.7775 23.3089C28.035 24.0283 26.2988 25.1389 25.2444 24.9214C24.9913 24.8695 24.7406 24.632 24.4825 24.5545C23.5344 24.2689 22.6425 24.1439 21.6606 24.0427C23.4569 21.9189 24.1925 18.9308 23.2994 16.2477C23.1694 15.8564 22.4844 14.8096 22.4844 14.7233C22.4844 14.6014 22.9744 14.1352 22.9025 13.877C22.5781 13.9452 22.41 14.1533 22.0456 14.2052C21.4406 14.2914 20.0906 14.1833 19.5425 13.9127C19.3588 13.8221 19.3488 13.5839 19.2244 13.5545C18.8744 13.4739 17.9075 14.0058 17.48 13.9902C17.1781 14.2683 18.2556 14.2339 18.3906 14.2652C18.7925 14.3577 19.0594 14.6352 19.3781 14.7464C20.6088 15.177 21.1956 14.6295 21.795 16.0577C22.66 18.1189 21.9388 22.3008 20.2538 23.8233C19.8913 24.1514 19.3125 24.0695 18.8338 24.2108C15.8006 25.1058 13.3738 28.8227 14.785 31.8795C14.885 32.0958 15.6225 33.277 15.7319 33.3127C15.7813 33.3283 16.0131 33.3452 16.0106 33.2527C14.8844 31.3558 15.8306 26.7877 17.935 25.9108C19.6325 25.2033 22.0231 25.317 23.7875 25.702C24.8306 25.9302 26.3288 26.6245 27.3369 26.5002C29.4181 26.2433 32.2913 22.8402 33.1519 21.017C34.6956 17.7483 34.6469 10.6377 32.4406 7.67142C32.0563 7.15455 29.0413 5.09892 28.4869 5.06267C28.3131 5.05142 28.1856 5.07017 28.1106 5.24705C28.22 5.63142 28.16 5.96267 28.0875 6.34955C28.0556 6.5208 27.9238 7.0058 27.7638 7.0958C27.0569 3.39455 22.945 2.5733 19.7419 2.35017L21.2306 1.86392C24.3813 1.23517 26.7644 1.59892 29.77 2.54767C41.3781 6.21455 48.4275 16.3883 47.7644 28.6239C47.52 33.1402 44.675 41.3008 40.7238 43.8402C40.5675 43.9408 40.2663 44.2358 40.0781 44.0983C41.1006 42.3983 42.1881 40.7177 42.8213 38.8202C43.3013 37.3814 43.9744 34.4802 43.5563 33.0495C43.5106 32.8945 43.2713 32.6533 43.0944 32.6539C42.4313 32.6558 42.16 34.0845 41.905 34.6277C39.8169 39.0702 36.3931 44.3002 32.1325 46.8858C30.9963 47.5752 29.5481 48.2464 28.2163 48.2795C29.9763 46.6558 32.0575 45.1152 33.6419 43.3108C35.7063 40.9595 37.0563 37.8239 36.6888 34.6083C36.6581 34.342 36.5994 33.8433 36.2388 33.8739C35.2975 35.6539 33.8369 37.3627 32.4538 38.8464C30.805 40.6152 28.1888 43.1264 26.2175 44.4727C22.7469 46.842 18.4481 47.9077 14.32 48.4471L15.9038 47.7164C22.325 44.1202 28.7363 39.8795 32.5556 33.4127C34.0881 30.8177 35.7063 26.777 35.8969 23.762C35.9044 23.642 36.0019 22.7808 35.73 22.917C34.6394 24.6883 33.6013 26.4089 31.8844 27.6583C27.9488 30.5245 25.3306 26.6314 21.5719 27.8527C19.5581 28.5077 17.9781 30.8314 18.2744 32.9702C18.8394 32.8671 19.6856 32.5108 20.2413 32.5289C21.0363 32.5546 21.8694 33.2008 22.7319 33.2002C22.91 33.2002 23.8719 33.0652 24.0094 33.0083C24.1788 32.9395 24.2988 32.5614 24.6356 32.3827C24.935 32.2239 25.2794 32.1602 25.6181 32.1783C25.6963 31.8383 25.3469 31.9927 25.1013 31.8495C24.5369 31.5189 24.3988 31.1595 23.6275 31.062C22.5919 30.9314 21.6931 31.0695 20.76 31.5008C21.3863 29.712 22.5669 29.2608 24.38 29.5189C25.9925 29.7477 27.0931 31.1695 28.7788 30.2595C27.5594 33.082 25.6863 36.0796 22.3413 36.4733C22.4031 34.8058 19.8681 34.0558 18.4994 34.2139L19.1194 36.022C17.855 35.6233 16.0519 35.1983 14.9938 34.3858C14.2944 33.8483 12.5481 31.8764 12.3381 31.0539C11.6456 28.3408 13.9006 24.7645 15.6163 22.802C16.5575 21.7258 18.2188 20.6452 18.885 19.5183C19.7544 18.0464 20.3713 16.0064 18.7175 14.8458C18.2794 14.5383 17.2731 14.0633 17.1988 14.8958C17.4919 15.2633 17.6588 15.5445 18.1594 15.6289C17.3256 16.2608 16.4463 16.1858 15.7881 17.0983C15.2013 17.9121 15.5725 18.4152 16.4644 18.6795C16.1669 19.3545 13.97 19.6339 13.9781 19.0202C13.9781 18.9764 14.4081 18.872 14.5013 18.4014C14.6106 17.842 14.4094 17.2958 14.6869 16.5627C14.9438 15.8852 15.3775 16.0539 15.7869 15.5739C14.4994 15.187 13.2831 16.4177 13.0744 17.6058C12.7625 17.4545 13.0281 17.0164 12.5125 17.1545L12.2294 18.8489C10.9263 18.0983 10.315 16.697 10.14 15.2345L11.2144 15.8677C11.5888 15.8508 12.4763 14.7045 12.5725 14.3345C12.6706 13.9533 12.5925 13.5883 12.675 13.1939C12.7488 12.8433 13.4 11.302 13.5944 10.9495C13.7369 10.6914 13.97 10.3289 14.2056 10.1502L13.8875 11.5508L14.205 11.7308C14.53 11.0445 15.1038 10.5758 15.4975 9.91517C16.1944 8.74392 16.8031 6.97955 16.4675 5.63142C16.6413 5.67892 17.2575 6.4208 17.2575 6.4783V9.02017V9.0183H17.2544H17.2531ZM39.3944 32.5164C39.9231 31.6558 40.77 30.9764 41.3425 30.1139C45.0113 24.587 42.3338 14.547 37.4806 10.4258C37.2419 10.2233 36.0369 9.35642 35.7819 9.58392C35.7694 9.79767 35.9569 9.9708 36.075 10.137C37.1494 11.6452 38.2944 12.9914 39.0775 14.7039C40.1113 16.9658 41.2706 21.5458 40.9813 23.9902C40.9431 24.312 40.8394 24.5195 40.5819 24.7208L39.1681 22.6352C38.6581 21.9702 37.0075 20.787 36.2644 21.5877C35.8181 22.0689 36.5044 22.2802 36.7956 22.6345C38.6288 24.8639 39.8163 29.6471 39.1694 32.4589L39.395 32.5164H39.3944ZM15.4456 13.0864C15.1825 13.0814 15.0619 13.3271 14.7863 13.3639C14.5519 13.3958 13.8994 13.1652 13.865 13.197L13.6375 14.3264C14.5325 14.6664 14.9388 13.622 15.4463 13.0852L15.4456 13.0864ZM12.395 16.4758L11.6525 16.8139L11.7188 17.3777C12.0144 17.4452 11.8944 17.3039 11.9525 17.2133C12.1056 16.9758 12.255 16.7208 12.395 16.4752V16.4758Z" fill="white"/>
<path d="M6.06749 31.6118C5.72312 31.8681 3.87249 30.4681 4.88249 33.1931C5.94374 36.0581 9.79249 39.2981 12.36 40.8549C14.8 42.3343 17.5569 43.2306 20.415 43.4181C19.7506 43.9137 17.8681 45.6824 17.1687 45.8224C15.805 46.0956 12.7637 44.5531 11.6131 43.7474C8.54374 41.5968 5.87937 38.5849 4.19812 35.2324C4.04562 34.9293 3.59812 33.5681 3.47187 33.4731C3.24749 33.3056 3.15562 33.6024 3.06874 33.7531C2.87499 34.0899 2.76687 34.4999 2.79062 34.8881C2.57687 35.1993 2.23437 33.1787 2.22312 33.0281C1.99249 30.0393 3.15312 26.9462 4.50874 24.3468L5.27624 23.2524C4.51937 26.0618 4.02624 29.2087 6.06812 31.6112L6.06749 31.6118Z" fill="white"/>
<path d="M29.3413 34.8905C28.1125 36.4474 26.9125 38.5149 25.0119 39.3162C21.1513 40.9437 13.31 38.6705 10.9 35.198C10.1419 34.1062 9.37938 32.6255 9.45813 31.2749C11.1694 33.413 13.29 35.3068 15.8688 36.3299C18.5581 37.3974 22.5194 38.358 25.2381 37.0568C25.8681 36.7549 26.5025 36.1318 27.0925 35.8612C27.42 35.7105 27.8519 35.6649 28.2088 35.5087C28.6319 35.3249 28.9369 35.063 29.3406 34.8905H29.3413Z" fill="white"/>
<path d="M30.245 43.8154C29.7507 44.7142 28.975 45.5748 28.1519 46.1842C26.6738 47.2792 24.7482 46.9529 23.0144 47.2023L26.4382 45.3742C26.9907 45.1617 27.7394 44.2704 28.2157 44.1011C28.7582 43.9086 29.6532 43.9592 30.2444 43.8154H30.245Z" fill="white"/>
</svg>
