<svg xmlns="http://www.w3.org/2000/svg" width="50" height="50" viewBox="0 0 50 50" fill="none">
  <path d="M41.9569 21.2175C41.4269 21.7719 40.9063 22.3119 40.3019 22.7925L38.545 24.0731L39.815 21.8581C40.05 21.3681 40.8181 19.5919 40.7556 19.1456C40.6894 18.675 40.2719 18.2906 39.8419 18.14C38.6313 17.715 37.0544 17.9956 35.8081 18.14C34.4325 20.1837 35.4625 22.745 37.78 23.4125C38.03 28.3644 35.1263 32.8937 30.7425 35.0425C31.3831 35.4094 32.4281 35.2912 33.0881 35.0219C33.3231 34.9256 33.8813 34.5062 34.0413 34.4975C34.3175 34.4831 34.4713 34.8287 34.6419 34.98C35.2225 35.4937 35.7731 35.2875 36.4338 35.075C36.0388 36.5312 34.6606 37.0381 33.3381 37.3812C33.195 37.1712 33.2288 36.9081 33.0144 36.7356C32.3125 36.1706 30.9394 36.9606 31.4525 37.7862C31.6856 38.1612 32.9925 38.3831 33.4281 38.3369C33.2994 38.7519 33.2931 39.1825 33.1931 39.6044C33.1188 39.9169 32.9369 40.2394 32.8813 40.5069C32.7581 41.0969 33.3106 42.12 33.4206 42.7887C33.6388 44.1131 33.565 45.4775 33.685 46.8094C33.7213 47.2156 33.84 47.6181 33.8875 48.0194C33.8988 48.1169 33.965 48.1712 33.8438 48.2487C33.1113 46.6181 31.815 45.2525 30.9875 43.6869C30.6963 43.1362 30.4644 42.0619 30.1838 41.6762C29.9838 41.4012 29.4094 41.1369 29.1131 40.8919C28.8344 40.6619 28.6306 40.3387 28.3094 40.155C28.3 40.0675 28.2994 40.0544 28.3538 39.9937C28.49 39.8437 28.7556 39.6787 28.92 39.4875C29.0513 39.3344 29.2944 39.0244 29.3669 38.8469C29.8369 37.6919 28.3063 37.4769 27.7363 38.3037C27.4006 38.7906 27.8469 39.2425 27.8 39.2944C26.6725 39.6019 25.6713 40.1169 24.475 39.6462C24.405 39.6187 23.9219 39.3812 23.8994 39.3581C23.7938 39.2506 23.9231 39.2506 23.9931 39.23C24.4144 39.105 24.8225 38.9831 25.0794 38.5887C25.3181 38.2225 25.1588 37.5906 25.4613 37.3719C25.5813 37.285 26.3025 37.2969 26.5869 37.2181C27.2113 37.045 28.0419 36.47 28.3763 35.9062C23.0244 37.2581 17.165 34.9806 14.5063 30.1056C15.6269 28.78 15.8206 26.9194 14.6588 25.5437C14.4194 25.26 13.5063 24.5131 13.1544 24.6112L11.1125 26.0287C10.3588 26.6456 8.6725 28.1231 9.54625 29.1856C9.82625 29.5262 11.5219 30.3044 12.0044 30.5006C12.7588 30.8069 13.5113 30.9956 14.285 31.2294C14.39 31.2612 14.465 31.1781 14.4338 31.365L11.9075 31.5562C10.6481 31.6025 8.1775 31.4806 7.08313 30.8819C4.04813 29.22 9.01375 25.8619 10.435 24.9681C11.3119 24.4169 12.2575 23.9987 13.1188 23.4312C13.5631 19.7412 15.6206 16.4012 18.7656 14.4269C21.4306 14.925 23.8888 14.0812 25.9163 12.3706C29.1356 12.4619 32.2644 13.7494 34.5175 16.0462C34.67 16.2019 35.3388 17.0675 35.4513 17.0887C35.9663 16.9794 36.4775 16.8287 36.9969 16.7381C38.4469 16.485 42.3775 15.9544 43.4694 17.0712C44.7181 18.3487 42.8225 20.3125 41.9569 21.2181V21.2175ZM32.83 18.02C27.8669 12.8719 19.9663 13.9569 16.7006 20.3612C12.8188 27.9744 19.9244 36.0369 27.9413 34.3519C28.7025 34.1919 27.9869 33.9537 27.9875 33.8869C27.9881 33.7962 28.3138 33.1169 28.3594 32.8512C28.4038 32.5887 28.4181 32.2644 28.3756 32.0044C28.5525 31.9656 28.5238 32.1687 28.6306 32.2919C28.7531 32.4325 28.9694 32.6581 29.1125 32.7694C29.28 32.9 29.8206 33.125 29.8456 33.1581C29.8656 33.185 29.735 33.5025 29.7831 33.6019C33.6419 31.6231 36.1488 27.0744 35.2531 22.7275C34.89 20.9656 34.0775 19.3131 32.83 18.0194V18.02Z" fill="black"/>
  <path d="M26.265 8.08445L25.6956 8.44195C24.8638 9.23445 25.4906 10.1282 25.3438 10.9195C25.195 11.7213 24.7119 11.2457 24.1519 11.3101C23.5813 11.3757 23.2863 11.7951 23.0563 12.262C22.9206 12.5376 22.7513 13.2345 22.6494 13.3895C22.5844 13.4882 22.4113 13.5426 22.2994 13.4945C21.4325 13.007 20.6313 12.5207 19.615 12.9132C19.1175 13.1057 19.0838 13.6988 18.5275 13.1038C18.2531 12.8101 18.1325 12.3588 17.9156 12.0532C17.4969 11.462 16.87 11.222 16.1606 11.3451C16.8894 10.7038 17.7938 10.1332 18.8113 10.3263C19.2694 10.4132 19.1406 10.7513 19.3031 11.0495C19.5094 11.4282 20.0538 11.6207 20.415 11.347C21.0194 10.8888 19.9 10.7995 19.8675 10.6645C19.79 10.1832 19.9669 9.71695 19.9975 9.26633C20.0544 8.41633 19.6713 7.63508 19.5056 6.8182C19.2756 5.68008 19.2044 4.47758 19.03 3.32883C18.95 2.80133 18.795 2.28258 18.7513 1.75195C19.2806 3.1982 20.1131 4.5157 20.7131 5.9307C21.0244 6.66383 21.2356 7.67945 21.5863 8.31945C21.8563 8.81195 22.4419 9.22383 22.7444 9.72383C22.7688 9.85883 22.2525 10.1001 22.4881 10.4232C22.8031 10.8557 23.5006 10.297 23.5144 9.83633C23.5281 9.3757 23.055 9.31445 23.515 8.77258C23.7169 8.53508 24.6013 8.08445 24.8913 8.08445H26.2663H26.265Z" fill="black"/>
  <path d="M22.9319 28.3501C22.9737 28.3232 23.3531 27.5007 23.3975 27.4732C23.4694 27.4276 23.7825 27.4807 23.9244 27.4557C24.4575 27.3632 24.91 27.1213 25.3056 26.7588C25.3075 27.1526 25.0237 27.5132 24.725 27.7445C24.2525 28.1107 23.9769 27.9576 23.7575 28.6363C23.7356 28.7045 23.68 28.6963 23.7706 28.772C24.22 29.1463 25.41 29.2851 25.9806 29.2563C27.2519 29.192 28.1681 28.6857 29.0794 27.847C29.2494 28.6195 29.3106 29.1757 28.915 29.8882C28.3506 30.9045 27.0187 31.6763 25.8825 31.7163C26.1775 31.4138 26.1906 30.7526 25.815 30.5038C25.5 30.2951 23.8725 29.8038 23.4531 29.7276C23.0387 29.652 23.0875 30.4207 23.1812 30.707C23.3131 31.1107 23.5981 31.1332 23.9344 31.2345C23.9912 31.252 24.0644 31.2001 24.0262 31.3301C23.9819 31.4838 23.3556 32.0838 23.1969 32.2276L22.1094 33.0257C21.9087 32.0907 21.7769 31.0663 22.0631 30.1338C22.1262 29.9282 22.4081 29.4495 22.3581 29.2951C21.3037 28.7113 20.5081 27.8595 20.1719 26.6801C20.0344 26.197 20.0612 25.6451 19.8619 25.1995C19.6412 24.707 19.2475 24.1882 18.7844 23.912C19.2775 23.4795 20.03 23.3045 20.6637 23.5026C21.2606 23.6895 20.9269 23.9063 20.8937 24.2951C20.7844 25.5595 21.0962 26.8763 21.98 27.8145C22.1244 27.9682 22.7212 28.4845 22.9331 28.3488L22.9319 28.3501Z" fill="black"/>
  <path d="M28.7588 16.6542C29.0788 17.4654 29.2388 18.1485 29.0494 19.0229C28.8719 19.8423 28.4219 20.4285 28.0225 21.1298C27.9494 21.2579 27.7006 21.871 27.6663 21.8948C27.6419 21.9117 27.2681 21.8767 27.0838 21.9179C26.675 22.0085 26.3225 22.2448 25.9456 22.4098C26.0663 22.1942 26.1638 21.8542 26.3281 21.6742C26.5338 21.4492 27.0206 21.3423 27.1631 21.166C27.1994 21.121 27.4188 20.6248 27.4113 20.5948C27.3563 20.3616 26.23 20.006 25.9769 19.981C24.6906 19.856 23.4813 20.2229 22.4913 21.0348C22.4031 21.1073 22.0025 21.5935 21.9169 21.5154C21.4756 20.1417 22.2756 18.731 23.4725 18.051C23.7656 17.8848 24.1013 17.8104 24.3788 17.6141C24.3994 17.8454 24.215 17.951 24.2131 18.2204C24.2119 18.3829 24.2563 18.5879 24.3856 18.6935C24.6425 18.9035 26.0338 18.9823 26.5081 19.1292C26.9556 19.2679 27.3625 19.5585 27.7994 19.7242C28.0594 19.186 27.8369 18.7679 27.4788 18.351C27.3475 18.1985 27.115 18.136 27.17 17.9767C27.2331 17.7954 28.6538 16.5742 28.7588 16.6542Z" fill="black"/>
  <path d="M32.5969 25.7362C32.7006 25.7125 32.7269 25.7725 32.79 25.83C33.0075 26.0294 33.7556 27.4225 33.6119 27.6469C33.5813 27.6937 33.0394 27.81 32.9306 27.8287C32.1388 27.9637 31.5725 27.8944 30.8063 27.6869C30.3881 27.5737 28.3131 26.7969 28.1675 26.4887C28.0956 26.1144 28.1825 25.7925 28.1038 25.4006C28.0419 25.0925 27.875 24.7412 27.7363 24.4575C28.3975 24.6931 28.7363 25.2731 28.9225 25.9244C28.9538 26.0337 28.9356 26.2769 28.9588 26.3044C28.9863 26.3375 29.6981 26.5987 29.7713 26.5556C29.8663 26.5 30.1738 25.6569 30.2113 25.4925C30.4556 24.425 30.2188 23.1837 29.6425 22.2625C29.4394 21.9375 29.1581 21.6775 28.9525 21.3562C29.0625 21.1862 29.5575 20.1512 29.6394 20.1075C29.8131 20.0137 30.8056 20.0856 30.8056 20.2037C30.8056 20.215 30.7038 20.3125 30.6756 20.3925C30.0775 22.0956 31.3338 22.9331 31.2569 24.4919C31.2213 25.2212 30.945 26.1737 30.5525 26.7919C31.365 27.1719 32.8325 26.9144 32.5981 25.7369L32.5969 25.7362Z" fill="black"/>
  <path d="M23.3869 25.0962C23.3194 25.1787 22.4437 24.3512 22.3725 24.2243C22.1737 23.8668 22.3056 23.2762 22.205 23.1124C22.1762 23.0662 21.655 22.7855 21.5556 22.7387C20.8569 22.413 19.84 22.0974 19.1019 22.4412C18.6331 22.6593 18.7487 23.3737 18.6231 23.368C18.2706 23.2387 17.6806 21.4587 17.8231 21.3224C19.0606 21.1037 20.0569 21.3468 21.1719 21.843C21.5331 22.0037 23.1519 22.7999 23.1975 23.1487C23.2144 23.2787 23.1344 23.4043 23.1319 23.5299C23.1194 24.1087 23.1387 24.5624 23.3869 25.0962Z" fill="black"/>
</svg>