<svg xmlns="http://www.w3.org/2000/svg" width="50" height="50" viewBox="0 0 50 50" fill="none">
  <path d="M26.8969 1.22803C28.1013 1.5499 29.3531 1.62365 30.5681 1.90928C40.5738 4.26053 48.0569 13.2868 48.185 23.6205C48.1875 23.798 48.1175 24.0868 48.2919 24.1955V25.7687C48.1181 25.878 48.1869 26.1668 48.185 26.3437C48.0756 36.6499 40.5775 45.6424 30.6338 48.0155L26.5825 48.7362C25.3275 48.6543 23.9394 48.8474 22.7019 48.7362C17.1306 48.2362 11.3013 45.1599 7.59689 41.0305C0.0331445 32.598 -0.281231 18.5624 6.86877 9.77803C10.6181 5.17178 16.6344 1.79615 22.5975 1.22803H26.8975H26.8969ZM23.9388 3.46115C13.5963 3.82053 4.76502 12.3474 4.14002 22.6762C3.80127 28.278 4.63877 33.0068 7.82877 37.653C16.1519 49.773 34.8606 49.2355 42.6719 36.8768C45.2344 32.8224 46.0888 28.7393 45.945 23.9512C45.5838 11.9562 35.9213 3.0449 23.9388 3.46115Z" fill="black"/>
  <path d="M18.7156 15.4912C18.2688 17.3712 17.4775 18.9418 17.25 20.8937C17.1994 21.3256 17.3075 21.8243 17.2419 22.2493C17.1794 22.6568 16.82 23.2618 16.6944 23.6943C16.2869 25.0993 16.1394 27.3556 16.8113 28.6706C17.44 29.9012 18.5288 30.8693 20.0031 30.5693C21.1463 30.3368 22.0863 28.0356 20.7425 27.9993C20.0856 27.9818 20.2475 28.6337 20.2688 28.9931C20.3006 29.5443 18.9013 28.9893 18.6219 28.7481C17.5138 27.7906 17.9438 26.0581 18.8238 25.0906C19.7013 24.1262 20.8138 24.0256 22.0775 24.2431C23.3219 24.4568 25.2881 26.3043 25.4288 27.6043C25.9613 32.5356 22.5788 36.0081 17.5856 34.6087C15.2963 33.9668 13.5819 30.2618 13.1906 28.0962C12.3469 23.4268 13.9369 19.4118 17.4056 16.3312C17.7806 15.9981 18.3294 15.8225 18.715 15.4918L18.7156 15.4912Z" fill="black"/>
  <path d="M36.5444 23.986C35.7025 23.3148 35.1738 22.1773 34.3457 21.5185C33.9663 21.2166 33.3344 21.0073 33.03 20.7366C32.7256 20.466 32.4125 19.8123 32.0869 19.4773C31.7175 19.0966 30.7994 18.3635 30.3475 18.0704C29.2463 17.3554 27.0381 16.6385 25.9506 17.6398C25.5469 18.0116 25.1019 19.2679 25.7938 19.2679C25.875 19.2679 25.8282 18.5791 26.84 18.6366C29.1107 18.7654 29.6025 21.6316 27.9469 22.8873C26.9525 23.641 26.0188 23.5654 24.8519 23.5673C24.6825 23.5673 24.5056 23.6785 24.3313 23.6679C24.0363 23.6498 22.085 22.7173 21.72 22.5029C20.0875 21.5448 19.7825 19.4048 19.9869 17.6548C20.9032 9.8229 31.0282 12.7191 34.5013 17.1666C36.0025 19.0898 36.4294 21.6029 36.5425 23.986H36.5444Z" fill="black"/>
  <path d="M21.4444 36.4651L23.5169 35.6558C25.3381 35.3745 27.1681 34.607 28.7138 33.6164C28.9025 33.4951 30.325 32.347 30.3969 32.2476C30.7525 31.7514 31.4544 29.9976 31.5106 29.387C31.5938 28.4908 31.3175 26.9814 30.1488 27.1333C30.1838 27.5558 30.5019 27.7945 30.5581 28.2433C30.7875 30.0676 28.4931 30.9964 27.1325 29.8858C26.1469 29.0814 26.3544 27.7558 26.6963 26.6695C27.605 23.7783 31.5538 21.9039 34.2238 23.5289C36.7744 25.0808 37.55 27.9758 36.5163 30.7214C35.5406 33.3133 31.6344 36.1714 28.9956 36.8345C26.5763 37.442 23.8444 37.037 21.4444 36.4651Z" fill="black"/>
  <path d="M5.55498 23.7762C5.16436 23.7125 5.27124 23.1006 5.28874 22.775C5.37186 21.1937 6.09061 18.6581 6.74123 17.2012C6.80811 17.0519 7.29248 15.9337 7.49498 16.1206C7.61873 16.6725 7.81123 17.3206 8.03311 17.8375C8.96811 20.0144 10.4925 21.9637 11.3762 24.1431C11.6437 26.4706 10.4806 27.4812 9.47061 29.3687C8.70311 30.8025 7.83623 32.2331 7.49561 33.8437C7.20748 33.8769 7.13061 33.5237 7.02186 33.3219C6.65498 32.6437 6.31561 31.6519 6.08061 30.9069C5.60123 29.3862 5.24061 27.7975 5.29373 26.1875H9.75124C10.3806 26.1875 10.5162 24.1212 9.85623 23.7756C8.55498 23.625 6.79811 23.9787 5.55623 23.7756L5.55498 23.7762Z" fill="black"/>
  <path d="M44.7268 23.7767L42.6862 23.8867C41.9431 24.0148 40.0468 23.3236 39.8193 24.3755C39.725 24.8136 39.6318 25.9005 40.1862 26.0617C40.7575 26.1773 44.6412 25.9161 44.7325 26.253C44.7225 28.3536 44.1668 30.7636 43.2962 32.6767C43.2337 32.8142 42.72 33.9205 42.5243 33.7392C41.82 30.9986 40.075 28.6773 38.8037 26.1855C38.4306 25.0892 38.7531 23.9486 39.2331 22.9498C40.2956 20.7373 41.9912 18.6998 42.525 16.2255C42.7212 16.0448 43.2337 17.1492 43.2968 17.288C44.1743 19.2167 44.7406 21.6592 44.7268 23.7767Z" fill="black"/>
  <path d="M33.6087 6.57813C33.7806 6.755 33.5556 6.75438 33.4619 6.79625C33.0456 6.98438 32.48 7.07063 32.0375 7.26C30.0081 8.1275 28.2812 9.52188 26.3975 10.43C25.5312 10.8475 24.7831 10.8413 23.8881 10.4769C22.3912 9.8675 20.6056 8.43063 19.0356 7.67375C18.1937 7.2675 17.3087 6.93438 16.4094 6.68063C16.2006 6.41 19.19 5.3475 19.4506 5.26625C20.2806 5.00813 21.2969 4.74688 22.1537 4.61313C22.4325 4.56938 23.765 4.37563 23.9125 4.40125C24.2775 4.465 23.9481 5.90438 23.9506 6.21C23.9531 6.5075 24.0631 6.76563 24.0694 7.04438C24.08 7.53313 23.9712 8.51813 24.0869 8.915C24.285 9.59625 25.7387 9.7875 25.95 8.93438C25.8944 7.9125 26.0762 6.91063 26.0625 5.89063C26.0581 5.5675 25.7556 4.61688 26.125 4.4925C26.3069 4.43125 27.86 4.66125 28.1794 4.7175C29.4787 4.94688 31.1575 5.4525 32.3669 5.98375C32.5375 6.05875 33.5606 6.52938 33.6087 6.57875V6.57813Z" fill="black"/>
  <path d="M33.6094 43.1793C33.7713 43.3381 33.5538 43.3618 33.4744 43.4131C32.2081 44.2337 29.5806 44.9881 28.0769 45.2487C27.8219 45.2931 26.2288 45.5087 26.1263 45.475C25.7569 45.3531 26.0594 44.395 26.0638 44.0743C26.0769 43.0543 25.8956 42.0525 25.9513 41.0306C25.6881 40.4312 25.1213 40.2506 24.5519 40.5706C23.7981 40.9931 24.0875 42.1568 24.0706 42.92C24.0644 43.2 23.9525 43.4575 23.9519 43.7543C23.95 44.2918 24.1706 44.9081 24.0669 45.4856C21.4319 45.4093 18.6738 44.6718 16.4106 43.3343C17.6469 42.9131 18.8225 42.3718 19.9781 41.7637C21.7938 40.8093 24.3144 38.5006 26.3425 39.485C28.585 40.5737 30.3375 41.9831 32.8213 42.9687C32.9988 43.0393 33.5806 43.1493 33.6094 43.1781V43.1793Z" fill="black"/>
  <path d="M30.5681 40.243C34.1494 38.9899 37.1231 36.0818 38.8231 32.713C39.0744 32.2149 39.2425 31.6649 39.4775 31.1655C39.5194 31.0768 39.5575 30.8618 39.6925 30.9586C39.9019 31.1086 40.6163 32.4118 40.7588 32.7249C40.9988 33.2499 41.5419 34.6243 41.47 35.1461C41.3781 35.8168 39.3125 38.3368 38.7506 38.933C38.1281 39.5936 35.2088 42.2143 34.475 42.3211C34.2031 42.3605 30.3663 40.4349 30.5675 40.2424L30.5681 40.243Z" fill="black"/>
  <path d="M10.5356 31.0131C11.4731 34.1924 13.7225 36.8462 16.3763 38.7543L19.3994 40.4524C18.2038 41.2593 16.855 41.8856 15.5438 42.4268C13.2188 40.9937 11.0194 39.0056 9.4644 36.7518C9.2319 36.4149 8.56502 35.4949 8.53502 35.1568C8.4694 34.4237 9.65752 31.8237 10.1781 31.2318C10.2825 31.1131 10.3381 30.9724 10.5356 31.0137V31.0131Z" fill="black"/>
  <path d="M19.4506 9.61697C15.6506 11.0201 12.6819 14.0251 10.9706 17.6563C10.8094 17.9982 10.7019 18.4826 10.5238 18.7826C10.4269 18.9463 10.4188 18.9826 10.2713 18.8501C10.0275 18.6307 9.41752 17.4876 9.25939 17.1351C9.06189 16.6938 8.51815 15.2282 8.53627 14.8113C8.55127 14.452 9.22189 13.5638 9.46439 13.2138C11.0144 10.9707 13.215 8.95072 15.5413 7.5376C16.8788 8.0851 18.3069 8.68697 19.4506 9.6176V9.61697Z" fill="black"/>
  <path d="M30.5681 9.72203C31.5556 8.7114 33.0356 8.39265 34.2131 7.64703C34.3044 7.61265 34.3962 7.61078 34.4919 7.62328C34.8075 7.66578 36.5512 9.01015 36.9106 9.30578C38.1969 10.3645 39.4437 11.6864 40.4069 13.0458C40.6575 13.3989 41.4319 14.467 41.4725 14.8195C41.525 15.2683 40.9694 16.7689 40.7587 17.2389C40.6312 17.5239 39.87 18.8789 39.6931 19.0058C39.5581 19.1027 39.52 18.8883 39.4781 18.7989C39.2737 18.3639 39.1531 17.8795 38.9437 17.4458C37.27 13.9827 34.2356 10.9839 30.5687 9.7214L30.5681 9.72203Z" fill="black"/>
</svg>