<svg xmlns="http://www.w3.org/2000/svg" width="50" height="50" viewBox="0 0 50 50" fill="none">
  <path d="M25.0888 1.75195C25.1488 1.84758 25.3075 1.80945 25.405 1.8107C37.4956 1.93758 47.5238 11.7201 47.6731 23.8488C47.6744 23.9463 47.6363 24.1051 47.7319 24.1651V25.8357C47.6363 25.8957 47.6744 26.0545 47.6731 26.152C47.5638 36.5857 40.025 45.4988 29.8844 47.657C28.3744 47.9782 26.9481 48.1707 25.405 48.1901C25.3075 48.1913 25.1488 48.1532 25.0888 48.2488H22.8994C22.8406 48.1419 22.7375 48.1551 22.6388 48.1345C21.4738 47.8951 20.3006 47.7826 19.1419 47.4832C11.0881 45.402 4.78876 38.9538 2.86564 30.8607C2.00064 27.2213 2.07501 21.8688 3.08314 18.2626C5.27001 10.4382 11.5988 4.31758 19.4994 2.41383C20.5363 2.16383 21.5394 2.04633 22.5813 1.8657C22.6825 1.8482 22.7825 1.85883 22.8419 1.75195H25.0888ZM24.0975 3.9582C13.545 4.36945 5.05689 12.7663 4.57501 23.3263C4.39876 27.1945 4.78314 30.7557 6.43939 34.2576C11.04 43.9876 21.7488 48.3069 31.9175 44.7913C38.9369 42.3651 44.1869 36.0895 45.2369 28.727C45.7981 24.7895 45.4675 19.9788 43.8244 16.3463C40.2819 8.51445 32.7919 3.6182 24.0975 3.95758V3.9582Z" fill="black"/>
  <path d="M23.7056 11.8348C23.7244 11.8536 23.8437 12.2642 23.8631 12.3405C24.215 13.7186 24.2725 15.3861 24.3425 16.8161C24.4619 19.2648 22.8837 19.9723 22.42 21.8698C21.6794 24.9023 26.2062 26.5211 27.7281 23.9517C28.8681 22.0261 27.4294 20.8211 26.79 19.1505C26.3087 17.8923 26.3631 17.0336 26.4119 15.7211C26.4537 14.5898 26.5081 13.5736 26.7887 12.468C26.845 12.2455 27.0619 11.4636 27.1087 12.0911C27.1381 12.4823 27.08 12.9117 27.1037 13.3061C27.2081 15.0242 28.195 17.1467 29.0387 18.6311C29.7587 19.898 30.4444 20.3686 30.5625 22.0048C30.7456 24.5405 28.2662 27.0617 25.8094 27.2748C24.3731 27.3998 22.8475 26.6367 21.7494 25.778C21.7137 26.3755 21.5737 26.9342 21.4031 27.5061C21.6956 27.3961 21.8806 27.2067 22.1975 27.1205C23.4025 26.7911 23.9781 27.5598 24.4494 28.5217C25.3656 30.3911 25.1187 32.653 24.3112 34.5348C23.0356 37.5086 19.64 39.2036 17.1981 36.3492C16.2425 35.2317 16.2769 34.2942 15.7994 33.0236C15.155 31.3092 13.6162 30.0255 12.255 28.8773C12.2025 28.6355 12.2362 28.6111 12.4562 28.7042C13.9844 29.3498 16.3075 30.9842 17.1631 32.4092C17.8012 33.4723 17.9125 35.1142 19.6994 34.7048C21.5419 34.2823 23.0275 31.9286 22.78 30.0767C22.4594 27.6736 20.7281 29.7936 20.2206 30.8473C19.6275 31.1355 18.8519 31.1355 18.4731 30.5236C18.2919 30.2311 18.0356 29.1411 18.0256 28.7948C17.9987 27.9023 18.6194 27.9923 19.1112 27.5655C19.8094 26.9592 20.405 25.768 19.8381 24.8955C19.1869 23.8936 18.1206 25.5755 17.7844 26.1073C17.41 26.698 17.1244 27.4755 16.7506 28.0123C16.5244 28.3367 16.3819 28.2773 16.1012 28.0567C15.475 27.5648 15.1219 26.7236 14.3569 26.3442C14.2137 26.2736 14.0381 26.2786 13.9525 26.2398C13.8562 26.1967 13.9012 26.0198 14.0112 25.9636C14.1494 25.8936 14.47 25.833 14.6606 25.7486C15.5769 25.3448 16.2869 24.5617 17.1325 24.0142C18.0712 23.4067 19.0356 22.9011 20.1937 23.1861C20.0937 22.8442 20.0687 22.5317 20.0762 22.1755C20.1137 20.4548 20.6512 20.2936 21.4519 19.0573C22.5319 17.3892 23.5169 14.713 23.5975 12.7298C23.6094 12.4361 23.5312 12.2636 23.595 11.923C23.6087 11.8511 23.6112 11.7392 23.7069 11.8361L23.7056 11.8348Z" fill="black"/>
  <path d="M7.86119 16.3288C8.47744 18.5307 9.74494 20.54 10.8481 22.5325C11.5156 23.7382 11.8556 23.9844 11.7243 25.5207C11.6443 26.455 10.5781 27.9194 10.0993 28.7925C9.61557 29.6744 9.02057 30.6607 8.60057 31.5575C8.32619 32.1438 8.14494 33.0175 7.86494 33.5294C7.82932 33.5944 7.82182 33.6857 7.71869 33.6713C7.50494 33.3169 7.31057 32.9563 7.14494 32.5732C6.72807 31.6057 6.37619 30.5175 6.12432 29.5032C5.85994 28.4388 5.68869 27.3419 5.73369 26.2413C7.16682 26.0988 8.62557 26.2319 10.0687 26.1688C10.6806 26.0319 10.6968 24.765 10.5262 24.295C10.4612 24.1157 10.2837 23.9382 10.1262 23.8307C8.65994 23.7832 7.18744 23.8719 5.72994 23.7613C5.74307 23.4644 5.71369 23.1625 5.72807 22.8657C5.78369 21.7038 6.16557 20.23 6.50432 19.1475C6.71932 18.46 7.01932 17.7132 7.30119 17.0638C7.33494 16.9863 7.66369 16.36 7.69932 16.3394C7.74682 16.3119 7.80994 16.3338 7.86119 16.3282V16.3288Z" fill="black"/>
  <path d="M42.4524 16.7118C43.2668 18.0243 43.9956 20.5618 44.2099 22.1262C44.2862 22.6806 44.2981 23.2593 44.3318 23.8181C42.8618 23.9612 41.3706 23.8106 39.8931 23.9018C39.7524 23.945 39.5018 24.2562 39.4612 24.3918C39.4249 24.5137 39.3824 25.2468 39.3868 25.4043C39.3949 25.6806 39.7143 26.0768 39.9856 26.1193C41.4312 26.1625 42.8931 26.0462 44.3293 26.1831C44.3006 26.7406 44.2862 27.3193 44.2099 27.8725C44.0199 29.2568 43.4674 31.1293 42.9218 32.4031C42.8687 32.5275 42.3549 33.6125 42.2862 33.6125C42.1699 33.6125 42.1799 33.5412 42.1449 33.4656C41.9124 32.9606 41.7718 32.3068 41.5356 31.77C40.7237 29.9231 39.4824 28.1356 38.5599 26.3337C38.2137 25.5525 38.3206 24.3343 38.6349 23.565C39.3187 21.8906 40.6562 20.1231 41.4431 18.4218C41.7381 17.7837 41.9437 17.1075 42.1731 16.4437C42.3356 16.2325 42.4068 16.6375 42.4518 16.71L42.4524 16.7118Z" fill="black"/>
  <path d="M24.0519 45.0792C23.6719 45.1435 23.3319 45.0117 22.9794 44.9704C20.715 44.7085 18.9157 44.1423 16.92 43.1248C16.8107 43.0692 16.5469 43.141 16.6188 42.9185C16.6444 42.8398 17.9469 42.4354 18.1738 42.3404C20.15 41.516 21.7694 40.2898 23.6082 39.3054C24.0507 39.0685 24.6488 38.9017 25.1194 38.861C25.4457 38.8329 26.04 39.036 26.3394 39.191C28.2644 40.1879 29.9238 41.4904 32.005 42.3404C32.3894 42.4973 32.9057 42.6054 33.2457 42.7704C33.3357 42.8142 33.3675 42.7979 33.3863 42.9179C33.4063 43.0454 33.34 42.9942 33.2688 43.0292C31.5113 43.8829 29.6963 44.5342 27.7588 44.8392C27.535 44.8742 26.0175 45.086 25.9532 45.0217C25.9557 44.2598 26.0194 43.506 26.0138 42.7429C26.0125 42.5785 25.9557 42.4404 25.9513 42.2873C25.9394 41.8617 26.0313 40.9929 25.9275 40.6404C25.8563 40.3985 25.4294 40.0842 25.1782 40.0767C24.7988 40.0654 24.0525 40.4092 24.0525 40.8442V45.0792H24.0519Z" fill="black"/>
  <path d="M24.0518 4.92041V9.15541C24.0518 9.57041 24.8943 9.99666 25.2612 9.90916C25.5856 9.83166 25.9243 9.49728 25.9556 9.15791C26.0031 8.64103 26.0081 7.84666 26.0131 7.31416C26.0199 6.53166 25.9581 5.75854 25.9531 4.97791C26.3537 4.91291 26.7112 5.04291 27.0837 5.08666C28.8018 5.28728 30.7187 5.76104 32.2881 6.45104C32.6493 6.60979 32.9737 6.86416 33.3518 6.98978C33.4056 6.99853 33.3974 7.10604 33.3868 7.13916C33.3612 7.21791 32.0543 7.62291 31.8312 7.71603C30.7818 8.15416 29.6724 8.78228 28.6806 9.34728C27.9837 9.74416 25.7674 11.3098 25.0718 11.1423C25.0249 11.131 25.0556 11.0367 24.9499 11.0235C24.3787 10.9529 24.2081 10.9942 23.6562 10.7048C21.5299 9.59041 19.8043 8.26228 17.4824 7.37228C17.3399 7.31791 16.6493 7.14416 16.6206 7.10979C16.4831 6.94354 16.7899 6.91104 16.8662 6.86666C17.9543 6.23291 18.7399 6.09978 19.8693 5.71853C19.9487 5.69166 19.9374 5.57666 20.0049 5.55478C20.1124 5.52041 20.3474 5.53291 20.5037 5.49103C21.6681 5.17916 22.8431 4.91478 24.0537 4.92103L24.0518 4.92041Z" fill="black"/>
  <path d="M19.5581 9.99059C15.4794 11.4993 12.1806 15.0031 10.8 19.1212C10.7869 19.1856 10.725 19.1575 10.6844 19.1243C10.5625 19.0237 10.0913 18.23 9.98439 18.0387C9.60689 17.3631 9.06314 16.1006 8.92564 15.3525C8.86752 15.0375 8.89127 14.9706 9.02564 14.6981C9.91439 12.9018 12.1906 10.5425 13.7688 9.30122C14.0569 9.07434 15.5575 7.96184 15.7975 7.92684C15.9288 7.90747 16.7344 8.38684 16.9444 8.48497C17.7056 8.84122 18.83 9.28184 19.4619 9.82747C19.5213 9.87872 19.5825 9.88309 19.5575 9.99059H19.5581Z" fill="black"/>
  <path d="M30.4475 10.0479C30.4244 9.9423 30.48 9.93543 30.5437 9.88543C30.8506 9.64543 31.5869 9.2373 31.9525 9.0473C32.6825 8.66793 33.4837 8.38043 34.2119 7.9873C36.5019 9.33855 38.5825 11.2554 40.1175 13.4286C40.3519 13.7604 41.1125 14.8298 41.1331 15.1679C41.1481 15.4129 40.6137 16.9204 40.4837 17.2323C40.3781 17.4848 40.2137 17.7967 40.08 18.0386C39.97 18.2373 39.4825 19.0504 39.3506 19.1536C39.2887 19.2017 39.3006 19.2386 39.2344 19.1523C37.7756 15.0498 34.5519 11.5623 30.4475 10.0486V10.0479Z" fill="black"/>
  <path d="M30.4475 40.0654C30.4225 39.9348 30.4543 39.9742 30.5206 39.9379C30.9856 39.6836 31.5668 39.4942 32.0618 39.2323C34.9825 37.6861 37.3068 35.1404 38.6968 32.1542C38.8956 31.7267 39.0375 31.2736 39.2331 30.8461C39.2581 30.7917 39.2481 30.6886 39.3206 30.7604C39.4737 30.9136 39.8737 31.5861 40.0006 31.8092C40.535 32.7529 40.845 33.7473 41.1462 34.7836C41.1256 34.9361 41.0687 35.0704 41.0025 35.2079C40.0087 37.2554 37.1618 40.0779 35.2718 41.3461C35.1137 41.4523 34.3875 41.9486 34.2756 41.9667C34.0381 42.0054 33.2856 41.5304 33.0043 41.3992C32.1118 40.9829 31.2906 40.5867 30.4487 40.0648L30.4475 40.0654Z" fill="black"/>
  <path d="M10.8 30.8479C12.1538 34.9823 15.4688 38.4348 19.5263 40.0073L19.5306 40.1254C18.3556 40.9098 17.0656 41.4661 15.7925 42.0711C14.2681 41.1573 12.8675 40.0198 11.6419 38.7342C10.8244 37.8761 9.92626 36.7773 9.31188 35.7635C9.07938 35.3798 8.85001 35.1117 8.92501 34.6473C9.07188 33.7404 10.015 31.6261 10.6375 30.9442C10.6888 30.8879 10.69 30.8211 10.7994 30.8479H10.8Z" fill="black"/>
  <path d="M37.3031 32.865C37.3313 32.9975 37.2888 32.9575 37.23 32.9943C35.4731 34.0975 33.0713 32.2337 33.0381 30.2975C33.0219 29.34 33.8994 27.7656 32.4675 27.4162C31.3675 27.1481 30.4625 27.6912 29.9638 28.665C29.3625 29.8406 30.0175 30.6743 29.7875 31.7731C29.7669 31.8731 29.3675 32.81 29.3213 32.8625C28.8275 33.4281 27.8481 32.1187 27.6344 31.7293C27.2869 31.095 27.33 30.4768 27.0756 29.8681C26.9881 29.6581 26.5931 28.9518 26.4613 28.7543C26.3269 28.5531 26.0538 28.4031 26.01 28.14C26.0525 28.1018 26.8588 28.2987 26.9869 28.3437C27.2963 28.4518 27.5513 28.6562 27.8531 28.7731C28.1581 27.4075 28.7269 26.2362 29.91 25.4425C33.2963 23.17 37.1269 26.0787 35.2206 29.9462C34.905 30.5868 34.5156 30.8187 34.8119 31.6387C34.9488 32.0175 35.9438 32.6643 36.3238 32.7775C36.6463 32.8731 36.9694 32.8737 37.3025 32.8643L37.3031 32.865Z" fill="black"/>
  <path d="M25.1337 20.4364C27.695 20.1489 27.82 24.2407 25.1181 23.9914C23.0819 23.8032 22.9962 20.6764 25.1337 20.4364Z" fill="black"/>
</svg>