<svg xmlns="http://www.w3.org/2000/svg" width="50" height="50" viewBox="0 0 50 50" fill="none">
  <path d="M37.9437 17.0521L28.6812 23.5821L34.9281 28.0171L34.8856 28.1683C34.3243 28.8708 33.8493 29.639 33.3118 30.3584C33.0456 30.714 32.6125 31.3527 32.3131 31.6377C32.2643 31.684 32.2312 31.739 32.1531 31.7409C32.0981 31.7421 31.3556 31.3258 31.26 31.2558C29.3218 29.8308 27.2925 28.5196 25.3468 27.1002C25.0231 26.864 24.7575 26.3977 24.3043 26.5971C23.9012 26.7746 23.1731 27.4671 22.7618 27.7571C21.1512 28.8927 19.5193 29.979 17.94 31.1496C17.7887 31.2615 17.1137 31.6765 16.9706 31.6115L14.2718 27.9108L20.4662 23.5283C20.3837 23.5302 20.3075 23.5083 20.2362 23.4665C18.8756 22.664 17.5206 21.6033 16.2218 20.6971C14.6343 19.589 13.0181 18.509 11.505 17.3059C11.4493 17.2615 11.2625 17.1708 11.255 17.1583C11.0493 16.8096 12.2193 15.6596 12.4343 15.3646C12.7787 15.1877 13.6493 14.1096 13.9325 14.0508C14.0012 14.0365 14.0506 14.0383 14.1187 14.0515C14.3218 14.0915 15.0981 14.6121 15.3206 14.7602C17.4768 16.1958 19.6312 17.6577 21.8056 19.0858C22.7118 19.6808 23.6 20.3052 24.5275 20.8677C25.6831 20.1502 26.8 19.3708 27.9393 18.6283C29.8081 17.4102 31.6968 16.2052 33.5393 14.9546C33.8375 14.7521 34.1018 14.5021 34.4268 14.3052C34.7225 14.1258 35.1025 13.7902 35.435 14.0408C36.1218 14.749 36.9312 15.3415 37.5268 16.1352C37.6512 16.3008 38.0512 16.8608 37.9406 17.0508L37.9437 17.0521ZM34.5562 17.2152C34.6468 17.0708 34.3106 16.6733 34.1418 16.7702L24.5206 23.2958C24.1543 23.1915 23.8993 22.8846 23.6106 22.689C22.0418 21.6227 20.4575 20.5771 18.8912 19.5121C17.6212 18.6483 16.3606 17.7665 15.0993 16.8902C14.9625 16.7465 14.6362 17.0927 14.635 17.1952L23.9637 23.7133L21.8506 25.1233C22.0056 25.6927 22.1825 25.6315 22.6031 25.3721C22.8681 25.2084 24.3956 23.9952 24.5112 24.0127C24.8787 24.1802 26.7881 25.7083 27.0031 25.689C27.1237 25.6783 27.4112 25.334 27.35 25.229L25.0256 23.6596L34.5568 17.2146L34.5562 17.2152Z" fill="black"/>
  <path d="M25.0762 1.74755C25.4456 2.26568 25.8693 2.75068 26.2125 3.28818C26.7318 4.10068 27.1675 5.03005 27.665 5.86318C28.4193 7.12568 30.145 10.0588 31.2825 10.8307C31.8156 11.1926 32.2318 11.0526 32.8037 10.8238C34.5756 10.1151 36.4081 7.29255 37.4156 5.68443C37.6662 5.28443 37.8606 4.76255 38.1443 4.39943C38.2018 4.32568 38.2706 4.22318 38.3787 4.23693L36.0225 13.1938C35.965 13.2563 35.8862 13.2507 35.8093 13.2501C35.3237 13.2457 34.7387 13.0513 34.2431 13.1101L30.3243 15.6826C30.2512 15.5263 30.2968 15.3388 30.2587 15.1913C29.9062 13.8257 29.0893 12.7351 28.2562 11.6294C27.4231 10.5238 26.4887 9.3238 25.6062 8.2913C25.5087 8.17693 25.1075 7.68443 24.9975 7.69318C24.8037 7.7088 23.0112 10.1188 22.7443 10.4607C21.81 11.6594 20.5331 13.0288 20.0175 14.4644C19.8187 15.0169 19.7025 15.6032 19.5125 16.1594C19.4731 16.1957 19.1112 15.9601 19.0406 15.9163C17.6093 15.0388 16.2543 14.0207 14.8331 13.1251C14.6406 13.0063 14.1593 13.3357 14.0081 13.2376L11.6425 4.28818C11.735 4.17318 11.795 4.27255 11.8518 4.34505C12.2862 4.89505 12.7125 5.82255 13.1318 6.45693C13.955 7.70255 14.9637 9.14755 16.0406 10.1726C16.73 10.8288 17.57 11.6857 18.5312 11.0182C19.72 10.1926 21.0356 8.03505 21.8137 6.77568C22.7431 5.2713 23.6218 3.28693 24.7693 1.99193C24.8081 1.94818 25.0287 1.71068 25.0762 1.7463V1.74755Z" fill="black"/>
  <path d="M23.8056 30.0464C23.6775 30.2345 23.6431 30.4639 23.5506 30.6651C22.9606 31.9464 22.1094 33.1276 21.7962 34.5276C21.69 35.0026 21.6969 36.3058 21.82 36.7745C21.8844 37.0183 22.0531 37.4751 22.1537 37.7126C22.3537 38.1839 23.4594 39.522 23.895 39.787C24.3237 40.0483 25.3781 40.3639 25.8175 40.0858C26.3912 39.7233 26.9487 39.197 27.3469 38.6476C28.5625 36.9676 28.5431 34.8858 27.72 33.0476C27.4225 32.3826 26.6487 31.252 26.5675 30.597C26.5537 30.4845 26.5619 30.3708 26.5625 30.2583C27.3887 30.8195 28.1437 31.6276 29.0931 31.9933C29.3825 32.1045 29.9619 32.0026 30.0062 32.0301C30.0812 32.0776 30.3306 32.7626 30.4394 32.9258C30.8656 33.5676 31.665 34.3058 31.7556 35.1601C31.8469 36.0176 31.8394 36.9726 31.7156 37.8226C29.5531 40.4351 27.4556 42.8983 25.9062 45.9508C25.8137 46.1326 25.2431 47.4833 25.1581 47.4801C25.1412 47.4795 25.0837 47.3695 25.0081 47.3826C24.9556 47.3914 24.9025 47.5058 24.8137 47.4814C24.4375 46.5164 23.9644 45.5845 23.4444 44.6901C21.88 41.9989 19.9256 39.9301 18.105 37.4701C17.9362 37.242 17.2531 36.4808 17.2312 36.2739C17.2137 36.1101 17.2725 35.417 17.295 35.2201C17.4406 33.9258 18.2162 33.2939 18.9556 32.3764C19.0537 32.2545 19.0869 32.047 19.1956 31.9245C19.5781 31.9558 20.0031 32.0501 20.3856 32.0626C21.2969 32.0914 22.5019 31.012 23.1744 30.4483L23.8062 30.047L23.8056 30.0464Z" fill="black"/>
  <path d="M48.1293 15.8437C48.1487 15.9294 48.1 15.9519 48.0518 16.0044C47.8318 16.2437 46.5843 16.7156 46.1862 16.9475C45.5968 17.2906 45.3293 17.6206 44.845 18.0437C42.7437 19.8762 41.5375 21.2469 40.2793 23.7587C39.5118 25.2919 38.7675 26.83 37.8756 28.2962C37.7393 28.0556 37.43 28.0081 37.1975 27.8631C36.7118 27.5606 36.1837 27.2425 35.7981 26.8637C35.6537 26.7219 35.0575 26.6 34.9587 26.4419C34.9 26.3475 35.1493 25.8131 35.2068 25.6819C35.7356 24.4725 36.4093 23.4237 37.2143 22.39C37.6431 21.8394 38.6043 20.9631 38.5325 20.2219C38.5175 20.0656 38.3418 19.4575 38.2762 19.3112C38.1693 19.0731 37.6468 18.7856 37.6931 18.6325C37.7181 18.55 38.92 17.7756 39.0893 17.6394C39.1725 17.6 39.1543 17.4662 39.2075 17.4281C39.3856 17.3 41.7343 16.4931 42.0881 16.3994C43.8318 15.9356 44.9906 16.0456 46.7268 16.005C46.9318 16 48.0587 15.7812 48.1293 15.8437Z" fill="black"/>
  <path d="M13.2956 26.9544L11.8812 27.7962C11.6075 27.2831 11.2806 26.7962 11.0068 26.2844C10.3787 25.1112 9.88309 23.7937 9.24184 22.6444C8.25559 20.8769 5.50246 17.895 3.75684 16.8944C3.26934 16.615 2.60121 16.4231 2.16559 16.1537C2.05684 16.0869 1.93871 15.9506 1.86621 15.8438C2.13684 15.845 2.41184 15.8731 2.68059 15.9031C4.91621 16.1487 6.93246 16.4644 9.04871 17.2725C10.1312 17.6862 10.9587 18.3188 11.885 18.9944C12.0056 19.1088 11.81 19.2006 11.7487 19.34C11.5087 19.8881 11.4981 20.5544 11.7356 21.1038C12.6993 22.2106 13.5512 23.2281 14.2418 24.5331C14.3512 24.74 14.8812 25.7056 14.8943 25.8431C14.905 25.9531 14.4293 26.2363 14.3156 26.3056C13.9725 26.5131 13.4656 26.6319 13.2956 26.955V26.9544Z" fill="black"/>
  <path d="M35.165 44.2137C35.28 44.0925 35.5012 43.97 35.6243 43.8512C36.6225 42.8881 38.3018 41.1218 38.1006 39.625C38.0681 39.385 37.8124 38.9293 37.8581 38.775L40.2068 35.9287C40.3325 36.1381 40.3143 36.3612 40.455 36.5818C40.5956 36.8025 40.86 36.9856 41.02 37.2356C42.3256 39.2718 41.3662 41.345 40.8424 43.4512C40.4549 45.01 40.1275 46.5937 39.6256 48.1168C39.5525 48.2043 38.1337 48.2768 37.9012 48.2506L35.2018 46.4456C35.1106 46.3356 34.8818 45.0087 34.8781 44.8043C34.8731 44.5493 34.9975 44.3912 35.1656 44.2137H35.165Z" fill="black"/>
  <path d="M9.0725 35.8225C9.77625 36.8293 10.6294 37.7512 11.3819 38.7325C11.1944 39.1287 11.0606 39.4812 11.0856 39.9312C11.1456 41.0243 12.4056 42.6518 13.1794 43.4012C13.4394 43.6531 14.2662 44.2043 14.3175 44.5431C14.3456 44.7281 14.1137 46.1756 14.0256 46.3118L11.2706 48.1675C10.7081 48.1481 10.11 48.1343 9.57687 48.0112C9.07562 46.4856 8.74812 44.9043 8.36 43.3456C7.83875 41.25 6.89 39.2062 8.1625 37.1637C8.33187 36.8912 8.65437 36.6631 8.77812 36.4543C8.85187 36.3306 8.925 35.7181 9.0725 35.8225Z" fill="black"/>
  <path d="M8.6944 31.963C8.7244 31.9817 8.99377 32.4605 9.0744 32.5617C9.60815 33.2317 10.8519 34.7736 11.485 35.2386C12.055 35.6574 12.3806 35.1811 12.8531 34.9117C14.1719 34.1617 15.5113 33.4474 16.8138 32.6686C16.9694 32.563 17.2925 32.9755 17.2906 33.0911C17.2906 33.1242 17.1975 33.1199 17.1807 33.1549C17.1269 33.2667 17.1319 33.393 17.0669 33.5086C16.7694 34.0317 16.2806 34.3255 15.8688 34.7424C15.8794 35.3086 16.3231 35.683 16.5194 36.1399C16.8963 37.0205 16.8675 37.8336 16.0119 38.388C15.1438 38.9499 14.1863 39.1486 13.155 39.1074C13.1256 38.933 13.375 39.0292 13.5456 38.9417C13.6738 38.8761 14.3813 38.3036 14.4781 38.1786C14.9756 37.5411 15.0456 36.583 14.5769 35.9099C14.5263 35.8367 14.4744 35.733 14.3769 35.7936L11.4594 37.653C10.8 36.9124 10.1925 36.1267 9.55128 35.3711C9.49378 35.303 9.39752 35.2799 9.3394 35.2117C8.80002 34.5805 7.66065 33.293 8.01065 32.3992C8.12627 32.103 8.32565 32.1861 8.49002 32.0811C8.5394 32.0492 8.54752 31.8717 8.69502 31.9617L8.6944 31.963Z" fill="black"/>
  <path d="M40.6482 32.0719C40.6644 32.0826 40.6713 32.1626 40.7113 32.1882C40.8788 32.2944 41.155 32.2463 41.2288 32.5744C41.44 33.5138 40.4288 34.6575 39.8619 35.3188C39.8038 35.3863 39.7082 35.4101 39.65 35.4782C39.0063 36.2319 38.3975 37.0163 37.7419 37.76C37.6294 37.8175 37.45 37.5582 37.3357 37.4744C36.5307 36.8869 35.6038 36.3938 34.755 35.8826C34.1269 36.5132 34.1957 37.6107 34.7225 38.2857C34.82 38.4107 35.5269 38.9826 35.655 39.0488C35.8257 39.1363 36.075 39.0394 36.0457 39.2144C35.0407 39.2476 34.035 39.0475 33.1888 38.495C32.3232 37.93 32.3157 37.1357 32.6819 36.2482C32.8225 35.9075 33.3982 35.2001 33.3307 34.8494C33.3138 34.7632 32.2807 33.9288 32.1132 33.5832C32.0688 33.4919 32.0788 33.3832 32.0425 33.2819C32.0257 33.2332 31.9294 33.1919 31.925 33.1482C31.9182 33.075 32.2307 32.7063 32.35 32.7576C33.6732 33.5269 35.0182 34.2594 36.3469 35.0194C36.8207 35.2907 37.155 35.7582 37.715 35.3463C38.3532 34.8775 39.535 33.3938 40.0719 32.7219C40.1613 32.61 40.4719 32.0907 40.505 32.0701C40.5382 32.0494 40.6113 32.05 40.6469 32.0732L40.6482 32.0719Z" fill="black"/>
  <path d="M22.2781 18.06C22.2169 17.9563 22.4794 17.4538 22.535 17.3019C23.1775 15.5388 23.8069 13.6607 24.5387 11.9394C24.5794 11.8444 24.8019 11.3232 24.8256 11.2975C24.885 11.2325 25.0194 11.2588 25.0925 11.295L27.4581 17.5594L24.5212 19.4969L22.2781 18.06Z" fill="black"/>
  <path d="M13.4025 28.4624L15.94 31.5324L11.6462 34.2318C11.4743 33.7205 11.0268 33.4505 10.6887 33.0674C10.1337 32.438 9.61684 31.7724 9.07434 31.1318L13.4018 28.4624H13.4025Z" fill="black"/>
  <path d="M33.3069 31.7263C33.2776 31.6938 33.2607 31.6538 33.2582 31.6101L35.7288 28.5863L35.8069 28.5601L40.1263 31.2382C39.5807 31.8757 39.0651 32.5432 38.5126 33.1738C38.1757 33.5576 37.7257 33.8269 37.5563 34.3388L33.3076 31.7269L33.3069 31.7263Z" fill="black"/>
</svg>