<svg xmlns="http://www.w3.org/2000/svg" width="50" height="50" viewBox="0 0 50 50" fill="none">
  <path d="M48.6981 23.9556C48.8162 24.0606 47.8087 25.2394 47.685 25.3706C46.7669 26.34 45.7762 26.6044 44.4712 26.83C42.4362 27.1819 40.2306 27.2281 38.2587 26.5556C38.1162 26.5069 37.1281 26.0844 37.0912 26.0325C37.0494 25.9731 36.8362 25.08 36.72 24.8363C36.4575 24.285 35.7294 23.4106 35.2287 23.0688C35.0106 22.9194 34.3662 22.76 34.2644 22.65C34.1044 22.4769 34.1844 21.6919 33.8562 21.7438C33.54 21.7938 32.9044 22.2375 32.6506 22.45C32.6994 22.5163 32.8344 22.4606 32.9187 22.4888C33.2069 22.5844 33.0969 24.1388 32.8362 24.2956C32.6406 24.4131 32.3725 24.1863 32.2062 24.465C32.1587 24.5444 32.0225 25.0156 32.0425 25.0844C32.09 25.2463 32.6931 25.3969 32.64 25.7556C32.6194 25.8963 32.105 26.7188 31.9762 26.76C31.6775 26.855 30.6594 26.2431 30.3912 26.0169C30.6312 25.4294 31.455 23.3038 31.2056 22.7875C31.1125 22.5944 29.1919 21.8519 28.9694 21.515C28.9519 21.4613 28.9544 21.4094 28.9694 21.3556C28.9837 21.305 29.6356 20.8356 29.7406 20.77C29.8187 20.7213 30.255 20.4544 30.2862 20.45C30.6075 20.4025 31.2637 21.1838 31.5425 21.4056C31.6431 21.4856 31.9175 21.7175 32.0181 21.7338C32.2081 21.7638 32.9469 21.245 33.1612 21.1169C33.2694 21.0519 33.6031 20.9919 33.5719 20.8531C33.5475 20.745 32.5306 19.8888 32.3612 19.7881C31.6169 19.3469 30.9112 19.3425 30.1019 19.5944C29.3137 19.84 28.9056 20.4225 28.2537 20.8819C28.1656 20.3831 28.3769 19.855 28.545 19.39C28.7925 18.7063 29.195 17.9094 29.5875 17.2969C29.7131 17.1013 30.4012 16.0956 30.5781 16.0981C30.6987 16.1 31.8325 16.475 32.0344 16.5488C33.545 17.0994 34.9987 17.9425 36.3337 18.8281C37.3306 19.4894 38.3144 20.2 39.2237 20.9744C38.7987 21.5769 38.5944 21.9531 39.0812 22.5988C39.93 23.725 41.9806 24.6594 43.3469 24.9119C44.8456 25.1888 46.2744 24.8088 47.6856 24.3275C47.8569 24.2694 48.6119 23.8806 48.6975 23.9569L48.6981 23.9556Z" fill="black"/>
  <path d="M21.8281 20.8807L20.4175 19.8013C18.8431 18.9763 17.4331 19.6038 16.4181 20.912L17.9875 21.7401C18.0725 21.7376 18.6406 21.2557 18.755 21.1582C18.9881 20.9582 19.3775 20.4038 19.7019 20.4488C19.8769 20.4732 21.045 21.2701 21.0837 21.4157C21.1025 21.487 21.0862 21.542 21.0337 21.592L18.7831 22.7857C18.75 23.9263 19.2712 25.0013 19.6194 26.0701C19.6062 26.1501 18.2912 26.777 18.1625 26.782C17.8837 26.7926 17.2812 25.8226 17.4594 25.5188C17.6994 25.1101 18.2537 25.3188 17.8175 24.4907C17.6556 24.1838 17.3775 24.4182 17.18 24.2676C16.9375 24.0826 16.6269 22.302 17.4006 22.4482C17.1931 22.2945 16.3369 21.737 16.1375 21.7407C15.8669 21.7457 15.8737 22.4826 15.7937 22.5326C15.7406 22.5657 15.4794 22.5295 15.355 22.5551C14.3731 22.7557 13.2981 24.5745 13.0494 25.4751C13.0137 25.6051 13.0581 25.7495 13.0225 25.8788C12.9656 26.0851 11.975 26.4688 11.7294 26.5532C9.4475 27.3382 5.72375 27.202 3.48875 26.2763C2.65187 25.9295 1.76625 24.7451 1.29187 23.9851C1.57 23.9082 1.87437 24.1595 2.13562 24.2476C3.72437 24.7863 5.15125 25.2301 6.84812 24.8688C8.05437 24.612 9.96562 23.7707 10.7587 22.8151C11.3925 22.0513 11.2806 21.7501 10.8169 20.9163C12.6569 19.5363 14.5619 18.0657 16.6637 17.0995C17.4094 16.7563 18.1362 16.502 18.9244 16.2857C19.0637 16.2476 19.3012 16.097 19.4112 16.0957C19.7144 16.092 20.7937 17.8882 20.9581 18.2138C21.365 19.0195 21.7337 19.9776 21.8275 20.8795L21.8281 20.8807Z" fill="black"/>
  <path d="M29.9931 25.7838C29.7319 26.0395 29.1163 25.8595 29.04 26.337C28.9194 27.0938 29.2075 27.0045 29.7563 27.3145C29.6819 27.5107 29.5656 28.5126 29.3119 28.4963C29.1681 28.487 28.7863 28.2838 28.6325 28.3276C28.5938 28.3382 28.1794 28.9407 28.1694 28.9795C28.12 29.1707 28.7606 29.732 28.6913 29.9826C28.6475 30.1395 27.8513 30.8376 27.7013 30.8376C27.4088 30.8376 27.0819 30.227 26.8731 30.1351C26.7788 30.0932 25.7963 30.5201 25.7344 30.6582C25.5131 31.152 26.07 31.6926 24.9325 31.6438C24.0106 31.6038 24.4525 31.097 24.2569 30.6582C24.1956 30.522 23.2681 30.1113 23.1763 30.1313C22.9344 30.1838 22.5688 30.8507 22.3006 30.8282C22.1294 30.8138 21.3069 30.1188 21.3 29.9513C21.2894 29.692 21.8675 29.177 21.8206 28.982C21.8075 28.9276 21.3975 28.3395 21.3588 28.3282C21.1838 28.2782 20.8119 28.5076 20.6894 28.5063C20.4319 28.5038 20.3213 27.5301 20.2256 27.3138C20.2369 27.2432 20.89 27.0688 20.9556 26.9557C20.985 26.9051 20.985 26.3545 20.9675 26.2626C20.8844 25.8251 19.8881 26.1745 19.9438 25.3463C19.9494 25.2638 20.1456 24.5732 20.185 24.4932C20.4238 24.0063 20.9625 24.6295 21.4 24.4163C21.4463 24.3938 21.8294 23.7895 21.8294 23.7401C21.8294 23.5832 21.2706 23.0376 21.2894 22.8276C21.305 22.6545 22.1294 21.9901 22.2913 21.9813C22.6869 21.9595 22.9731 22.6982 23.26 22.6557C23.4481 22.6282 23.9475 22.3295 24.1994 22.2976C24.2781 22.047 24.145 21.482 24.3763 21.3057C24.5513 21.1726 25.3756 21.187 25.5775 21.2838C25.985 21.4801 25.5494 22.1395 25.9331 22.3426C26.0094 22.3826 26.7906 22.6713 26.8388 22.667C27.135 22.642 27.2869 21.957 27.7019 21.9813C27.9069 21.9932 28.7219 22.6495 28.7031 22.8688C28.6819 23.1232 28.1169 23.6138 28.1925 23.8288C28.2125 23.8863 28.5931 24.4226 28.6344 24.437C29.0275 24.5732 29.5094 24.1145 29.7638 24.4151C29.9063 24.5838 30.165 25.617 29.9944 25.7838H29.9931ZM24.395 23.847C21.7244 24.2976 21.7394 28.722 24.75 28.997C28.5519 29.3445 28.5413 23.147 24.395 23.847Z" fill="black"/>
  <path d="M22.69 21.1261C22.9556 20.2717 23.505 19.5505 23.3512 18.5899C23.2637 18.0424 22.6612 17.4011 22.26 17.0374C22.1606 16.9474 21.6237 16.6355 21.7062 16.5167C21.7237 16.4917 22.1437 16.2774 22.2287 16.208C24.4606 14.3974 24.135 10.7892 24.6125 8.20049C24.6837 7.81486 24.77 7.28486 25.0256 6.98486C25.1725 7.44236 25.3 7.90924 25.3781 8.38486C25.7493 10.6374 25.6556 14.3999 27.485 15.993C27.6181 16.1092 28.2406 16.4774 28.2193 16.5986C28.2056 16.678 27.225 17.4999 27.0568 17.7149C26.1668 18.8549 26.7556 19.8024 27.2425 20.908C27.275 20.9824 27.3593 21.0061 27.2406 21.0961C25.7225 20.8549 24.2037 20.8161 22.69 21.1255V21.1261Z" fill="black"/>
  <path d="M26.2456 31.8967C26.5781 32.7717 27.3006 33.453 28.01 34.0373L28.0356 34.1261C27.6931 34.6592 26.7244 35.4311 26.52 35.9942C26.3475 36.4692 26.39 37.238 26.31 37.7517C26.1181 38.9773 25.8019 39.9923 25.4863 41.1711C25.3269 41.7667 25.295 42.4798 24.995 43.0148C24.8006 43.0186 24.5669 41.5311 24.5038 41.2936C24.0375 39.5292 23.6113 37.9011 23.47 36.0555L21.9525 34.0736C22.7163 33.4667 23.3406 32.718 23.7919 31.8555L26.2456 31.8961V31.8967Z" fill="black"/>
  <path d="M19.0619 15.2244C19.1669 15.3132 19.0382 15.3307 18.9757 15.3532C18.1157 15.6669 17.2425 15.9475 16.4182 16.3619C12.8625 16.0919 9.31878 15.4225 5.76441 15.0238C4.76691 14.3507 3.89815 13.4825 2.98128 12.7038C2.87753 12.6157 2.25691 12.2957 2.39878 12.1494L19.0619 15.2238V15.2244Z" fill="black"/>
  <path d="M47.6525 12.15C47.7712 12.2563 47.0462 12.6832 46.9819 12.7394C46.0956 13.5194 45.2281 14.365 44.2368 15.0363L34.0362 16.3944C33.4112 16.4188 32.2194 15.7269 31.5594 15.4844C31.3587 15.4107 31.1437 15.3538 30.9281 15.3463L47.6525 12.1494V12.15Z" fill="black"/>
  <path d="M43.4107 15.7783C43.2132 15.9696 42.93 16.1171 42.6913 16.2571C42.0382 16.6414 41.2969 17.1508 40.5507 17.2527C39.1813 17.4389 37.6913 17.4177 36.3069 17.5627C35.7244 17.3702 35.1507 17.0977 34.6182 16.7921L43.4107 15.7783Z" fill="black"/>
  <path d="M15.3725 16.7617C14.9163 17.1211 14.2869 17.3323 13.7444 17.5617C12.3419 17.4136 10.8256 17.4417 9.4394 17.2523C8.65565 17.1455 7.4794 16.3605 6.76252 15.9298C6.68502 15.883 6.6069 15.9423 6.64127 15.7773L15.3719 16.7611L15.3725 16.7617Z" fill="black"/>
  <path d="M12.9131 18.0532C12.6238 18.3807 12.1931 18.5782 11.8369 18.83L10.2075 17.8682L12.9131 18.0525V18.0532Z" fill="black"/>
  <path d="M39.7825 17.8687L38.2144 18.8318L37.1394 18.1743L37.17 18.0518L39.7825 17.8687Z" fill="black"/>
</svg>