<svg width="50" height="50" viewBox="0 0 50 50" fill="none" xmlns="http://www.w3.org/2000/svg">
<path d="M26.8912 2.83252C26.43 3.13064 25.9 4.24814 26.2956 4.70127C26.6068 5.05752 28.1793 4.97502 28.6293 4.75752L28.1325 7.30314C27.7975 7.10814 26.3525 5.95689 26.0612 6.01189C25.4756 6.12127 26.4006 7.02439 26.7675 6.86939C26.8031 6.90252 26.4193 7.64064 26.3806 7.66377C26.3162 7.70189 26.1462 7.66502 26.1462 7.67627V11.7744C26.1462 11.7875 26.3456 11.7319 26.4025 11.81C26.4725 11.9063 26.4456 12.1925 26.485 12.3363C26.5412 12.5394 26.66 12.8756 26.7568 13.0581C26.8475 13.2288 27.2468 13.6288 27.2493 13.6675C27.2518 13.7063 26.8731 14.2619 26.8287 14.2888C26.6937 14.3706 26.1462 14.2863 26.1462 14.32V16.8656C26.4987 16.8513 26.8631 17.1125 27.2031 17.0244C28.365 16.3213 29.6062 15.7481 30.7837 15.0769C30.96 14.9763 31.5193 14.6675 31.6118 14.5394C31.7843 14.3006 31.8875 13.6888 31.9837 13.3894L32.6643 15.5894C32.6575 15.6975 31.7587 17.4294 31.6743 17.52C31.4625 17.7469 30.7875 17.9719 30.625 18.2088C30.5437 18.3275 30.12 19.5969 30.0868 19.7813C29.9768 20.3863 30.2931 21.1913 30.17 21.7275C30.1243 21.9244 29.5706 22.5794 29.4275 22.8475C29.2387 23.2006 28.8406 24.1294 29.42 24.3044C29.7675 24.4094 29.955 24.1669 30.245 24.0694C30.2712 25.3031 29.7575 26.4088 29.3756 27.5463C29.3062 27.6081 29.0612 27.33 29.0018 27.2688C28.715 26.9719 28.495 26.5738 28.165 26.3056C28.0737 26.3056 27.895 27.4713 27.8831 27.6369C27.6156 31.4338 28.0187 35.5875 27.8887 39.44C27.8518 40.5281 27.6593 41.3869 27.3287 42.42L25.5256 47.1681V24.1006C25.5256 23.655 26.5681 23.7613 26.8556 23.7581L26.9837 24.1313L27.9456 23.2938C27.7787 23.215 27.0506 22.395 26.9843 22.3944C26.8575 22.3931 26.905 22.7513 26.8912 22.7663C26.8431 22.8181 25.7025 22.8394 25.5568 22.5163C25.5093 22.41 25.4931 20.5675 25.535 20.4469C25.7737 20.215 26.2431 20.065 26.4793 19.8525C26.645 19.7038 26.265 19.6669 26.1256 19.5875C25.54 19.2569 25.1206 18.7825 24.9968 18.1075C24.7918 18.9319 24.2387 19.43 23.4768 19.7538L24.4593 20.4469C24.5006 20.5719 24.485 22.3481 24.4368 22.4538C24.265 22.8313 23.4943 22.83 23.1387 22.7694C23.0693 22.7575 23.1075 22.4469 23.01 22.3931L22.0493 23.2369C22.0237 23.3563 22.9018 23.9588 23.01 24.1306L23.1381 23.7575C23.4362 23.8031 23.9056 23.6919 24.1762 23.7713C24.2575 23.795 24.4687 24.0444 24.4687 24.1V47.1675L22.6668 42.4181L22.1156 40.4231C21.8918 36.2625 22.3906 31.8269 22.1112 27.6981C22.0787 27.22 21.9575 26.6956 21.8293 26.2419C21.4543 26.6294 21.1487 27.0981 20.7693 27.4794C20.7181 27.5306 20.715 27.5681 20.6187 27.5456C20.2387 26.3906 19.6918 25.2569 19.7493 24.0063C20.0037 24.2575 20.5637 24.5069 20.7968 24.0925C21.1568 23.4544 20.1225 22.1869 19.7637 21.6706C19.7793 21.1719 19.9206 20.61 19.9356 20.1238C19.9456 19.8075 19.4631 18.2619 19.2493 18.0794C19.0225 17.8856 18.4781 17.6944 18.2937 17.4825C18.2175 17.3944 17.4168 15.8675 17.375 15.7313C17.3537 15.6625 17.3243 15.615 17.3243 15.5319C17.3225 15.2719 17.7981 13.8538 17.9187 13.5138C17.94 13.4538 17.9262 13.3713 18.0093 13.3894C18.1062 13.6688 18.1975 14.2869 18.3525 14.5056C18.5375 14.7669 19.3881 15.1113 19.6893 15.28C20.7381 15.8669 21.7881 16.4525 22.8362 17.04L23.8462 16.8663V14.3206C23.8462 14.2863 23.2987 14.3706 23.1637 14.2894C23.105 14.2538 22.7156 13.6775 22.7325 13.6125C23.1681 13.2813 23.4375 12.7025 23.5293 12.1719C23.5856 11.8444 23.3812 11.7206 23.8462 11.775V7.70814C23.8462 7.66689 23.5887 7.58564 23.5056 7.49002C23.4537 7.43064 23.2012 6.90377 23.225 6.87127C23.5168 6.83314 24.3393 6.47564 24.0375 6.08939C23.8925 5.90377 23.6968 6.08064 23.5343 6.15564L21.8593 7.24314L21.3012 4.79002C22.0387 4.87752 22.6968 5.06252 23.4393 4.81877C23.6862 4.73752 23.7525 4.69377 23.785 4.42002C23.86 3.79252 23.5975 3.20502 23.1012 2.83502H26.8887L26.8912 2.83252ZM22.3737 20.8244L21.6156 18.26L18.7575 16.4306C18.8793 16.7144 18.9193 17.2544 19.1256 17.4588L21.1212 18.645L21.8137 21.135L23.2268 21.7081C23.2631 21.6619 23.1043 21.1869 23.0393 21.12C22.91 20.985 22.4768 20.9356 22.3737 20.8238V20.8244ZM31.2375 16.4938C31.1425 16.4706 31.1018 16.5306 31.0325 16.5681C30.1306 17.0513 29.2475 17.7788 28.3543 18.2981C28.1118 18.7131 27.8031 20.6956 27.5375 20.8963C27.2093 21.1431 26.7356 20.9663 26.7675 21.7088L28.1793 21.1344L28.8756 18.6944C29.2881 18.3963 29.73 18.1369 30.1637 17.8713C30.3018 17.7869 30.8562 17.5313 30.9125 17.4713C31.025 17.3513 31.0962 16.6788 31.2381 16.4931L31.2375 16.4938Z" fill="white"/>
<path d="M19.3056 21.9677C19.3537 24.1814 19.1981 26.4008 19.0369 28.6014C18.7269 28.1789 18.5075 27.7008 18.1681 27.297C17.5256 26.5333 16.5031 25.572 15.7694 24.8545C15.235 24.3327 14.6637 23.8458 14.1094 23.3452C14.5012 22.6595 14.905 21.9777 15.2287 21.2539C15.3412 21.002 15.6487 20.3814 15.69 20.1577C15.7469 19.8502 15.4787 19.6627 15.2769 19.8739L14.0406 21.9858L11.5544 21.2733L12.9494 20.2789C13.2925 19.9802 14.6969 18.5933 14.66 18.2033C14.6537 18.1383 14.6194 18.0808 14.57 18.0402C14.3206 17.832 14.0056 18.4227 13.8525 18.5752C13.555 18.8714 12.025 20.2589 11.7087 20.2577C11.3925 20.2564 9.83125 19.0433 9.38062 18.9139L9.41125 18.7908C10.4925 18.7314 11.595 18.2089 12.5262 17.6839C12.7787 17.5414 13.6244 17.1008 13.6506 16.8258C13.6656 16.6689 13.5412 16.5514 13.3862 16.5502C13.18 16.5489 12.1494 17.1777 11.8437 17.312C11.5581 17.4377 11.1512 17.597 10.8556 17.6902C10.4669 17.812 9.58062 18.087 9.2325 17.9127C8.44187 17.2252 7.52437 16.6952 6.77187 15.9652C9.00625 15.9277 11.1887 15.4002 13.3106 14.7433C13.5737 14.5933 13.4825 14.2339 13.1519 14.2708C12.68 14.3239 11.895 14.6633 11.3675 14.7864C9.91687 15.1252 8.42062 15.2839 6.92875 15.2502C5.93437 14.4583 5.045 13.5302 4.1025 12.6739C4.08937 12.5108 4.12937 12.6127 4.21062 12.6277C6.78 13.1039 10.3031 13.5027 12.8731 13.002C13.3831 12.9027 13.5719 12.4077 13.0125 12.3895C12.5881 12.3752 11.9669 12.5089 11.5237 12.5227C9.53625 12.5845 6.6875 12.6014 4.81312 11.9633C3.52312 11.5245 2.88062 9.88391 1.8675 9.01016L1.3075 8.23579C3.2825 9.22829 5.43124 9.65391 7.61812 9.90329C9.805 10.1527 13.6387 10.4352 15.1237 8.48516C15.8569 7.52266 15.2687 5.40204 14.9281 4.33141C14.9044 4.25579 14.8756 4.14829 14.9975 4.20016C15.3169 4.33641 16.3 6.40641 16.4687 6.82766C16.7637 7.56579 17.3962 9.42329 17.0081 10.1214C16.8856 10.342 16.605 10.4652 16.4581 10.627C14.3162 12.9808 15.0169 16.8939 16.4469 19.4545C17.1269 20.6714 17.9619 21.5014 19.3037 21.9683L19.3056 21.9677Z" fill="white"/>
<path d="M48.685 8.23489C48.73 8.28114 48.4838 8.5749 48.4356 8.63677C47.6281 9.67115 46.6619 10.6343 45.8725 11.6924C45.4125 11.8974 44.9106 12.0886 44.4163 12.1924C42.4631 12.6024 40.1469 12.6055 38.1581 12.5218C37.8063 12.5068 37.2419 12.3736 36.9181 12.3893C36.5231 12.4086 36.5163 12.8699 37.0081 12.9874C37.6 13.1286 38.5888 13.1793 39.2131 13.2043C41.2856 13.2874 43.7675 13.1018 45.7844 12.6299C45.8631 12.6118 45.9019 12.508 45.89 12.673L43.5319 14.9099C43.0031 15.3586 42.9081 15.3468 42.1969 15.3118C41.6138 15.283 40.865 15.1961 40.28 15.1174C39.1056 14.9586 37.955 14.6499 36.8313 14.2861C36.5031 14.3286 36.3788 14.6011 36.7188 14.7668C37.2431 15.0218 38.5694 15.3318 39.1825 15.4699C40.5631 15.7805 41.6794 15.8324 43.0663 15.9336C43.1588 15.9405 43.2456 15.8855 43.22 16.0261C42.8063 16.2486 40.8431 17.9918 40.5844 18.0161C40.0431 18.068 38.62 17.5505 38.0856 17.3118C37.7031 17.1405 37.0494 16.6705 36.7006 16.5805C36.3288 16.4849 36.2706 16.778 36.4825 17.0524C36.7788 17.4361 38.525 18.2736 39.0438 18.4649C39.5556 18.6536 40.085 18.7561 40.6125 18.883L38.2319 20.2674C37.2675 19.6936 36.4156 18.9443 35.7088 18.0755C35.4063 17.9655 35.2525 18.1011 35.3688 18.4155C35.4569 18.653 36.1194 19.4143 36.3269 19.6305C36.9131 20.2405 37.6475 20.818 38.3763 21.243L35.935 22.013L34.6988 19.8618C33.8356 19.5599 34.6688 21.0943 34.8275 21.4399C35.1325 22.103 35.4969 22.7305 35.8875 23.3449C35.865 23.4768 35.1994 23.9311 35.0538 24.0661C34.0775 24.9749 32.6606 26.2968 31.8256 27.2961C31.4856 27.703 31.2788 28.2055 30.9269 28.6011L30.6738 21.9949C32.9138 21.273 34.0156 18.9393 34.5719 16.8168C35.0525 14.983 35.0738 12.4093 33.7519 10.9036C33.1956 10.2705 32.8044 10.3586 32.8481 9.31802C32.8963 8.17989 34.0838 5.1474 34.8744 4.32802C35.2894 3.89802 34.9106 4.66114 34.8806 4.76927C34.6269 5.69427 34.3225 7.34302 34.6831 8.23365C34.9869 8.98365 36.4469 9.68615 37.1975 9.87927C39.255 10.4099 43.7425 9.87302 45.8413 9.33427C46.8025 9.08802 47.7888 8.65802 48.6838 8.23427L48.685 8.23489Z" fill="white"/>
</svg>
