<svg xmlns="http://www.w3.org/2000/svg" width="50" height="50" viewBox="0 0 50 50" fill="none">
  <path d="M38.5169 10.615C37.3025 13.2894 36.0944 15.9669 34.9769 18.6844C34.9863 18.8387 36.2 21.1719 36.3731 21.44C37.38 22.9944 39.0594 23.6569 40.7631 24.1769C40.8225 24.2556 39.995 25.3069 39.885 25.5C38.7156 27.5462 39.095 29.3756 40.4338 31.1994C42.8888 34.5431 45.6938 33.0831 49.1 33.3312C49.1944 33.3381 49.3875 33.2831 49.3138 33.4594C49.1856 33.7694 46.6456 35.4312 46.1644 35.8381C45.5556 36.3531 44.6188 37.46 44.2575 38.1637C44.0538 38.5606 43.6313 40.1687 43.4419 40.2862C43.2688 40.3931 41.9269 40.1469 41.5838 40.1469C38.7219 40.1419 37.2606 43.8337 36.8756 46.2012C36.5594 46.2825 36.635 46.0594 36.4944 45.9387C32.8113 42.7681 29.2494 44.3887 25.8263 46.9406C25.5288 47.1625 25.2888 47.4475 25 47.675C24.8038 47.6687 24.7869 47.435 24.6544 47.3244C21.5744 44.7487 17.8256 42.89 14.1319 45.4387C13.9913 45.5356 13.1981 46.2781 13.1238 46.2006C12.7788 44.39 12.2044 42.7125 10.9656 41.3187C10.3506 40.6275 9.3544 40.145 8.41565 40.1469C8.07315 40.1469 6.73065 40.3937 6.55752 40.2862C6.30002 40.1269 6.19127 39.2225 6.08315 38.9456C5.65377 37.8437 4.74002 36.6044 3.83502 35.8387C3.35377 35.4319 0.813772 33.7694 0.685647 33.46C0.612522 33.2831 0.805022 33.3381 0.899397 33.3312C3.93315 33.1112 6.89252 34.4025 9.23315 31.6444C10.8175 29.7775 11.3856 27.6625 10.0825 25.445C9.96565 25.2462 9.17315 24.2631 9.23565 24.1769C10.3094 23.8294 11.6369 23.3887 12.5188 22.6656C13.7669 21.6419 14.2863 20.0675 15.0219 18.6844C13.8994 15.9694 12.6969 13.2887 11.4819 10.615C12.1625 10.9375 12.8213 11.3044 13.4606 11.7019C13.9806 12.025 15.7663 13.4362 16.1231 13.5306C16.3769 13.5981 17.3594 13.5819 17.65 13.5437C19.9044 13.2494 21.795 8.76811 22.7225 6.95561C23.5069 5.42311 24.3719 3.92936 24.9994 2.32373C25.6119 3.93686 26.4906 5.42248 27.2763 6.95561C28.4913 9.32686 30.4063 14.4194 33.875 13.53C34.2013 13.4462 36.0444 12.0094 36.5375 11.7012C37.1775 11.3012 37.8294 10.9294 38.5163 10.6144L38.5169 10.615ZM25 11.6531L21.4375 18.0712L25 23.6606L28.5625 18.0712L25 11.6525V11.6531ZM20.6944 30.0194C21.4556 29.3537 22.1531 27.1194 22.1913 26.1187C22.2419 24.7806 21.2956 22.7444 20.4625 21.7169C19.8944 21.0162 19.3031 20.3944 18.38 20.925C17.7731 21.2737 15.9975 23.9125 15.76 24.6106C15.1513 26.4 17.13 28.6587 18.4369 29.7025C19.0794 30.2156 19.9725 30.6512 20.6944 30.02V30.0194ZM29.305 30.0194C30.0188 30.6331 30.925 30.2125 31.5625 29.7019C32.8581 28.6637 34.8456 26.3894 34.2394 24.61C34.0006 23.9087 32.1806 21.205 31.5669 20.8906C31.1769 20.6912 30.8063 20.6319 30.4056 20.8569C29.3894 21.4275 27.9856 24.2269 27.8294 25.3637C27.6731 26.5006 28.3813 29.2244 29.305 30.0187V30.0194ZM15.4319 38.9225C15.5319 38.8569 16.1769 37.5294 16.275 37.3037C16.7275 36.2606 17.6463 33.9194 17.6206 32.8562C17.5944 31.7531 16.375 30.1406 15.3456 29.7712C14.4169 29.4381 13.28 30.3444 12.8869 31.1519C11.9175 33.1431 11.5881 37.6844 13.96 38.8444C14.3231 39.0219 15.0913 39.1475 15.4325 38.9225H15.4319ZM34.5681 38.9225C34.9081 39.1462 35.6775 39.0225 36.0406 38.8437C38.4081 37.6806 38.0544 33.2969 37.1506 31.2869C36.7613 30.4206 35.68 29.4031 34.655 29.7712C33.625 30.1406 32.4063 31.7531 32.38 32.8562C32.3544 33.9194 33.2731 36.2606 33.7256 37.3037C33.8231 37.5294 34.4688 38.8569 34.5688 38.9225H34.5681ZM26.4813 31.0294C26.3513 30.9019 25.3719 30.0406 25.3006 30.0081C25.1269 29.9287 24.8725 29.9287 24.6988 30.0081C24.6319 30.0387 23.7106 30.8437 23.5831 30.965C22.2219 32.2662 20.4438 35.3287 20.1288 37.1844C20.0563 37.6112 19.8331 39.6444 20.055 39.8744C20.1581 39.9819 21.0794 40.3956 21.3219 40.5506C22.2269 41.1287 23.0581 41.8206 23.9438 42.42C24.6356 42.8881 24.8238 43.1181 25.64 42.6956C26.5644 42.2169 27.7256 41.1581 28.6775 40.55C28.92 40.395 29.8406 39.9812 29.9444 39.8737C30.1594 39.6506 29.9338 37.5281 29.8581 37.11C29.5319 35.3081 27.7894 32.3087 26.4813 31.0287V31.0294Z" fill="black"/>
</svg>