<svg xmlns="http://www.w3.org/2000/svg" width="50" height="50" viewBox="0 0 50 50" fill="none">
  <path d="M25.0793 1.74731C25.4549 2.27419 25.8856 2.76794 26.2349 3.31419C26.7631 4.14044 27.2062 5.08606 27.7118 5.93294C28.4787 7.21669 30.2337 10.1992 31.3906 10.9848C31.9324 11.3529 32.3562 11.2104 32.9374 10.9779C34.7393 10.2573 36.6024 7.38669 37.6274 5.75169C37.8824 5.34544 38.0799 4.81356 38.3687 4.44481C38.4274 4.36981 38.4974 4.26544 38.6074 4.27981C38.6737 4.35856 38.2162 6.01919 38.1499 6.27419C37.5774 8.49294 36.9906 10.7129 36.3949 12.9261C36.2881 13.3242 36.0587 13.6611 36.1318 14.1123C36.1899 14.4711 36.9174 14.8154 37.2037 15.0342C37.7087 15.4192 38.2331 15.8011 38.7406 16.1917C39.2262 16.5654 39.6874 17.0242 40.1737 17.4036C40.3362 17.4742 41.0668 17.0923 41.2887 17.0123C43.5387 16.2004 44.7906 16.3004 47.0968 16.2473C47.2187 16.2442 48.5262 16.0086 48.5237 16.1104C48.5149 16.2136 48.4031 16.2904 48.3256 16.3436C47.5431 16.8786 46.5793 17.0579 45.7493 17.7554C44.0968 19.1442 42.2299 21.0279 41.1306 22.8911C40.4999 23.9598 40.0281 25.2629 39.4449 26.3786C38.9206 27.3823 37.4537 29.5073 37.3168 30.5017C37.1062 32.0342 38.0512 34.6979 38.7231 36.0954L39.1993 36.9929C38.2049 36.3342 37.2968 35.6173 36.1574 35.2123C35.8993 35.1204 34.9906 34.8354 34.7831 34.9198C34.1781 35.1673 33.6768 36.0811 33.2718 36.5886C32.5912 37.4417 31.9499 38.3167 31.2768 39.1742C30.4443 40.2342 29.4849 41.2054 28.6687 42.2786C27.6781 43.5811 26.6631 45.2404 25.9224 46.6998C25.8256 46.8911 25.2487 48.2573 25.1618 48.2548C25.1218 48.2536 25.0487 48.0592 24.8393 48.2573C24.5349 47.5967 24.2449 46.9242 23.9043 46.2798C21.9524 42.5861 18.8918 39.3204 16.3268 36.0198C16.0962 35.7236 15.8806 35.3904 15.6931 35.0648C13.9687 35.1542 12.5456 36.2148 11.1774 37.1548L11.6537 36.2573C12.2774 34.9179 13.4474 31.9367 12.9106 30.5436C12.4549 29.3604 11.3899 27.8723 10.7712 26.7011C10.1399 25.5048 9.62682 24.1661 8.9762 22.9992C7.9737 21.2017 5.1737 18.1698 3.3987 17.1523C2.90307 16.8679 2.2237 16.6729 1.78057 16.3992C1.66995 16.3311 1.54995 16.1929 1.4762 16.0842C1.75182 16.0854 2.0312 16.1142 2.30432 16.1442C4.76245 16.4142 6.64495 16.7792 8.98057 17.6054C9.10307 17.6486 9.29182 17.7879 9.3837 17.8004C9.54745 17.8236 9.8462 17.4211 9.98932 17.2954C10.8968 16.4998 11.8693 15.7879 12.8206 15.0611C13.5143 14.5311 14.0849 14.5261 13.8437 13.4967C13.6868 12.8254 13.4193 12.0917 13.2387 11.4073C12.6174 9.05419 11.9906 6.70044 11.4174 4.33544C11.5112 4.21794 11.5724 4.31981 11.6306 4.39294C12.0724 4.95231 12.5062 5.89544 12.9318 6.54044C13.7693 7.80731 14.7943 9.27669 15.8893 10.3192C16.5906 10.9867 17.4443 11.8579 18.4224 11.1786C19.6312 10.3392 20.9693 8.14481 21.7606 6.86419C22.7056 5.33419 23.5993 3.31669 24.7662 1.99919C24.8056 1.95419 25.0299 1.71356 25.0781 1.74919L25.0793 1.74731ZM30.5774 16.9979L30.3493 15.4211C29.9831 14.0267 29.1649 12.9292 28.3131 11.7992C27.4787 10.6929 26.5156 9.45481 25.6181 8.40419C25.5187 8.28794 25.1106 7.78731 24.9987 7.79606C24.8012 7.81169 22.9787 10.2629 22.7074 10.6104C21.7568 11.8298 20.4587 13.2223 19.9349 14.6817C19.6774 15.3992 19.5037 16.1911 19.2612 16.9186C18.6562 16.8036 18.1324 16.4498 17.5112 16.4029C15.7324 16.2679 14.6937 16.7161 13.3856 17.8323C13.0031 18.1586 11.8524 19.1504 11.6074 19.5036C11.3824 19.8279 11.2993 20.5029 11.3524 20.8911C11.4474 21.5867 12.1537 22.1504 12.5768 22.6848C13.7918 24.2204 14.6293 25.8648 15.3249 27.6967C15.5031 27.8954 15.8543 28.0454 16.0793 27.8548C16.3899 27.1579 16.9112 26.4692 17.1612 25.7573C17.8649 23.7511 17.2512 21.9592 16.1262 20.2667C16.0843 20.2036 15.8056 19.9604 15.8656 19.9079L16.1431 19.8842C17.0662 20.1567 18.1606 21.1861 19.0312 21.4573C19.6468 21.6492 19.9487 21.4723 20.3399 21.0136C20.8218 20.4486 21.5593 19.0323 21.8581 18.3279C22.8043 16.0954 23.5543 13.6148 24.4624 11.3398C24.5143 11.2104 24.8543 10.4061 24.8912 10.3673C25.0231 10.2292 25.2218 10.3579 25.3093 10.4911C25.4099 10.6442 25.5824 11.1648 25.6624 11.3773C26.6631 14.0436 27.9524 18.8992 29.6887 20.9854C30.0849 21.4611 30.3318 21.6342 30.9687 21.4554C31.7393 21.2392 32.8393 20.3204 33.6299 19.9679C33.8487 19.8704 33.9493 19.8561 34.1893 19.9073L33.1012 21.6479C32.6968 22.7948 32.4306 23.6523 32.6393 24.8792C32.8218 25.9548 33.4499 26.8404 33.9274 27.7942C34.1024 28.0529 34.5799 27.9104 34.7212 27.6867C35.3956 25.8673 36.2356 24.2642 37.4243 22.7373C37.7893 22.2686 38.6281 21.4504 38.7462 20.8798C38.8081 20.5817 38.6324 19.8917 38.5043 19.6067C38.4031 19.3817 36.7624 17.9267 36.4537 17.6692C35.2306 16.6473 34.1743 16.2798 32.5437 16.4017C31.8787 16.4517 31.2312 16.8423 30.5793 16.9961L30.5774 16.9979ZM27.7399 22.4761C27.1849 21.8423 26.6174 21.2048 26.0518 20.5804C25.7518 20.2492 25.3974 19.9748 25.0799 19.6623H24.9731C24.2443 20.2148 23.7456 20.9461 23.1431 21.6079C22.6074 22.1967 22.0562 22.6017 21.6224 23.3204C20.8156 24.6573 20.7506 25.6786 21.3362 27.1286L21.9549 28.4223C21.2456 28.1117 20.6049 27.4436 19.7812 27.4729C19.5381 27.4817 18.7712 27.7273 18.5649 27.8617C18.0749 28.1811 17.9593 29.0492 17.8549 29.5761C17.8068 29.8192 17.7124 30.0723 17.6949 30.3329C17.6806 30.5523 17.6674 30.9961 17.6949 31.2004C17.7331 31.4773 18.2424 32.0417 18.4874 32.1867C19.0056 32.4929 20.3981 32.6848 20.9499 32.4567C21.7437 32.1286 22.5012 31.4898 23.1449 30.9329L23.7874 30.5248C23.2474 31.9148 22.3312 33.1498 21.8856 34.5773C21.6731 35.2586 21.6631 35.6317 21.6831 36.3154C21.7056 37.0848 21.7781 37.5304 22.0749 38.2454C22.3293 38.8579 22.4774 38.8704 22.8449 39.3079C23.1624 39.6861 23.4137 40.1398 23.8462 40.4086C24.3012 40.6911 25.2549 40.9848 25.7674 40.7767C25.9299 40.7104 26.7162 39.9217 26.8868 39.7404C27.3256 39.2742 27.7331 38.7911 27.9781 38.1911C28.6087 36.6486 28.4343 35.0667 27.7674 33.5767C27.4649 32.9004 26.6781 31.7504 26.5949 31.0842C26.5806 30.9698 26.5893 30.8542 26.5899 30.7398C27.4306 31.3111 28.1981 32.1323 29.1637 32.5042C29.6387 32.6867 30.9749 32.4598 31.4524 32.2342C31.7281 32.1042 32.3031 31.4948 32.3531 31.1948C32.4724 30.4804 32.1631 28.9736 31.8374 28.3211C31.3249 27.2948 30.2649 27.2217 29.2843 27.6411C29.1693 27.6904 28.2512 28.3129 28.2068 28.2604C28.4049 27.6104 28.8162 27.0236 28.9762 26.3623C29.3624 24.7617 28.7531 23.6323 27.7406 22.4754L27.7399 22.4761Z" fill="black"/>
</svg>