<svg xmlns="http://www.w3.org/2000/svg" width="50" height="50" viewBox="0 0 50 50" fill="none">
  <path d="M26.5007 1.22803C27.2363 1.41428 28.01 1.41303 28.7575 1.5349C38.8819 3.1849 46.8294 11.1199 48.4744 21.2518C48.5907 21.9693 48.5838 22.7137 48.7813 23.4155V26.5849C48.5769 27.4793 48.54 28.4012 48.3788 29.3055C46.6332 39.1112 38.6625 46.8674 28.8507 48.4655C28.1038 48.5874 27.3319 48.6055 26.5938 48.7724H23.4244L20.6107 48.3699C10.6407 46.5168 2.75378 38.288 1.4369 28.203C1.36378 27.6424 1.38003 27.0293 1.2369 26.4918C1.2794 25.5055 1.1794 24.4918 1.2369 23.5087C1.93003 11.6687 11.7319 2.00928 23.5175 1.22803H26.5007ZM31.4413 4.8649C27.0107 3.63428 22.0188 3.60928 17.69 5.23553C14.8832 6.2899 12.2844 7.95678 10.1869 10.0837C11.2938 9.5274 12.5732 9.90615 13.0813 11.0587C13.1507 11.2168 13.1144 11.6587 13.3088 11.5755C13.4082 11.533 14.0157 10.9349 14.205 10.7937C15.3219 9.96178 16.5369 9.20928 17.8307 8.6849C17.9063 8.44115 17.6932 8.51615 17.6069 8.4024C15.765 5.98053 19.2019 3.7599 20.7219 5.93553C21.0838 6.45303 21.0025 6.97115 21.0013 7.5674C23.6232 6.9624 26.3294 6.9699 28.9707 7.47553C28.9957 7.17303 28.9163 6.95303 28.9657 6.63115C29.0713 5.94678 29.5919 5.23928 30.2719 5.04615L31.4413 4.86553V4.8649ZM39.5519 9.80365C37.3775 7.61553 34.65 6.00928 31.7219 5.05115L32.5057 5.71115C32.9632 6.34865 33.0588 6.97928 32.7488 7.70928C32.5944 8.0724 32.3007 8.24303 32.1875 8.59178C33.855 9.18803 35.3044 10.2424 36.7069 11.2993C36.9132 11.3318 36.8182 11.2474 36.8563 11.1637C37.4338 9.8874 38.1007 9.49053 39.5519 9.80428V9.80365ZM23.6832 8.33865C7.13503 9.86365 2.53065 32.0805 17.1763 39.9643C30.5669 47.1724 45.835 34.3587 41.2025 19.9462C38.8444 12.6093 31.4163 7.62553 23.6825 8.33865H23.6832ZM9.44065 10.9237C9.2244 10.8649 9.28503 10.9743 9.22753 11.0418C7.33128 13.2593 5.75065 15.8293 4.96753 18.6605L5.75628 17.9124C6.76128 17.378 7.66628 17.7112 8.41503 18.4743C9.00878 16.8399 9.92128 15.2943 11.0257 13.9512C11.0707 13.7562 10.2388 13.558 10.0075 13.3874C9.28815 12.858 9.06753 11.7174 9.4419 10.9237H9.44065ZM44.7719 17.7287C43.9313 15.2837 42.5394 12.823 40.6719 11.0168C40.9375 12.408 40.4325 13.0812 39.2157 13.6187C39.1582 13.6443 39.0163 13.5999 39.0869 13.7655C39.1669 13.9512 39.735 14.5555 39.9082 14.8093C40.5713 15.7849 41.1725 16.813 41.6044 17.9149C42.49 16.9868 43.785 16.8755 44.7719 17.7287ZM45.3307 30.9655C45.4813 30.3524 45.655 29.7424 45.7688 29.1187C46.2632 26.4055 46.2213 23.1174 45.6794 20.4105C45.6475 20.2499 45.3525 19.1237 45.2857 19.1255C45.1713 20.398 44.1163 21.3268 42.8169 21.0337C42.7013 21.0074 42.7063 20.9249 42.72 21.1305C42.7919 22.1868 43.1557 23.3237 43.1913 24.4824C43.2363 25.938 43.06 27.3968 42.815 28.8205C43.7769 28.7005 44.4507 28.9724 44.9782 29.7805L45.3307 30.9643V30.9655ZM7.3894 21.5505C6.4219 21.7968 5.38878 21.4312 4.94878 20.4955L4.68753 19.3137C4.3944 20.5593 4.09503 21.7987 4.0294 23.0843C3.8994 25.6343 3.9994 28.3243 4.68753 30.7793L4.98128 29.8162C5.53815 28.9105 6.45565 28.6162 7.48315 28.9143C6.91565 26.503 7.02753 23.9824 7.3894 21.5505ZM10.9325 36.3724L9.51815 34.198L8.36878 31.8999C7.5269 32.9643 6.28315 32.9868 5.2469 32.178C5.9919 34.6505 7.4294 36.9487 9.11503 38.8899C9.03503 37.5911 9.5594 36.5593 10.9325 36.3724ZM40.8582 38.8899C42.7432 36.9424 44.1069 34.4724 44.9582 31.898C44.3132 32.5587 43.6769 32.9012 42.7163 32.6955C42.305 32.6074 42.0788 32.2812 41.6975 32.1774C41.1425 33.5655 40.39 34.8774 39.46 36.048L40.4369 36.653C41.0013 37.2874 41.1338 38.0961 40.8582 38.8899ZM18.1107 44.9487C17.0432 44.1524 16.8688 42.6337 17.9225 41.7337C16.1982 40.8943 14.5544 39.8899 13.1225 38.6112C12.7632 39.9074 11.7157 40.5993 10.3732 40.1962C12.545 42.3449 15.2238 43.9537 18.1107 44.9487ZM40.0182 39.8237C38.9375 40.2211 38.1513 40.0968 37.4075 39.2168C37.2844 39.0705 37.1863 38.663 36.9932 38.7068C36.9307 38.7211 36.2444 39.3762 36.095 39.4887C34.9913 40.3162 33.745 41.0724 32.4669 41.5949C32.4307 41.7912 32.6407 41.8637 32.7313 42.028C33.325 43.098 33.055 44.1412 32.0938 44.8555C35.0925 43.928 37.8588 42.0812 40.0175 39.823L40.0182 39.8237ZM29.1107 42.8055C26.4463 43.3005 23.7588 43.2855 21.0938 42.8068C21.405 43.6243 20.8644 44.6549 20.09 45.018L19.0438 45.3218C20.3025 45.6099 21.6113 45.9924 22.9082 46.0724C25.1369 46.2099 27.6532 46.113 29.8225 45.6149L31.6275 45.0443C30.1569 45.293 28.9344 44.348 29.1107 42.8062V42.8055Z" fill="black"/>
  <path d="M19.0431 23.881C17.9994 22.7704 16.9438 21.6323 16.3231 20.2148C15.0219 17.2429 16.4419 12.6642 19.5363 11.3698C21.9194 10.3729 25.435 11.3454 25.9194 14.161C26.0781 15.0854 25.5075 16.5017 24.45 16.5154C25.68 15.156 24.7469 13.6267 23.3013 12.9573C19.9263 11.396 18.1613 16.0185 19.7506 18.5585C20.1056 19.126 21.4794 20.1823 22.115 20.296C22.6575 20.3935 23.095 20.5285 23.1456 19.9185C23.2119 19.1142 22.6063 18.3842 22.4 17.6342C23.6031 18.3923 24.7488 19.0335 25.4325 20.3335C25.9469 21.311 26.0581 22.3185 25.8563 23.4054C27.4131 23.801 28.565 25.0379 29.3725 26.3692C30.6775 28.5204 31.2038 30.8698 29.7638 33.1085C31.5188 32.8648 32.1719 31.2917 32.2794 29.7054C32.3488 28.6792 31.8406 26.6992 30.9138 26.1329C30.6125 25.9492 30.2488 25.9779 30.0669 25.6992C30.5156 24.8617 30.5419 23.6617 30.2744 22.7642C30.1713 22.4179 29.2894 20.7467 29.485 20.5248C30.0288 20.6717 30.5063 20.9192 31.0963 20.7842C31.415 20.711 31.5388 20.3204 31.8213 20.111C32.0906 19.911 32.4644 19.8185 32.7463 19.6398C32.4288 18.6323 31.5056 18.6829 30.695 18.2417C29.1425 17.3973 27.9381 15.3592 27.9881 13.5767C28.0056 12.956 28.275 11.8998 28.7388 11.4817V12.9267C28.7388 13.4823 29.4469 14.6723 29.8531 15.0748C30.6919 15.9054 32.26 15.9892 33.3075 15.5379C33.6113 15.4073 33.8106 14.9754 34.155 15.4404C34.2363 15.5498 34.0425 16.2092 34.0444 16.471C34.0519 17.456 34.2844 17.8879 34.8931 18.611C36.1519 20.1067 38.0431 20.2779 38.3156 22.5529C38.4125 23.3592 38.0431 23.561 37.9938 24.0317C37.9613 24.3429 38.0931 24.9042 38.0588 25.3242C37.9863 26.2073 37.8706 26.7098 37.0688 27.131C36.0363 27.6723 37.0619 26.4348 37.0306 25.9829C37.0269 25.9267 36.6975 25.1223 36.6575 25.0954C36.3881 24.9154 36.0588 25.6342 35.9369 25.8098C35.8944 25.871 35.88 26.0767 35.7306 25.9317C35.6956 25.8979 35.39 25.0873 35.3775 25.0254C35.2931 24.6135 35.4488 24.2342 35.2706 23.8267C35.215 23.6992 34.3175 22.5673 34.2369 22.5304C33.3563 22.1292 33.4338 23.0392 33.5019 23.6379C33.6781 25.1898 34.7669 26.5304 35.3725 27.9198C36.2675 29.971 36.3569 32.5148 35.0225 34.4073C32.9744 37.311 31.2763 35.7523 28.5013 35.9967C28.0206 36.0392 26.1719 36.6842 26.1244 37.1685C26.0375 38.0435 27.5169 38.136 28.0844 37.9579C27.7644 38.7848 27.1569 39.401 26.2819 39.6504C24.085 40.2754 22.7456 39.8179 20.8119 38.846C13.9894 35.416 10.0963 29.0417 11.6281 21.2679C11.6963 20.9223 12.3194 18.4873 12.425 18.3817C12.7038 18.1035 12.5131 18.816 12.5125 18.8898C12.4806 21.2217 12.3469 24.1623 13.6331 26.1685C15.075 28.4173 18.8788 29.9848 21.4456 30.3817C22.625 30.5642 25.0463 30.6179 24.5431 28.8235C25.1525 28.6592 26.0531 30.3692 26.02 30.7092C26.0031 30.8804 25.7394 31.5635 25.645 31.7429C24.6681 33.6029 22.3063 33.3592 20.5344 33.2054C21.0638 33.756 21.7481 34.0229 22.4913 34.1842C23.0888 34.3142 24.0488 34.5298 24.5763 34.216C25.2438 33.8185 26.8469 32.4054 27.2331 31.7454C27.4713 31.3392 27.6756 29.3735 27.62 28.8692C27.4144 27.0067 24.5825 24.9498 22.7306 25.5654C22.2625 25.721 21.3681 26.531 21.17 26.9879C20.7325 27.9954 21.5175 28.681 19.7506 28.4423C17.8594 28.1873 14.3925 24.861 14.1256 22.9748C14.0556 22.481 14.15 21.9573 14.2581 21.4742C14.2906 21.3292 14.33 20.9479 14.475 20.8998C14.4306 21.336 14.5369 21.8642 14.7688 22.2379C15.1588 22.8648 16.9644 23.8829 17.6919 23.8829H19.0438L19.0431 23.881Z" fill="black"/>
</svg>