<svg xmlns="http://www.w3.org/2000/svg" width="50" height="50" viewBox="0 0 50 50" fill="none">
  <path d="M29.76 26.3191C29.7875 26.361 29.9588 26.3491 30.0156 26.4154C30.3088 26.756 29.5888 27.651 29.9281 27.8079C30.0638 27.8704 30.08 27.5391 30.2038 27.4504C30.3475 27.3473 30.5281 27.3773 30.695 27.3929C31.5744 27.4773 32.3069 28.7885 32.9213 29.3266C33.1988 29.5691 33.6781 29.7235 33.9769 29.9629C34.6306 30.4885 34.56 31.3329 35.3563 31.8973C35.8575 32.2523 36.3363 32.2235 36.8731 32.4954C38.165 33.1485 38.2975 33.7973 40.01 33.941C41.0481 34.0279 43.915 32.9841 44.6619 32.251C44.75 32.1641 44.8831 31.7391 45.0488 31.8985C45.1713 32.016 44.4369 33.1448 44.3031 33.3023C43.3763 34.3916 40.3331 35.5654 38.9194 35.8148C38.7281 35.8485 38.1344 35.9435 38 35.8816C37.8656 35.8198 37.3669 35.081 37.1531 34.8935C36.5419 34.3579 35.6825 34.1548 34.8963 34.2954C34.8331 34.6054 35.0169 34.4716 35.2181 34.5716C35.62 34.771 36.1294 35.0023 36.4494 35.3154C36.59 35.4529 36.8813 35.7998 36.915 35.9848C36.995 36.4254 36.0281 36.3529 35.7919 36.4079C35.7194 36.4248 35.6569 36.726 35.4619 36.6941C35.4206 36.7498 35.7244 37.1716 35.7838 37.2504C36.2681 37.8916 38.06 39.9204 38.6813 40.2748C38.9169 40.4091 39.0625 40.4254 39.305 40.4979C39.4069 40.5279 39.4288 40.4548 39.4088 40.6398C38.895 40.7123 38.34 40.9591 37.8213 40.9916C37.4875 41.0123 36.4081 40.9198 36.1613 40.7504C35.7925 40.4979 35.0663 39.4785 34.7544 39.3373C34.4919 39.2185 34.1106 39.346 33.8369 39.3416C33.7663 39.2898 33.7225 38.5179 33.7369 38.3729C33.7719 38.016 34.1619 37.8454 33.5731 37.6273C33.4488 37.581 33.3263 37.6329 33.1644 37.5423C32.915 37.4016 32.6244 36.7829 32.165 36.5673C31.8063 36.3985 30.9338 36.4448 30.8844 36.4023C30.8106 36.3385 30.5431 35.0316 30.105 34.8879C29.7019 34.7554 29.8463 35.2916 29.7888 35.5679C29.6875 36.0535 29.2525 36.4723 28.7625 36.5504C28.8125 36.2973 28.9931 36.2723 28.9606 35.9704C28.8794 35.216 28.0394 34.8473 27.98 34.0473C27.9575 33.7404 28.1913 33.6079 27.7981 33.3879C27.6425 33.3004 27.4838 33.2941 27.4313 33.4998C27.4119 33.5754 27.5694 34.096 27.2788 33.9091C27.1138 33.8029 26.8625 32.7929 26.7506 32.5335C26.1081 31.0366 24.6831 31.0554 23.8663 29.9185C23.2475 29.0579 24.7413 28.5698 25.3769 28.9373C25.4763 29.1448 24.8638 29.1898 25.025 29.3585C25.0394 29.3735 25.33 29.4354 25.425 29.4879C25.9219 29.7635 27.4838 30.9666 27.9469 30.2723C28.1138 30.0216 28.1594 29.4785 28.1269 29.1829C28.075 28.7073 27.6069 28.0879 27.5738 27.7554C27.5569 27.586 27.8113 27.2866 27.8231 27.0585C27.8406 26.7166 27.6838 26.3541 27.3094 26.3329C27.0731 26.3198 26.9006 26.641 26.7881 26.5391C26.77 26.5229 26.8806 26.1298 26.9138 26.066C27.0769 25.7535 27.5975 25.5973 27.915 25.7641C28.0488 25.0298 27.0494 24.8941 26.9544 24.356C26.9206 24.1654 27.2619 23.856 27.4538 23.856C27.56 23.856 27.7838 23.9691 27.84 23.9279C27.9294 23.8616 27.8388 23.5173 28.3769 23.5054C28.4219 23.5041 29.07 23.5973 29.1163 23.611C29.47 23.7129 29.7694 24.481 29.8131 24.8185C29.8556 25.1435 29.6594 26.1673 29.7581 26.3191H29.76ZM31.865 29.4316C31.805 29.3635 30.885 29.0204 30.7663 29.0079C30.4488 28.9748 30.0963 29.2866 29.7506 29.2191C29.7881 29.5698 30.1731 29.621 30.3794 29.756C30.4631 29.8104 30.5463 30.0285 30.7144 30.0485C30.8825 30.0685 31.3113 29.7016 31.5175 29.6116C31.5931 29.5791 32.0081 29.5954 31.8644 29.4316H31.865ZM32.0063 32.3204C32.0919 32.2479 31.5056 31.7185 31.4681 31.6223C30.7725 31.3929 30.84 32.156 30.67 32.5704C30.4319 33.1504 29.7231 33.5829 29.1838 33.0648C29.0563 32.9423 28.9656 32.6429 28.8581 32.6098C28.6506 32.5454 28.3388 32.826 27.9838 32.5029C27.7956 32.3316 27.8425 32.1041 27.7419 31.9641C27.6875 31.8885 27.5094 31.991 27.3581 31.8616C27.1775 31.7066 27.1956 31.4354 27.1031 31.2685C26.945 30.9835 25.4394 30.3098 25.0494 30.0791C24.9094 29.996 24.3 29.4679 24.1819 29.5723C24.6619 30.7035 26.2913 30.6279 26.8194 31.6929C26.8925 31.8398 26.8581 32.0473 26.9975 32.1998C27.0888 32.2998 27.2375 32.2898 27.2694 32.3348C27.3331 32.4248 27.2594 32.6248 27.4581 32.816C27.9125 33.2516 28.4619 32.926 28.7169 33.0916C28.8419 33.1729 29.1269 33.9723 29.4481 34.0691C29.7988 34.1748 30.4206 33.8266 30.645 33.5685C30.6869 33.5204 31.1163 32.8616 31.1294 32.8191C31.1906 32.6223 31.0738 31.8641 31.5119 32.0723C31.5913 32.1098 31.8331 32.4673 32.0063 32.321V32.3204Z" fill="black"/>
  <path d="M17.06 1.23102C16.8188 1.72352 16.5856 2.20477 16.4056 2.72602C15.6375 4.95352 15.5206 7.25102 16.3919 9.47789C16.5025 9.76102 17.2288 11.0329 17.5188 11.0329C17.7475 11.0329 18.3463 10.1241 18.5206 9.92164C18.55 9.88727 18.5831 9.71289 18.6819 9.83227C18.7375 9.89915 18.4719 11.346 18.4681 11.5623C18.72 12.9623 18.9256 14.6429 19.6325 15.896C19.7681 16.136 20.0156 16.6229 20.3069 16.2673C20.5719 15.9441 20.2906 15.6566 20.3519 15.3448C20.4594 14.7973 21.9956 13.3885 22.4919 13.1835C23.1919 12.8948 22.5813 13.5554 22.4919 13.8185C21.9331 15.4654 21.9825 17.746 22.4688 19.4048C22.8681 20.766 25.0369 23.9929 26.0463 25.0629C26.2719 25.3023 26.8619 25.4979 26.5413 25.9073C26.3081 25.8941 24.7581 24.3529 24.4969 24.0741C22.9344 22.4041 21.3325 20.3041 20.1325 18.3566C18.8963 16.3498 17.905 14.2773 17.7644 11.8766C17.5294 11.9235 17.4031 12.1604 17.1494 12.2129C16.2488 12.3979 15.6881 10.7941 15.4744 10.1135C15.1838 9.18914 14.965 8.11352 14.8744 7.15289C14.7244 7.12414 14.7106 7.22289 14.6588 7.32477C14.32 7.99289 13.8244 9.46914 13.6031 10.2173C12.5688 13.7191 13.8288 16.0123 15.9338 18.6785C18.4356 21.8473 21.1981 24.4079 24.0044 27.246C24.1313 27.3748 24.9413 28.2004 24.9563 28.2691C25.0063 28.4954 24.5756 28.4285 24.4444 28.461C24.2788 28.5016 24.06 28.5654 23.9 28.6216C23.7788 28.6641 23.5325 28.8535 23.51 28.8535C23.4481 28.8529 22.6769 28.1654 22.5581 28.0573C19.6531 25.4123 16.8256 22.6104 14.3125 19.5941C9.29565 13.5729 9.3794 6.69164 15.9381 1.90664C16.0594 1.81789 17.0069 1.17914 17.06 1.23102Z" fill="black"/>
  <path d="M35.9763 22.2882C35.5825 21.9313 35.5606 20.9288 35.8844 20.5126C36.2163 20.0857 36.7225 19.8976 37.2538 19.9176C37.785 19.9376 38.5356 20.8863 38.6169 21.3751C38.7413 22.1176 38.7006 23.7382 38.2394 24.3482C37.9106 24.7832 37.77 24.6563 37.4088 24.8569C36.9431 25.1157 37.1656 25.3801 37.1494 25.7194C37.09 26.9851 35.1569 28.7901 33.9469 28.9388C33.3663 29.0101 32.9081 29.0138 32.6406 28.4438C33.6819 28.3938 34.3538 27.6901 35.0031 26.9638C35.3806 26.5419 36.0144 25.9251 35.8031 25.3157C35.6988 25.0138 35.3025 25.2713 35.145 25.2738C33.5581 25.2957 33.0275 24.1438 32.2481 23.0894C32.0113 22.7688 31.6438 22.7213 31.7263 22.1394C31.7794 21.7682 32.95 20.1313 33.245 19.7076C34.1356 18.4282 35.1244 17.2119 36.0581 15.9644C37.0094 15.4551 38.1238 15.6563 39.0313 16.1651C40.2238 16.8332 40.6781 17.7251 40.6088 19.1051C40.6013 19.2544 40.4763 19.5876 40.4981 19.6338C40.5494 19.7401 40.8475 19.8519 40.9519 19.9551C41.575 20.5707 41.8444 22.0632 41.73 22.9051C41.6906 23.1938 41.4081 23.7857 41.3994 24.0494C41.3938 24.2213 41.6763 24.6919 41.7156 24.9719C41.9063 26.3419 39.9638 29.4313 38.8781 30.2757C38.0869 30.8913 37.1381 31.4057 36.1994 31.7538C35.9306 31.7457 34.6144 30.4444 34.5744 30.0588C34.615 29.8826 36.2663 28.7863 36.555 28.5163C37.2863 27.8313 37.9638 26.8701 38.2444 25.9051C38.3219 25.6382 38.3131 25.3419 38.3819 25.1263C38.5088 24.7282 39.0669 24.4901 39.1781 23.6669C39.24 23.2113 39.2588 21.2288 39.1188 20.8726C38.5238 19.3588 36.5213 18.5644 35.3913 20.0213C34.7881 20.7988 34.5888 22.3944 35.5069 23.0038C35.9081 23.2701 36.8431 23.3894 37.0006 22.8238C37.1513 22.2832 36.2806 22.5657 35.975 22.2882H35.9763Z" fill="black"/>
  <path d="M15.875 32.0964C15.8312 32.0696 15.6787 31.6514 15.4493 32.0189C15.3825 32.1258 15.4262 32.8939 15.4775 33.0233C15.805 33.8533 17.0343 33.6352 17.59 33.1683C17.88 32.9252 17.7806 32.6683 17.9268 32.4821C18.1062 32.2539 19.72 31.3727 19.9868 31.4021C20.0731 31.4114 20.1131 31.4464 20.1625 31.5121C19.7968 32.0921 19.6268 33.0152 19.2356 33.5446C19.1 33.7283 18.9681 33.7058 18.8312 33.8452C18.4237 34.2589 18.3693 35.8258 18.9818 36.0746C19.2681 36.1908 20.5681 36.1208 20.34 35.6371C20.2125 35.3664 20.145 35.4889 20.1631 35.0364C20.2468 32.9446 21.8737 30.9658 23.2293 29.5027L25.4156 31.9677C25.4562 32.0146 25.4712 32.1414 25.4475 32.1764C25.3381 32.3421 23.2125 32.8583 22.98 32.7108C22.655 32.5046 23.4962 32.3096 23.6381 32.2364C24.09 32.0027 24.3568 31.6083 24.0943 31.1033C23.7512 30.4421 22.7193 31.5183 22.4518 31.8258C21.7412 32.6421 21.1537 33.6702 21.0387 34.7664C20.9975 35.1614 21.2668 35.5958 21.6462 35.7377C21.7818 35.7883 22.255 35.7664 22.2031 36.0152C22.1293 36.3721 19.9081 37.3621 19.4762 37.4514C19.1137 37.5264 18.7006 37.2958 18.6775 37.8577C18.6587 38.3277 19.1143 38.5558 19.5275 38.5258C19.3075 39.0839 18.5168 39.2833 17.9706 39.1289C17.7837 39.0758 17.7881 38.7671 17.44 38.6039C16.1818 38.0133 15.095 38.8439 14.3125 39.7614C13.9925 40.1364 13.365 41.2671 13.0212 41.4314C12.2556 41.7977 10.8843 41.6996 10.0637 41.5389C8.79372 41.2908 9.81872 41.1139 10.315 40.8396C11.395 40.2427 12.3306 39.0021 13.03 37.9852C13.4218 37.4152 14.0693 36.3583 13.7643 35.6527C13.6 35.2733 12.9162 35.1214 12.7206 34.9333C12.4237 34.6477 12.4262 33.4271 12.5487 33.0271C12.6843 33.0958 12.7106 33.2846 12.8368 33.4077C13.1312 33.6964 13.6556 33.8783 14.025 33.6221C14.2368 33.4752 14.195 32.6164 14.2487 32.2946C14.3056 31.9527 14.7843 30.3127 15.0143 30.1696C15.3125 29.9839 15.34 30.5358 15.4493 30.7252C15.7387 31.2233 16.4537 31.1264 16.9187 30.9464C17.465 30.7346 19.625 28.9033 19.9393 28.3977C20.4612 27.5571 19.5643 27.3096 19.1856 27.9264C19.03 28.1802 19.0075 29.0077 18.6912 28.6827C18.5262 27.5452 18.8075 26.5471 19.1762 25.4846C19.2931 25.4583 19.3193 25.5221 19.3862 25.5908C19.7368 25.9514 20.0643 26.5908 20.4425 27.0021C20.6481 27.2258 21.5606 27.9283 21.6118 28.0227C21.6437 28.0821 21.6437 28.1183 21.6337 28.1827C21.6062 28.3696 20.2943 29.6639 20.0568 29.8558C19.7025 30.1414 19.1137 30.5246 18.7187 30.7739C18.3431 31.0108 16.1756 32.2821 15.875 32.0983V32.0964ZM17.175 36.2952C17.1443 36.2564 17.05 36.2408 17.0287 36.1996C16.8056 35.7771 17.4625 34.8721 17.1718 34.6421C16.9681 34.4808 16.3531 34.9871 16.0425 35.0752C15.2112 35.3102 14.7693 34.6833 15.3675 34.1196C15.375 33.9033 14.7531 34.0877 14.8325 34.5789C14.9062 35.0364 15.3737 35.2296 15.375 35.6702C15.3756 35.9189 15.1681 36.3896 15.0706 36.6408C14.9462 36.9602 14.5143 37.4271 14.945 37.6471C15.1237 37.7383 15.1775 37.4689 15.2956 37.3596C15.6168 37.0633 16.5593 36.3658 16.9862 36.5171C17.1275 36.5671 17.2737 36.7758 17.4631 36.8189C17.885 36.9152 18.3506 36.7752 18.2587 36.2702C18.15 36.2658 18.1787 36.4021 18.0756 36.4733C17.6618 36.7602 17.4462 36.6389 17.1756 36.2952H17.175Z" fill="black"/>
  <path d="M30.7369 40.8527C30.7725 41.0477 30.6438 41.1252 30.5263 41.2408C29.4069 42.3439 26.19 43.0445 24.6475 42.8883C24.355 42.8589 23.6725 42.6939 23.4057 42.5789C22.6457 42.2514 21.7913 41.0427 21.0388 40.927C19.3975 40.6752 19.3563 42.717 20.9338 43.0052C21.2163 43.057 21.6144 42.957 21.7625 43.017C21.8244 43.042 22.5219 43.6045 22.5875 43.6783C22.7119 43.8183 23.0963 44.4583 23.12 44.6289C23.2257 45.3927 22.1738 46.257 21.4319 46.2089L21.835 45.3789C21.8925 45.1527 21.9869 44.887 21.89 44.6589C21.5025 45.0564 21.2813 45.7845 20.9394 46.1758C20.6694 46.4852 19.8169 47.0639 19.425 47.1995C19.2313 47.2664 18.8313 47.4395 18.7532 47.1983L19.175 46.8795C18.4207 46.7183 17.9019 47.5952 17.1657 47.5552C17.0532 47.5489 16.9894 47.5445 16.9207 47.4439C17.4969 47.1277 16.7019 47.0552 16.3519 47.1589C16.0613 47.2452 15.7182 47.6852 15.5982 47.9564C15.5563 48.0508 15.3832 48.9289 15.2275 48.7483C15.2275 48.5989 15.2163 48.4477 15.235 48.2977C15.2957 47.802 15.8444 46.642 16.25 46.3514C17.0913 45.7495 18.3663 46.1789 19.3375 45.7727C19.7857 45.5852 20.3138 44.5533 19.8775 44.1333C19.4132 43.6858 18.7525 44.2433 18.6825 44.1658C18.7619 43.2264 17.8019 44.0058 17.2725 43.9539C17.2363 43.667 17.6107 43.5227 17.6782 43.267C17.8563 42.5952 17.1857 42.2508 16.9213 41.7333C17.0769 41.5508 17.4063 41.6527 17.5482 41.4458C17.7057 41.217 17.5857 40.3683 17.9175 39.8414C18.2594 39.2983 18.4663 39.5127 18.9675 39.4114C19.1969 39.3652 19.7619 39.0558 19.9188 38.882C20.0244 38.7652 20.095 38.5014 20.2094 38.4639C20.2582 38.4477 21.125 38.5233 21.2382 38.5427C22.2675 38.7202 23.0119 40.0658 23.8982 40.4652C25.4332 41.1564 26.1688 40.8183 27.5663 40.1139C29.1344 39.3233 30.5219 38.3795 31.3363 36.7652C31.5207 36.7608 31.6557 37.7408 31.6594 37.927C31.6788 38.9627 29.9938 39.6008 29.8932 40.1139C29.8375 40.3977 29.8838 41.0208 30.2732 40.9952C30.4219 40.9852 30.5607 40.8114 30.7369 40.8533V40.8527Z" fill="black"/>
  <path d="M41.1712 5.95459C41.3087 6.09584 40.7856 7.12709 40.6881 7.33959C38.2319 12.714 34.3906 17.1227 30.9212 21.8252C30.5412 22.3402 30.205 22.894 29.82 23.4071C29.715 23.4733 28.82 23.1296 28.8406 22.9902C28.8581 22.8715 29.8306 21.7496 29.9919 21.5308C30.4606 20.8971 30.8756 20.1927 31.3406 19.5658C32.6594 17.7877 35.1331 15.0027 35.7962 12.9533C36.1225 11.944 34.9744 12.8933 34.6512 13.1477C31.6944 15.4827 29.0494 19.4027 26.3156 22.1208C26.1487 22.2865 25.8725 22.7952 25.6637 22.8471C25.5162 22.809 24.89 22.194 24.9556 22.1008C25.1787 22.0352 25.3969 21.7846 25.5556 21.6071C30.0994 16.5233 34.3344 10.969 39.7231 6.80209C40.1569 6.46709 40.585 5.96834 41.17 5.95521L41.1712 5.95459Z" fill="black"/>
  <path d="M13.2469 24.7711C13.2781 24.7454 13.4275 24.1554 13.5013 24.0029C13.6888 23.6148 14.3863 22.7317 14.7369 22.4892C14.7944 22.4492 15.225 22.2429 15.2531 22.2473C15.3538 22.2642 15.6681 22.6848 15.7906 22.7679C15.1913 23.1304 14.8025 23.3623 14.5113 24.0248C14.4006 24.2761 14.1069 25.0542 14.2069 25.2692C14.26 25.3836 14.5244 25.5554 14.6244 25.6986C15.4719 26.9086 15.4256 28.5023 14.2356 29.4598C13.1081 30.3667 10.8775 30.3454 9.87252 29.2523C9.68877 29.0523 8.99377 27.9948 8.95752 27.7698C8.59127 25.5023 9.56127 23.2204 11.3569 21.8573C11.6631 21.6248 13.67 20.5517 13.9131 20.6236C13.9869 20.6454 14.2456 21.0392 14.2113 21.1129C12.7294 21.8529 10.8206 22.9904 10.655 24.8211C10.5975 25.4592 10.9444 26.9073 11.81 26.3286C12.4306 25.9136 11.9544 25.6004 11.9263 25.2929C11.8825 24.8204 13.1913 24.8179 13.2481 24.7704L13.2469 24.7711ZM12.62 26.1173C12.4406 26.6142 12.2181 27.0023 11.65 27.0873C10.5225 27.2561 10.525 26.3642 9.94064 25.6942C9.75502 27.0004 9.94439 28.7911 11.7213 28.4273C12.0519 28.3598 12.8825 27.6904 12.955 27.3348C13.0206 27.0123 13.0694 26.1704 12.6194 26.1173H12.62Z" fill="black"/>
  <path d="M5.14564 44.5177C5.04939 44.5371 4.97502 44.4921 4.94564 44.3996C4.89127 44.2302 5.14189 43.169 5.21314 42.9283C6.29502 39.2852 9.21252 37.864 11.9894 35.6752C13.0031 35.3183 13.2781 36.0283 13.0963 36.9233C13.0538 37.1321 12.7438 37.5833 12.6069 37.7733C11.2144 39.6996 8.53877 39.9246 6.76627 41.5208C5.96252 42.2446 5.30564 43.444 5.14502 44.5177H5.14564Z" fill="black"/>
  <path d="M22.9832 39.1599C23.1969 39.1599 23.285 39.3655 23.5113 39.3774C25.2682 39.4686 26.2188 38.2837 26.9207 36.8587L27.6007 34.7905C27.8707 35.143 28.235 35.5593 28.3932 35.9705C28.5882 36.4762 28.5669 37.2168 29.05 37.5699C29.2288 37.7012 29.4494 37.7093 29.6088 37.8562C29.0994 38.5343 28.3475 38.7999 27.6838 39.243C26.6019 39.9655 26.3863 40.4268 24.8525 40.2874C24.1894 40.2274 23.1544 39.8643 22.9838 39.1612L22.9832 39.1599Z" fill="black"/>
  <path d="M27.3363 26.9107C27.6794 27.2682 27.1238 27.7063 27.1431 27.98C27.1669 28.3207 27.7038 29.135 27.6706 29.4394C27.6588 29.5507 27.4813 29.9369 27.3944 29.9994C26.88 30.3688 26.1281 29.4969 25.6963 29.2894L25.975 29.0032C26.3075 28.5169 25.5981 28.5444 25.3094 28.4082L27.0738 26.8544C27.1513 26.8125 27.2825 26.8544 27.3356 26.91L27.3363 26.9107Z" fill="black"/>
</svg>