<svg xmlns="http://www.w3.org/2000/svg" width="50" height="50" viewBox="0 0 50 50" fill="none">
  <path d="M28.3169 7.56351C27.7194 7.48351 27.7425 8.02101 27.7931 8.48164C27.9637 10.0466 30.3306 10.2998 31.4894 10.7323C32.82 11.2285 34.6587 12.4891 35.0125 13.9441C35.2794 15.0404 34.9519 16.1104 34.7056 17.1804C34.9825 17.1685 35.3575 17.566 35.6087 17.5166C35.6694 17.5048 36.3787 16.8316 36.5462 16.711C39.8681 14.3185 44.9369 15.9598 46.93 19.3448C48.3212 21.7073 47.6181 26.176 46.1437 28.4079C44.8431 30.3766 41.9831 32.8223 39.8512 33.836C39.01 34.236 38.6062 34.081 38.1237 35.0823C37.5837 36.2029 37.7481 37.3804 39.2069 37.396C40.1356 37.406 39.6244 36.6179 39.9312 36.0154C40.1125 35.6598 40.4812 35.576 40.85 35.6585C42.2094 35.9641 41.605 38.6991 40.3712 39.0791C38.5756 39.6323 35.9987 39.0535 34.965 37.3898C35.3475 39.4173 34.7275 41.7854 32.6031 42.4623C32.6544 42.1929 32.8037 41.9954 32.8575 41.7116C32.9556 41.1935 33.095 39.5048 33.0325 39.0148C32.9544 38.4079 32.6137 37.8341 31.9244 38.1541C31.5312 38.3366 31.875 38.8379 31.9025 39.1835C32.0262 40.7423 31.5694 41.2673 30.6762 42.4166C30.07 43.1966 29.29 44.0885 28.6244 44.8254C28.0106 45.5048 27.2537 45.7135 27.5712 46.926C27.7362 47.556 28.4837 47.546 28.49 47.6666C27.8569 48.6716 26.7094 48.2041 25.9969 47.5379C25.7756 47.331 25.3975 46.6485 25.3444 46.6166C24.7256 46.2385 24.4812 47.1204 24.1637 47.4504C23.9394 47.6835 23.2925 48.1254 22.9875 48.1979C22.4519 48.3254 21.6375 48.1885 21.5812 47.536C22.7194 47.5879 22.7562 46.146 22.1412 45.4448C20.9419 44.0773 18.1412 41.6635 18.0812 39.791C18.065 39.2779 18.2887 38.8898 18.3294 38.4585C18.3637 38.0941 17.7306 38.0154 17.4712 38.1341C17.2731 38.2248 17.0894 38.6429 17.0531 38.8535C16.965 39.371 17.105 41.3404 17.2287 41.8723C17.2725 42.061 17.4131 42.2691 17.4694 42.4616C15.3669 41.8254 14.6744 39.386 15.1069 37.3898C14.8419 37.5335 14.7287 37.8773 14.53 38.0804C13.4294 39.2066 11.0912 39.5216 9.63624 39.0566C8.68624 38.7529 8.34062 37.3741 8.46812 36.4798C8.59687 35.5779 9.81999 35.2816 10.1675 36.1641C10.4269 36.8229 9.77812 37.5729 11.1075 37.3691C12.2875 37.1879 12.3675 36.3204 12.0525 35.3291C11.955 35.0223 11.4825 34.4116 11.2169 34.2404C10.9512 34.0691 10.6569 34.081 10.3806 33.9398C5.80187 31.5991 2.02874 27.6054 2.33437 22.1235C2.64312 16.5948 9.99874 13.4929 14.1519 17.2248C14.2487 17.3116 14.3169 17.5329 14.3769 17.5423C14.4844 17.5598 15.2894 17.1735 15.3337 17.101C15.3844 17.0185 14.9712 15.546 14.9456 15.206C14.7931 13.1954 16.1437 11.9354 17.7894 11.0754C18.9844 10.451 20.9894 10.3123 21.8437 9.35664C22.2144 8.94226 22.6412 7.64913 21.8869 7.56476C21.61 7.53413 21.855 8.03601 21.8525 8.22163C21.8419 9.15913 20.0794 9.55038 19.5206 8.61913C18.7362 7.31288 19.8869 5.70288 21.3494 5.75976C23.4556 5.84163 24.0794 8.81038 22.81 10.1479C21.315 11.7235 19.01 11.1635 17.8306 13.4779C16.8744 15.3554 17.9869 17.9429 20.3619 17.321C21.5506 17.0098 21.7437 15.8748 21.5756 14.7848C21.4994 14.291 20.6669 13.4173 20.2025 13.8816C19.7756 14.3091 20.9556 15.9398 19.5525 16.2504C17.9137 16.6135 17.615 14.271 18.6487 13.3341C20.2387 11.8935 22.6581 12.851 22.8056 14.9979C24.0475 14.6423 23.7644 13.2666 23.8556 12.2435C23.9787 10.856 24.2294 9.16226 24.1206 7.77913C23.9762 5.95101 22.5062 5.24038 23.6181 2.99726C24.4981 1.22226 25.7175 1.41601 26.495 3.13038C27.4756 5.29163 26.1212 5.84163 25.955 7.52101C25.745 9.63538 26.2069 12.0898 26.345 14.2141C26.3444 14.4179 27.02 15.0235 27.1337 14.9979C27.3519 14.6541 27.3356 14.2985 27.5437 13.9204C28.3625 12.4335 30.4137 12.2329 31.5556 13.4635C32.39 14.3629 32.0656 16.5535 30.5856 16.2735C29.895 16.1429 29.7687 15.7798 29.7975 15.1266C29.815 14.7204 30.295 13.7723 29.4981 13.7666C28.2306 13.7579 28.2237 16.2316 28.8925 16.9135C29.445 17.4779 30.8987 17.5616 31.5269 17.1166C32.6319 16.3329 32.8119 14.5023 32.1662 13.3779C30.9012 11.176 28.9006 11.7466 27.3519 10.2323C25.9569 8.86851 26.4819 5.84226 28.7225 5.75913C30.16 5.70601 31.2669 7.24976 30.5687 8.54913C29.9062 9.78226 27.6844 9.03913 28.3144 7.56413L28.3169 7.56351ZM26.5675 19.8954C27.3206 17.0823 22.7069 17.0879 23.5069 19.8954C20.8644 20.381 18.5919 22.5085 17.9956 25.1441C16.2912 24.7254 14.9156 25.5935 15.2025 27.456C15.3787 28.5991 16.9969 28.7804 17.9119 28.7698C18.71 31.3766 20.8025 33.3666 23.4694 33.9735C23.3106 34.7285 23.6462 35.8566 24.52 35.9816C25.4094 36.1091 26.2675 35.9891 26.5075 35.011C26.5769 34.7279 26.5281 34.0829 26.6062 33.9723C26.6537 33.9054 27.8956 33.5441 28.1581 33.4254C30.045 32.5735 31.6037 30.7573 32.0869 28.7385C33.2081 28.7704 34.7031 28.6466 34.8675 27.2766C35.0706 25.5798 33.6312 24.7135 32.0831 25.1404C31.4212 22.5373 29.2181 20.3966 26.5675 19.8948V19.8954ZM19.9844 19.7866C20.2356 19.5473 19.8394 19.3666 19.6506 19.2473C18.8344 18.7304 17.9637 18.5679 16.9994 18.681C16.035 18.7941 15.7769 19.1479 15.7219 20.1173C15.6606 21.1941 16.17 22.1216 16.7725 22.9566L16.9512 22.9035C17.5275 21.9241 18.1112 20.9679 19.0506 20.296C19.2725 20.1373 19.8575 19.9073 19.9831 19.7873L19.9844 19.7866ZM33.1294 22.9573C34.0994 22.4479 34.6487 19.8335 34.0962 19.0591C33.8206 18.6729 32.3256 18.6273 31.8687 18.681C31.4556 18.7298 30.3175 19.1829 30.0637 19.4998C29.9906 19.591 29.9337 19.5904 30.02 19.7229C30.1081 19.8585 30.9194 20.2366 31.1575 20.4229C31.9856 21.071 32.6119 22.0541 33.1287 22.9573H33.1294ZM9.05312 21.0554C5.60124 21.4985 4.95999 25.3454 6.71374 27.8979C7.74562 29.3998 11.0869 31.3785 12.89 31.5173C13.045 31.5291 13.5969 31.5966 13.5344 31.3116C13.5219 31.2541 12.8619 30.586 12.7494 30.4341C12.1887 29.6741 11.9837 28.9998 11.5381 28.2341C11.3719 27.9485 10.7494 27.2516 10.7456 27.0266C10.7381 26.5973 11.1625 26.4391 11.3281 26.1291C11.5387 25.7366 11.6212 25.2285 11.8906 24.7673C12.4269 23.8485 13.7587 22.9498 12.48 21.9573C11.58 21.2585 10.1787 20.911 9.05312 21.0554ZM39.9319 21.0585C39.1444 21.131 37.9006 21.5704 37.33 22.1304C36.4 23.0423 37.8494 24.1335 38.2731 24.9404C38.4569 25.291 38.5356 25.7654 38.7075 26.0804C38.83 26.3054 39.1025 26.456 39.1837 26.6529C39.4606 27.3266 38.9844 27.4741 38.6894 27.9504C38.1681 28.7904 37.8787 29.6398 37.2756 30.4723C37.1725 30.6148 36.5519 31.2573 36.5394 31.3116C36.4569 31.6798 37.5775 31.4616 37.785 31.4198C39.41 31.0891 42.345 29.301 43.31 27.936C45.4681 24.8835 43.9706 20.6873 39.9319 21.0591V21.0585ZM16.4456 35.5273C16.5856 35.6398 17.3875 35.7966 17.6031 35.8135C18.7387 35.9016 19.6962 35.5591 20.5306 34.8091C20.1637 34.4579 19.7156 34.3416 19.28 34.0491C18.2669 33.3685 17.6519 32.176 16.99 31.1804C16.115 32.0535 15.5019 33.6623 15.9175 34.8754C15.9312 34.9148 16.4131 35.5004 16.4456 35.5266V35.5273ZM29.5419 34.6791C29.4406 34.8154 30.0069 35.1998 30.1256 35.2748C30.8062 35.706 31.6656 35.8748 32.4706 35.8135C35.115 35.6116 34.3681 32.6216 33.1287 31.2216C33.0587 31.1348 33.0062 31.2704 32.9662 31.3235C32.0331 32.5541 31.765 33.496 30.32 34.3629C30.22 34.4229 29.5675 34.646 29.5425 34.6798L29.5419 34.6791ZM25.3312 41.6629C25.2556 41.711 24.8169 41.6935 24.7275 41.6354C24.6031 41.5548 24.5731 41.0929 24.4856 40.9154C23.9475 39.8198 23.1581 39.446 22.3669 38.661C21.9825 38.2804 21.8437 37.6585 21.2119 37.756C20.0681 37.9323 20.27 39.546 20.6037 40.3366C20.9031 41.046 22.2294 42.746 22.8031 43.2979C23.2369 43.7148 23.8625 44.0085 24.2856 44.4398C24.5075 44.666 24.6575 45.1948 25.03 45.1754C25.4175 45.1554 25.5069 44.7035 25.7387 44.4754C27.0406 43.1929 28.1719 42.5604 29.1756 40.8279C29.61 40.0791 30.1519 38.5223 29.2369 37.9141C28.3619 37.3335 28.1619 38.2054 27.705 38.6573C26.9181 39.436 26.1619 39.771 25.6169 40.8554C25.5419 41.0054 25.3675 41.6398 25.3312 41.6629Z" fill="black"/>
  <path d="M26.2162 27.4183C26.2719 27.3796 26.7387 26.3415 26.7862 26.1946C27.04 25.4083 27.2037 24.1021 27.2662 23.2633C27.2956 22.874 27.2137 22.4027 27.2662 22.0371C27.285 21.9083 27.215 21.8958 27.3975 21.9077C30.775 22.1277 28.7081 25.739 28.1419 27.5933C29.1056 27.189 29.4531 25.679 29.6912 24.7265C29.7725 24.4008 29.9194 24.0733 29.8037 23.7458C30.8987 24.1402 30.9606 25.5702 30.6087 26.5183C30.22 27.5658 29.15 28.1777 28.7537 29.1671C29.8925 28.7058 30.5756 27.8521 31.1587 26.8077C31.7131 27.2127 31.5362 28.114 31.2506 28.6477C30.8656 29.3665 29.2175 30.1877 28.4981 30.7058C27.6531 31.314 26.4569 32.4202 25.6 32.8802C25.1619 33.1152 24.91 33.1096 24.4719 32.8802C23.5269 32.3858 22.2375 31.1958 21.3125 30.5296C20.2037 29.7315 18.065 28.9577 18.6037 27.1958C18.8844 26.2771 19.1356 27.2633 19.3581 27.5858C19.9537 28.4483 20.8162 29.0002 21.7556 29.4296C20.8481 28.3058 19.125 26.9777 19.2175 25.3665C19.2506 24.7865 19.6169 23.8433 20.2687 23.7458C20.2025 23.8796 20.18 23.9596 20.1969 24.1133C20.3094 25.1152 21.0156 26.9471 21.7106 27.6821C21.995 27.9833 22.0575 27.7808 21.935 27.4577C21.2975 25.7721 19.3406 22.1008 22.5869 21.9071C22.7706 21.8958 22.6987 21.9071 22.7169 22.0371C22.89 23.2546 22.8206 24.6946 23.1594 25.8827C23.2037 26.0377 23.865 27.4608 24.0281 27.2433C23.8137 25.534 23.2806 23.5052 23.5119 21.7846C23.6675 20.6258 25.4931 20.5033 26.2494 21.1308C26.895 21.6665 26.4106 24.5877 26.3031 25.4515C26.2787 25.6502 26.3306 25.869 26.3019 26.0627C26.2637 26.3215 25.9362 27.2452 25.9944 27.3321C26.0394 27.4008 26.1562 27.4583 26.2137 27.4183H26.2162Z" fill="black"/>
</svg>