<svg xmlns="http://www.w3.org/2000/svg" width="50" height="50" viewBox="0 0 50 50" fill="none">
  <path d="M39.3469 5.94541C45.2994 12.1673 47.4319 21.221 45.5619 29.6142C45.5388 29.7192 45.5707 29.8348 45.4569 29.9073C45.3713 29.3279 45.4582 28.7298 45.4269 28.1473C45.3001 25.781 44.7807 23.1504 44.0644 20.8892C43.8469 20.2029 43.4088 18.8092 42.6401 18.5973C41.8169 18.3704 41.9088 20.1935 41.8244 20.7042C41.5644 22.2742 40.8619 23.6567 40.0526 24.9998C39.9419 25.0179 39.9801 24.8379 39.9844 24.766C40.0144 24.276 40.1563 23.7398 40.1851 23.2423C40.2907 21.4292 40.0826 18.4154 38.7913 17.0117C38.4132 16.6004 37.9326 16.5267 37.6832 17.0935C37.3688 17.8079 37.2076 18.9548 36.9544 19.7467C36.4819 21.2235 35.7613 22.4529 34.5163 23.4092L35.1157 21.9529C35.3088 20.8723 35.3438 18.4279 33.9044 18.1867C31.7063 17.8185 29.0107 19.4648 28.4607 21.6629L28.1851 22.0167C28.2488 21.626 28.2151 21.1879 28.2694 20.8085C28.4451 19.5867 29.2751 17.9829 30.1094 17.0785C31.1813 15.9173 32.7076 15.5973 31.8888 13.5717C31.5144 12.6448 31.1307 12.2054 30.2407 11.7685C30.1457 11.7217 30.0744 11.7829 30.1082 11.6067C30.5788 11.6267 30.9819 11.7579 31.4126 11.926C33.1157 12.591 33.9501 14.001 35.8713 12.7604C37.1251 11.951 38.6119 9.58979 38.2476 8.07479C38.1657 7.73354 37.6344 6.72541 37.4032 6.46541C37.1426 6.17166 36.9501 6.12541 36.6063 6.30041C36.7676 4.54541 35.5851 3.13104 34.2851 2.12354C34.8632 2.15479 35.4694 2.56354 35.9376 2.89104C37.1838 3.76354 38.3007 4.85104 39.3482 5.94604L39.3469 5.94541Z" fill="black"/>
  <path d="M25.9944 8.15578C25.3112 8.24516 24.7025 8.88703 25.5975 9.25141C24.6825 10.2708 25.1319 12.1452 25.585 13.3077C25.6487 13.4714 25.8212 13.6933 25.8612 13.8277C25.9319 14.0639 25.5906 13.787 25.5069 13.8027C25.2 13.8589 25.4044 14.3083 25.3831 14.4164C25.3687 14.4902 25.2425 14.542 25.2125 14.6364C25.1531 14.8227 25.1231 15.7208 25.1444 15.9308C25.155 16.0377 25.32 16.4908 25.43 16.4995C25.51 16.5058 26.5144 15.6933 26.7294 15.5558C27.7756 14.8864 28.9906 14.3614 30.2381 14.2583L29.7725 14.5545C28.62 15.4845 27.3412 17.9364 27.1956 19.4052C27.1069 20.3033 27.0712 20.542 26.8744 21.4052C26.5275 22.9264 26.335 25.737 27.2912 27.052C27.8731 27.852 29.335 27.8227 30.1387 27.3883C30.315 27.3314 29.685 28.4133 29.6506 28.4914C28.9212 30.1308 27.7712 33.7714 27.5937 35.5189C27.57 35.752 27.655 36.6852 27.6225 36.7364C27.5669 36.8239 27.0487 37.1814 26.9219 37.3002C25.7262 38.4233 24.7981 40.0077 23.7662 41.3058C21.87 43.6914 19.5862 45.4614 17.6444 47.7833L17.3075 47.877C18.3694 46.4608 19.0912 44.8245 19.7444 43.1864C21.185 39.5727 22.2962 36.1933 22.4787 32.2608C22.5187 31.3945 22.5937 30.0739 22.3656 29.2589C22.175 28.5783 22.0025 28.5833 21.3837 28.3827C21.3137 28.3602 21.2637 28.432 21.2869 28.2839L23.2756 26.2883C23.9681 26.4214 24.2225 27.3433 24.3287 27.9589C25.2337 33.227 24.1669 38.0608 21.34 42.527L20.5575 43.7664C21.2944 42.9489 21.945 41.9395 22.5337 41.002C22.8494 40.4989 23.83 38.5533 24.1812 38.3389C24.4262 38.1889 24.7219 38.1827 25 38.1958C24.4844 37.472 24.4187 36.5939 25.1294 35.972C25.4706 35.6733 26.2275 35.7358 26.6575 35.8089C26.7787 35.7089 26.2244 35.4639 26.1606 35.4114C25.4562 34.8345 24.895 33.9445 25.5744 33.1083C25.9144 32.6895 27.0525 32.4983 27.5862 32.427C27.3931 32.2345 27.0731 32.1839 26.8125 32.0408C26.5831 31.9152 25.31 31.0839 25.2656 30.9202C25.145 29.7483 25.205 28.542 24.9706 27.3845C24.8737 26.9052 24.3775 25.1839 23.7719 25.2008C23.6069 25.2052 22.4912 26.5839 22.2162 26.7589L20.425 28.1164C21.0081 27.3502 22.0512 25.997 22.1487 25.0327C22.1706 24.812 22.0781 23.9314 22.1144 23.8739C22.1481 23.8195 22.7975 23.4314 22.9462 23.3102C24.3312 22.1827 25.6712 20.2252 25.9287 18.4352C24.7187 19.0652 23.6037 18.1833 22.9469 17.2083L23.8075 16.842C23.8569 16.702 23.62 16.6114 23.62 16.5452C23.62 16.5077 23.8512 16.2608 23.8887 16.1614C23.9706 15.9458 23.9737 15.1383 23.9419 14.8852C23.9156 14.6758 23.7744 14.542 23.7606 14.4145C23.7494 14.3108 23.8131 14.2295 23.7787 14.0583C23.6694 13.512 23.3087 14.0039 23.2106 13.9245C23.7319 12.9195 24.2569 11.0739 23.9506 9.96891C23.8412 9.57328 23.6212 9.58766 23.5069 9.41766C23.3006 9.11141 24 9.20766 24.0006 8.78578C24.0006 8.38891 23.1731 8.22641 23.2106 8.05828C23.2225 8.00453 23.4862 7.76641 23.5756 7.75766C23.6781 7.74828 23.7969 7.82203 23.9069 7.82453C24.2375 7.83078 24.5737 7.83516 24.9037 7.82766C25.3981 7.81703 25.665 7.57828 25.9944 8.15516V8.15578Z" fill="black"/>
  <path d="M15.3375 12.9774C15.6082 13.1962 16.675 13.2418 17.0419 13.5287C16.9757 13.6699 16.7169 13.5293 16.5644 13.5412C15.7288 13.6037 14.7757 14.3824 15.5482 15.188C16.15 15.8155 17.1763 15.8418 17.9707 15.6505C17.1825 16.5099 16.6363 17.3737 16.8613 18.5824C17.1963 20.3799 18.7032 21.3093 20.225 22.0493C19.2594 22.1837 18.2188 21.7655 17.3725 21.3212C15.5238 20.3499 13.9863 18.648 13.1182 16.7555C12.625 15.6805 12.3882 14.4937 11.8619 13.4362C10.6707 11.0424 8.32565 9.53992 6.14503 8.14492L3.78003 7.0293C7.4294 8.16242 11.46 9.33117 14.3582 11.9343C14.6744 12.2187 15.0582 12.7524 15.3369 12.9774H15.3375Z" fill="black"/>
  <path d="M21.2868 16.2138C21.3137 16.3994 21.5449 16.995 21.6374 17.1894C22.1081 18.175 23.3674 19.0082 24.4706 19C24.1012 20.68 23.0374 22.3794 21.8512 23.6088C21.7824 23.68 21.7349 23.7638 21.6187 23.74C22.2537 22.3957 22.1481 20.2388 20.8556 19.2975C20.0831 18.735 18.8274 18.9644 18.6999 20.0263C18.5418 19.9438 18.5043 19.565 18.4987 19.3982C18.4737 18.6369 18.9812 17.3519 19.4024 16.7163C19.6812 16.295 20.8018 15.0969 21.2556 14.9882C21.4499 14.9413 21.2868 15.08 21.2868 15.0863C21.2868 15.42 21.2418 15.9063 21.2868 16.2138Z" fill="black"/>
  <path d="M24.105 7.69264C24.0331 7.68389 23.9206 7.58639 23.8069 7.62576C23.9462 7.34014 24.1431 7.39951 24.4031 7.39451C24.2569 7.32826 23.605 6.63014 23.6181 6.54576C23.6269 6.48951 23.7444 6.36076 23.7762 6.23639C24.0562 5.16139 24.1944 4.03639 24.57 2.98389L24.7694 3.51389C25.0575 4.43764 25.1569 5.43264 25.4444 6.35326C25.4744 6.44951 25.5181 6.53389 25.5969 6.59889C25.2119 6.74639 25.1662 7.30451 24.7356 7.36201C24.7812 7.51576 24.9762 7.32264 25.13 7.39139C25.1981 7.42201 25.2637 7.54326 25.3312 7.59326C25.34 7.61264 25.1756 7.69264 25.1656 7.69264C24.8387 7.69264 24.4137 7.73014 24.1044 7.69264H24.105Z" fill="black"/>
</svg>