<svg xmlns="http://www.w3.org/2000/svg" width="50" height="50" viewBox="0 0 50 50" fill="none">
  <path d="M25.7544 10.8705L25.5112 13.0736C22.8694 13.0355 20.0912 13.203 17.6506 14.2855C10.0669 17.6498 7.10997 26.5736 11.1287 33.8867C12.395 36.1911 16.3568 39.5523 19.0012 39.8998C20.4118 40.0855 22.6975 38.8517 24.1518 38.6748L32.8375 48.2548C29.1094 47.8898 25.3619 47.7023 21.6343 47.3192C9.51497 46.0755 1.79497 36.5323 2.76247 24.3567C2.78622 24.0567 2.78685 23.533 3.13997 23.5517C3.47872 23.5698 4.28122 23.8742 4.7056 23.9536C5.0331 24.0148 5.41372 24.0486 5.7481 24.0617C5.6731 25.8892 5.5781 27.643 5.8431 29.4611C6.73622 35.5805 10.3931 40.4455 16.025 42.9617C17.4975 43.6199 19.0112 43.8855 20.5693 44.2517C20.6612 44.1311 19.6919 42.6655 19.545 42.423C14.3919 41.5923 10.1237 37.6086 8.26185 32.8348C6.50747 28.338 6.83872 22.3136 9.4931 18.2242C12.5118 13.573 17.0244 11.0767 22.5731 10.7736C22.9787 10.7517 25.6631 10.7236 25.7544 10.8698V10.8705Z" fill="black"/>
  <path d="M44.4231 17.5895L43.7831 18.3551L33.39 27.4701C33.235 28.9164 33.2269 30.3757 33.1356 31.827C33.2981 32.1732 34.4463 32.8301 34.4538 33.1332C34.4631 33.522 32.7988 35.8257 32.5994 36.3907C32.5825 36.7889 32.7944 39.0989 32.6138 39.2357C32.0713 39.3639 31.3381 39.9939 30.8294 40.0739C29.9475 40.212 28.5944 40.0414 27.6863 39.9901C27.3025 39.9689 26.7494 40.0595 26.4063 39.992C26.2663 39.9645 25.1119 38.6276 25.0913 38.4932C25.0731 38.3732 25.1431 38.3495 25.2306 38.3082L31.7294 36.5001L29.2594 32.8801C30.7306 30.6032 30.7475 27.3795 28.92 25.2964C25.1356 20.9826 18.3794 24.0489 18.7813 29.7276C19.1244 34.5714 25.0669 36.6326 28.5756 33.4339C29.0163 34.2007 29.6319 34.8676 30.1113 35.6057C30.1588 35.6789 30.2663 35.7145 30.1563 35.822L23.13 37.9951C21.4869 38.2926 18.8338 36.0639 17.8 34.8832C17.0213 33.9932 15.785 31.9432 15.58 30.7957C15.4775 30.2239 15.9206 30.3426 16.2206 30.0645C16.4525 29.8495 16.435 28.8026 16.505 28.3895C16.9925 25.5201 17.9675 23.152 20.5975 21.6626C24.3413 19.5426 28.7619 20.6626 31.0894 24.232C32.4769 23.3551 33.8113 21.972 35.2769 21.2632C37.3275 20.2714 39.8156 19.3464 41.955 18.4851C42.7638 18.1595 43.5738 17.7882 44.4225 17.5889L44.4231 17.5895Z" fill="black"/>
  <path d="M42.4638 8.98584C40.2056 12.3452 37.7944 15.6102 35.5444 18.9758C34.8788 19.9715 34.9944 20.0433 33.9713 20.8102C33.13 21.4415 32.2288 22.0146 31.3581 22.6058C28.8213 19.6721 25.1338 18.7377 21.44 19.9496C17.3294 21.2983 15.6263 25.9046 15.1888 29.8415L11.3694 31.814C11.7313 30.8821 12.2813 29.9571 12.6281 29.0271C13.4888 26.7196 13.98 24.2946 15.1588 22.1015C18.31 16.2377 22.1194 14.664 28.6175 14.6108C28.9744 14.6077 29.7719 14.6721 30.0513 14.5896C30.5181 14.4508 31.2819 12.994 31.755 12.7158C35.3319 11.4958 38.8625 10.1265 42.4638 8.98584Z" fill="black"/>
  <path d="M24.1275 24.5107C25.0162 24.3988 25.8694 24.5238 26.6775 24.8982C31.47 27.1194 29.3456 35.0932 23.7356 33.9738C18.3556 32.9 18.95 25.1613 24.1275 24.5107ZM25.2656 27.1207C25.295 27.1544 26.065 27.4388 26.1081 27.4263C26.2481 27.3857 27.3131 26.5219 27.2944 26.4175C27.2556 26.2032 25.6375 25.3263 25.4806 25.3538C25.1587 25.4113 25.205 27.0513 25.2656 27.1207ZM24.295 27.6607C22.6181 28.0057 22.6312 30.7132 24.4531 30.9557C27.1387 31.3138 26.9962 27.1044 24.295 27.6607Z" fill="black"/>
  <path d="M42.0381 40.4207L37.7313 46.8138L30.6231 41.8238C30.5944 41.7076 30.69 41.6782 30.7694 41.6301C31.3688 41.2657 32.4025 41.0176 33.0656 40.6894C33.2169 40.6144 33.5813 40.4726 33.6481 40.3344L33.7756 36.8413L42.0388 40.4201L42.0381 40.4207Z" fill="black"/>
  <path d="M47.3194 1.74365L43.8213 6.97678C40.3413 8.15428 36.8919 9.45365 33.3488 10.4318L36.0506 6.68053L47.3194 1.74365Z" fill="black"/>
  <path d="M26.0144 9.48683C24.9038 9.34496 23.7694 9.47371 22.6669 9.33371L20.1682 9.52621C20.0413 9.48371 20.0213 9.37746 19.9963 9.26496C19.9276 8.95371 19.5563 6.71058 19.6426 6.60746C20.8926 6.40933 22.2544 6.10183 23.5063 6.26183C24.1757 6.29183 24.8907 6.20871 25.5538 6.25933C26.1757 6.30683 26.4901 6.22746 26.4488 6.89496C26.3988 7.70808 26.0976 8.65871 26.0157 9.48683H26.0144Z" fill="black"/>
  <path d="M11.0593 10.3782C11.2137 10.2051 13.4768 8.72697 13.6287 8.73884L15.1162 11.3213C15.0706 11.5207 13.7437 12.1313 13.5068 12.272C13.1106 12.507 12.7424 13.1626 12.2712 12.7251C12.1224 12.587 10.9568 11.007 10.8987 10.8538C10.8262 10.6613 10.9306 10.5226 11.0593 10.3782Z" fill="black"/>
  <path d="M9.64311 11.4655C9.86936 11.4318 10.495 12.1455 10.6906 12.3468C10.8362 12.4968 11.7819 13.5443 11.775 13.628L9.88248 15.5493C9.83498 15.5968 9.77936 15.6305 9.70998 15.6299C9.49248 15.6293 7.54248 13.9955 7.53811 13.7999C7.53061 13.4605 9.32686 11.5124 9.64311 11.4655Z" fill="black"/>
  <path d="M6.07749 22.9449L3.28499 22.2661C3.10687 22.0568 4.06999 19.0411 4.35499 18.958L6.89999 20.0549L6.07749 22.9449Z" fill="black"/>
  <path d="M18.1832 7.02693L18.8657 9.83256L16.0626 10.8532L14.7894 8.25881C14.8107 8.00943 18.0126 6.86443 18.1838 7.02756L18.1832 7.02693Z" fill="black"/>
  <path d="M4.90562 17.7488C4.80437 17.5888 5.07124 17.1312 5.16624 16.965C5.32249 16.69 6.48562 15.0044 6.65999 14.9594C6.78999 14.9256 6.86624 14.9919 6.96999 15.0456C7.17999 15.1531 8.85562 16.3419 8.88937 16.4556C8.92312 16.5694 8.89062 16.63 8.85437 16.7313C8.59812 17.4531 7.66999 18.3894 7.32187 19.1219L4.90624 17.7481L4.90562 17.7488Z" fill="black"/>
</svg>