<svg xmlns="http://www.w3.org/2000/svg" width="50" height="50" viewBox="0 0 50 50" fill="none">
  <path d="M27.3993 11.1534C27.3931 11.1627 27.2612 11.1709 27.1912 11.2371C25.8218 12.534 26.0518 14.0915 26.9431 15.6127C27.7162 16.9327 28.5337 16.849 29.6299 15.8702C30.0143 15.5277 30.1212 15.0852 30.3918 14.779C30.4774 14.6827 30.4756 14.6659 30.6025 14.7315C30.885 14.8777 31.615 16.274 31.6762 16.6077C31.7868 17.2146 31.3081 17.7577 31.6299 18.4215C31.9043 18.9865 32.5393 19.0027 32.7462 19.2421C33.1443 19.7027 32.8937 21.109 32.365 21.469C31.4793 22.0709 31.9093 21.4215 31.9268 21.029C31.9487 20.5415 31.4143 20.0934 30.9593 20.0196C29.51 19.7846 28.48 21.4127 27.9575 22.5365C27.2262 24.1077 27.3756 25.1009 29.3375 25.1377C29.0575 26.9115 28.2199 28.519 27.7437 30.2402C26.9331 33.1702 26.3881 36.3146 27.7225 39.1765C27.8393 39.4271 28.3168 40.094 28.3187 40.2552C28.3225 40.5184 27.8556 41.9184 27.7387 42.2802C27.1893 43.9752 26.3081 46.319 25.535 47.9102C24.9093 49.1971 24.7375 48.519 24.2956 47.5734C23.8137 46.5421 23.2956 45.169 22.895 44.0884C22.4175 42.7977 21.9187 41.4527 21.6868 40.1077C23.8568 36.9952 23.0656 32.9302 22.0318 29.5371C21.5831 28.0652 20.8418 26.6846 20.6612 25.1377C23.36 25.0934 22.4193 23.0021 21.455 21.5227C20.9518 20.7515 20.3593 20.0421 19.3525 19.9971C18.6925 19.9671 17.9481 20.5077 18.0537 21.2152C18.0774 21.3727 18.3768 21.7271 18.0931 21.6852C17.2962 21.5671 16.9693 20.4802 17.0375 19.7877C17.125 18.9027 18.1231 19.1471 18.4074 18.2921C18.6324 17.6152 18.1837 17.1202 18.2337 16.7771C18.2875 16.409 19.0643 14.9034 19.3968 14.7315C19.5237 14.6659 19.5218 14.6827 19.6075 14.7784C19.91 15.1171 19.9575 15.5509 20.4537 15.9534C21.7693 17.0209 22.53 16.7477 23.2312 15.2815C23.765 14.1665 24.0393 12.9871 23.3437 11.884C23.2318 11.7065 22.59 11.089 22.6025 11.034C22.9725 10.5671 23.8743 10.2009 24.0137 9.57836C24.1262 9.07586 24.0831 6.98649 24.03 6.39648C23.9587 5.59961 23.4025 5.02523 23.4431 4.37523C23.4793 3.80086 24.41 1.38211 25 1.38086C25.4612 1.37961 26.3775 3.48336 26.4637 3.96336C26.6768 5.14523 26.07 5.29711 25.9693 6.31211C25.9081 6.93086 25.8756 9.02523 25.9881 9.57711C26.1175 10.2127 26.9087 10.4984 27.2775 10.899C27.3331 10.9596 27.4625 11.0665 27.4006 11.1527L27.3993 11.1534ZM24.8737 14.524C24.7587 15.0946 24.5481 15.6584 24.2987 16.1815C24.195 16.399 23.5287 17.4384 23.5212 17.5184C23.515 17.584 23.9081 18.504 23.9743 18.7502C24.9075 22.2315 24.1918 25.8627 24.5375 29.3059C24.5568 29.4971 24.8843 30.7777 25 30.779C25.6262 29.4602 25.3293 27.8752 25.3756 26.4396C25.4487 24.164 25.4012 20.7902 26.0068 18.6477C26.0743 18.409 26.4687 17.6459 26.4568 17.5277C26.4456 17.4096 25.7693 16.334 25.6437 16.0709C25.4524 15.6702 25.3018 14.9996 25.1081 14.669C25.045 14.5615 25.02 14.4952 24.8743 14.5246L24.8737 14.524Z" fill="black"/>
  <path d="M18.9769 25.9786V27.2843C18.9769 27.638 19.4169 29.0649 19.565 29.4755C19.7538 29.9986 20.0188 30.4811 20.2425 30.9874C19.185 31.1724 18.7413 32.163 19.4907 33.003C20.24 33.843 20.9069 33.6868 21.2782 35.0061C21.77 36.7536 21.1875 38.4486 19.9475 39.7099C19.7775 39.883 19.3744 40.278 19.1456 40.1718C20.1488 39.3699 20.2007 37.6524 20.0725 36.4649C20.0044 35.833 19.6169 35.3405 19.1381 34.9561C17.4888 33.6305 15.6232 34.383 13.7094 34.2361C12.595 34.1505 9.84378 33.2599 8.95815 32.5855C8.8769 32.5236 8.7694 32.4555 8.78377 32.3386C9.7669 32.1205 10.945 31.6799 10.89 30.4861C10.8213 29.0036 10.18 28.9236 9.7344 27.8505C8.8819 25.7974 11.245 23.7093 11.4594 21.8705C11.5413 21.1668 11.2275 20.3355 11.06 19.6611C12.3644 20.4024 12.6207 21.9261 12.4806 23.3149C12.3713 24.4024 11.3156 25.6255 12.0338 26.6461C12.485 27.288 13.1269 27.0636 13.6694 27.458C13.0844 28.333 13.0175 29.0705 13.7975 29.8524C14.375 30.4318 15.2894 30.7161 16.025 30.228C16.7213 29.7655 16.5482 28.7593 16.8563 28.0274C17.2107 27.1874 18.1663 26.3624 18.9769 25.9786Z" fill="black"/>
  <path d="M31.0219 25.979C31.9544 26.4252 32.9663 27.3859 33.2725 28.4034C33.4725 29.0677 33.2513 29.6302 33.8825 30.1515C34.6382 30.7759 35.6807 30.4146 36.2775 29.7602C36.6525 29.349 36.7975 29.0502 36.7275 28.4852C36.6969 28.2359 36.3344 27.4696 36.3644 27.4109C36.475 27.1927 37.4069 27.2471 37.8438 26.779C38.7738 25.7827 37.6332 24.5059 37.5175 23.4002C37.3725 22.0077 37.6075 20.384 38.9382 19.6621C38.51 20.8771 38.35 21.614 38.8394 22.8359C39.3194 24.034 40.6807 26.0496 40.435 27.3496C40.2863 28.1359 39.4719 28.769 39.2494 29.5327C38.7182 31.3509 39.57 31.9584 41.2144 32.3396C41.235 32.4746 41.1057 32.5046 41.0219 32.5684C40.0519 33.3027 37.4188 34.1502 36.205 34.2371C34.2038 34.3809 31.435 33.5146 30.1619 35.6902C29.7194 36.4465 29.8494 38.7721 30.3032 39.5427C30.3469 39.6171 31.0132 40.3565 30.6444 40.2127C30.1582 40.0234 29.0538 38.4784 28.8432 37.9709C28.4294 36.974 28.4475 34.9571 29.1319 34.0702C29.3469 33.7915 29.7319 33.6665 30.0125 33.4346C31.14 32.5021 31.2994 31.3771 29.675 30.9915C29.9825 30.5877 30.1725 30.1159 30.35 29.6446C30.5275 29.1734 31.0225 27.6102 31.0225 27.2002V25.979H31.0219Z" fill="black"/>
  <path d="M11.6488 17.1349C11.6032 16.8905 11.7188 17.0005 11.8338 16.9449C12.3607 16.6893 12.8607 16.4549 13.1813 15.9299C13.65 15.1618 13.2394 14.2649 13.5869 13.4293C13.9457 13.5305 14.085 13.883 14.4244 14.0649C16.2469 15.043 17.4088 13.0049 15.9469 11.8687C15.1744 11.2687 14.9569 11.7905 14.2182 11.8112C14.0182 11.8168 13.4425 11.7574 13.2288 11.7224C12.11 11.5412 11.04 10.8199 9.96505 10.4793C9.95817 10.3287 9.92255 10.3018 10.0894 10.3118C10.6463 10.3449 11.0613 10.5155 11.69 10.4793C13.6225 10.368 15.5125 9.63303 16.2969 7.75803C16.9057 6.3024 16.505 5.57365 15.3994 4.5824C15.2107 4.41303 14.73 4.23303 14.8088 3.99365C15.6119 4.06428 16.2588 4.26865 16.9857 4.59678C17.9813 5.04615 19.2657 5.95365 19.4444 7.1074C19.6182 8.23115 18.5882 10.0718 18.5738 11.3649C18.565 12.1355 19.0407 13.148 19.1394 13.9268C18.1688 14.3118 17.2438 15.3237 17.0775 16.373C17.0182 16.7487 17.0863 17.088 16.9738 17.4487C16.8563 17.8268 16.1807 18.6768 15.8169 18.8187C15.6582 18.8805 15.7094 18.7593 15.69 18.6962C15.5 18.0655 15.3757 17.6905 14.7382 17.3724C14.6594 17.333 14.1657 17.1349 14.1332 17.1349H11.6482H11.6488Z" fill="black"/>
  <path d="M35.8649 17.1351C35.5174 17.1845 34.9624 17.4988 34.7256 17.7645L34.1818 18.8188C33.9181 18.6107 33.6381 18.4076 33.4212 18.147C32.8037 17.4038 33.0418 17.0395 32.8493 16.1913C32.7056 15.5576 32.3424 14.9995 31.8643 14.5651C31.6762 14.3938 30.8581 13.9651 30.8543 13.8132C31.0499 12.982 31.4087 12.0532 31.3612 11.1938C31.2231 8.71008 29.2956 7.29633 31.8237 5.26071C32.3174 4.86321 33.2937 4.40633 33.9043 4.22446C34.1281 4.15821 34.9281 3.98071 35.0987 4.01133C35.1549 4.02133 35.2568 4.12633 35.2331 4.16258C33.1431 5.26321 32.8437 7.13258 34.3937 8.92008C35.2249 9.87883 36.9843 10.392 38.2249 10.4795C38.8718 10.5251 39.4112 10.3582 40.0343 10.3538C39.0999 10.8407 37.8062 11.5488 36.7699 11.7226C35.8712 11.8732 35.5993 11.6626 34.8462 11.5813C34.1668 11.5082 33.4393 12.3307 33.3874 12.977C33.2899 14.192 34.4974 14.5838 35.4581 14.1176L36.2849 13.4301C36.8781 14.152 36.3162 15.0776 36.7318 15.8476C37.0506 16.4376 37.5949 16.6676 38.1643 16.9457C38.2787 17.0013 38.3956 16.8913 38.3493 17.1357C37.5774 17.2138 36.6106 17.0301 35.8643 17.1357L35.8649 17.1351Z" fill="black"/>
</svg>