<svg xmlns="http://www.w3.org/2000/svg" width="50" height="50" viewBox="0 0 50 50" fill="none">
  <path d="M16.4582 16.5005C16.5125 16.1261 16.9594 15.1517 17.1375 14.7573C17.2482 14.5123 17.7425 13.7205 17.7632 13.5761C17.7819 13.4442 17.715 13.3342 17.5863 13.2961C16.9257 13.0986 14.9932 14.0505 14.3607 14.403C12.9388 15.1948 11.5925 16.153 10.4375 17.2967C10.4144 17.1786 10.475 17.0948 10.515 16.9942C11.1725 15.3623 12.3682 13.7911 13.1619 12.2355C13.3432 11.8805 13.4469 11.488 13.6788 11.1548C13.6438 9.76235 11.6638 9.4436 10.5757 9.23235C8.41879 8.8136 5.94316 8.9736 3.76879 9.27922C3.22379 9.3561 2.60066 9.5536 2.09066 9.60985C1.96191 9.62422 1.94066 9.5361 1.99254 9.47672C2.05254 9.4086 2.73066 9.1311 2.87379 9.07672C7.17504 7.4386 11.5513 6.86985 16.1344 7.5486C17.1263 7.69547 18.1719 7.8961 19.0875 8.29922C18.9975 8.5211 18.7113 8.4036 18.5157 8.45297C17.7138 8.65735 17.3375 10.2298 18.7032 10.0236C19.3675 9.9236 20.1194 9.59735 20.8538 9.54485C21.5844 9.49235 23.6882 10.0842 23.9175 9.07922C24.2025 7.83297 21.845 7.3036 20.9719 7.13985C18.5963 6.69485 16.6413 6.79485 14.2763 6.7061C14.1925 6.70297 14.0188 6.75797 14.035 6.63797C15.4363 6.23672 16.9175 5.85235 18.3694 5.67672C24.4782 4.9386 34.645 5.15235 39.575 9.30047C44.79 13.688 48.2788 19.7011 48.0182 26.6742C48.015 26.758 48.07 26.9317 47.95 26.9155C47.2213 24.4298 46.3632 22.1742 44.9194 20.0142C43.0369 17.1986 39.515 14.0755 36.1432 13.2867C35.115 13.0461 33.6332 13.0448 33.1725 14.1811C32.5463 13.5148 31.7525 13.1936 30.8894 12.9342C29.6075 12.5492 26.8488 12.3723 25.6838 13.0605C25.3107 13.2811 24.7775 13.7267 24.7119 14.1648C24.5807 15.0411 24.7144 15.9536 25.545 16.4098C25.7319 16.5123 26.2888 16.598 26.2882 16.8461C26.2869 17.2392 24.7194 17.4961 24.6907 18.3705C24.6588 19.3267 25.9782 21.2117 26.4357 22.0942C27.2957 23.7523 27.935 25.6473 28.8344 27.2398C29.0044 27.5405 29.4625 28.2911 29.8888 27.993C30.295 27.7092 29.65 25.7867 29.4607 25.3673C29.3863 25.2023 28.9244 24.6623 29.3063 24.7586C29.4657 24.7986 29.8225 24.8911 29.9544 24.943C30.1532 25.0211 30.4457 25.358 30.5988 25.3186C30.6613 25.3023 31.3407 24.3549 31.3694 24.2836C31.4194 24.1617 31.4332 24.0461 31.3944 23.9192C31.3419 23.7498 29.9669 23.1055 29.7019 22.9811C29.15 22.723 28.5282 22.5398 28.0232 22.2336C28.01 22.193 28.0082 22.1517 28.0132 22.1092C28.0332 21.9186 28.8282 21.2698 29.0219 21.1042C30.0082 20.263 32.2194 18.5861 33.5213 18.6092C33.6563 18.6117 33.7694 18.6586 33.8694 18.7473C33.9413 18.8717 33.5125 19.2205 33.4269 19.3486C33.1719 19.733 32.9532 20.4717 33 20.9298C33.0119 21.0486 33.1632 21.5811 33.2232 21.6405C33.3857 21.7998 34.2519 21.7805 34.3119 21.9748C34.3525 22.1061 33.8669 22.7673 34.0688 23.3905C34.2382 23.9136 35.365 23.6167 35.6969 23.3492C35.9425 23.1517 36.5057 22.2442 36.6363 21.9355C37.0713 20.903 36.5307 20.3055 36.5969 19.3348C36.6175 19.038 36.7169 18.4842 37.1175 18.8192C37.2207 18.9055 37.76 19.8317 37.8563 20.018C39.245 22.6911 38.3219 26.4111 37.1644 29.0399C36.7538 29.973 36.265 31.0092 35.6488 31.8167C35.5625 31.9298 35.5663 31.9986 35.5625 31.7998C36.0744 29.8623 37.2219 27.9386 36.7663 25.8748C36.42 25.838 36.1225 25.9286 35.8419 26.1255C34.2513 27.2417 32.8619 29.4267 32.3425 31.2773C32.2207 31.7111 31.7263 33.7767 32.0382 34.038C32.1682 34.1473 32.6763 33.9155 32.8388 33.8498C33.3332 33.6505 34.0625 33.3492 34.5238 33.1123C34.8194 32.9605 35.1188 32.7205 35.3882 32.523C35.4407 32.5123 35.4325 32.5898 35.4213 32.6248C35.3757 32.7692 34.8363 33.4042 34.6963 33.5617C34.1282 34.2017 33.4019 34.7361 32.7182 35.2517C32.0557 35.7505 30.8888 36.2611 30.6119 37.0905C30.2563 38.1549 30.1088 39.438 31.4769 39.7217C31.0294 40.1548 30.4544 40.5192 30.6782 41.2473C30.8713 41.8773 32.2363 41.328 32.6313 41.1173C34.0844 40.343 34.9957 39.0861 35.8044 37.7123C35.8569 37.623 35.7919 37.538 35.9763 37.5761C35.8569 38.853 35.4157 40.1955 34.8819 41.3605C33.4763 44.4255 31.5532 45.1223 28.3063 44.3811C28.0482 44.3223 26.6332 43.9773 26.6344 43.7011C27.8707 42.8336 28.3107 41.3511 28.2975 39.8911C28.2957 39.678 28.2075 38.6561 28.0894 38.5742C27.9938 38.508 27.9169 38.5617 27.8294 38.5986C27.6288 38.683 26.3738 39.4305 26.2944 39.5555C26.0582 39.9267 26.4925 40.5442 26.84 40.6911C26.8588 40.8005 26.7432 40.763 26.6657 40.7623C26.2744 40.7586 25.5769 40.6073 25.165 40.5311C21.2232 39.8048 18.3513 38.9992 15.35 36.2267C11.2019 32.3955 9.20004 27.5236 9.60254 21.8255C9.61066 21.7073 9.59566 21.5967 9.71066 21.518C9.89004 23.4473 10.5319 25.3305 11.3463 27.0792C12.2419 29.0023 13.1857 30.4317 15.0107 31.5817C15.7913 32.0736 17.3469 32.8392 18.2394 32.9899C18.3544 33.0092 18.7282 33.0398 18.8007 32.9948C18.8588 32.9586 19.305 31.9355 19.3988 31.7592C20.7382 29.2423 22.2194 26.8155 23.9682 24.563C24.1563 24.9974 24.1725 25.4123 24.43 25.8317C24.6513 26.1923 25.0069 26.4055 25.2388 26.6842C25.8613 27.4324 26.46 28.7155 26.5632 29.6848C25.3919 28.563 24.0338 28.6092 22.7357 29.4905C22.0163 29.9786 21.0688 31.1936 20.5138 31.9055C19.9519 32.6255 19.3469 33.3955 19.0207 34.253C19.32 34.0773 19.835 33.4148 20.1244 33.3155C20.9075 33.0473 22.1119 33.0261 22.9675 32.8361C23.4019 32.7398 23.8694 32.6255 24.2463 32.3842C24.3519 32.438 24.2463 32.5067 24.2144 32.5599C23.9719 32.9649 23.4844 33.3442 23.2138 33.7742C23.1044 33.948 22.8163 34.4167 22.9294 34.598C23.1207 34.9061 24.6125 35.0998 25.0157 35.1436C25.3844 35.1836 26.1294 35.283 26.4588 35.2199C26.725 35.1692 27.4194 34.2199 27.5463 33.9542C28.0988 32.7955 27.8307 31.4505 27.57 30.2355C26.8819 27.0236 24.4888 22.833 21.7282 20.9892C21.2032 20.6386 18.0894 18.973 17.9932 18.6311C17.96 18.5123 17.965 18.388 18.0963 18.3436C18.2688 18.2861 19.1925 18.4317 19.5382 18.4017C20.2757 18.3367 20.9588 18.0317 21.4444 17.4698C21.6707 17.2086 22.0982 16.5261 21.8919 16.188C21.875 16.1605 21.4463 15.8111 21.3975 15.783C20.3863 15.1942 17.6125 15.9705 16.8757 16.9167L16.4588 17.5723C16.4932 17.2367 16.4113 16.823 16.4588 16.4998L16.4582 16.5005Z" fill="black"/>
  <path d="M42.0669 24.5988C42.0638 24.5526 41.9175 24.4144 42.0319 24.3569C42.555 24.8813 42.7169 25.7551 42.8188 26.4769C43.4113 30.6769 41.4563 37.1169 38.0857 39.8588C37.105 40.6563 37.6538 39.9569 37.8575 39.4926C38.0719 39.0038 38.5132 37.7532 38.1519 37.3032C37.4325 36.4063 34.9219 36.6832 33.9907 37.2182L32.5138 38.1638C32.8625 37.5326 33.3713 36.9876 33.8975 36.5026C35.5407 34.9894 37.6869 34.5063 39.3675 32.9057C39.7044 32.5844 40.9744 31.2169 40.6713 30.7351C40.4107 30.3201 39.0913 31.3782 38.8325 31.4713C38.7463 31.5026 38.6225 31.5094 38.6744 31.3832C38.7319 31.2444 39.5632 30.5163 39.7475 30.3107C40.7238 29.2188 42.065 27.2188 42.065 25.7069C42.065 25.3482 42.09 24.9519 42.065 24.5994L42.0669 24.5988Z" fill="black"/>
</svg>