<svg xmlns="http://www.w3.org/2000/svg" width="50" height="50" viewBox="0 0 50 50" fill="none">
  <path d="M25.2875 1.2329C25.2944 1.2379 25.3044 1.33852 25.3606 1.38602C26.5869 2.42665 28.5613 2.98852 29.4631 4.47727C29.7431 4.93977 29.8075 5.43102 29.9994 5.90165C34.7306 7.4629 38.6688 10.7991 40.5988 15.4354C40.7125 15.7085 41.0575 16.8829 41.1419 16.9841C41.2406 17.1029 41.5413 17.0266 41.7156 17.0641C43.4938 17.4435 44.4763 20.3229 45.4269 21.656C45.2594 21.7416 45.1694 21.9273 45.0706 22.0873C44.35 23.2554 43.4269 25.4429 42.0913 25.971C41.7156 26.1198 41.42 25.9904 41.1056 26.1623L40.2656 28.4479L40.1319 28.4873C39.7706 27.6785 39.0019 27.1729 38.495 26.4923C38.6013 25.8623 38.8569 25.2673 39 24.6441C39.9594 20.4616 38.9238 16.176 36.2088 12.8966L35.8494 12.5379L34.6406 14.1398C34.6456 14.1829 34.7813 14.211 34.8138 14.2585C35.2213 14.8585 35.6688 15.4554 36.0238 16.0891C37.6388 18.9741 38.1044 22.5191 37.1919 25.7129C37.12 25.7704 35.8888 25.2979 35.7513 25.481L36.24 26.266C36.4206 26.801 36.5431 27.4173 36.4538 27.9816C36.3481 28.6554 35.6131 30.391 34.8638 30.5091C33.88 30.6648 33.9906 29.7354 34.3225 29.1185C34.47 28.8448 35.08 28.3535 35.1269 28.2291C35.1888 28.0648 34.8438 27.4191 34.7319 27.251C34.0644 26.2491 33.0006 25.3604 32.0456 24.6429C31.7006 24.3835 31.3244 24.1123 30.9444 23.9154L30.9469 20.6423C30.8681 20.4848 30.66 20.5316 30.5225 20.4785C29.7594 20.1841 28.9675 19.9135 28.2906 19.4423C27.895 19.1666 26.735 18.1535 26.6 17.7335C28.0088 17.2635 29.6056 16.6954 29.9944 15.0916C29.3219 14.8223 28.6113 14.5854 27.9075 14.8898C27.9325 14.5723 27.9181 12.7679 27.6044 12.6723C27.2281 12.5579 26.0356 13.6391 25.8869 14.0135C25.7931 14.2498 25.8806 14.5123 25.6856 14.6279C25.4806 14.1685 25.3713 13.8023 25.0331 13.4173C24.8331 13.1898 24.06 12.5173 23.7681 12.6085C23.4669 12.7023 23.3563 14.1404 23.4125 14.4498C23.4538 14.6766 23.6331 14.8029 23.6588 15.0204C22.775 14.9391 21.8175 14.8423 20.9744 15.1916C21.0194 15.4535 21.1388 15.7079 21.2788 15.9304C21.5638 16.3835 22.02 16.6735 22.3525 17.0798C22.0438 17.2285 21.6806 17.3666 21.4044 17.571C20.1381 18.5054 22.1744 18.5304 22.8094 18.5835C21.4488 19.821 19.5956 20.7723 18.8194 18.3904C18.4069 17.1248 18.4963 15.3685 18.935 14.121C19.1906 13.3948 19.5163 12.6698 20.1288 12.1773C20.1388 12.1279 20.0656 12.1354 20.0325 12.146C19.2844 12.3835 17.8975 13.4348 17.2838 13.9735C15.3688 15.656 13.615 18.7648 13.9263 21.3873C13.9869 21.8966 14.6975 23.0216 15.2494 22.5941C15.4119 22.4685 15.83 21.5554 15.7338 22.3579C15.6613 22.9666 15.2025 23.966 14.8019 24.4348C14.3175 25.001 13.575 25.3854 12.8775 24.9198C12.2938 24.5304 12.0638 23.7598 12.0206 23.0966C11.9075 21.3516 12.1106 19.666 12.7106 18.0291C13.3175 16.3729 14.2738 14.8254 15.4775 13.541C15.5006 13.4235 14.71 12.436 14.5713 12.3716C14.485 12.3316 14.4638 12.3323 14.3775 12.3716C14.2569 12.4273 13.5581 13.231 13.4338 13.3923C10.5606 17.1385 9.80751 22.0973 11.4681 26.5248C11.7931 27.391 11.8463 27.5716 12.0519 28.4904C12.7569 31.6429 15.3488 33.6723 17.8963 35.3929C18.1281 35.5491 18.3688 35.4879 18.4244 35.8448C18.4706 36.1423 18.3625 36.4666 18.495 36.7548C18.4981 36.8135 18.3913 36.7948 18.3344 36.7848C17.9825 36.7254 16.7144 36.0523 16.3356 35.8416C13.0906 34.0391 10.5481 31.1135 9.11626 27.6998C9.01751 27.4641 8.73063 26.481 8.65688 26.3941C8.61938 26.3498 7.81251 26.1073 7.58376 25.9635C6.38876 25.2141 5.64813 23.3273 4.92501 22.151C4.83063 21.9979 4.54313 21.7335 4.57813 21.6023C4.59251 21.5473 4.93813 21.1754 5.01626 21.0541C6.00501 19.5166 6.64001 17.2885 8.69626 16.8754C10.3756 11.4648 14.8856 7.24977 20.3513 5.8104C20.5769 5.00727 20.84 4.40415 21.4356 3.80852C22.4981 2.7454 24.02 2.1429 25.1981 1.22977C25.2306 1.23165 25.2706 1.21727 25.2894 1.22977L25.2875 1.2329ZM24.2319 7.78602C22.14 7.89852 19.8419 8.54727 17.9913 9.5204C17.6113 9.7204 15.6619 10.921 15.6338 11.2635C15.6206 11.4235 16.5625 12.196 16.7044 12.4035C18.1213 11.4348 19.6769 10.4316 21.3656 10.0185C23.5794 9.47727 25.98 9.40852 28.1813 10.0079C30.1725 10.5504 32.0088 11.4973 33.4988 12.9285C33.9619 12.5335 34.2931 11.9416 34.7644 11.5166C34.7806 11.4241 34.5463 11.2335 34.4731 11.1679C31.8519 8.81852 27.7081 7.59915 24.2313 7.78602H24.2319Z" fill="black"/>
  <path d="M17.6106 33.0641C20.3231 32.7898 21.9369 29.8654 19.7362 27.866L19.5756 24.6929C18.5406 24.3416 17.2562 24.7466 16.3169 25.2329C14.8725 25.9804 13.4394 27.2654 13.8156 29.0798C14.0137 30.0348 15.8056 31.3941 16.7931 31.4285L15.7469 30.6129C14.6206 29.5585 13.7925 28.5498 14.9094 27.0935C15.3037 26.5791 16.1087 26.0685 16.7112 25.8229C16.9169 25.7391 18.0356 25.361 18.1631 25.4848C18.2125 25.9579 18.335 26.4323 18.2887 26.9098C17.0406 27.2266 16.3319 28.6079 16.8075 29.8148C16.9937 30.2873 17.5462 30.6448 18.0631 30.5773C18.1944 30.5598 18.8519 30.3048 18.6894 30.1223C17.2481 30.6948 17.2575 28.3523 18.3437 28.1091C19.2225 27.9129 19.7931 28.3885 20.0437 29.1923C20.775 31.5398 18.2031 32.4773 16.3087 32.0123C13.6237 31.3535 12.1194 29.3373 13.12 26.5454C13.5537 25.3348 15.9144 23.7991 17.0769 23.3116C17.8325 22.9948 18.7231 22.8148 19.54 22.8004L19.4737 20.9041C19.5875 20.9035 19.705 20.916 19.8175 20.8891C20.8825 20.631 23.3119 19.1723 24.1475 18.4204C24.5531 18.056 24.5112 17.7316 25.2581 17.7623C25.7087 17.781 25.7519 18.2148 25.9769 18.4873C26.6362 19.286 28.79 20.4848 29.7894 20.7541C29.9825 20.806 30.19 20.8391 30.3912 20.8391C30.2944 22.6535 30.1706 24.4648 30.2031 26.2891C30.9237 26.8648 31.8337 27.2254 32.5181 27.831C32.62 27.921 32.6631 28.0454 32.7444 28.1279C32.8694 28.2554 33.3006 28.4879 33.2562 28.7073C33.2475 28.7504 32.8944 29.251 32.8306 29.4573C32.56 30.3341 33.3275 31.4979 34.28 31.4991C35.4744 31.5004 36.0069 30.9241 36.6537 30.0123C36.87 29.7079 37.7694 27.9441 37.8856 27.9066C38.0306 27.8591 38.5581 28.2666 38.6931 28.3898C40.8594 30.3579 40.1131 33.2516 37.995 34.8835C37.7812 35.0479 37.04 35.5529 36.815 35.5991C36.2319 35.7173 35.0481 35.6391 34.5519 35.2773C33.8906 34.7948 34.1419 33.001 35.2487 33.3391C35.5169 33.421 35.5675 33.9885 35.6119 34.2185C35.6212 34.266 35.5787 34.5029 35.7181 34.4373C35.9337 34.3354 35.9331 33.3835 35.8487 33.1973C35.6181 32.6879 34.88 32.6654 34.4281 32.8854C32.8687 33.6441 33.0237 36.931 35.1637 36.7266C35.3619 36.9179 34.1812 37.9029 34.0087 38.0223C30.8844 40.1985 27.2225 40.541 24.4094 43.3916C24.0712 43.7348 23.2312 44.8748 23.2025 45.3266C23.1612 45.9916 23.8644 45.3241 24.2119 45.8804C25.2362 47.5198 22.0325 49.9485 20.7281 48.1223C19.8856 46.9429 20.4044 45.111 20.7225 43.8241C21.0187 42.626 21.385 41.4448 21.8937 40.3216H20.2269C20.1412 40.3216 20.0731 39.9773 20.0637 39.8966C19.9544 38.9523 20.04 37.8454 20.0006 36.8873C19.9837 36.4841 19.9025 36.0316 19.9006 35.6148C18.5412 34.941 17.3175 34.0573 16.2069 33.0335C16.2569 32.926 16.3587 33.0666 16.37 33.0666C16.76 33.0666 17.2375 33.1048 17.6119 33.0666L17.6106 33.0641ZM29.3437 21.8216C29.33 21.8085 29.095 21.8141 28.97 21.7704C27.6769 21.3148 26.3175 20.2585 25.4475 19.2135C25.3156 19.1304 25.0787 19.1179 24.9281 19.1373C24.73 19.1635 24.0806 19.7791 23.8456 19.9516C23.0875 20.5079 22.2512 21.1216 21.455 21.6141C21.275 21.7254 20.6481 21.9241 20.5925 22.1298C20.5556 22.266 20.6625 22.4248 20.655 22.5735C20.59 23.8998 20.5431 25.9216 20.7812 27.2135C20.8112 27.3754 21.2094 27.7779 21.3306 27.9716C21.985 29.0229 22.2787 30.9598 21.5281 32.0148C21.4106 32.1804 21.1162 32.3698 21.0381 32.5054C20.8062 32.9091 21.06 35.9335 21.1062 36.6279C21.1412 37.1541 21.08 37.966 21.1737 38.456C21.1881 38.531 21.5256 38.9473 21.58 38.9698C21.7669 39.0479 22.6819 39.0498 22.8437 38.9523C22.96 38.8823 23.2625 38.3579 23.3969 38.1979C24.7019 36.6448 26.3562 35.0823 27.8394 33.6848C28.2412 33.306 28.78 33.0841 28.9656 32.4579C29.1362 31.8829 28.99 30.5741 29.0137 29.8916C29.0894 27.7385 29.2719 25.576 29.3462 23.4254C29.3531 23.2191 29.4019 21.8766 29.3431 21.8216H29.3437ZM28.6344 38.1066C28.3394 38.2879 28.9569 38.7741 29.1887 38.7973C29.2912 38.8073 29.9006 38.7598 30.0156 38.7366C30.3487 38.6698 31.0319 38.1204 31.1875 37.8166C31.4419 37.3198 31.4569 36.0829 31.2719 35.5491C31.0556 34.9248 29.8681 34.4754 29.2494 34.5004C28.1356 34.5454 26.5256 36.5766 25.7825 37.3798C24.1081 39.1885 23.1069 40.2235 22.3 42.6566C21.9381 43.7479 21.4231 46.1616 21.9206 47.1885C22.4181 48.2154 23.7437 47.5329 23.5912 46.6966C23.48 46.0848 23.0044 46.6235 22.8912 46.6523C22.5375 46.7429 22.3362 46.2766 22.3475 45.9779C22.4444 43.3441 23.54 40.8685 25.1331 38.8229C26.1312 37.541 28.0075 35.451 29.7719 35.611C30.6087 35.6873 30.815 36.8791 30.4544 37.5416C30.2644 37.8904 29.44 38.5985 29.0431 38.2985C28.97 38.2435 28.905 37.941 28.635 38.1073L28.6344 38.1066Z" fill="black"/>
  <path d="M25.4213 25.7437C25.3981 25.9974 25.4625 26.3024 25.4081 26.5468C25.2625 27.1974 23.9256 27.5899 23.3713 27.3037C23.0044 27.1143 22.4631 26.1155 22.4131 25.7124C22.1606 23.6555 24.04 22.193 25.98 22.8649C26.8288 23.1587 27.8575 24.2818 27.9644 25.1949C28.2881 27.968 25.9881 28.4724 25.265 30.6518C25.1194 31.0905 25.1969 31.9887 25.39 32.4105C25.49 32.6293 25.695 32.878 25.8781 33.0337C26.0113 33.1462 26.49 33.3237 26.1088 33.3918C24.5844 33.6643 24.1369 31.4743 24.2531 30.3599C24.3506 29.4305 25.1413 28.1812 25.6944 27.4218C26.0181 26.9774 26.3056 26.9174 26.4506 26.2824C26.6431 25.443 26.4538 24.7799 25.8475 24.1737C24.9694 23.2955 23.7163 24.268 23.8006 25.3649C23.85 26.0055 24.3 26.0955 24.8625 26.0018C25.0869 25.9643 25.1988 25.7555 25.4213 25.7443V25.7437Z" fill="black"/>
</svg>