<svg xmlns="http://www.w3.org/2000/svg" width="50" height="50" viewBox="0 0 50 50" fill="none">
  <path d="M19.0162 12.752C19.2569 12.0832 19.2475 11.5807 18.9081 10.9463C17.5981 8.49572 14.2694 9.62259 15.0825 12.4763C15.575 14.2045 17.2506 15.1013 18.9762 14.5407C22.2 13.4938 22.6375 9.36322 20.7512 6.89259C20.5012 6.56509 20.1062 6.34759 19.9512 5.95072C20.0444 5.87509 22.0231 6.55009 22.2406 6.67884C23.1219 7.20134 23.7175 9.94697 23.6937 10.9201C23.5369 17.4051 14.6512 19.532 12.6356 13.1376C11.3994 9.21572 15.7675 4.99134 19.2262 7.82197C19.8194 8.30759 20.5931 9.47259 20.635 10.2457C20.6806 11.0976 19.7431 12.347 19.0162 12.7513V12.752Z" fill="black"/>
  <path d="M25.4769 41.4052C27.3756 41.2489 28.1438 38.4683 26.1556 37.7077C24.8425 37.2052 23.6444 38.1177 23.1663 39.3064C22.1656 41.7964 25.0156 44.3333 27.4531 43.8483C28.8725 43.5658 30.5213 42.5239 31.0894 41.1496C31.2019 41.1283 31.18 41.1789 31.1731 41.2746C31.0538 42.8083 30.775 43.7971 29.5 44.7046C24.5775 48.2077 18.62 42.1858 21.6488 37.3639C24.0569 33.5296 30.1613 35.1477 29.6438 39.8321C29.5138 41.0064 28.2344 42.6202 26.9731 42.5871C26.4794 42.5739 25.3819 42.0296 25.4769 41.4052Z" fill="black"/>
  <path d="M37.0231 22.1232C37.3444 22.3845 36.6994 23.2989 36.7069 23.6676C36.7375 25.132 38.5925 25.7682 39.7556 25.032C42.0163 23.6001 40.8063 20.0895 38.47 19.357C35.7444 18.502 33.4456 20.597 32.7063 23.0845C32.67 23.207 32.7581 23.2345 32.535 23.2095C32.5194 22.4064 32.1756 21.1632 32.4031 20.3995C32.6275 19.6482 34.3725 18.2557 35.0838 17.8938C38.6106 16.0989 42.7756 18.6064 43.08 22.4832C43.27 24.9026 41.2388 27.4876 38.7825 27.7145C36.1381 27.9589 33.6106 25.4257 35.01 22.837C35.2875 22.3239 36.5444 21.7345 37.0225 22.1226L37.0231 22.1232Z" fill="black"/>
  <path d="M4.56067 35.6225C4.42817 35.5543 4.32254 35.2518 4.26504 35.1112C3.48692 33.1975 3.18504 30.3275 3.58254 28.31C4.61504 23.0743 8.88879 20.0387 14.1863 21.3637C14.6563 21.4812 16.1325 21.9612 16.4632 22.2331C16.5763 22.3262 16.5607 22.31 16.4607 22.3981C16.2457 22.5875 15.8957 22.7506 15.6588 22.9568C14.9369 23.5862 14.4282 24.3362 13.9563 25.1631C12.9525 24.4181 11.6932 24.2318 10.4669 24.3112C4.91317 24.6693 3.28192 31.0618 4.56067 35.6225Z" fill="black"/>
  <path d="M29.2168 16.6627C28.805 16.1139 28.5218 15.4877 28.0712 14.9614C27.6643 14.4864 27.1643 14.1027 26.6731 13.7208C28.9943 9.47145 27.0293 4.58645 22.3962 3.20645C20.6393 2.6827 19.5506 2.70332 17.7575 2.86457C17.6637 2.87332 17.4681 2.96582 17.4856 2.8052C20.415 1.82957 23.4431 1.8127 26.1831 3.33082C28.4431 4.5827 29.8475 6.59145 30.4512 9.09582C31.0768 11.6914 30.3356 14.3214 29.2175 16.6627H29.2168Z" fill="black"/>
  <path d="M16.7194 30.777C16.8394 32.1358 17.6544 33.3683 18.5025 34.3939C18.555 34.5639 18.3663 34.5089 18.25 34.642C16.6519 36.4702 16.4175 39.7083 17.2738 41.9133C18.6113 45.3558 21.82 47.1877 25.3263 47.7202C25.4125 47.7333 25.665 47.7445 25.6469 47.8658C24.7925 47.8945 24.0088 47.8745 23.1656 47.7552C15.3413 46.642 11.3269 37.9795 16.0538 31.4295C16.125 31.3308 16.6181 30.6614 16.7194 30.7777V30.777Z" fill="black"/>
  <path d="M32.2794 33.0732C33.5088 32.7382 34.3281 31.7044 35.225 30.8744C35.995 31.2751 36.7931 31.7138 37.6794 31.7957C42.7481 32.2619 45.7288 28.2119 46.2263 23.5957L46.2219 21.9351C47.7531 27.4938 44.4144 33.7751 38.5063 34.6657C36.8731 34.9119 33.8638 34.3832 32.5056 33.3982C32.3944 33.3176 32.2463 33.2426 32.2794 33.0732Z" fill="black"/>
  <path d="M24.6269 32.306C23.0319 32.0616 21.5469 31.4248 20.3732 30.311C18.8307 28.8473 17.2888 25.8135 19.8932 24.5548C22.6844 23.2054 25.0882 26.3854 23.0144 28.356C22.8719 28.4916 22.4769 28.6535 22.43 28.7923C22.2632 29.2829 22.5094 29.971 22.7419 30.4079C23.2007 31.2716 23.9613 31.6641 24.6269 32.306Z" fill="black"/>
  <path d="M18.5906 22.274C19.4231 20.4421 21.0737 18.9109 23.0306 18.3402C24.9768 17.7721 27.2912 17.949 27.4368 20.4434C27.6068 23.3615 24.2293 24.3977 22.8525 21.8821C22.5262 21.2859 22.7968 21.1121 21.8549 21.009C20.9737 20.9127 20.1481 21.2377 19.4131 21.6946C19.2906 21.7709 18.6631 22.3459 18.5906 22.274Z" fill="black"/>
  <path d="M30.3218 21.5094C30.6374 22.2469 31.1231 22.9212 31.3037 23.7169C31.8737 26.2275 30.6856 31.0287 27.2399 29.7362C24.6749 28.7737 25.1893 25.4537 27.7387 25.175C28.1318 25.1319 28.7481 25.3062 28.9868 25.235C29.0668 25.2112 29.6162 24.6725 29.6887 24.5737C29.9968 24.1544 30.2056 23.4306 30.2412 22.9156C30.2737 22.4475 30.1537 22.0475 30.1499 21.6387C30.1487 21.47 30.1612 21.5012 30.3218 21.51V21.5094Z" fill="black"/>
</svg>