<svg xmlns="http://www.w3.org/2000/svg" width="50" height="50" viewBox="0 0 50 50" fill="none">
  <path d="M48.1237 26.1495C48.0831 26.8614 47.9506 27.737 47.7937 28.4564C47.5237 29.6952 46.9956 30.7377 46.3275 31.8039C45.7625 30.887 45.165 29.9702 44.5175 29.1064C44.1969 28.6783 43.1275 27.5958 43.0775 27.1833C43.0331 26.8145 43.1019 26.2589 43.1544 25.8808C43.165 25.8045 43.1781 25.6208 43.27 25.6164C43.3569 25.612 44.44 26.5745 44.6087 26.7214C45.2325 27.2645 45.7275 28.2677 46.0369 26.8527C46.2444 25.902 46.2725 23.6877 45.9425 22.7889C45.8719 22.597 45.77 22.3039 45.525 22.4414C45.0594 22.7227 43.68 24.3177 43.2706 24.3933C43.1181 24.4214 43.1675 24.3752 43.155 24.2789C43.1075 23.9145 43.0362 23.2433 43.0744 22.8964C43.1331 22.3589 43.9919 21.6289 44.3337 21.1752C44.8981 20.4277 45.5762 19.4927 46.0612 18.6995C46.1744 18.5145 46.1519 18.1958 46.4031 18.2752C46.5375 18.3177 47.5175 20.5139 47.6075 20.8177C47.8687 21.6995 48.0712 22.9608 48.1225 23.8564C48.1625 24.5477 48.1625 25.4583 48.1225 26.1495H48.1237Z" fill="black"/>
  <path d="M24.5837 48.772C23.5981 48.4445 22.5462 48.3989 21.5843 47.9882C21.235 47.8389 19.175 46.6676 19.2368 46.3726C19.8693 45.9132 22.0562 43.432 22.6318 43.382C22.7437 43.3726 24.0868 43.552 24.2237 43.5907C24.3043 43.6132 24.3775 43.6901 24.415 43.7651L21.9093 46.4789C23.0675 46.8764 24.055 47.2195 25.3137 47.1707C26.3187 47.132 27.1575 46.7545 28.0993 46.4789L25.5887 43.8301L25.5775 43.6526C26.0606 43.6482 26.9475 43.3395 27.3768 43.3807C27.9625 43.4364 30.02 45.852 30.66 46.2501C30.7118 46.3264 30.7181 46.4207 30.6887 46.5064C30.6631 46.5814 29.8825 47.1551 29.7437 47.2457C29.0375 47.7095 28.14 48.1282 27.3218 48.3395L25.3468 48.772H24.5825H24.5837Z" fill="black"/>
  <path d="M36.9338 12.7316C44.6557 20.6154 43.0982 33.3885 33.7488 39.1735C23.4763 45.5298 10.9407 39.5404 8.17318 28.1523C6.38318 20.7848 10.7288 12.5573 17.3969 9.29352C24.0963 6.01477 31.7563 7.44477 36.9338 12.731V12.7316ZM35.5576 13.5704C26.9407 5.20165 12.3407 9.61852 9.8688 21.3316C7.2338 33.816 19.7494 43.976 31.4001 38.5829C41.0763 34.1035 43.2007 20.9935 35.5576 13.5704Z" fill="black"/>
  <path d="M19.2831 5.31149C19.3781 5.40774 19.4612 5.55336 19.575 5.67149C19.7918 5.89774 19.9956 5.86399 19.7993 6.36336L17.625 6.92461C16.6081 7.27711 15.6762 7.63524 14.8037 8.23274C14.51 8.43399 13.98 8.64024 13.6556 8.91649C13.4862 9.06024 13.5175 9.23649 13.4956 9.25774C13.4731 9.28024 13.3425 9.19524 13.2693 9.22336C13.16 9.26586 13.0718 9.49586 12.9118 9.54774C12.3462 9.73211 12.3943 9.19461 12.2037 8.98461C11.9793 8.73711 11.3106 8.80211 11.0381 8.95461C10.8687 9.04961 10.1006 9.98336 9.83433 10.2177C9.76808 10.2759 9.6962 10.3302 9.60245 10.3302L9.75433 10.5196C9.6987 10.6415 9.5887 10.5627 9.54745 10.5902C9.2037 10.8196 9.30683 11.5084 9.5262 11.8196C9.6587 12.0084 10.0462 12.2265 10.1031 12.3165C10.2706 12.5796 9.77433 12.904 9.6437 13.0827C9.11495 13.8052 8.40245 15.0402 8.04058 15.9021C7.8087 16.454 7.4737 17.4121 7.3187 18.094C7.2212 18.5227 7.1487 18.9815 7.15745 19.4234C6.78433 19.4796 6.7312 19.3121 6.53933 19.1627C6.42933 19.0777 6.04683 19.1077 6.46995 18.9265C6.21558 18.684 5.9887 18.3709 5.62995 18.2752L5.78183 18.0859C5.70058 17.9027 5.42308 17.9109 5.4012 17.889C5.37683 17.8646 5.4687 17.7252 5.4387 17.6609C5.39495 17.5665 5.22433 17.5496 5.18995 17.4927C5.14495 17.4184 5.18683 17.2746 5.13683 17.204C5.06808 17.1059 4.87933 17.144 4.86433 17.1296C4.84683 17.1134 5.06558 16.8521 4.7887 16.719C4.73995 16.6952 4.63995 16.7552 4.63683 16.7484C4.6112 16.6996 4.69683 16.5477 4.66808 16.4396C4.63058 16.3015 4.37183 16.1077 4.30933 15.9609C4.24683 15.814 4.66433 14.9952 4.75245 14.7615C4.81495 14.5959 5.06683 14.0302 5.0812 13.9396C5.09683 13.839 5.0062 13.6977 5.01745 13.6921C5.0587 13.6721 5.18183 13.7159 5.23933 13.6852C5.26058 13.674 5.28245 13.3421 5.33245 13.2177C5.3612 13.1459 5.4762 13.159 5.47558 13.1096C5.47495 13.0602 5.37808 12.939 5.39933 12.9277C5.43683 12.9077 5.55558 12.9702 5.6362 12.8802C5.68245 12.829 6.33183 11.7652 6.35683 11.7009C6.40308 11.5834 6.32308 11.5084 6.31745 11.3996C6.75995 11.5896 6.55308 11.1252 6.63433 11.0284C6.65995 10.9984 6.92745 10.9977 7.00433 10.8259C6.58933 10.6521 7.02683 10.6515 7.16433 10.5284C7.33183 10.3784 7.27495 10.2015 7.34995 10.099C7.46683 9.93961 8.30433 9.39211 8.44745 9.13836C8.51808 9.01336 8.5537 8.64711 8.70745 8.59149C8.80808 8.55524 8.8737 8.65711 9.06308 8.53274C9.27995 8.39024 9.72245 7.78274 9.99433 7.55211C10.5506 7.08024 11.2056 6.64586 11.8493 6.23211C12.0631 6.09461 12.7031 5.80774 12.8206 5.70461C12.8918 5.64274 12.805 5.51961 12.8131 5.51461C12.8437 5.49461 12.9537 5.57211 13.0431 5.54274C13.4762 5.40149 14.1112 4.94649 14.5956 4.73586C15.2187 4.46461 16.0518 4.12399 16.695 3.93086C16.9931 3.84149 17.4631 3.66774 17.7268 3.77211C18.1712 4.35836 18.7743 4.79586 19.2831 5.31211V5.31149Z" fill="black"/>
  <path d="M7.00438 30.8111C7.30438 33.2586 8.43313 35.6124 9.97501 37.513C10 37.6724 9.65001 37.8349 9.53813 37.9686C9.13938 38.4449 8.99313 38.943 9.37313 39.4861C9.51813 39.693 10.7188 40.9367 10.9256 41.1049C11.0225 41.1836 11.37 41.323 11.4944 41.3417C12.3038 41.4624 12.5425 40.5836 12.7613 40.6042C13.89 41.3811 15.0056 42.2142 16.2763 42.748C17.4013 43.2205 18.5981 43.4467 19.7569 43.8136L19.6944 44.1524L17.6525 46.0892C17.4356 46.208 16.8288 45.9905 16.5581 45.9049C11.875 44.4274 7.19563 40.5424 5.18001 36.0361C5.05251 35.7511 4.46376 34.3367 4.47313 34.1374C4.48376 33.9067 5.74063 32.1217 5.97938 31.813C6.11876 31.633 6.60626 30.9786 6.73126 30.883C6.82501 30.8117 6.88563 30.7955 7.00313 30.8111H7.00438Z" fill="black"/>
  <path d="M40.0388 37.6749C39.9007 37.4374 40.3419 37.1537 40.4794 36.9618C41.7638 35.173 42.7044 33.0012 43.0032 30.8105C43.1388 30.7905 43.17 30.8062 43.2669 30.8905C43.7032 31.2699 45.1769 33.3705 45.4363 33.918C45.4844 34.0199 45.5332 34.0774 45.5244 34.2062C45.5125 34.3724 44.8938 35.8737 44.775 36.1368C42.7625 40.5824 38.0563 44.4168 33.4482 45.9043C33.2013 45.9843 32.5325 46.2155 32.3388 46.103L30.1969 44.033C30.145 43.9737 30.1638 43.9399 30.1957 43.8793C30.3213 43.6412 31.725 43.433 32.0894 43.323C33.4925 42.8999 34.6619 42.3324 35.8888 41.543C36.105 41.4043 37.0932 40.623 37.17 40.6024C37.3832 40.5449 37.5957 41.0237 37.8032 41.1705C38.1482 41.4137 38.5369 41.3999 38.9038 41.1955C39.0869 41.0937 40.3557 39.818 40.5207 39.6024C40.9969 38.9799 40.8894 38.518 40.4063 37.9555C40.3094 37.843 40.0507 37.6949 40.0388 37.6749Z" fill="black"/>
  <path d="M43.0031 19.1943C42.9762 19.1668 42.9256 18.5849 42.8887 18.4287C42.4837 16.6968 41.7975 15.0287 40.8181 13.5443C40.6806 13.3356 40.0462 12.6287 40.03 12.5681C39.9669 12.3306 40.245 12.2918 40.3575 12.1549C40.8606 11.5456 41.0269 11.1493 40.5431 10.4562C40.3762 10.2174 39.0519 8.88057 38.8425 8.79369C38.4219 8.61869 38.0756 8.60807 37.7262 8.91182C37.5481 9.06619 37.4037 9.46494 37.1712 9.40182C37.0794 9.37682 35.9737 8.53494 35.735 8.38557C34.625 7.69182 33.6206 7.17869 32.3606 6.79244C31.9475 6.66557 30.4831 6.38932 30.2731 6.20182C30.2356 6.16807 30.1944 6.13807 30.1762 6.08807C30.1619 5.89682 32.0756 4.27182 32.3031 3.94807C32.5644 3.82869 33.0825 4.01432 33.3706 4.10057C34.7856 4.52182 36.44 5.34057 37.6912 6.12307C41.2825 8.36994 44.2244 11.7931 45.5237 15.8637C45.5119 16.0574 44.4544 17.6243 44.2575 17.8893C44.0306 18.1949 43.5212 18.8918 43.2656 19.1137C43.1931 19.1768 43.0544 19.2468 43.0019 19.1937L43.0031 19.1943Z" fill="black"/>
  <path d="M3.56689 31.8046C3.07626 30.7033 2.50376 29.7933 2.22564 28.5977C1.52189 25.5721 1.71939 21.0427 3.49939 18.4015C3.54251 18.3371 3.58001 18.2533 3.68001 18.2771C4.22814 19.1421 4.80501 20.0008 5.41501 20.8233C5.75189 21.2771 6.88064 22.4652 6.93126 22.899C6.95501 23.1027 6.89001 23.9846 6.85251 24.2002C6.83501 24.3002 6.77939 24.4171 6.66376 24.3902L4.48189 22.4402C4.14814 22.2865 4.03064 22.8177 3.96939 23.0752C3.75126 23.9996 3.69751 26.4371 4.06314 27.2952C4.13939 27.4746 4.26314 27.6796 4.48189 27.5652C4.77751 27.344 6.56814 25.6071 6.73876 25.6158C6.82376 25.6202 6.84876 25.7983 6.85689 25.8771C6.89064 26.2058 6.97939 27.0465 6.91064 27.3146C6.84126 27.584 5.90626 28.5221 5.67439 28.8296C5.08626 29.6108 4.44064 30.5265 3.91439 31.3496C3.80689 31.5177 3.81001 31.8221 3.56751 31.8039L3.56689 31.8046Z" fill="black"/>
  <path d="M30.6831 3.46303C30.8538 3.75553 30.3581 3.97928 30.1988 4.13553C29.7931 4.53428 27.7594 6.63053 27.3775 6.65115C26.8869 6.46865 26.1656 6.55678 25.7044 6.41803C25.5894 6.38365 25.545 6.28865 25.5881 6.17553L28.0831 3.74115C28.1806 3.42865 27.9988 3.5699 27.7944 3.4899C25.6075 2.62928 24.4006 2.62678 22.2144 3.4899C22.0106 3.57053 21.8006 3.43178 21.9456 3.7574L24.4306 6.24115C24.4494 6.32615 24.3794 6.39553 24.3038 6.41803C23.8406 6.55678 23.1219 6.46928 22.6306 6.65115C22.4838 6.64365 21.6906 6.00178 21.5263 5.85865C21.0519 5.44615 20.4963 4.8924 20.035 4.44553C19.9119 4.32615 19.2169 3.67115 19.2375 3.57303C20.2506 2.64865 21.4881 1.97803 22.8238 1.65115C23.285 1.53803 24.6013 1.22803 25.005 1.22803C25.4594 1.22803 27.1113 1.61365 27.615 1.7574C28.2325 1.93303 29.1081 2.3549 29.6538 2.69928C29.7825 2.78053 30.6519 3.40803 30.6844 3.46365L30.6831 3.46303Z" fill="black"/>
  <path d="M30.9768 19.5267C32.0349 20.5136 32.4874 21.8973 33.1299 23.1442C33.4793 23.8223 34.1449 24.7498 34.3956 25.3936C34.4924 25.6423 34.4856 25.8248 34.5193 26.0723H34.2893L34.3668 25.9204C33.5331 26.0598 32.7174 25.8792 31.9212 25.6148C31.8512 26.6942 31.6787 28.4142 30.3924 28.6711C30.4874 28.3161 30.6206 27.9786 30.6206 27.6017L30.5449 27.7536C30.3156 27.7767 30.2968 27.5711 30.3168 27.3717L30.4687 27.4492C30.4449 26.5498 30.2962 25.4104 29.5918 24.7923C29.3899 24.7761 28.5993 25.9186 28.4062 26.1117L28.6343 26.1867C28.3999 26.3417 28.0018 26.5342 27.9474 26.8367C28.0381 26.9154 28.7743 26.6173 28.9174 26.5461C29.2856 26.3642 29.4693 26.0429 29.8574 25.9961C29.8687 26.3761 30.1412 26.7742 29.8931 27.1398C29.7912 27.2898 28.8606 27.5342 28.6093 27.6898C28.3837 27.8292 27.8743 28.2779 27.6387 28.4767C27.5243 28.5729 27.4781 28.7454 27.3762 28.8261C26.9718 29.1454 26.0418 28.8461 25.5431 28.8204C24.7399 28.7798 24.0574 28.9692 23.3237 28.9829C22.6962 28.9942 22.8149 28.7904 22.4868 28.5142C22.2356 28.3029 21.7187 27.8392 21.4768 27.6898C20.9656 27.3736 20.1124 27.4429 20.0793 26.7148C20.0687 26.4848 20.2724 26.2479 20.2287 25.9954C20.6168 26.0423 20.8006 26.3636 21.1687 26.5454C21.3018 26.6111 22.0481 26.9154 22.1387 26.8361C22.1456 26.7148 22.0362 26.5611 21.9568 26.4792C21.8281 26.3461 21.0212 26.0667 21.6799 26.1111C21.5149 25.9311 20.6949 24.8011 20.5612 24.7786C20.3049 24.7361 19.9412 25.5573 19.8743 25.7654C19.8349 25.8886 19.9199 26.0198 19.9018 26.0579C19.7856 26.3004 19.6368 26.7429 19.6137 27.1011C19.6062 27.2161 19.6212 27.3342 19.6174 27.4486L19.7693 27.3711L19.6924 27.8298L19.4637 27.6398L19.6931 28.6704C19.6012 28.7617 19.1799 28.4692 19.0887 28.3967C18.4056 27.8486 18.1899 26.4417 18.1643 25.6142C17.7549 25.7186 17.1456 25.9561 16.7418 25.9936C16.5156 26.0142 16.3368 25.9011 16.1462 25.9198C15.8906 25.9448 15.3724 26.3673 15.6381 25.5736C15.8643 24.8973 16.5774 23.8923 16.9331 23.1979C17.4406 22.2067 17.8262 21.0411 18.5449 20.2048C19.5812 18.9992 21.5287 17.3673 23.2474 17.3536C23.6606 17.3504 24.1981 17.4986 24.6199 17.5161C25.6406 17.5586 26.6518 17.2367 27.6462 17.4704C28.6956 17.7173 30.1881 18.7898 30.9781 19.5267H30.9768ZM27.8643 18.6661C27.6218 18.3261 24.4062 18.3142 23.8537 18.3498C23.6062 18.3654 22.2331 18.5554 22.2074 18.7054C22.1912 18.8042 22.3168 19.0842 22.4049 19.1173C22.5037 18.7948 22.9224 19.1017 23.1668 19.1204C23.4931 19.1448 24.0206 19.0517 24.2993 19.1336C24.6362 19.2323 24.6062 19.8429 25.0799 19.8136C25.4531 19.7904 25.4743 19.2236 25.7824 19.1336C26.0624 19.0517 26.5881 19.1454 26.9149 19.1204C27.0874 19.1073 27.2012 19.0079 27.3562 18.9873C27.4706 18.9717 27.7693 19.0523 27.7868 19.0404C27.8024 19.0298 27.8956 18.7123 27.8624 18.6667L27.8643 18.6661ZM23.1637 23.2767C23.3487 23.1148 23.5787 23.0154 23.7318 22.8136C23.9312 22.5511 24.2506 21.8392 24.2724 21.5142C24.2974 21.1498 23.6974 19.8879 23.2837 20.1879C23.6443 20.8192 23.8318 21.3573 23.5893 22.0586C23.5556 22.1561 23.6568 22.1811 23.4749 22.1767C23.2487 22.1711 22.2281 21.5192 21.8062 21.3973C21.6187 21.3429 20.6181 21.1098 20.4937 21.1117C20.1737 21.1161 20.0656 21.4136 20.0374 21.4104C19.7193 21.3761 19.9031 20.9017 19.9924 20.6786C20.0549 20.5223 20.2774 20.4123 20.1887 20.2636C19.7093 20.7317 19.2131 21.2029 18.9131 21.8161C18.5149 22.6292 18.7224 23.3923 18.4687 24.2367L21.6781 23.5492C21.7437 24.0361 22.2618 24.3904 22.5074 24.8229C22.6199 25.0217 22.7831 25.5892 22.8662 25.6898C22.8818 25.7086 23.2512 25.9567 23.2749 25.9636C23.6581 26.0648 23.9381 25.8642 24.0324 26.4361C24.0762 26.6992 23.9431 26.8254 24.0874 27.0592C24.2156 27.2673 24.7699 27.5967 25.0043 27.6086C25.1574 27.6167 25.7699 27.3523 25.8849 27.2386C26.1743 26.9511 26.0006 26.7829 26.0362 26.5004C26.1143 25.8817 26.4612 26.0936 26.8593 25.9429C26.9162 25.9211 27.0624 25.6948 27.2137 25.6861C27.3662 24.9098 27.9487 24.4679 28.3181 23.8836C28.3893 23.7704 28.3924 23.5611 28.4049 23.5492C28.4443 23.5104 29.3449 23.6942 29.4937 23.7204C29.6862 23.7542 29.9881 23.7942 30.1474 23.8304C30.3706 23.8811 31.4993 24.3523 31.6143 24.2373C31.6899 23.9854 31.4931 23.7867 31.4656 23.5836C31.4212 23.2542 31.4806 22.7986 31.4162 22.4704C31.2668 21.7079 30.6174 20.9111 30.0474 20.4161L30.2387 21.4092C29.9818 21.3767 29.8237 21.0898 29.5318 21.1179C28.8243 21.1861 27.7506 21.5823 27.1112 21.9129C26.9462 21.9979 26.8793 22.2492 26.6118 22.1792C26.5781 22.1704 26.3443 21.6411 26.3468 21.5354C26.3549 21.1142 26.5868 20.5529 26.7999 20.1879C26.4649 19.9479 25.9549 20.8236 25.9006 21.0836C25.6699 22.1848 26.4881 22.9667 27.2468 23.5873C27.0387 23.8829 26.8612 24.1604 26.7106 24.4923C26.6243 24.6829 26.4324 25.3992 26.4012 25.4436C26.3787 25.4748 25.7956 25.7511 25.7087 25.7829C25.6218 25.8148 25.0537 25.9817 25.0174 25.9786C24.8962 25.9686 23.7318 25.5104 23.6837 25.4429C23.6356 25.3754 23.6249 25.0604 23.5656 24.9117C23.3712 24.4267 23.1112 24.0111 22.8443 23.5861C22.8462 23.5642 23.1068 23.3261 23.1643 23.2761L23.1637 23.2767Z" fill="black"/>
  <path d="M35.9706 15.2202C36.0319 15.884 35.7844 16.5846 35.5494 17.2058C35.4131 17.5658 35.1944 18.0077 35.0175 18.3552C34.9125 18.5615 34.2263 19.6146 34.2319 19.6921C34.2338 19.719 34.4719 19.9933 34.5331 20.1352C35.1569 21.5715 34.9713 22.064 36.2756 23.2077C36.8563 23.7171 37.5919 24.3396 38.4163 24.0858C38.645 24.3552 37.7594 25.3483 37.5244 25.5246C37.3719 25.639 36.9369 25.8202 36.8825 25.8958C36.7713 26.0515 36.3144 27.974 36.2844 28.259C36.2119 28.9415 36.2519 29.7683 36.77 30.279C37.0031 30.5083 37.4031 30.519 37.35 30.9227L35.2244 31.7083C34.2463 31.8008 33.3188 31.909 32.4256 32.349C31.6344 32.739 30.4375 33.8608 30.9356 34.8146L31.4613 35.3965C30.9369 35.5358 29.3363 35.4096 29.05 34.9377C28.9831 34.8277 29.2413 33.8652 29.3013 33.6571C29.5344 32.849 29.7931 31.8952 30.5919 31.5083C31.3631 31.1352 32.0969 31.0933 32.76 30.3902L35.4175 26.3208C35.5281 25.9071 35.0588 24.449 34.8838 23.9871C34.5075 22.9927 33.5175 20.9808 32.7613 20.3008C32.6631 20.2127 32.0731 19.8233 32.0738 19.7665C32.75 19.4527 33.1044 19.0683 33.5544 18.4977C34.0369 17.8865 34.5394 17.1327 34.67 16.3658C34.38 16.4271 34.1225 16.564 33.8344 16.6377C33.0575 16.8365 31.0681 17.2746 30.3731 17.1096C28.1625 16.5833 27.97 16.0096 25.5219 16.8852C25.3731 16.9383 25.2025 17.124 25.0794 17.1277C24.9331 17.1321 24.7738 16.9521 24.6238 16.8971C23.6656 16.549 22.9125 16.3333 21.8644 16.4377C21.1875 16.5052 20.3619 16.9527 19.7081 17.109C18.9719 17.2846 16.8506 16.7702 16.0063 16.5721C15.8244 16.5296 15.4056 16.2233 15.4244 16.5402C15.4563 17.084 16.7588 18.8921 17.2088 19.2677C17.4556 19.4733 17.7594 19.5677 18.0075 19.7665C18.0088 19.834 17.2463 20.379 17.1281 20.4908C16.3913 21.1877 15.0963 24.1077 14.8363 25.154C14.765 25.4415 14.6113 25.9808 14.6619 26.2446C14.7281 26.589 15.6169 27.8665 15.8669 28.2527C16.4825 29.2027 17.2531 30.5396 18.2631 31.054C18.6956 31.274 19.8006 31.5215 20.0769 31.859C20.2644 32.0877 20.6388 33.1396 20.7388 33.4696C20.8188 33.734 21.0863 34.6877 21.0488 34.8921C20.9594 35.3752 19.0556 35.5596 18.62 35.3965C18.6238 35.1527 18.8906 35.2196 19.0675 34.9652C19.7169 34.0296 18.6588 32.889 17.8575 32.4533C16.6969 31.8227 15.9656 31.999 14.8569 31.709C14.5531 31.6296 14.0938 31.3902 13.7681 31.269C13.6088 31.2096 12.7744 31.0008 12.74 30.9596C12.5125 30.6921 13.1744 30.4146 13.3113 30.2796C13.7031 29.8927 13.9031 29.1815 13.8725 28.644C13.8531 28.3077 13.3456 26.104 13.1988 25.8958C13.1475 25.8233 12.5313 25.5296 12.3125 25.3108C12.1469 25.1446 11.4794 24.3046 11.665 24.0865C12.6613 24.419 14.1231 23.0702 14.685 22.3302C15.2475 21.589 15.2431 20.4108 15.8494 19.6927C15.0838 18.3227 14.1381 16.8358 14.11 15.2208C14.4963 15.2708 14.8419 15.4502 15.2269 15.5171C16.3869 15.719 19.4769 16.1177 20.5331 15.9508C21.2338 15.8402 22.3213 15.2477 22.9438 15.2271C23.5663 15.2065 24.3756 15.8608 24.9238 15.9121C25.5569 15.9708 26.4094 15.2252 27.1419 15.2352C27.7444 15.2433 28.8588 15.8421 29.5444 15.9508C30.6006 16.1177 33.6906 15.719 34.8506 15.5171C35.2356 15.4502 35.5819 15.2708 35.9675 15.2208L35.9706 15.2202Z" fill="black"/>
  <path d="M23.72 34.9599C23.8631 35.1293 23.7356 36.0893 23.9025 36.2305C23.945 36.2661 24.8162 36.1649 25.0068 36.1655C25.2056 36.1661 26.1362 36.2686 26.1812 36.2305C26.2093 36.2068 26.3218 35.6068 26.3337 35.5043C26.3493 35.3693 26.2312 35.2518 26.2987 35.0943C26.3431 34.9918 26.9675 34.5549 27.1368 34.3211C27.3668 34.0036 27.4212 33.7099 27.5662 33.3749C27.8431 32.7361 27.9575 33.8799 27.95 34.1386C27.9368 34.5855 27.6943 35.0168 27.7137 35.4318C27.7281 35.7424 28.0618 36.7586 28.0106 36.9468C27.8662 37.4761 26.0518 38.1374 25.5818 38.5743C25.4525 38.6943 25.0931 39.3055 24.9662 39.218C24.7356 38.1893 22.3106 37.728 22.0931 36.9293C22.0318 36.7055 22.365 35.7768 22.3725 35.4349C22.3806 35.023 22.1531 34.6243 22.1337 34.2143C22.1225 33.9855 22.2418 32.7805 22.5006 33.3143C22.6762 33.6761 22.6981 33.998 22.98 34.363C23.2 34.648 23.5856 34.8018 23.7193 34.9599H23.72Z" fill="black"/>
  <path d="M24.1731 34.4323C23.8238 34.1123 23.7031 33.9048 23.625 33.4129C23.6163 33.3561 23.5969 32.8792 23.6031 32.8517C23.7513 32.2048 26.17 32.2492 26.46 32.7211C26.5263 32.8286 26.42 33.6967 26.365 33.8542C26.0919 34.6361 25.1838 35.0886 24.4244 34.6767C24.2675 34.5917 24.2644 34.5154 24.1738 34.4317L24.1731 34.4323Z" fill="black"/>
  <path d="M25.025 29.4561C25.3712 29.4554 26.6119 29.5123 26.8756 29.6273C27.0744 29.7142 27.2331 29.8142 27.1681 30.0654C27.1219 30.2436 26.615 31.1817 26.3887 31.1123C26.3369 31.0967 25.8437 30.4504 25.6475 30.3198C25.3444 30.1179 25.0931 30.0642 24.7331 30.1598C24.2825 30.2792 23.8037 31.1198 23.6275 31.1204C23.44 31.1204 22.9806 30.2348 22.9331 30.0473C22.8687 29.7911 22.995 29.7192 23.2075 29.6273C23.4712 29.5129 24.6812 29.4573 25.0244 29.4561H25.025Z" fill="black"/>
  <path d="M29.6275 28.3663C29.7225 29.4344 29.3681 30.4063 28.6962 31.2213C28.625 31.3082 28.1712 31.8076 28.0993 31.7288C28.2581 30.9563 28.1131 30.1694 27.9543 29.4094C28.11 29.2838 29.5568 28.2869 29.6275 28.3663Z" fill="black"/>
  <path d="M21.9843 31.7289C20.9475 30.9576 20.3368 29.6876 20.4568 28.3664C20.5275 28.2864 21.9744 29.2839 22.1294 29.4089C21.9912 30.1783 21.8131 30.9483 21.9837 31.7289H21.9843Z" fill="black"/>
  <path d="M22.6625 22.5662C22.7281 22.6712 22.6544 22.8606 22.5619 22.9437C22.0106 23.4406 20.5112 22.5681 21.1806 21.8774C21.3506 22.0424 22.6187 22.4968 22.6625 22.5662Z" fill="black"/>
  <path d="M29.0156 21.8691C29.3568 22.6379 28.2656 23.3354 27.6193 22.9985C27.4693 22.9204 27.3237 22.726 27.4218 22.5666C27.4675 22.4923 28.8131 21.9991 29.0156 21.8691Z" fill="black"/>
  <path d="M20.9913 23.3974L19.6157 23.4749C19.6325 23.0518 19.4925 22.6936 19.3107 22.3286C19.6232 22.3124 19.9132 22.3036 20.1782 22.4918L20.9913 23.3974Z" fill="black"/>
  <path d="M30.7738 22.328C30.6219 22.6943 30.445 23.0599 30.4688 23.4743L29.0932 23.3968C29.0438 23.218 29.1388 23.268 29.1907 23.2224C29.6838 22.7874 30.0432 22.1774 30.7738 22.3274V22.328Z" fill="black"/>
</svg>