<svg xmlns="http://www.w3.org/2000/svg" width="50" height="50" viewBox="0 0 50 50" fill="none">
  <path d="M24.9419 5.28334C25.045 5.30209 25.0575 5.14709 25.0725 5.07459C25.3762 3.61646 25.7369 2.32459 27.3831 1.84521C29.0381 1.36334 31.445 2.87521 30.5862 4.74459C30.1231 5.75271 30.0325 4.69084 29.8631 4.42146C29.4031 3.69084 28.33 4.25646 27.9137 4.80334C26.6606 6.44834 26.5387 9.36771 28.2031 10.7858C29.6719 12.0371 31.6906 12.5577 33.5494 11.9565C35.1631 11.4352 35.0831 8.65646 33.6875 8.03334C32.8719 7.66896 31.74 8.12584 32.0719 9.12021C32.4381 9.12646 32.5606 8.89334 32.9469 8.99584C34.2762 9.34834 33.4062 11.2415 32.0456 11.1227C31.245 11.0527 30.6512 9.95959 30.4894 9.25834C30.2287 8.12709 31.0025 6.62334 32.075 6.15709C33.9256 5.35271 36.1556 6.19709 37.3412 7.71771C38.6469 9.39271 38.6581 11.2421 37.5375 13.0221C38.0469 12.8827 38.4875 12.4927 39.0237 12.4221C42.2731 11.9958 45.2375 13.8971 46.6844 16.7377C48.5337 20.3683 47.1887 26.404 44.175 29.1077C43.2081 29.9752 42.365 30.254 41.3081 30.8702C40.6875 31.2315 40.1325 31.7283 39.485 32.0821C37.7469 33.0333 35.6662 33.4846 34.2744 34.9908C34.1694 35.104 33.6887 35.8458 33.7487 35.9315C33.7575 35.944 33.9319 35.999 34.0131 36.0858C35.3969 37.574 36.8237 40.3096 35.905 42.3127C35.5993 42.9796 35.2262 43.3315 34.4619 43.3752C33.4119 43.4352 32.6031 42.4315 32.8681 41.4008C33.0537 40.6765 33.5594 40.8183 33.42 39.7915C33.4025 39.6602 33.0912 38.4721 32.8337 38.6715C32.2125 39.8327 31.8375 41.1021 31.7675 42.4246C31.6819 44.0383 32.1581 45.9121 32.9456 47.3233C33.0137 47.4452 33.5562 48.1933 33.5156 48.2321C32.5587 47.794 31.8081 46.759 31.3025 45.8552C30.6825 44.7483 30.3262 43.6977 30.0775 42.4515C29.9219 41.6708 29.7475 40.9752 30.0256 40.1896C29.8719 40.1665 29.7525 40.2133 29.6162 40.2727C28.4494 40.779 27.6394 42.9683 27.3162 44.119C26.9719 45.3465 26.7331 46.589 26.9906 47.8527C26.8644 47.8815 26.8369 47.8121 26.765 47.7377C25.4544 46.3871 25.9937 42.6808 26.4662 40.9921C26.9737 39.1765 28.0512 37.104 29.985 36.5433C30.25 36.4665 30.7512 36.4833 30.8581 36.4346C31.0025 36.3683 31.3262 35.9252 31.3181 35.7565C31.3062 35.5233 30.7169 34.9933 30.5187 34.9546C29.7 34.7933 29.5962 35.7871 28.5831 35.5246C27.8656 35.339 26.5394 33.7658 26.125 33.1265C25.6531 32.3983 25.3769 31.579 25.0562 30.779C24.9237 30.7615 24.91 30.8802 24.8637 30.9658C24.6812 31.3065 24.59 31.7696 24.4256 32.1208C24.0337 32.9596 23.4187 33.8271 22.7819 34.4983C22.2744 35.0333 21.3894 35.8877 20.59 35.474C20.2106 35.2777 20.1681 34.8352 19.5219 34.9558C19.2787 35.0015 18.7269 35.4908 18.7131 35.749C18.7037 35.9215 18.9612 36.364 19.1012 36.4352C19.1762 36.4733 19.8806 36.4927 20.1606 36.5852C23.3394 37.6308 24.7244 43.9008 23.8275 46.6983C23.7425 46.9627 23.3931 47.6252 23.2012 47.8015C23.1181 47.8777 23.0725 47.8552 22.97 47.8508C22.9881 47.5921 23.1006 47.4046 23.1244 47.1333C23.2681 45.4927 22.2981 42.2471 21.2219 40.9858C20.9337 40.6483 20.4831 40.1721 20.0106 40.1871C19.9819 40.4077 20.0812 40.6121 20.0894 40.8283C20.1562 42.7002 19.1744 45.4115 18.0356 46.9002C17.8681 47.119 16.6637 48.4033 16.4437 48.229C16.9137 47.5715 17.3387 46.8677 17.6187 46.104C18.375 44.0402 18.4881 41.9402 17.7162 39.8627C17.5662 39.459 17.3225 39.0846 17.1981 38.6721C16.9681 38.6096 16.9331 38.7721 16.8456 38.9558C16.6987 39.2652 16.4587 40.0527 16.5206 40.3746C16.555 40.5546 16.9431 40.9496 17.0525 41.2096C17.8244 43.049 15.1831 44.2627 14.2006 42.5433C13.1337 40.6752 14.3856 38.0083 15.6106 36.509C15.8744 36.1858 16.3187 36.0465 16.1312 35.6046C15.5169 34.1558 13.0656 33.3052 11.7631 32.6877C10.6081 32.1402 9.85248 31.5671 8.80185 30.944C7.5956 30.2283 6.57685 29.8808 5.52373 28.8346C2.59685 25.9258 1.34685 19.6333 3.70748 16.1071C5.4106 13.5633 7.68998 12.0946 10.8644 12.4152C11.3981 12.469 11.9269 12.8208 12.42 13.0215C12.225 12.4746 11.8937 12.0271 11.7606 11.4433C11.02 8.20146 14.2381 5.17084 17.445 5.98646C18.4694 6.24709 19.4506 7.37896 19.5525 8.43146C19.685 9.80209 18.5206 11.8865 16.9481 10.8083C16.2406 10.3227 16.1687 9.05271 17.1906 8.96521C17.5019 8.93896 17.9069 9.33896 18.0225 8.94521C18.1175 8.62146 17.6825 8.02271 17.3744 7.95396C15.0919 7.44271 14.4669 11.2315 16.3644 11.9233C18.2525 12.6115 20.4875 12.0052 21.9406 10.6671C23.4356 9.29084 23.2812 6.46209 22.1656 4.90709C21.4519 3.91209 20.0981 3.60896 19.9319 5.13021C19.4894 5.18209 19.3406 4.64584 19.2837 4.29896C19.0612 2.94771 20.1519 2.07896 21.355 1.80959C22.485 1.55646 23.5306 2.13896 24.2206 3.00396C24.7856 3.71209 24.8087 4.41896 24.9419 5.28084V5.28334ZM34.5787 28.8827C34.4412 28.7515 35.1194 27.7227 35.225 27.519C35.5381 26.914 35.875 26.024 36.2325 25.4915C36.705 24.7883 38.2125 25.2627 38.7894 25.6965C39.0931 25.9246 39.3394 26.444 39.6337 26.5977C40.9575 27.289 42.1075 25.8183 42.6994 24.8258C43.87 22.8646 44.3444 19.1308 41.7625 18.0946C40.1494 17.4471 38.2381 18.5346 38.6331 20.389C38.7212 20.8033 39.225 21.3546 39.6594 21.4165C40.2562 21.5008 39.8706 20.7883 39.8944 20.4346C39.9737 19.2727 41.3025 18.9952 42.0931 19.7371C42.81 20.4102 42.7256 21.0977 42.5081 21.979C42.2637 22.9702 41.5412 23.9608 40.6019 24.3983C39.5262 24.899 37.8419 24.3177 37.0162 23.524C37.0487 23.3521 37.155 23.214 37.1975 23.0427C37.8419 20.4402 37.9419 16.2883 34.73 15.414C33.2331 15.0065 30.6925 14.9971 29.2662 15.6427C28.7281 15.8865 28.375 16.3871 27.865 16.6671C27.2369 15.6446 26.3306 14.614 25.85 13.519C25.3825 12.4527 25.2169 11.2065 25.0156 10.0658C24.7794 10.2046 24.8931 10.6177 24.8556 10.8533C24.7725 11.3758 24.6369 12.034 24.495 12.5415C24.0625 14.0852 23.0237 15.3358 22.1331 16.6346C21.7012 16.4202 21.4112 16.044 20.9887 15.8008C19.5356 14.9652 16.9619 14.9952 15.3637 15.3996C12.5881 16.1021 12.2987 18.9896 12.4969 21.409C12.5594 22.1708 12.8081 22.9058 12.9381 23.6352C11.965 24.2658 10.6975 24.8665 9.5181 24.4633C9.1856 24.3496 8.36685 23.634 8.13123 23.3458C7.64748 22.7546 7.1981 21.3315 7.35248 20.5927C7.4506 20.1233 8.17623 19.3871 8.6706 19.3296C9.98935 19.1765 10.2306 20.3058 9.99748 21.3665C10.5894 21.5858 11.2819 20.8615 11.3994 20.3146C11.7094 18.8702 10.245 17.7083 8.89748 17.8883C6.58873 18.1971 6.0506 20.8146 6.45935 22.7421C6.75685 24.1458 8.7081 27.9633 10.5406 26.4577C10.7044 26.3233 10.8544 26.0033 11.0169 25.8502C11.6612 25.2421 12.8106 24.9583 13.6319 25.2833C13.7625 25.7602 15.495 28.5771 15.4556 28.7696C15.3662 29.2071 14.9419 28.5533 14.8862 28.5058C13.8194 27.599 12.6037 28.4115 13.1887 29.5965C13.5937 30.4171 15.4725 31.4946 16.2181 32.2583C16.7981 32.8521 17.3344 33.7577 17.8462 34.4233C17.9619 34.2527 18.6056 33.7533 18.6306 33.6171C18.6556 33.4808 18.2369 32.8096 18.1525 32.6008C17.8256 31.7965 17.4937 30.689 17.8275 29.8533C18.2819 28.7171 20.2944 28.1808 21.2625 27.5971C21.3781 27.5271 21.5531 27.4602 21.5256 27.2921C21.0612 27.339 20.4337 27.5308 19.9825 27.5146C19.3106 27.4902 17.9656 27.0571 17.4037 26.6721C15.5762 25.419 13.515 20.7246 13.8044 18.5458C14.2206 15.4102 17.9656 17.3633 19.5762 18.2777C20.9831 19.0765 22.5919 20.2615 23.7681 21.3702C24.0769 21.6615 24.5375 22.469 25.05 22.4352C25.4575 22.4083 26.2306 21.3865 26.5706 21.0677C28.2094 19.5302 32.1275 16.8665 34.3856 16.8158C35.6256 16.7883 36.13 17.7252 36.2381 18.8402C36.4319 20.8427 34.4087 25.1377 32.8681 26.4546C32.2225 27.0065 30.8937 27.4733 30.0525 27.5152C29.5894 27.5383 28.91 27.3402 28.4319 27.2915C28.3987 27.4477 28.5087 27.4677 28.6062 27.5333C29.1219 27.8815 29.9675 28.1365 30.5575 28.4652C32.1525 29.3552 32.63 29.959 32.1269 31.8596C32.0275 32.2352 31.3856 33.4077 31.3937 33.5552C31.3994 33.6571 32.0544 34.4221 32.1106 34.4227C32.6431 33.7971 33.1156 33.0115 33.6644 32.4115C34.31 31.7058 36.6469 30.1527 36.8569 29.5333C37.1912 28.5477 36.49 27.7908 35.4869 28.239C35.2037 28.3658 34.7744 29.0721 34.5775 28.884L34.5787 28.8827Z" fill="black"/>
</svg>