<svg xmlns="http://www.w3.org/2000/svg" width="50" height="50" viewBox="0 0 50 50" fill="none">
  <path d="M43.8182 28.0302C43.8694 28.492 43.7538 28.942 43.7219 29.3964C43.6457 30.4983 43.6632 31.5152 43.3844 32.5952C43.0744 33.797 42.3007 35.8395 41.4719 36.7589C40.93 37.3602 39.6332 38.3058 38.9413 38.7933C36.0419 40.8364 32.8669 42.3639 29.5519 43.6139C29.4532 43.6514 28.74 43.8564 28.74 43.927C28.7775 43.9752 28.8369 43.987 28.8925 43.9989C30.3457 44.312 32.6307 43.9314 34.0832 43.5802C35.8575 43.1508 37.6532 42.562 39.285 41.7414C40.1588 41.302 40.9307 40.7058 41.6794 40.0845L41.2394 40.9308C40.055 42.8414 38.8619 44.8502 36.5525 45.5027C34.7844 46.0027 33.0419 46.2902 31.1969 46.317C29.8638 46.3364 28.5407 46.1133 27.2138 46.0958C26.6582 46.0883 26.1382 46.1114 25.5888 46.1939C25.5757 46.2664 25.5919 46.2452 25.6294 46.2658C25.8125 46.3652 26.2732 46.487 26.4963 46.5558C27.3719 46.8277 28.1425 47.092 29.0032 47.392C29.9169 47.7108 30.8194 47.8433 31.7357 48.0995C32.3188 48.2627 32.8863 48.4939 33.475 48.6427L33.4975 48.7177C33.0125 48.8027 32.5307 48.9014 32.05 49.0058C30.3319 49.3802 28.8263 49.5939 27.0513 49.4077C25.49 49.2439 24.4138 48.3845 23.0157 47.817C21.4394 47.1777 19.6994 47.0295 18.0219 46.7989C17.4332 46.7177 16.9263 46.5933 16.3144 46.5777C16.1563 46.5733 16.0019 46.5764 15.8469 46.6114C15.7813 46.5414 16.0463 46.1545 16.105 46.082C16.95 45.0433 18.2969 44.2645 19.5694 43.8883C20.7882 43.5283 21.9682 43.6408 23.2244 43.5245C24.7044 43.3877 25.8669 42.9964 27.2669 42.552C30.6707 41.4708 33.3875 39.732 36.1475 37.512C38.4463 35.6633 40.7757 32.997 42.3507 30.502C42.8375 29.7302 43.2382 28.807 43.7444 28.0714C43.7638 28.0427 43.7394 28.012 43.8163 28.0295L43.8182 28.0302Z" fill="black"/>
  <path d="M30.1157 28.408C29.5763 28.568 29.0032 28.5943 28.4582 28.7593C28.0119 28.8949 27.6182 29.1386 27.1876 29.3124C27.1513 29.303 26.8476 28.8836 26.8294 28.8318C26.7744 28.673 26.9132 28.3424 26.9719 28.1736C27.0863 27.8468 27.2326 27.5249 27.3457 27.1974C27.4669 27.083 28.1488 26.1824 28.2151 26.1699C28.3038 26.153 28.5363 26.433 28.6119 26.503C28.6694 26.5561 28.8644 26.6674 28.8863 26.7118C28.9476 26.8343 28.7482 27.1511 28.8888 27.193C29.1901 27.0786 29.5419 27.0261 29.8176 26.8724C29.8782 26.763 29.7951 26.658 29.7782 26.5586C29.7613 26.4593 29.7082 25.9343 29.6907 25.9068C29.6426 25.8305 29.4082 25.9618 29.2969 25.9174C29.2501 25.8986 28.7769 25.4999 28.7551 25.458C28.7426 25.433 28.7338 25.4186 28.7551 25.3949L44.4438 5.52427L44.5894 5.04364L44.4613 5.13989C44.4913 4.95989 44.5026 4.91614 44.3001 4.97864C44.2844 4.96739 44.3876 4.86614 44.2838 4.88177C44.2057 4.89364 43.9913 5.01614 43.9294 5.07364L27.8726 24.6711C27.8382 24.6999 27.8113 24.6836 27.7769 24.6699C27.7257 24.6499 27.2482 24.2893 27.2269 24.2543C27.1594 24.143 27.2463 23.8818 27.1451 23.8524C27.0969 23.8386 26.9388 23.9086 26.8594 23.9136C26.6426 23.9286 26.4219 23.8993 26.2051 23.9186C26.1013 24.1093 26.1526 24.3068 26.1357 24.5086C26.1276 24.6074 26.0407 24.8805 26.0863 24.9449C26.1744 25.0699 26.3994 24.7924 26.5232 24.8274C26.6082 24.8511 26.7657 25.0261 26.8463 25.0855C26.9388 25.153 27.2169 25.2843 27.2251 25.383C26.9657 25.6636 26.7676 26.0243 26.5219 26.3086C26.3138 26.5493 26.0963 26.6211 25.8432 26.7874C25.5632 26.9711 25.2988 27.1855 24.9807 27.3093C24.8657 27.3261 24.5188 27.0868 24.3726 27.0611C24.5307 26.3761 24.6682 25.7661 24.6594 25.0549C24.6563 24.8274 24.5501 24.1311 24.6413 23.9786C24.6663 23.9374 24.7432 23.938 24.7769 23.9055C25.1494 23.553 25.5738 23.2411 25.9432 22.8699C26.7138 22.0968 27.4251 21.243 28.1776 20.4424C33.9976 14.2505 39.7869 8.02677 45.5888 1.81489C46.3463 1.46114 47.0413 0.980515 47.7832 0.601765C47.8682 0.55864 48.0782 0.42239 48.0563 0.61489L47.2719 3.20864L31.4144 26.1868C31.1994 26.5536 30.9251 26.8836 30.7082 27.2486C30.4857 27.6224 30.3176 28.0243 30.1163 28.4086L30.1157 28.408Z" fill="black"/>
  <path d="M16.3956 15.8455C16.4193 15.8662 16.2587 16.0555 16.2343 16.0855C13.5574 19.3749 11.7587 23.1612 10.8499 27.3218C10.6043 28.4455 10.5643 29.6312 10.5112 30.7768C10.4349 32.4305 10.4293 34.3499 10.7456 35.978C10.9356 36.9543 11.6206 37.7393 11.6974 38.6912C11.7274 39.0587 11.5787 39.6449 11.4868 40.0155C11.3193 40.6924 11.0756 41.3312 10.6724 41.9037L10.5999 41.9137C10.0893 41.6562 9.46745 41.6937 8.94307 41.5424C8.61932 41.4493 8.01557 41.0962 7.70495 40.9155C6.41932 40.1674 5.45932 39.1987 4.4837 38.093C3.8337 37.3568 3.48557 36.733 3.12495 35.8187C2.4537 34.1155 2.02432 32.2505 2.18557 30.4087C2.33557 30.3793 2.31745 30.5449 2.36182 30.6343C2.54057 30.9924 2.68557 31.3574 2.85432 31.7168C3.8587 33.8518 5.4437 35.7399 7.1512 37.3543C7.6337 37.8105 8.1662 38.2112 8.61432 38.7037L7.58057 36.9893C6.7412 35.4762 6.0787 33.8637 5.4262 32.2637C4.79807 30.7237 3.66682 27.7412 3.89307 26.1218C4.0462 25.023 4.87308 23.6687 5.5612 22.8068C5.59432 22.7655 5.8387 22.4562 5.88182 22.5005C5.88057 22.5768 5.82932 22.6337 5.82057 22.7118C5.4162 26.2137 6.6362 29.653 8.17057 32.7337L8.29307 33.1737C8.29432 32.6674 8.14495 32.1449 8.1012 31.6462C7.84995 28.7912 8.7287 25.293 9.6612 22.598C9.95995 21.7349 10.3043 20.7087 10.6768 19.8849C10.8743 19.4487 11.0568 19.2018 11.3949 18.8668C12.2262 18.0418 13.2787 17.2705 14.3262 16.7505C14.8506 16.4899 15.6093 16.0862 16.1387 15.8949C16.2243 15.8637 16.2999 15.8337 16.3949 15.8462L16.3956 15.8455Z" fill="black"/>
  <path d="M38.4174 32.9804C38.7249 31.4416 38.3943 29.9054 37.3556 28.7216C36.9893 28.3041 36.4593 28.0023 36.0862 27.5798C35.8524 27.3154 35.5543 26.8991 35.3624 26.5991C35.0299 26.0791 34.8049 25.4654 34.7524 24.846C35.2324 24.9048 35.7743 24.9966 36.2212 25.1941C37.1156 25.5904 38.4881 26.9091 38.9487 27.771C39.0943 28.0429 39.1656 28.3648 39.2931 28.616C39.3068 28.6429 39.3624 28.7179 39.3818 28.7041C39.5424 28.0016 39.3924 27.2998 39.1981 26.6223C38.7487 25.0566 37.9981 23.8166 37.0024 22.5485C36.7637 22.2441 36.4537 21.9935 36.2743 21.6479L37.4387 19.8648C37.6224 19.6641 37.6256 19.8341 37.7437 19.9748C38.9337 21.3916 39.8556 23.0335 40.6274 24.7116C40.6487 24.7573 40.6087 24.7991 40.6999 24.7816C40.6831 24.3241 40.8349 23.8741 40.8624 23.4166C40.9668 21.6823 40.4374 19.8841 39.8249 18.2791C39.7118 17.9829 39.5118 17.651 39.4131 17.3729C39.3262 17.1285 39.6206 16.7716 39.7549 16.5541C39.9656 16.2123 40.2106 15.8891 40.4162 15.5435C40.4387 15.5198 40.4443 15.4785 40.4912 15.4904C40.5556 15.506 41.1468 16.4535 41.2281 16.586C42.0118 17.8635 42.9981 20.226 43.1437 21.711C43.3243 23.5591 42.9312 25.9916 42.0674 27.6429C41.4618 28.8004 40.5924 30.1279 39.8456 31.2079C39.5124 31.6898 39.0074 32.4304 38.6249 32.8485C38.5968 32.8791 38.4449 33.0085 38.4181 32.9785L38.4174 32.9804Z" fill="black"/>
  <path d="M26.0913 27.6623C26.1106 27.6486 26.1444 27.5836 26.1856 27.5792C26.1925 27.5786 26.2694 27.6748 26.2669 27.6898C26.2581 27.7442 26.1988 27.798 26.1756 27.8592C26.0244 28.2586 25.91 28.6705 25.7544 29.0673C26.0744 29.4205 26.375 29.7942 26.6038 30.2142C27.3425 31.5742 27.5681 32.893 27.2081 34.4205C27.1819 34.5311 26.9988 35.1892 26.9581 35.2311C26.9369 35.2523 26.9213 35.2567 26.8931 35.2623C26.7544 35.288 26.2231 35.2242 26.0606 35.1942C25.97 35.1773 25.6056 35.0698 25.5731 35.0048C25.6475 34.5942 25.8113 34.1848 25.8475 33.7667C25.9638 32.4255 25.6763 31.4711 24.9163 30.3911C24.8813 30.3417 24.8606 30.2667 24.7875 30.2792C24.7 30.5036 24.58 30.7105 24.4975 30.938C24.2263 31.6848 23.9563 33.2086 24.175 33.9623C24.2406 34.1886 24.9738 35.5417 24.9156 35.6167L22.9381 35.1348C21.6131 35.0255 20.7606 35.7098 19.9481 36.6448C19.8431 36.7655 19.6494 37.0842 19.5581 37.1548C19.48 37.2155 18.5056 37.7105 18.3888 37.7536C18.26 37.8011 18.0506 37.8917 18.0344 37.7236C18.0106 37.483 18.2456 36.443 18.3406 36.1942C18.3744 36.1067 18.7969 35.6386 18.8981 35.498C19.5344 34.6105 19.8763 33.8355 19.6669 32.7155C19.5319 31.993 18.9419 31.2998 18.7113 30.6011C18.7763 30.5411 20.1956 30.9605 20.435 30.983C20.8719 31.0242 21.3763 30.8711 21.79 30.7386C22.5475 30.4961 23.3331 30.1255 23.9188 29.5886C23.945 29.5361 23.8044 29.4998 23.7663 29.4842C22.4381 28.9473 21.2188 28.8892 19.8888 29.4811C19.7694 29.5342 19.2156 29.8548 19.1569 29.848C19.1281 29.8442 19.1131 29.8267 19.095 29.8073C18.9513 29.6542 18.6481 28.863 18.62 28.6486C18.615 28.6117 18.6044 28.578 18.6288 28.5442C19.0606 28.288 19.5038 28.0348 19.98 27.8686C21.2681 27.4186 22.4369 27.4461 23.7331 27.8461C24.1613 27.978 24.5294 28.1986 24.9331 28.3823C25.3156 28.1361 25.7181 27.9236 26.0919 27.663L26.0913 27.6623ZM22.9856 33.7198C22.8488 32.8692 23.0731 32.0898 23.275 31.2767C22.8706 31.488 22.4388 31.7423 22.0069 31.8886C21.655 32.008 21.33 32.048 20.9606 32.0805C21.2444 32.753 21.0938 33.5498 20.9288 34.2342C21.5131 33.873 22.2938 33.6255 22.9856 33.7198Z" fill="black"/>
  <path d="M17.1669 37.5136C17.1031 38.3392 17.7294 38.8098 18.5169 38.6067C18.385 38.9823 18.3625 39.4198 17.9994 39.648C17.7831 39.7836 17.4494 39.8923 17.2344 40.0398C16.8331 40.3155 16.5106 40.8236 16.2019 41.1936C15.4487 42.0961 14.4906 43.0836 14.3131 44.2911C14.3025 44.3642 14.3487 44.5873 14.2762 44.6367C14.2487 44.6555 13.7006 44.7117 13.6162 44.7161C13.4387 44.7255 13.2469 44.7217 13.0719 44.6898C12.9069 44.8055 12.4025 45.2923 12.5406 45.498C12.6675 45.6873 13.6662 45.7586 13.91 45.763C14.0862 45.7661 14.2956 45.718 14.4594 45.7186C14.5006 45.7186 14.5062 45.7292 14.5306 45.7592L13.6587 47.4586C13.5575 47.6092 13.5062 47.3592 13.4525 47.2886C13.2119 46.973 12.4825 46.3092 12.0737 46.3211C11.6194 46.3348 11.3487 46.8867 11.2594 47.278C11.2425 47.3523 11.2412 47.7298 11.1719 47.7361L9.80624 46.628C9.80624 46.5692 10.1731 46.4761 10.2569 46.4367C10.47 46.3355 10.7687 46.1148 10.8925 45.9155C11.0281 45.698 11.0475 45.5736 10.9462 45.3267C10.795 44.9567 10.0775 44.4761 9.72062 44.3017C9.66249 44.273 9.49874 44.2661 9.51562 44.1855L11.0587 42.9473C11.12 43.4192 11.2962 44.3692 11.605 44.7317C11.8856 45.0611 12.2469 44.3523 12.37 44.1473C12.2494 43.7505 12.1687 43.3292 12.1987 42.9136C12.9762 42.7305 13.5444 42.238 14.065 41.6617C14.475 41.208 14.9269 40.6236 15.3019 40.1336C15.5344 39.8292 15.8919 39.4042 16.0256 39.0573C16.12 38.813 16.1637 38.4936 16.2437 38.2467C16.2625 38.1898 16.3062 38.058 16.335 38.0161C16.3856 37.9423 17.1344 37.478 17.1669 37.5142V37.5136Z" fill="black"/>
  <path d="M34.6757 11.3008C34.5963 11.3883 34.4444 11.5927 34.3338 11.557C33.9982 11.3564 33.6682 11.1095 33.3269 10.9214C32.9188 10.6958 32.4763 10.5358 32.0625 10.3214C30.4313 9.47766 28.9263 8.56641 27.1644 7.95391C26.3832 7.68266 25.5625 7.55641 24.7438 7.44891C24.6082 7.34891 24.7325 7.36766 24.8082 7.33266C25.1863 7.15891 25.3919 7.03078 25.8294 7.00328C29.4425 6.77391 32.5357 7.62391 35.5344 9.61391C35.6469 9.68828 35.7563 9.80766 35.875 9.88141C35.4725 10.3502 35.0907 10.8439 34.675 11.3008H34.6757Z" fill="black"/>
  <path d="M30.8882 15.4204C30.8213 15.4404 30.7413 15.4379 30.6838 15.3973C29.0438 13.8873 27.2688 12.5285 25.6544 10.9916C25.71 10.986 25.7625 10.9935 25.8169 11.006C27.7363 11.4354 30.3919 12.6535 31.8744 13.9498C31.9075 13.9785 32.0088 14.0673 32.015 14.0985C32.0413 14.2316 31.0057 15.2216 30.8882 15.421V15.4204Z" fill="black"/>
  <path d="M18.8725 26.9037C18.8393 26.7593 18.8043 26.6124 18.7793 26.4662C18.4993 24.8555 18.2275 23.1343 18.0075 21.5155C17.9862 21.3599 17.9287 21.0099 17.9362 20.8762C17.94 20.8055 17.9675 20.7737 18.0193 20.7324L20.6081 26.2799C20.615 26.3449 20.58 26.3943 20.5187 26.4143C20.31 26.433 18.9431 26.9543 18.8725 26.9043V26.9037Z" fill="black"/>
  <path d="M28.6519 32.8601C28.7394 32.7713 28.8237 32.8651 28.8931 32.8769C30.825 33.2107 32.7119 33.7232 34.6319 34.1144C34.7356 34.1588 34.7387 34.2163 34.6319 34.2582C34.34 34.3732 33.5769 34.3401 33.2262 34.3638C31.9925 34.4469 30.7612 34.5451 29.5287 34.6201C29.2006 34.6401 28.8656 34.6469 28.5369 34.6482C28.4762 34.6294 28.4875 34.5044 28.49 34.4488C28.4981 34.2513 28.5644 34.0294 28.5806 33.8326C28.5931 33.6776 28.5856 32.9288 28.6531 32.8607L28.6519 32.8601Z" fill="black"/>
  <path d="M15.9244 29.6261C15.35 28.9967 14.8 28.3386 14.2256 27.708C14.045 27.5099 13.3531 26.873 13.2906 26.6817C13.2163 26.4536 13.4363 26.4105 13.6056 26.4955L17.57 28.6405C17.5688 28.8217 17.5406 28.9755 17.5613 29.1624C17.5831 29.3617 17.6775 29.613 17.765 29.7949C17.7938 29.8549 17.8969 29.963 17.9025 30.0124C17.915 30.133 17.7306 30.0386 17.6544 30.0317C17.3444 30.0049 16.9088 29.978 16.6131 30.0642C16.5444 30.0842 16.4763 30.1686 16.4163 30.1505C16.3888 30.1424 16.0975 29.7749 16.0438 29.7161C16.0069 29.6761 15.9531 29.6574 15.925 29.6267L15.9244 29.6261Z" fill="black"/>
  <path d="M25.6224 36.2598C25.9462 36.3623 26.2524 36.4498 26.5987 36.4166C26.7237 36.4048 26.9949 36.2916 27.0537 36.2923C27.0793 36.2923 27.1006 36.3035 27.1181 36.3216C28.1037 37.4391 29.0231 38.6123 30.0412 39.701C30.1243 39.8173 30.175 40.0473 29.9787 40.0566C29.7718 40.0666 29.1293 39.606 28.9112 39.481C27.9018 38.9035 26.8875 38.3341 25.8787 37.7548C25.7981 37.6891 25.8937 37.6191 25.9037 37.5548C25.9674 37.1616 25.7156 36.641 25.6218 36.2598H25.6224Z" fill="black"/>
  <path d="M17.5512 35.873C17.5424 35.8811 17.4543 35.8799 17.4306 35.8668C17.4118 35.8568 17.2168 35.5674 17.1856 35.518C16.4399 34.3611 16.2506 33.4449 16.4687 32.0743C16.4918 31.9286 16.6006 31.3636 16.6574 31.2661C16.7499 31.1061 17.4456 31.2074 17.6181 31.2599C17.6806 31.2793 17.9231 31.3999 17.9287 31.453C17.9331 31.4974 17.8062 31.9643 17.7881 32.0749C17.6693 32.8018 17.6512 33.4018 17.8718 34.1186L17.5518 35.8736L17.5512 35.873Z" fill="black"/>
  <path d="M24.7137 37.7634C24.6625 37.8159 23.9831 38.1034 23.8618 38.149C22.5943 38.6265 21.6362 38.6171 20.3731 38.1171C20.3237 38.0977 20.0331 37.9665 20.0275 37.9477C20.0212 37.9277 20.0181 37.8721 20.0481 37.8646L21.6025 37.2071C22.3062 37.1971 22.8768 37.1396 23.5318 36.8859C23.6643 36.8346 24.1918 36.5602 24.2618 36.554C24.4793 36.5346 24.885 37.5859 24.7137 37.7627V37.7634Z" fill="black"/>
  <path d="M15.6556 34.8774C15.7119 35.1637 15.8169 35.4699 15.9394 35.7349C16.035 35.9406 16.1694 36.1206 16.2663 36.3237L13.5175 36.6449C13.4381 36.6187 12.8869 36.7424 12.8913 36.6293L15.655 34.8774H15.6556Z" fill="black"/>
  <path d="M21.4107 39.4751L20.3013 42.5608C20.2288 42.5589 20.1738 42.0301 20.1607 41.9308C20.0401 41.0308 19.9694 40.1208 19.8676 39.2183C20.3769 39.3389 20.8776 39.4995 21.4107 39.4751Z" fill="black"/>
  <path d="M25.0113 38.9927L25.2044 41.3396L25.0581 41.3096C24.5256 40.7527 23.9619 40.2189 23.4681 39.6277C23.4481 39.6039 23.3419 39.5895 23.4225 39.5383C23.515 39.4789 24.0556 39.3727 24.2244 39.3158C24.4931 39.2245 24.7494 39.1002 25.0113 38.9939V38.9927Z" fill="black"/>
  <path d="M15.3668 31.2451L15.1581 32.9482C14.9175 32.7689 13.1062 31.772 13.0562 31.6432C13.0481 31.6232 13.0375 31.5651 13.0712 31.567L15.3668 31.2457V31.2451Z" fill="black"/>
</svg>