<svg width="50" height="50" viewBox="0 0 50 50" fill="none" xmlns="http://www.w3.org/2000/svg">
<path d="M48.6963 11.3288C48.4488 14.3013 47.7831 16.9919 46.3113 19.61C45.08 21.8 43.3713 23.34 41.0644 24.3369C40.2844 24.6738 39.5794 24.935 38.7231 24.9963C38.5225 24.7606 39.6525 23.4944 39.8331 23.1981C40.69 21.7938 41.7325 18.0456 41.0475 16.53C40.7269 15.8213 40.0763 15.0713 39.3175 15.7556C37.23 18.9306 36.415 22.385 35.7925 26.0831C35.7156 26.5406 35.7013 27.8469 35.4681 28.1125C35.3256 28.2744 34.0794 28.1625 33.7831 28.1356C33.2044 28.0831 32.5156 27.9706 31.9444 27.85C31.7113 27.8013 31.4644 27.575 31.2413 27.7169L27.6244 33.5219C27.1144 34.1963 27.4425 35.3719 27.2019 35.9625C27.0094 36.4356 26.0425 37.0806 25.8344 37.6425C25.5794 37.8575 24.3781 37.875 24.1594 37.7131C23.8875 37.0894 23.0225 36.4969 22.7556 35.9225C22.5906 35.5675 22.8194 34.0119 22.3369 33.4863L18.6825 27.8106C18.0381 27.8356 17.3656 28.0619 16.6969 28.135C16.2669 28.1819 15.455 28.245 15.0331 28.2338C14.8319 28.2288 14.6306 28.2213 14.4513 28.1194C13.9681 24.3181 13.4113 20.3819 11.4625 17.0256C10.8125 15.9063 10.1394 14.7275 9.09814 16.38C8.15877 17.8719 9.06127 20.7631 9.68127 22.3156C10.0775 23.3075 10.6538 24.0631 11.11 24.995C9.85314 24.8556 8.62877 24.1675 7.57252 23.5006C6.43877 22.7844 5.27127 21.9431 4.47814 20.8694C2.35564 17.9925 1.07752 13.465 1.32189 9.89814C1.43689 8.22564 2.54314 5.91689 3.27314 4.36939C3.51189 3.86314 3.77877 3.19564 4.18252 2.83252C4.38377 3.70564 4.03877 4.58002 3.99502 5.46064C3.90814 7.19564 4.47564 9.76064 5.25689 11.3175C5.46627 11.735 6.10314 12.845 6.51564 13.0131C7.41564 13.38 8.46314 12.5475 7.97189 11.5569C7.35314 10.3094 6.22127 9.04377 5.54877 7.79314C5.48689 7.68064 5.44564 7.54377 5.48627 7.41877C5.53502 7.26752 8.00814 5.70002 8.16314 5.73502C8.24439 5.75314 8.32127 5.82564 8.37877 5.88627C11.5363 10.4663 14.0913 15.7 18.2188 19.5038C18.9156 20.1463 19.6988 20.755 20.4469 21.3388C20.7594 21.5825 22.5694 22.7738 22.6369 22.8894C22.7756 23.1275 22.3088 23.855 22.1738 24.1C21.6631 25.0263 20.9994 25.8531 20.3575 26.6869C21.9169 28.8763 23.1538 31.3025 24.8213 33.4056C25.065 33.6069 25.3594 33.3725 25.5025 33.1544L29.6613 26.6831C29.7025 26.4081 29.245 26.1306 29.08 25.9119C28.83 25.5794 27.2356 23.165 27.37 22.9738C29.3131 21.4638 31.3819 20.0888 33.0919 18.3031C34.9038 16.4106 36.4056 13.9063 37.8575 11.71C39.1681 9.72815 40.3519 7.63627 41.7688 5.73877C41.8894 5.68564 43.0906 6.47939 43.2963 6.61627C43.7 6.88502 44.6638 7.29877 44.3975 7.81377L41.8813 11.7681C41.8438 13.1763 43.3944 13.6175 44.1894 12.4081C44.7769 11.515 45.9256 8.31127 45.9256 7.31064V3.15564C45.9256 3.13064 45.8406 3.05752 45.8313 2.97314L46.0169 2.92564C46.8081 5.03377 48.3163 7.28689 48.6025 9.52939C48.6331 9.77064 48.6888 10.2931 48.6963 10.4975C48.7056 10.7581 48.7175 11.0738 48.6963 11.3288Z" fill="white"/>
<path d="M37.4981 8.30504C37.6625 8.50441 37.6581 9.84816 37.5644 10.1238L35.03 14.0063C35.0138 13.4838 35.0538 10.0975 34.8469 9.89441C34.6725 9.72316 32.1613 8.98316 31.7244 8.86129C30.5219 8.52629 29.2894 8.29754 28.0831 7.97754C27.3231 7.77566 26.3088 7.33879 25.6125 7.20941C25.5075 7.19004 25.4581 7.14129 25.3756 7.26129C25.39 7.90004 25.2394 8.63379 25.2363 9.24566C25.1988 16.6057 25.5013 24.0075 25.2888 31.3707L25.0094 31.8282L21.66 26.7032C22.1969 25.9744 23.5338 24.3163 23.6644 23.4663C23.82 22.4544 23.3081 22.1044 22.6056 21.4894C21.395 20.4282 19.915 19.6082 18.6819 18.4869C15.9194 15.975 14.0788 12.7432 12.1294 9.61566C12.2494 9.40066 12.1663 8.77566 12.2338 8.66441C12.3063 8.54504 14.4338 7.56754 14.7419 7.43316C18.0475 5.99441 21.6575 5.38504 25.0088 4.07129C28.6775 5.32316 32.6844 5.95191 36.2006 7.61754C36.3725 7.69879 37.4513 8.24879 37.4981 8.30566V8.30504Z" fill="white"/>
<path d="M14.9888 46.2355L20.1519 43.7299L18.8675 38.8486L22.6106 39.4911L24.205 44.0536C23.545 44.798 22.7663 45.638 22.0088 46.2836C21.4881 46.7274 20.9269 47.1668 20.2063 47.1668C19.2844 47.1668 17.4169 46.7736 16.45 46.5755C15.9569 46.4743 15.4906 46.2924 14.9888 46.2349V46.2355Z" fill="white"/>
<path d="M31.2419 38.757L29.9575 43.6376L35.1206 46.1432C33.6956 46.4145 32.2575 46.7857 30.8131 46.962C29.3756 47.1376 29.0806 47.0276 28.0081 46.0989C27.7038 45.8351 25.9 44.1282 25.9031 43.8995L27.4981 39.3988L31.2413 38.7563L31.2419 38.757Z" fill="white"/>
<path d="M40.7525 33.4005C40.8381 33.4599 41.56 34.9724 41.7369 35.2343C41.8094 35.3412 42.0206 35.673 42.1075 35.6987C43.4544 35.358 44.7387 34.7043 45.88 33.9549C45.9762 33.9818 45.9237 34.178 45.9037 34.2555C45.4869 35.8343 44.55 37.7093 43.5219 38.9849C43.2731 39.2937 42.4487 40.1955 42.0969 40.2387C41.6856 40.2887 38.2187 40.1912 38.0756 40.0493C38.265 39.0074 38.0894 37.9174 38.165 36.8599C38.2519 35.6387 38.6337 35.8055 39.3244 35.0637C39.5487 34.8224 39.8462 34.4799 40.0544 34.2237C40.1744 34.0762 40.575 33.2774 40.7531 33.4012L40.7525 33.4005Z" fill="white"/>
<path d="M12.0338 40.1414C10.7781 40.222 9.35501 40.4501 8.10251 40.3326C7.62814 40.2882 6.89876 39.462 6.58751 39.077C5.47251 37.6995 4.50751 35.7851 4.18439 34.047C5.36376 34.7801 6.63626 35.4489 8.00189 35.7914C8.23376 35.7232 9.08126 33.9539 9.33064 33.6095C9.36376 33.5639 9.34626 33.4239 9.49251 33.4939C9.60564 33.5482 9.92314 34.1532 10.0556 34.317C10.5906 34.9795 11.2113 35.5626 11.8269 36.1476C12.0944 37.462 11.7944 38.8282 12.0344 40.142L12.0338 40.1414Z" fill="white"/>
<path d="M7.94997 25.0151C7.95997 26.3783 7.58872 27.8358 7.68935 29.202C7.74185 29.917 8.29747 31.2458 8.24497 31.7814C8.23435 31.8901 7.34935 33.5139 7.21622 33.7083C7.14997 33.8045 7.0681 33.9651 6.92497 33.9426C5.70122 33.1026 4.20685 32.4983 3.3606 31.2376C3.63935 28.6126 4.63935 26.1933 5.6631 23.7964L7.9506 25.0151H7.94997Z" fill="white"/>
<path d="M44.3094 23.6129C45.5394 25.9804 46.4475 28.5448 46.7419 31.2117C45.7919 32.4061 44.3994 33.0798 43.1207 33.8542C42.9963 33.8329 41.88 31.8548 41.8638 31.6886C41.8113 31.1504 42.3682 29.8267 42.4194 29.1092C42.4688 28.4179 42.3744 27.4161 42.3232 26.7048C42.2938 26.2936 42.0782 25.4942 42.1388 25.1379C42.2263 24.6261 44.0032 24.1586 44.3094 23.6123V23.6129Z" fill="white"/>
<path d="M9.57873 42.4114C9.45936 42.3082 8.91873 41.867 9.07873 41.712C10.6931 41.7157 12.3087 41.6295 13.905 41.4126C14.0031 41.3864 14.1544 41.337 14.2062 41.2507C14.3081 41.082 13.8844 38.0882 13.9731 37.4157C13.9869 37.3095 13.9362 37.2295 14.1087 37.2814C14.4069 37.3701 14.8362 37.7101 15.2031 37.8495C15.4594 37.947 16.6294 38.202 16.6981 38.2932L17.8319 42.9476C17.7969 43.1289 17.3469 43.3057 17.1744 43.3895C16.4206 43.7564 14.3631 44.6232 13.6037 44.8076C13.4987 44.8332 13.4012 44.8776 13.2887 44.8514C12.0956 44.107 10.6394 43.3301 9.57873 42.4107V42.4114Z" fill="white"/>
<path d="M36.1362 37.187C36.1894 38.4426 36.0075 39.6858 35.8506 40.9283C35.8456 41.0395 35.87 41.1258 35.95 41.2064C36.3012 41.5626 40.2912 41.5989 41.0306 41.6201C41.2325 41.817 40.2956 42.4939 40.1362 42.6183C39.4087 43.1845 38 44.1814 37.2006 44.577C37.0475 44.6526 36.9037 44.7414 36.7269 44.7564C35.4931 44.2351 34.1375 43.8826 32.9344 43.2976C32.7619 43.2139 32.3119 43.037 32.2769 42.8558L33.4106 38.2014C34.3694 37.9576 35.2525 37.6233 36.1356 37.187H36.1362Z" fill="white"/>
<path d="M21.73 35.4312L20.3444 34.463C18.8806 32.7724 17.1119 31.2262 16.19 29.1524C16.8281 29.1655 17.4663 29.0393 18.0888 28.9043L21.3781 33.9837C21.5338 34.4555 21.7806 34.9205 21.73 35.4312Z" fill="white"/>
<path d="M33.7356 29.1529C33.1056 30.2898 32.3294 31.4942 31.4744 32.4779C30.7394 33.3235 29.3344 34.7979 28.4725 35.4785C28.3794 35.5517 28.3538 35.6573 28.195 35.6154C28.315 35.0335 28.3356 34.4973 28.6044 33.9479L31.7538 29.0567L31.8513 28.9829L33.7363 29.1529H33.7356Z" fill="white"/>
</svg>
