<svg xmlns="http://www.w3.org/2000/svg" width="50" height="50" viewBox="0 0 50 50" fill="none">
  <path d="M5.48375 17.379C5.52813 16.3859 5.66688 15.3246 6.085 14.4015L6.46188 13.709C6.40688 14.6896 6.52688 15.6127 6.76063 16.5615C7.29063 18.7134 8.16813 21.4415 9.41125 23.2715C10.0575 24.2234 11.1638 24.9577 12.03 25.699C11.1106 26.1652 9.83875 26.1565 8.975 25.5427C7.31625 24.3634 5.71375 20.2134 5.48375 18.2359C5.45625 17.999 5.4725 17.6271 5.48375 17.3796V17.379Z" fill="black"/>
  <path d="M44.5162 17.3786C44.5275 17.6268 44.5437 17.998 44.5162 18.2349C44.2868 20.2124 42.6837 24.3624 41.025 25.5418C40.1618 26.1555 38.8893 26.1643 37.97 25.698C38.8362 24.9568 39.9425 24.2224 40.5887 23.2705C41.8312 21.4405 42.7093 18.7124 43.2393 16.5605C43.4731 15.6118 43.5931 14.6886 43.5381 13.708L43.915 14.4005C44.3331 15.3243 44.4712 16.3849 44.5162 17.378V17.3786Z" fill="black"/>
  <path d="M35.7675 41.4211C36.4181 40.5761 36.6943 39.5242 36.9106 38.4961C37.2906 36.6886 37.5 34.8567 37.5443 33.0117C37.5525 32.6692 37.6325 30.0461 37.2662 30.043C37.1037 30.3205 36.8556 30.4192 36.6543 30.5924C36.3393 30.863 36.0481 31.1749 35.7356 31.4474C35.4706 31.678 35.2768 31.5511 35.4781 32.0142C35.5543 32.1892 35.6956 32.3186 35.8187 32.458C33.2468 35.6942 31.8506 39.8361 32.5581 43.9892C31.4037 45.2105 30.2175 46.5049 28.9168 47.5705C28.5562 47.8661 27.905 48.4011 27.5293 48.6299C27.4125 48.7011 27.2856 48.7749 27.1425 48.7624C27.6781 45.5805 28.4275 42.4349 29.3893 39.3555C29.6887 38.3961 30.0193 37.3005 30.3837 36.373C30.8375 35.2174 31.7175 34.128 32.5862 33.2542L30.8131 31.9399C31.8725 31.3986 32.4856 30.2336 33.0143 29.2155L35.2825 27.5649C35.5087 27.4855 36.1375 27.7649 36.4162 27.7736C36.5487 27.778 36.9968 27.7342 37.14 27.713C37.335 27.6836 37.6412 27.5161 37.8181 27.5324C37.9418 27.5436 38.3762 28.198 38.47 28.3499C40.1918 31.1374 40.0231 33.6892 38.9512 36.683C38.4975 37.9511 37.0162 40.2342 36.075 41.2099C36.025 41.2617 35.8318 41.4836 35.7675 41.4217V41.4211Z" fill="black"/>
  <path d="M19.1881 31.9401L17.415 33.2545C18.2837 34.1282 19.1637 35.2176 19.6175 36.3732C19.9818 37.3007 20.3118 38.3963 20.6118 39.3557C21.5737 42.4357 22.3225 45.5776 22.8587 48.7626C22.805 48.8188 22.445 48.5945 22.3737 48.5451C20.5325 47.2638 18.965 45.6232 17.4431 43.9895C18.1506 39.8376 16.7543 35.6945 14.1825 32.4582C14.3056 32.3188 14.4468 32.1901 14.5231 32.0145C14.7237 31.5513 14.5306 31.6782 14.2656 31.4476C13.9531 31.1751 13.6618 30.8632 13.3468 30.5926C13.1456 30.4195 12.8975 30.3207 12.735 30.0432C12.6437 30.112 12.6187 30.2157 12.58 30.3151C12.1906 31.3107 12.5956 35.5538 12.785 36.7832C13.0275 38.3563 13.2868 40.1126 14.2337 41.4207C14.1693 41.4826 13.9762 41.2607 13.9262 41.2088C11.3168 38.5032 9.40122 33.8257 10.6843 30.1326C10.8262 29.7238 11.8087 27.6451 12.1337 27.5401C12.2912 27.4895 12.675 27.6845 12.8618 27.7126C13.005 27.7338 13.4531 27.7776 13.5856 27.7732C13.8643 27.7645 14.4931 27.4851 14.7193 27.5645L16.9875 29.2151C17.5162 30.2338 18.1293 31.3988 19.1887 31.9395L19.1881 31.9401Z" fill="black"/>
  <path d="M24.6331 37.5064C24.5744 37.4758 24.47 37.3645 24.4294 37.3152C24.0256 36.8208 23.5044 36.4677 23.0725 35.9777C22.9544 35.8433 22.2231 34.9195 22.1963 34.8352C22.1806 34.7877 22.1838 34.7408 22.1863 34.6927C24.0356 34.1864 23.4031 31.7627 22.7013 30.537C21.6881 28.7683 19.005 26.992 17.0163 28.197L15.7025 27.0102C16.9244 25.182 16.7838 22.7733 16.5231 20.6789C17.3713 20.3789 18.2756 20.2989 19.1406 20.0533C21.0144 19.5214 22.8213 18.5377 24.5088 17.5883C24.5463 17.5345 24.6338 17.6464 24.6338 17.6539V37.5064H24.6331Z" fill="black"/>
  <path d="M25.3668 17.6536C25.3712 17.6361 25.4556 17.5374 25.4918 17.588C27.1793 18.5374 28.9862 19.5212 30.8599 20.053C31.7256 20.2987 32.6293 20.3786 33.4774 20.6786C33.2162 22.7724 33.0756 25.1818 34.2981 27.0099L32.9843 28.1968C32.0587 27.5262 30.7524 27.8099 29.7737 28.2399C28.8818 28.6318 27.7831 29.6912 27.2987 30.5368C26.5968 31.7624 25.9643 34.1862 27.8137 34.6924C27.8162 34.7405 27.8193 34.7874 27.8037 34.8349C27.7762 34.9193 27.0456 35.843 26.9274 35.9774C26.4956 36.4674 25.9743 36.8205 25.5706 37.3149C25.5299 37.3649 25.4256 37.4761 25.3668 37.5061V17.6536Z" fill="black"/>
  <path d="M10.9906 1.22803L11.115 1.7449C11.025 4.34803 11.2131 6.98678 11.5412 9.57803C11.8156 11.7449 12.3437 14.3062 13.4044 16.2193C13.6531 16.668 14.0556 17.0474 14.235 17.5299C14.9812 19.5399 15.3156 22.438 15.0819 24.5599C15.0606 24.7505 14.7894 25.7174 14.6244 25.7562C14.4519 25.7205 14.3187 25.5787 14.1781 25.4787C12.9731 24.6199 11.7669 23.7212 10.9275 22.4893C7.53499 17.5068 7.98374 12.8049 9.05186 7.15115C9.43874 5.10303 10.2131 3.14865 10.9912 1.22865L10.9906 1.22803Z" fill="black"/>
  <path d="M38.9494 1.22803L39.2831 1.84178C39.9269 3.59678 40.5988 5.30303 40.9481 7.15115C41.3794 9.4324 41.8863 12.6818 41.7656 14.9655C41.6381 17.3799 40.4294 20.4974 39.0731 22.4899C38.2338 23.7224 37.0275 24.6212 35.8225 25.4793C35.6819 25.5793 35.5481 25.7212 35.3763 25.7568C35.2113 25.718 34.94 24.7512 34.9188 24.5605C34.685 22.438 35.0194 19.5405 35.7656 17.5305C35.945 17.048 36.3475 16.6687 36.5963 16.2199C38.5425 12.708 38.8969 6.52615 38.8856 2.54615C38.8844 2.1024 38.8819 1.66615 38.95 1.22865L38.9494 1.22803Z" fill="black"/>
  <path d="M16.3737 20.0098C16.4362 19.7004 16.075 18.9917 16.1956 18.7661C16.26 18.6461 16.8362 18.0548 16.9837 17.8973C18.9462 15.7998 20.7525 14.3835 23.5794 13.6029C23.9169 13.5098 24.5731 13.206 24.6356 13.6742C24.69 14.0829 24.6869 15.4073 24.6362 15.8223C24.6281 15.8898 24.6344 15.9554 24.5706 16.0017C21.9919 17.5985 19.3506 19.2848 16.3731 20.0098H16.3737Z" fill="black"/>
  <path d="M33.6263 20.0098C30.6494 19.2848 28.0075 17.5985 25.4288 16.0017C25.3657 15.9554 25.3719 15.8898 25.3632 15.8223C25.3125 15.4073 25.3094 14.0835 25.3638 13.6742C25.4263 13.206 26.0825 13.5098 26.42 13.6029C29.2469 14.3835 31.0532 15.7992 33.0157 17.8973C33.1632 18.0548 33.7394 18.6461 33.8038 18.7661C33.9244 18.9917 33.5632 19.7004 33.6257 20.0098H33.6263Z" fill="black"/>
  <path d="M10.4393 27.352C9.4487 28.9776 8.92182 30.752 9.00245 32.6733C8.93057 32.6201 8.8812 32.6208 8.82932 32.5358C8.5987 32.1583 7.99307 30.7183 7.8987 30.2901C7.69182 29.3526 7.73807 27.3633 8.51057 26.677C8.5737 26.6208 8.67307 26.5151 8.75745 26.5151C8.81682 26.5151 9.5487 27.0595 9.75432 27.1495C9.98245 27.2495 10.1949 27.3101 10.4399 27.352H10.4393Z" fill="black"/>
  <path d="M41.1332 32.5945L40.9682 32.6739C41.1175 30.7608 40.53 28.9689 39.5607 27.352C39.805 27.3101 40.0182 27.2495 40.2463 27.1495C40.4519 27.0595 41.1838 26.5151 41.2432 26.5151C41.7725 26.5133 42.155 28.0683 42.1907 28.4839C42.3325 30.1389 41.8188 31.1608 41.1338 32.5945H41.1332Z" fill="black"/>
</svg>