<svg width="50" height="50" viewBox="0 0 50 50" fill="none" xmlns="http://www.w3.org/2000/svg">
<path d="M26.5231 29.9967C26.5694 30.1811 26.7669 30.0342 26.8513 29.9529C27.2944 29.5242 27.4313 28.8098 27.8975 28.4011C27.9713 28.4011 28.7625 29.4592 28.7869 29.5786C28.8181 29.7292 28.7669 30.7261 28.7506 30.9611C28.7338 31.2111 28.59 31.4536 28.5994 31.7023C28.6113 32.0298 28.885 32.6029 28.8275 32.9629C28.805 33.1048 28.4038 33.5086 28.2913 33.6954C27.0488 35.7586 27.7263 37.4217 27.1694 39.4811C27.0481 39.9298 26.4031 41.5273 26.1656 41.8942C26.0775 42.0304 25.9375 42.2567 25.8644 42.0179C25.7694 41.7061 25.9425 41.1967 25.9319 40.8379C25.9119 40.1379 25.3888 38.9861 24.5888 39.6492C23.8831 40.2342 24.2688 41.0898 24.2206 41.8054C24.2119 41.9392 24.1888 42.1992 23.9981 42.1392C23.4656 40.8236 22.7719 39.6123 22.6613 38.1648C22.5338 36.4986 22.745 35.4129 21.8556 33.8454C21.7425 33.6467 21.2019 33.0123 21.1913 32.9579C21.1581 32.7898 21.4319 31.9454 21.4744 31.7067C21.4556 31.4761 21.3388 31.2661 21.3238 31.0348C21.3113 30.8392 21.2613 29.5904 21.285 29.5179C21.3488 29.3236 21.7288 29.0111 21.8119 28.7761L22.175 28.4004C22.43 28.4954 22.7538 29.4142 22.9569 29.6792C23.6294 30.5573 23.5925 29.7917 23.5506 29.1054C23.5013 28.2967 23.1888 27.0598 22.1763 27.0561C21.6963 27.0542 21.8706 27.4367 21.71 27.7836C21.6569 27.8986 20.9106 29.0367 20.8394 29.0673C20.7281 28.4873 19.6544 28.3073 19.5556 27.9004C19.5344 27.8123 19.4625 27.2517 19.4675 27.1767C19.4713 27.1236 19.8119 26.4242 19.8469 26.3992C19.8688 26.3836 20.2125 26.4811 20.3856 26.4636C21.4763 26.3529 21.6419 25.0929 20.8788 24.4979C20.7831 24.4236 20.0219 23.9767 19.9375 23.9523C19.7381 23.8948 19.7963 24.4604 19.6163 24.5767C19.4363 24.6929 19.0456 24.0092 18.9956 23.8561C18.8919 23.5367 18.6994 22.3986 18.8656 22.1354C19.0944 21.7742 19.7588 22.2329 20.04 22.2917C20.2463 22.3348 20.435 22.2773 20.6506 22.3492C21.0438 22.4798 21.7925 23.3117 21.9713 23.7029C22.1425 24.0786 22.1144 24.5511 22.3994 24.8329C22.6763 24.8336 22.5163 24.0354 22.4775 23.8654C22.4138 23.5867 22.03 22.6004 21.8738 22.3892C21.6344 22.0661 20.2438 21.0117 19.8569 20.9148C19.7488 20.8879 19.4788 20.9123 19.465 20.8986C19.39 20.8248 19.3531 18.9748 19.4063 18.7967C19.4594 18.6186 20.3338 17.6623 20.5088 17.2998C20.7994 16.6979 20.8238 15.4454 20.72 14.7786C20.6025 14.0192 20.2144 13.3179 20.0663 12.5867C20.4113 12.5336 21.1688 12.0936 21.4706 12.2436C21.57 12.2929 21.7519 12.6617 21.82 12.7867C22.0238 13.1579 22.4388 14.4217 22.7356 14.5504C23.0713 14.6961 23.1713 14.1329 23.0875 13.8973L22.2256 11.5629L22.2463 11.4679C23.785 9.80106 26.275 9.81669 27.825 11.4679C27.8769 11.5736 27.5525 12.2004 27.4856 12.3929C27.3469 12.7936 26.865 14.0592 26.9794 14.3873C27.0206 14.5067 27.2131 14.6023 27.3363 14.5511C27.7238 14.3892 28.1806 12.4536 28.6013 12.2442C28.8 12.1448 30.0025 12.4936 29.9988 12.7504C29.9963 12.8873 29.6075 13.7217 29.5306 13.9904C29.2606 14.9317 29.105 16.4792 29.5819 17.3554C29.7456 17.6561 30.635 18.6898 30.6663 18.7961C30.7231 18.9886 30.7 19.7279 30.6844 19.9723C30.6744 20.1254 30.6275 20.6811 30.5969 20.7761C30.5394 20.9579 30.2494 20.8698 30.0831 20.9311C29.6844 21.0773 28.5206 22.0104 28.2288 22.3448C27.9469 22.6673 27.4456 24.0786 27.4806 24.5004C27.4919 24.6342 27.525 24.7186 27.6356 24.7979C27.8625 24.8954 27.8656 24.3061 27.9088 24.1786C28.145 23.4767 28.6356 22.7292 29.3169 22.3929C29.5869 22.2598 29.8138 22.3354 30.0906 22.2754C30.4144 22.2061 30.9319 21.7417 31.2044 22.1917C31.3519 22.4354 31.1506 23.5254 31.0481 23.8273C31.0006 23.9667 30.6969 24.5167 30.6075 24.5754C30.3488 24.7448 30.3056 24.0348 30.1238 23.9448C29.65 24.3092 28.8631 24.4842 28.7538 25.1723C28.6494 25.8348 28.8775 26.2979 29.5613 26.4348C29.8669 26.4961 30.1113 26.3442 30.2663 26.5442C30.55 26.9098 30.6156 27.4504 30.5156 27.9004C30.4394 28.2429 29.8375 28.3592 29.57 28.5892C29.4031 28.7329 29.3356 28.9711 29.1206 29.0673C29.0113 28.5998 28.55 28.1936 28.3625 27.7823C28.1269 27.2648 28.3975 26.9354 27.6144 27.0804C27.25 27.1479 27.0925 27.3336 26.905 27.6329C26.69 27.9761 26.52 28.4798 26.52 28.8823C26.52 29.1579 26.4669 29.7823 26.52 29.9967H26.5231ZM24.7406 16.4048V31.0367C24.7406 31.1186 24.3375 31.2798 24.3106 31.4242C24.2894 31.8479 23.7338 32.7454 23.8875 33.0779C23.9925 33.3048 24.4088 33.5142 24.5306 33.9198C24.7463 34.6336 24.6419 35.6092 24.7488 36.3754C24.7706 36.5336 24.8969 37.5367 25.1106 37.3867C25.1619 37.3511 25.315 36.3279 25.3331 36.1604C25.4113 35.4473 25.3094 34.1923 25.6719 33.6023C25.7975 33.3973 26.2306 33.1098 26.2325 32.8961C26.2331 32.8167 25.7656 31.4648 25.7225 31.3911C25.605 31.1904 25.3719 31.1867 25.3356 30.9611L25.2975 16.4417C25.215 16.2511 24.7938 16.2317 24.74 16.4048H24.7406Z" fill="white"/>
<path d="M1.19562 27.4338C1.81812 26.8401 2.43874 26.2657 2.85874 25.4957C3.49749 24.3226 4.24624 21.662 4.24062 20.342C4.23874 19.9557 4.08874 19.3913 4.08624 19.0051C4.08312 18.5663 4.20312 18.0995 4.16562 17.5951C4.06687 16.2838 3.37749 14.8163 3.42124 13.5801C3.51749 10.847 4.05687 8.78197 6.97562 8.1476C8.14499 7.89322 10.2937 7.66384 11.3619 8.17072C13.3519 9.11447 15.8525 11.3007 17.4987 12.8038C17.6181 12.9126 17.7981 12.9376 17.91 13.0607C18.4319 13.6382 18.5594 15.937 18.4212 16.697C18.1319 18.2863 16.2825 18.6376 14.9337 18.3395C13.9381 18.1195 12.6325 17.2432 12.0019 16.4438C11.5181 15.8301 11.7719 15.5995 11.555 14.9595C11.3437 14.3376 10.3525 12.887 9.76374 12.5913C8.86374 12.1395 7.20124 12.5451 7.07249 13.6657C7.03124 14.022 7.13624 14.2451 7.14062 14.5457C7.20874 19.1882 6.77374 23.2151 3.20187 26.5082C2.69437 26.9763 1.92562 27.7301 1.19562 27.4345V27.4338Z" fill="white"/>
<path d="M39.2788 7.91814C40.4232 7.70439 43.4075 8.01752 44.4488 8.58064C46.2444 9.55189 46.6357 11.8375 46.6363 13.7313C46.6363 14.8394 46.0106 16.2063 45.9094 17.3719C45.6594 20.2619 45.97 24.3163 47.9857 26.5825C48.1457 26.7625 48.7094 27.1938 48.7694 27.2844C48.9419 27.545 48.4094 27.5225 48.2644 27.4919C47.5781 27.3469 46.0763 25.75 45.6132 25.1669C42.795 21.6169 42.9732 18.2438 43.0175 13.9531C43.0244 13.3131 42.76 12.9706 42.2169 12.6681C40.5488 11.74 39.2 13.3263 38.6 14.7413C38.2669 15.5269 38.59 15.7938 37.9582 16.5506C37.455 17.1538 36.4425 17.8844 35.7082 18.1631C34.1438 18.7569 31.825 18.4669 31.5807 16.47C31.4938 15.7575 31.6732 13.7163 32.09 13.1338C32.2175 12.9556 32.4938 12.8725 32.6494 12.7275C33.8669 11.5925 35.3482 10.3375 36.7044 9.35502C37.1282 9.04752 38.8469 7.99752 39.2775 7.91752L39.2788 7.91814Z" fill="white"/>
<path d="M19.3925 30.1824C17.9669 29.5349 16.5887 28.7768 15.24 27.9849C14.1806 27.0261 12.9406 26.2743 11.8556 25.353C11.5825 25.1211 10.8281 24.488 10.7031 24.2024C10.6469 24.0743 10.755 24.1049 10.805 24.0849C11.015 24.0011 11.2744 23.9636 11.4844 23.8711C12.8594 23.268 13.6887 22.0893 13.7506 20.5661C13.7719 20.0443 13.4831 19.7061 13.525 19.1905C13.7362 19.1636 13.7775 19.4086 13.9037 19.5168C15.2625 20.6818 16.6037 22.0543 17.3262 23.7449C17.695 24.6074 17.7487 25.9774 18.0356 26.9718C18.21 27.5761 18.4581 28.2455 18.7106 28.8224C18.9144 29.288 19.1806 29.7224 19.3919 30.183L19.3925 30.1824Z" fill="white"/>
<path d="M36.55 19.1907C36.4706 19.687 36.3013 20.1351 36.3244 20.6414C36.3581 21.3632 36.5663 22.072 36.9969 22.642C37.6688 23.5314 38.3819 23.7676 39.3706 24.2032C38.9763 24.5632 38.6213 25.0064 38.2188 25.352C37.2881 26.1526 35.8744 27.2332 34.865 27.9401C33.5819 28.8382 31.9713 29.4689 30.6088 30.2564L31.2656 29.0201C32.2538 27.4157 32.12 24.987 32.8975 23.4476C33.7025 21.8539 34.935 20.4089 36.3263 19.3001C36.4013 19.2407 36.4225 19.157 36.55 19.1901V19.1907Z" fill="white"/>
<path d="M37.2925 27.6575L37.6519 28.6732L38.1844 29.6625C36.5813 29.5869 35.6556 30.9213 35.5844 32.4107L32.2444 30.5169L36.47 28.3563C36.6131 28.2844 37.1781 27.5538 37.2931 27.6569L37.2925 27.6575Z" fill="white"/>
<path d="M17.7562 30.4095C17.7687 30.4283 17.7668 30.6083 17.755 30.6233C17.1956 30.8758 16.5318 31.137 16.0006 31.432C15.82 31.5326 14.4787 32.4808 14.4175 32.4101C14.4931 31.147 13.6956 29.9358 12.4293 29.6814C12.2887 29.6533 11.8212 29.7295 11.8925 29.552C12.3287 29.047 12.4831 28.3089 12.7668 27.7501C12.9056 27.477 13.1187 27.9739 13.2625 28.1058C13.8987 28.6883 16.3775 29.792 17.2868 30.2458C17.3931 30.2989 17.7431 30.3889 17.7562 30.4095Z" fill="white"/>
<path d="M33.5794 19.636C33.5944 19.7504 33.5787 19.8092 33.5094 19.9004C33.4681 19.9548 32.6444 20.546 32.5594 20.5842C32.3562 20.6748 31.3756 20.9529 31.2344 20.7548C31.2169 20.1754 31.43 19.5535 31.5006 18.9673C32.1819 19.2279 32.855 19.5104 33.58 19.636H33.5794Z" fill="white"/>
<path d="M18.575 18.9673C18.5468 19.4573 18.8768 20.2085 18.8687 20.6454C18.8668 20.7373 18.8381 20.7835 18.75 20.8123C18.5625 20.8729 17.755 20.7023 17.5543 20.6198C17.4318 20.5692 16.4243 19.8185 16.4231 19.7473L18.575 18.9673Z" fill="white"/>
</svg>
