<svg xmlns="http://www.w3.org/2000/svg" width="50" height="50" viewBox="0 0 50 50" fill="none">
  <path d="M28.6456 33.6299L29.2763 32.678C29.9613 31.3824 30.03 30.393 29.4306 29.038C29.0531 28.1843 28.2194 27.6086 28.1319 26.7011C29.2006 26.8086 29.805 25.4868 30.0381 24.6293C30.415 23.2443 29.8425 21.8818 30.0138 20.4568C28.8594 20.7855 27.7394 20.9268 26.7706 21.7036C25.5981 22.6449 25.465 23.8618 25.5656 25.2893C25.58 25.4911 25.6788 25.618 25.7025 25.7536C25.7525 26.0318 25.3613 25.8436 25.1844 25.8411C24.5806 25.833 23.82 25.7936 23.235 25.8668C20.88 26.1624 18.9306 28.3536 16.4506 28.1586C15.6619 28.0968 15.2713 27.0924 14.7725 28.1824C14.5731 28.618 14.5594 29.428 14.6238 29.9005C14.6938 30.4149 15.7019 31.7636 16.0706 32.218C17.5069 33.9893 19.6369 34.9911 21.8881 35.2549C21.9069 35.4043 21.8775 35.5211 21.8206 35.658C21.58 36.2405 20.9194 37.0655 20.5719 37.6599C20.4244 37.9118 20.2813 38.5049 20.0038 38.6318C19.4925 38.8655 18.1669 37.8324 17.585 37.6318C16.1544 37.138 15.4356 37.3818 14.2763 36.0643C12.4538 33.993 11.6144 31.8374 12.05 29.053C12.0881 28.808 12.645 27.2055 12.7475 27.1424C12.86 27.073 13.4088 27.1574 13.6269 27.123C14.3531 27.0086 15.6269 24.7499 15.8525 24.0449C16.1188 23.2143 16.2531 21.9711 16.3188 21.088C16.3319 20.9118 16.1094 20.4649 16.5388 20.4574C16.7119 20.4543 17.5219 20.8318 17.92 20.8724C19.3294 21.0161 19.1956 20.5774 19.9613 19.7699C20.4256 19.2799 21.4725 18.1643 22.1831 18.233C22.4063 18.2543 23.6213 19.4061 24.0344 19.6336C26.3444 20.9049 27.2475 19.743 29.2869 19.6018C31.0856 19.4774 30.7213 20.7355 31.4988 21.7955C32.0319 22.523 33.01 22.4605 33.6481 22.9368C34.9325 23.8955 35.8356 28.0943 35.2463 29.4949C34.6919 30.8124 33.2063 32.0536 31.9825 32.7318C31.6731 32.903 30.125 33.6286 29.885 33.6286H28.6444L28.6456 33.6299ZM21.9725 19.3443C21.8394 19.3124 21.8356 19.3661 21.765 19.4355C21.4 19.7961 19.9919 21.568 19.7881 21.9924C18.9525 23.733 20.3188 25.2286 22.1006 25.0743C22.7175 25.0205 23.3556 24.6886 24.0256 24.818C23.7669 22.8455 22.4956 21.2305 21.9725 19.3436V19.3443Z" fill="black"/>
  <path d="M45.8406 29.0104C45.6775 28.2436 44.69 28.0598 44.0206 28.1754C43.3856 28.2854 42.5225 29.1536 42.2106 29.7017C41.725 30.5561 42.0181 30.3654 42.2506 31.1017C42.6937 32.5042 42.6619 34.8692 42.3075 36.3004C41.6325 39.0261 40.4681 41.6729 38.0487 43.2479C37.8012 43.4092 35.6525 44.3173 35.6606 43.7667C35.6612 43.7142 36.3806 43.3792 36.5562 43.2098C36.7319 43.0404 37.3256 42.2323 36.8887 42.1042C36.6781 42.0423 35.2056 42.6929 34.8031 42.6123C35.1319 43.7992 34.4725 45.0686 33.5206 45.7754C33.6319 45.9248 34.8187 45.7498 34.8031 46.2892C33.6606 46.5036 33.0831 47.3648 31.8944 47.7004C29.9631 48.2454 27.0831 48.1011 25.3069 47.1042C23.21 45.9267 22.4675 42.5954 22.7494 40.3517C22.7862 40.0592 23.1144 39.0573 23.3025 38.8523C23.7825 38.3292 24.08 39.2486 24.2806 39.1036C24.4562 38.7442 24.445 38.3442 24.5625 37.9729C25.0837 36.3254 27.7144 34.7836 29.3687 34.6529C29.9206 34.6092 30.5256 34.6979 31.0819 34.6548C32.6194 34.5361 35.0369 33.3311 35.9356 32.0667C36.6706 31.0323 36.9506 29.8217 37.8394 28.7529C39.3981 26.8786 42.3619 25.7267 44.7256 26.6592C45.5237 26.9742 47.1569 28.3861 45.8406 29.0104ZM38.2269 35.5967C38.33 35.2236 38.5519 34.8904 38.6337 34.5073C38.905 33.2342 38.525 32.5873 39.27 31.2942C39.3975 31.0723 40.02 30.3967 40.0212 30.3361C40.025 30.1642 39.5044 30.2061 39.3912 30.2179C38.0056 30.3617 37.9819 31.7067 37.5175 32.7067C37.1431 33.5136 36.4237 34.3954 35.6869 34.8967C35.2256 35.2104 32.9556 36.5267 32.5381 36.5267C32.2019 36.5267 31.5444 36.0917 31.0744 36.0348C27.5081 35.5998 24.4494 40.0648 24.8937 43.3273C25.4012 47.0548 30.3556 47.9292 32.5325 45.0873C33.2206 44.1886 33.485 43.2392 32.9706 42.1798C32.3687 40.9411 29.9419 40.4523 29.3737 42.0992C28.9712 43.2661 29.7137 43.9711 30.8706 43.8954C30.7112 45.0798 28.9675 45.0986 28.215 44.3692C26.4819 42.6898 27.1487 40.3679 29.1337 39.2923C32.4562 37.4923 33.8556 41.5698 36.9762 40.2917C39.4 39.2986 39.8625 37.8842 39.9412 35.3873C39.9562 34.9154 39.8831 34.5898 39.7662 34.1429C39.4931 34.3579 39.4969 34.7804 39.2475 35.0348C39.1619 35.1223 38.2812 35.6517 38.2275 35.5967H38.2269Z" fill="black"/>
  <path d="M13.6756 48.5145C15.1318 47.2695 16.5418 45.7338 17.1818 43.8951C16.2506 44.8088 15.1756 45.5607 13.9337 45.9926C12.2993 46.5607 10.0737 46.0726 8.79933 44.9226C10.2975 44.9426 11.8112 44.6382 13.1843 44.0457C14.0443 43.6745 14.9093 43.2088 15.4712 42.4413C13.3106 42.7707 11.4006 43.732 9.18245 43.0407C8.07558 42.6957 7.44933 42.3707 6.5737 41.6288C5.85933 41.0238 3.6587 38.8088 3.6637 37.9507C3.66433 37.8188 3.64183 37.8007 3.79183 37.8232C4.9362 38.3863 6.03058 39.0913 7.24183 39.507C8.9062 40.0782 11.5568 40.7313 13.2825 40.4651C13.65 40.4082 14.0462 40.1945 14.445 40.2157C14.4118 40.0445 14.2643 40.0757 14.1456 40.0457C11.9256 39.4876 10.495 39.5488 8.58808 38.0757C5.72745 35.8657 4.83495 33.8845 5.12745 30.1795C5.15058 29.8832 5.32245 28.2163 5.63683 29.1363C6.76308 32.4307 9.59558 36.0657 12.9062 37.3501C15.7143 38.4395 19.1643 38.8351 20.5918 42.0682C21.5275 44.187 20.6556 45.1732 19.4568 46.7257C19.2725 46.9645 19.1768 47.4382 18.8062 47.4438C18.9825 46.467 19.275 45.2676 19.1493 44.2782C19.1343 44.1588 19.1043 44.032 18.9793 44.152C18.8068 44.3176 18.535 45.7132 18.3706 46.0676C17.8906 47.1001 16.1731 48.5145 15.0006 48.5145H13.675H13.6756Z" fill="black"/>
  <path d="M26.3356 12.5861C25.0988 12.2436 23.5363 14.3842 24.6225 15.2842C25.6075 16.0998 26.9244 14.7555 27.3188 13.8686C27.8225 12.7361 28.0756 10.2686 26.9294 9.46983C26.0081 8.82796 25.4494 9.04421 24.6325 9.64296C23.965 10.1323 23.725 10.4855 23.4225 11.2561C23.3613 11.413 23.1875 12.4011 23.0188 11.5842C22.5075 9.11233 24.9469 7.45171 25.1369 5.44296C25.2256 4.50296 25.0419 2.84296 24.325 2.15171C24.1281 1.96233 23.5406 1.75921 23.5131 1.72233C23.3731 1.53358 23.7306 1.44546 23.9425 1.50546C25.895 2.05858 27.2088 4.28483 28.0288 5.97608C29.1788 8.34858 30.8975 12.3761 30.0769 15.0023C29.6906 16.2392 28.3544 17.8723 27.0431 18.1273C23.5563 18.8042 21.3925 14.3473 24.3413 12.2605C25.06 11.7517 25.9606 11.6767 26.3363 12.5873L26.3356 12.5861Z" fill="black"/>
  <path d="M36.6863 16.3495C35.1857 16.0408 34.3107 18.1489 35.4007 19.047C36.6601 20.0852 38.0251 17.6995 38.1013 16.6102C38.1269 16.242 37.9882 15.4214 37.8157 15.092C37.5419 14.5683 36.4501 14.0058 35.8763 14.0364C34.4144 14.1158 32.5244 17.1464 32.5794 18.5739C32.1269 18.2983 31.8001 17.6708 31.7319 17.1552C31.3651 14.3708 34.4682 13.487 35.8782 11.9058C36.5919 11.1058 36.4001 8.87641 35.9626 7.96328L35.1469 6.76953C37.1701 7.69328 38.9482 10.5658 39.2419 12.7245C39.3294 13.367 39.2732 14.0652 39.3394 14.6802C39.5726 16.8558 40.2544 18.2945 38.6038 20.1914C37.6069 21.3377 36.0732 21.4758 34.8019 20.672C33.2082 19.6645 33.3751 16.9114 35.0307 16.1052C35.6869 15.7858 36.2394 15.6245 36.6863 16.3483V16.3495Z" fill="black"/>
  <path d="M16.4132 14.9819C17.6163 15.3344 18.5613 13.9369 17.9057 12.9325C17.7269 12.6588 16.8125 11.6906 16.5432 11.4725C14.7882 10.0525 13.7007 12.7556 14.1844 14.2588C14.5294 15.3319 15.7932 16.8788 16.9763 17.0269C17.5713 17.1013 18.7288 16.5538 18.445 17.5706C18.2532 18.2575 17.4525 18.5731 16.7969 18.5813C14.2 18.6156 12.2419 16.5725 12.3082 13.9981C12.3588 12.0188 13.8957 7.63814 14.8563 5.85439C14.9575 5.66689 15.1363 5.49502 15.2582 5.31689L15.4088 7.47439C15.8719 9.71002 17.7713 9.55127 18.9788 10.8331C19.3425 11.2194 20.0657 12.5463 20.1663 13.0675C20.5157 14.8775 19.3163 16.3288 17.415 15.9044C17.2238 15.8619 16.2563 15.1138 16.4138 14.9819H16.4132Z" fill="black"/>
  <path d="M8.79875 13.6132C8.82875 13.6357 9.06813 14.2088 9.09938 14.2976C9.64938 15.8663 9.56688 17.0882 10.9838 18.3157C12.4019 19.5444 14.3581 19.7869 13.675 22.3382C13.4906 22.2444 13.4744 21.9257 13.3663 21.7501C12.8675 20.9351 11.3431 20.1644 10.38 20.2838C8.36563 20.5344 9.07063 23.8351 10.5613 24.0419C10.7819 24.0726 11.7094 24.1401 11.8994 24.1194C12.5644 24.0476 12.8006 23.2963 12.8644 23.2801C13.2944 23.1701 13.3756 24.7807 12.5919 25.3182C10.8125 26.5382 8.02063 24.4338 7.2825 22.7863C6.80125 21.7126 6.56625 19.6713 7.07313 18.6019C7.2175 18.2976 7.5275 18.0182 7.67438 17.7488C8.02688 17.1007 8.42563 15.6551 8.51938 14.9157C8.5375 14.7719 8.46125 13.3607 8.79813 13.6138L8.79875 13.6132Z" fill="black"/>
  <path d="M26.4568 28.6329C26.6193 28.8085 26.8387 28.9898 26.8481 29.2673C26.5862 28.9992 26.1562 28.9385 25.7837 28.9223C24.4856 28.8654 23.1537 29.1442 22.185 30.0354C21.7181 30.4648 21.5375 31.1948 20.7512 30.7885C20.2562 30.5329 20.3887 29.5635 20.6168 29.1517C21.6837 27.2254 25.0618 27.1304 26.4568 28.6329Z" fill="black"/>
</svg>